<?xml version="1.0" encoding="us-ascii" standalone="no"?><svg xmlns="http://www.w3.org/2000/svg" xmlns:xlink="http://www.w3.org/1999/xlink" contentStyleType="text/css" height="416px" preserveAspectRatio="none" style="width:491px;height:416px;background:#FFFFFF;" version="1.1" viewBox="0 0 491 416" width="491px" zoomAndPan="magnify"><defs/><g><!--cluster lapr4.shodrone.infrastructure.persistence--><g id="cluster_lapr4.shodrone.infrastructure.persistence"><path d="M8.5,6 L305.5,6 A3.75,3.75 0 0 1 308,8.5 L315,29.6094 L481.5,29.6094 A2.5,2.5 0 0 1 484,32.1094 L484,387.5 A2.5,2.5 0 0 1 481.5,390 L8.5,390 A2.5,2.5 0 0 1 6,387.5 L6,8.5 A2.5,2.5 0 0 1 8.5,6 " fill="none" style="stroke:#000000;stroke-width:1.5;"/><line style="stroke:#000000;stroke-width:1.5;" x1="6" x2="315" y1="29.6094" y2="29.6094"/><text fill="#000000" font-family="sans-serif" font-size="14" font-weight="bold" lengthAdjust="spacing" textLength="296" x="10" y="22.5332">lapr4.shodrone.infrastructure.persistence</text></g><!--class PersistenceContext--><a href="PersistenceContext.html" target="_top" title="PersistenceContext.html" xlink:actuate="onRequest" xlink:href="PersistenceContext.html" xlink:show="new" xlink:title="PersistenceContext.html" xlink:type="simple"><g id="elem_PersistenceContext"><rect codeLine="5" fill="#F1F1F1" height="83.2188" id="PersistenceContext" rx="2.5" ry="2.5" style="stroke:#181818;stroke-width:0.5;" width="234" x="128" y="42"/><ellipse cx="179.75" cy="58" fill="#ADD1B2" rx="11" ry="11" style="stroke:#181818;stroke-width:1.0;"/><path d="M182.5156,53.875 Q182.6719,53.6563 182.8594,53.5469 Q183.0469,53.4375 183.2656,53.4375 Q183.6406,53.4375 183.875,53.7031 Q184.1094,53.9531 184.1094,54.5625 L184.1094,56.0156 Q184.1094,56.625 183.875,56.8906 Q183.6406,57.1563 183.2656,57.1563 Q182.9219,57.1563 182.7188,56.9531 Q182.5156,56.7656 182.4063,56.25 Q182.3594,55.8906 182.1719,55.7031 Q181.8438,55.3281 181.2344,55.1094 Q180.625,54.8906 180,54.8906 Q179.2344,54.8906 178.5938,55.2188 Q177.9688,55.5469 177.4688,56.2969 Q176.9844,57.0469 176.9844,58.0781 L176.9844,59.1719 Q176.9844,60.4063 177.875,61.2344 Q178.7656,62.0469 180.3594,62.0469 Q181.2969,62.0469 181.9531,61.7969 Q182.3438,61.6406 182.7656,61.2031 Q183.0313,60.9375 183.1719,60.8594 Q183.3281,60.7813 183.5313,60.7813 Q183.8594,60.7813 184.1094,61.0469 Q184.375,61.2969 184.375,61.6406 Q184.375,61.9844 184.0313,62.3906 Q183.5313,62.9688 182.7344,63.2969 Q181.6563,63.75 180.3594,63.75 Q178.8438,63.75 177.6406,63.125 Q176.6563,62.625 175.9688,61.5625 Q175.2813,60.4844 175.2813,59.2031 L175.2813,58.0469 Q175.2813,56.7188 175.8906,55.5781 Q176.5156,54.4219 177.6094,53.8125 Q178.7031,53.1875 179.9375,53.1875 Q180.6719,53.1875 181.3125,53.3594 Q181.9688,53.5156 182.5156,53.875 Z " fill="#000000"/><text fill="#000000" font-family="sans-serif" font-size="14" lengthAdjust="spacing" textLength="122" x="200.25" y="63.7285">PersistenceContext</text><line style="stroke:#181818;stroke-width:0.5;" x1="129" x2="361" y1="74" y2="74"/><rect fill="none" height="6" style="stroke:#C82930;stroke-width:1.0;" width="6" x="136" y="85.3047"/><text fill="#000000" font-family="sans-serif" font-size="14" lengthAdjust="spacing" text-decoration="underline" textLength="113" x="148" y="92.5332">LOGGER: Logger</text><line style="stroke:#181818;stroke-width:0.5;" x1="129" x2="361" y1="99.6094" y2="99.6094"/><ellipse cx="139" cy="113.9141" fill="#84BE84" rx="3" ry="3" style="stroke:#038048;stroke-width:1.0;"/><text fill="#000000" font-family="sans-serif" font-size="14" lengthAdjust="spacing" text-decoration="underline" textLength="208" x="148" y="118.1426">repositories(): RepositoryFactory</text></g></a><!--class RepositoryFactory--><a href="RepositoryFactory.html" target="_top" title="RepositoryFactory.html" xlink:actuate="onRequest" xlink:href="RepositoryFactory.html" xlink:show="new" xlink:title="RepositoryFactory.html" xlink:type="simple"><g id="elem_RepositoryFactory"><rect codeLine="10" fill="#F1F1F1" height="171.2656" id="RepositoryFactory" rx="2.5" ry="2.5" style="stroke:#181818;stroke-width:0.5;" width="445" x="22.5" y="203"/><ellipse cx="182.75" cy="219" fill="#B4A7E5" rx="11" ry="11" style="stroke:#181818;stroke-width:1.0;"/><path d="M183.7031,215.6406 L183.7031,222.2969 L185.4219,222.2969 Q186.0313,222.2969 186.2969,222.5313 Q186.5625,222.7656 186.5625,223.1563 Q186.5625,223.5313 186.2969,223.7656 Q186.0313,224 185.4219,224 L180.2813,224 Q179.6719,224 179.4063,223.7656 Q179.1406,223.5313 179.1406,223.1406 Q179.1406,222.7656 179.4063,222.5313 Q179.6719,222.2969 180.2813,222.2969 L182,222.2969 L182,215.6406 L180.2813,215.6406 Q179.6719,215.6406 179.4063,215.4063 Q179.1406,215.1719 179.1406,214.7813 Q179.1406,214.4063 179.4063,214.1719 Q179.6719,213.9375 180.2813,213.9375 L185.4219,213.9375 Q186.0313,213.9375 186.2969,214.1719 Q186.5625,214.4063 186.5625,214.7813 Q186.5625,215.1719 186.2969,215.4063 Q186.0313,215.6406 185.4219,215.6406 L183.7031,215.6406 Z " fill="#000000"/><text fill="#000000" font-family="sans-serif" font-size="14" font-style="italic" lengthAdjust="spacing" textLength="116" x="203.25" y="224.7285">RepositoryFactory</text><line style="stroke:#181818;stroke-width:0.5;" x1="23.5" x2="466.5" y1="235" y2="235"/><line style="stroke:#181818;stroke-width:0.5;" x1="23.5" x2="466.5" y1="243" y2="243"/><ellipse cx="33.5" cy="257.3047" fill="#84BE84" rx="3" ry="3" style="stroke:#038048;stroke-width:1.0;"/><text fill="#000000" font-family="sans-serif" font-size="14" font-style="italic" lengthAdjust="spacing" textLength="311" x="42.5" y="261.5332">newTransactionalContext(): TransactionalContext</text><ellipse cx="33.5" cy="274.9141" fill="#84BE84" rx="3" ry="3" style="stroke:#038048;stroke-width:1.0;"/><text fill="#000000" font-family="sans-serif" font-size="14" font-style="italic" lengthAdjust="spacing" textLength="285" x="42.5" y="279.1426">users(TransactionalContext): UserRepository</text><ellipse cx="33.5" cy="292.5234" fill="#84BE84" rx="3" ry="3" style="stroke:#038048;stroke-width:1.0;"/><text fill="#000000" font-family="sans-serif" font-size="14" font-style="italic" lengthAdjust="spacing" textLength="151" x="42.5" y="296.752">users(): UserRepository</text><ellipse cx="33.5" cy="310.1328" fill="#84BE84" rx="3" ry="3" style="stroke:#038048;stroke-width:1.0;"/><text fill="#000000" font-family="sans-serif" font-size="14" font-style="italic" lengthAdjust="spacing" textLength="309" x="42.5" y="314.3613">utentes(TransactionalContext): UtenteRepository</text><ellipse cx="33.5" cy="327.7422" fill="#84BE84" rx="3" ry="3" style="stroke:#038048;stroke-width:1.0;"/><text fill="#000000" font-family="sans-serif" font-size="14" font-style="italic" lengthAdjust="spacing" textLength="175" x="42.5" y="331.9707">utentes(): UtenteRepository</text><ellipse cx="33.5" cy="345.3516" fill="#84BE84" rx="3" ry="3" style="stroke:#038048;stroke-width:1.0;"/><text fill="#000000" font-family="sans-serif" font-size="14" font-style="italic" lengthAdjust="spacing" textLength="419" x="42.5" y="349.5801">signupRequests(TransactionalContext): SignupRequestRepository</text><ellipse cx="33.5" cy="362.9609" fill="#84BE84" rx="3" ry="3" style="stroke:#038048;stroke-width:1.0;"/><text fill="#000000" font-family="sans-serif" font-size="14" font-style="italic" lengthAdjust="spacing" textLength="285" x="42.5" y="367.1895">signupRequests(): SignupRequestRepository</text></g></a><!--link PersistenceContext to RepositoryFactory--><g id="link_PersistenceContext_RepositoryFactory"><path codeLine="22" d="M245,125.09 C245,147.42 245,170 245,196.93 " fill="none" id="PersistenceContext-to-RepositoryFactory" style="stroke:#181818;stroke-width:1.0;"/><polygon fill="#181818" points="245,202.93,249,193.93,245,197.93,241,193.93,245,202.93" style="stroke:#181818;stroke-width:1.0;"/><text fill="#000000" font-family="sans-serif" font-size="13" lengthAdjust="spacing" textLength="62" x="246" y="169.4951">theFactory</text></g><text fill="#888888" font-family="sans-serif" font-size="10" lengthAdjust="spacing" textLength="184" x="146.5" y="406.3809">UMLDoclet 2.1.1, PlantUML 1.2023.12</text><!--SRC=[bLDDJyCm3BtlL_Y2j0bMQOXJ3bpus6M8QR3Jj8F9l2wY92Ls-T2q_uuBWrLgAzP8bPLd- -N5VG40O1BzSeme8O8nlPw2aADznfGWmpnU9Bm9gnWy9Swl8xB4maeHASaficCXRmcsFutbiXaom_IGl0fUw4DWiQY3oKPUikLI-w6ojYmepkvWEBaVZszc1YOXJIas5vr6oWCxlO0ZxWyCp7xtdxTeo_3Njpl8T7f-NADghvMhqXhM8XIVT1vQeIeylJz6zAmx5pnc-nkMWfhmLfw2TKhzfXPbccloeEqVZWxr-a-4sa_zJdVWwTB3BlL5FgFNWbXQ9JnKgxgp7i6mzyO-76rzOngiFXnUTc6ekSs0RAXgNbiECy8wX3BCxoRNmMRwTi-JKJ8wWsc6NXI5axUID_Z-u0i0]--></g></svg>