<?xml version="1.0" encoding="us-ascii" standalone="no"?><svg xmlns="http://www.w3.org/2000/svg" xmlns:xlink="http://www.w3.org/1999/xlink" contentStyleType="text/css" height="219px" preserveAspectRatio="none" style="width:321px;height:219px;background:#FFFFFF;" version="1.1" viewBox="0 0 321 219" width="321px" zoomAndPan="magnify"><defs/><g><!--class lapr4.shodrone.persistence.impl.jpa.BaseJpaRepositoryBase--><a href="BaseJpaRepositoryBase.html" target="_top" title="BaseJpaRepositoryBase.html" xlink:actuate="onRequest" xlink:href="BaseJpaRepositoryBase.html" xlink:show="new" xlink:title="BaseJpaRepositoryBase.html" xlink:type="simple"><g id="elem_lapr4.shodrone.persistence.impl.jpa.BaseJpaRepositoryBase"><rect codeLine="5" fill="#F1F1F1" height="83.4063" id="lapr4.shodrone.persistence.impl.jpa.BaseJpaRepositoryBase" rx="2.5" ry="2.5" style="stroke:#181818;stroke-width:0.5;" width="272" x="22.5" y="110"/><ellipse cx="54.15" cy="130.0938" fill="#ADD1B2" rx="11" ry="11" style="stroke:#181818;stroke-width:1.0;"/><path d="M56.9156,125.9688 Q57.0719,125.75 57.2594,125.6406 Q57.4469,125.5313 57.6656,125.5313 Q58.0406,125.5313 58.275,125.7969 Q58.5094,126.0469 58.5094,126.6563 L58.5094,128.1094 Q58.5094,128.7188 58.275,128.9844 Q58.0406,129.25 57.6656,129.25 Q57.3219,129.25 57.1188,129.0469 Q56.9156,128.8594 56.8063,128.3438 Q56.7594,127.9844 56.5719,127.7969 Q56.2438,127.4219 55.6344,127.2031 Q55.025,126.9844 54.4,126.9844 Q53.6344,126.9844 52.9938,127.3125 Q52.3688,127.6406 51.8688,128.3906 Q51.3844,129.1406 51.3844,130.1719 L51.3844,131.2656 Q51.3844,132.5 52.275,133.3281 Q53.1656,134.1406 54.7594,134.1406 Q55.6969,134.1406 56.3531,133.8906 Q56.7438,133.7344 57.1656,133.2969 Q57.4313,133.0313 57.5719,132.9531 Q57.7281,132.875 57.9313,132.875 Q58.2594,132.875 58.5094,133.1406 Q58.775,133.3906 58.775,133.7344 Q58.775,134.0781 58.4313,134.4844 Q57.9313,135.0625 57.1344,135.3906 Q56.0563,135.8438 54.7594,135.8438 Q53.2438,135.8438 52.0406,135.2188 Q51.0563,134.7188 50.3688,133.6563 Q49.6813,132.5781 49.6813,131.2969 L49.6813,130.1406 Q49.6813,128.8125 50.2906,127.6719 Q50.9156,126.5156 52.0094,125.9063 Q53.1031,125.2813 54.3375,125.2813 Q55.0719,125.2813 55.7125,125.4531 Q56.3688,125.6094 56.9156,125.9688 Z " fill="#000000"/><text fill="#000000" font-family="sans-serif" font-size="14" lengthAdjust="spacing" textLength="154" x="78.85" y="129.5332">BaseJpaRepositoryBase</text><text fill="#000000" font-family="sans-serif" font-size="10" lengthAdjust="spacing" textLength="168" x="71.85" y="142.9902">lapr4.shodrone.persistence.impl.jpa</text><rect fill="#FFFFFF" height="17.0938" style="stroke:#181818;stroke-width:1.0;stroke-dasharray:2.0,2.0;" width="33" x="264.5" y="107"/><text fill="#000000" font-family="sans-serif" font-size="12" font-style="italic" lengthAdjust="spacing" textLength="31" x="265.5" y="120.457">T, K, I</text><line style="stroke:#181818;stroke-width:0.5;" x1="23.5" x2="293.5" y1="150.1875" y2="150.1875"/><polygon fill="#4177AF" points="33.5,160.4922,29.5,166.4922,37.5,166.4922" style="stroke:#1963A0;stroke-width:1.0;"/><text fill="#000000" font-family="sans-serif" font-size="14" lengthAdjust="spacing" textLength="246" x="42.5" y="168.7207">BaseJpaRepositoryBase(String, String)</text><polygon fill="#4177AF" points="33.5,178.1016,29.5,184.1016,37.5,184.1016" style="stroke:#1963A0;stroke-width:1.0;"/><text fill="#000000" font-family="sans-serif" font-size="14" lengthAdjust="spacing" textLength="201" x="42.5" y="186.3301">BaseJpaRepositoryBase(String)</text></g></a><!--class eapli.framework.infrastructure.repositories.impl.jpa.JpaTransactionalRepository--><g id="elem_eapli.framework.infrastructure.repositories.impl.jpa.JpaTransactionalRepository"><rect codeLine="10" fill="#F1F1F1" height="40.1875" id="eapli.framework.infrastructure.repositories.impl.jpa.JpaTransactionalRepository" rx="2.5" ry="2.5" style="stroke:#181818;stroke-width:0.5;" width="303" x="7" y="10"/><ellipse cx="22" cy="30.0938" fill="#ADD1B2" rx="11" ry="11" style="stroke:#181818;stroke-width:1.0;"/><path d="M24.7656,25.9688 Q24.9219,25.75 25.1094,25.6406 Q25.2969,25.5313 25.5156,25.5313 Q25.8906,25.5313 26.125,25.7969 Q26.3594,26.0469 26.3594,26.6563 L26.3594,28.1094 Q26.3594,28.7188 26.125,28.9844 Q25.8906,29.25 25.5156,29.25 Q25.1719,29.25 24.9688,29.0469 Q24.7656,28.8594 24.6563,28.3438 Q24.6094,27.9844 24.4219,27.7969 Q24.0938,27.4219 23.4844,27.2031 Q22.875,26.9844 22.25,26.9844 Q21.4844,26.9844 20.8438,27.3125 Q20.2188,27.6406 19.7188,28.3906 Q19.2344,29.1406 19.2344,30.1719 L19.2344,31.2656 Q19.2344,32.5 20.125,33.3281 Q21.0156,34.1406 22.6094,34.1406 Q23.5469,34.1406 24.2031,33.8906 Q24.5938,33.7344 25.0156,33.2969 Q25.2813,33.0313 25.4219,32.9531 Q25.5781,32.875 25.7813,32.875 Q26.1094,32.875 26.3594,33.1406 Q26.625,33.3906 26.625,33.7344 Q26.625,34.0781 26.2813,34.4844 Q25.7813,35.0625 24.9844,35.3906 Q23.9063,35.8438 22.6094,35.8438 Q21.0938,35.8438 19.8906,35.2188 Q18.9063,34.7188 18.2188,33.6563 Q17.5313,32.5781 17.5313,31.2969 L17.5313,30.1406 Q17.5313,28.8125 18.1406,27.6719 Q18.7656,26.5156 19.8594,25.9063 Q20.9531,25.2813 22.1875,25.2813 Q22.9219,25.2813 23.5625,25.4531 Q24.2188,25.6094 24.7656,25.9688 Z " fill="#000000"/><text fill="#000000" font-family="sans-serif" font-size="14" lengthAdjust="spacing" textLength="176" x="66" y="29.5332">JpaTransactionalRepository</text><text fill="#000000" font-family="sans-serif" font-size="10" lengthAdjust="spacing" textLength="236" x="36" y="42.9902">eapli.framework.infrastructure.repositories.impl.jpa</text><rect fill="#FFFFFF" height="17.0938" style="stroke:#181818;stroke-width:1.0;stroke-dasharray:2.0,2.0;" width="33" x="280" y="7"/><text fill="#000000" font-family="sans-serif" font-size="12" font-style="italic" lengthAdjust="spacing" textLength="31" x="281" y="20.457">T, K, I</text></g><!--reverse link eapli.framework.infrastructure.repositories.impl.jpa.JpaTransactionalRepository to lapr4.shodrone.persistence.impl.jpa.BaseJpaRepositoryBase--><g id="link_eapli.framework.infrastructure.repositories.impl.jpa.JpaTransactionalRepository_lapr4.shodrone.persistence.impl.jpa.BaseJpaRepositoryBase"><path codeLine="12" d="M158.5,68.2 C158.5,84.17 158.5,89.45 158.5,109.56 " fill="none" id="eapli.framework.infrastructure.repositories.impl.jpa.JpaTransactionalRepository-backto-lapr4.shodrone.persistence.impl.jpa.BaseJpaRepositoryBase" style="stroke:#181818;stroke-width:1.0;"/><polygon fill="none" points="158.5,50.2,152.5,68.2,164.5,68.2,158.5,50.2" style="stroke:#181818;stroke-width:1.0;"/></g><text fill="#888888" font-family="sans-serif" font-size="10" lengthAdjust="spacing" textLength="184" x="61.5" y="209.7871">UMLDoclet 2.1.1, PlantUML 1.2023.12</text><!--SRC=[hL9DImCn4BtxAuQ2qC8skDAJB7iGBtw1s7ggFGpfr8rcap2JAlNhjvlj-iqAfPZBX3TltapU1010A8B3cYIWfZ45P8oUmNb7EoaDbPaJK1tY2XQ6x5n-epN5oYTuZMkB8j0hn3pIGJug3r7e9E0b1IycwQuQuDgzv_TAYu57If80fuOg48kHI4wJCdMmwZPW3r1W0vxgx5LCCZZDuBY4wRIJeAfOszaCdjRpD-UrazSVHpRk9eCs3ZQZjxINRdDIqOJH2Ufel4FxfV3D8S9WZLfmMj63vpjbNBfBvAMEIoR57pM6vATbsnIglqVwDB9zop-hG_4y76w_vTPUSf4O5jutuUhyxCXhctxtlifLdi65HHSJ2hltZQvt_S4R]--></g></svg>