<?xml version="1.0" encoding="us-ascii" standalone="no"?><svg xmlns="http://www.w3.org/2000/svg" xmlns:xlink="http://www.w3.org/1999/xlink" contentStyleType="text/css" height="216px" preserveAspectRatio="none" style="width:326px;height:216px;background:#FFFFFF;" version="1.1" viewBox="0 0 326 216" width="326px" zoomAndPan="magnify"><defs/><g><!--class lapr4.shodrone.persistence.impl.jpa.ExemploJpaReportingRepositoryBase--><a href="ExemploJpaReportingRepositoryBase.html" target="_top" title="ExemploJpaReportingRepositoryBase.html" xlink:actuate="onRequest" xlink:href="ExemploJpaReportingRepositoryBase.html" xlink:show="new" xlink:title="ExemploJpaReportingRepositoryBase.html" xlink:type="simple"><g id="elem_lapr4.shodrone.persistence.impl.jpa.ExemploJpaReportingRepositoryBase"><rect codeLine="5" fill="#F1F1F1" height="83.4063" id="lapr4.shodrone.persistence.impl.jpa.ExemploJpaReportingRepositoryBase" rx="2.5" ry="2.5" style="stroke:#181818;stroke-width:0.5;" width="310" x="9" y="107"/><ellipse cx="42.45" cy="127.0938" fill="#ADD1B2" rx="11" ry="11" style="stroke:#181818;stroke-width:1.0;"/><path d="M45.2156,122.9688 Q45.3719,122.75 45.5594,122.6406 Q45.7469,122.5313 45.9656,122.5313 Q46.3406,122.5313 46.575,122.7969 Q46.8094,123.0469 46.8094,123.6563 L46.8094,125.1094 Q46.8094,125.7188 46.575,125.9844 Q46.3406,126.25 45.9656,126.25 Q45.6219,126.25 45.4188,126.0469 Q45.2156,125.8594 45.1063,125.3438 Q45.0594,124.9844 44.8719,124.7969 Q44.5438,124.4219 43.9344,124.2031 Q43.325,123.9844 42.7,123.9844 Q41.9344,123.9844 41.2938,124.3125 Q40.6688,124.6406 40.1688,125.3906 Q39.6844,126.1406 39.6844,127.1719 L39.6844,128.2656 Q39.6844,129.5 40.575,130.3281 Q41.4656,131.1406 43.0594,131.1406 Q43.9969,131.1406 44.6531,130.8906 Q45.0438,130.7344 45.4656,130.2969 Q45.7313,130.0313 45.8719,129.9531 Q46.0281,129.875 46.2313,129.875 Q46.5594,129.875 46.8094,130.1406 Q47.075,130.3906 47.075,130.7344 Q47.075,131.0781 46.7313,131.4844 Q46.2313,132.0625 45.4344,132.3906 Q44.3563,132.8438 43.0594,132.8438 Q41.5438,132.8438 40.3406,132.2188 Q39.3563,131.7188 38.6688,130.6563 Q37.9813,129.5781 37.9813,128.2969 L37.9813,127.1406 Q37.9813,125.8125 38.5906,124.6719 Q39.2156,123.5156 40.3094,122.9063 Q41.4031,122.2813 42.6375,122.2813 Q43.3719,122.2813 44.0125,122.4531 Q44.6688,122.6094 45.2156,122.9688 Z " fill="#000000"/><text fill="#000000" font-family="sans-serif" font-size="14" lengthAdjust="spacing" textLength="237" x="60.55" y="126.5332">ExemploJpaReportingRepositoryBase</text><text fill="#000000" font-family="sans-serif" font-size="10" lengthAdjust="spacing" textLength="168" x="95.05" y="139.9902">lapr4.shodrone.persistence.impl.jpa</text><line style="stroke:#181818;stroke-width:0.5;" x1="10" x2="318" y1="147.1875" y2="147.1875"/><polygon fill="#4177AF" points="20,157.4922,16,163.4922,24,163.4922" style="stroke:#1963A0;stroke-width:1.0;"/><text fill="#000000" font-family="sans-serif" font-size="14" lengthAdjust="spacing" textLength="247" x="29" y="165.7207">ExemploJpaReportingRepositoryBase()</text><polygon fill="#4177AF" points="20,175.1016,16,181.1016,24,181.1016" style="stroke:#1963A0;stroke-width:1.0;"/><text fill="#000000" font-family="sans-serif" font-size="14" lengthAdjust="spacing" textLength="284" x="29" y="183.3301">ExemploJpaReportingRepositoryBase(String)</text></g></a><!--class eapli.framework.infrastructure.repositories.impl.jpa.JpaTransactionalContext--><g id="elem_eapli.framework.infrastructure.repositories.impl.jpa.JpaTransactionalContext"><rect codeLine="10" fill="#F1F1F1" height="40.1875" id="eapli.framework.infrastructure.repositories.impl.jpa.JpaTransactionalContext" rx="2.5" ry="2.5" style="stroke:#181818;stroke-width:0.5;" width="268" x="30" y="7"/><ellipse cx="45" cy="27.0938" fill="#ADD1B2" rx="11" ry="11" style="stroke:#181818;stroke-width:1.0;"/><path d="M47.7656,22.9688 Q47.9219,22.75 48.1094,22.6406 Q48.2969,22.5313 48.5156,22.5313 Q48.8906,22.5313 49.125,22.7969 Q49.3594,23.0469 49.3594,23.6563 L49.3594,25.1094 Q49.3594,25.7188 49.125,25.9844 Q48.8906,26.25 48.5156,26.25 Q48.1719,26.25 47.9688,26.0469 Q47.7656,25.8594 47.6563,25.3438 Q47.6094,24.9844 47.4219,24.7969 Q47.0938,24.4219 46.4844,24.2031 Q45.875,23.9844 45.25,23.9844 Q44.4844,23.9844 43.8438,24.3125 Q43.2188,24.6406 42.7188,25.3906 Q42.2344,26.1406 42.2344,27.1719 L42.2344,28.2656 Q42.2344,29.5 43.125,30.3281 Q44.0156,31.1406 45.6094,31.1406 Q46.5469,31.1406 47.2031,30.8906 Q47.5938,30.7344 48.0156,30.2969 Q48.2813,30.0313 48.4219,29.9531 Q48.5781,29.875 48.7813,29.875 Q49.1094,29.875 49.3594,30.1406 Q49.625,30.3906 49.625,30.7344 Q49.625,31.0781 49.2813,31.4844 Q48.7813,32.0625 47.9844,32.3906 Q46.9063,32.8438 45.6094,32.8438 Q44.0938,32.8438 42.8906,32.2188 Q41.9063,31.7188 41.2188,30.6563 Q40.5313,29.5781 40.5313,28.2969 L40.5313,27.1406 Q40.5313,25.8125 41.1406,24.6719 Q41.7656,23.5156 42.8594,22.9063 Q43.9531,22.2813 45.1875,22.2813 Q45.9219,22.2813 46.5625,22.4531 Q47.2188,22.6094 47.7656,22.9688 Z " fill="#000000"/><text fill="#000000" font-family="sans-serif" font-size="14" lengthAdjust="spacing" textLength="156" x="99" y="26.5332">JpaTransactionalContext</text><text fill="#000000" font-family="sans-serif" font-size="10" lengthAdjust="spacing" textLength="236" x="59" y="39.9902">eapli.framework.infrastructure.repositories.impl.jpa</text></g><!--reverse link eapli.framework.infrastructure.repositories.impl.jpa.JpaTransactionalContext to lapr4.shodrone.persistence.impl.jpa.ExemploJpaReportingRepositoryBase--><g id="link_eapli.framework.infrastructure.repositories.impl.jpa.JpaTransactionalContext_lapr4.shodrone.persistence.impl.jpa.ExemploJpaReportingRepositoryBase"><path codeLine="12" d="M164,65.2 C164,81.17 164,86.45 164,106.56 " fill="none" id="eapli.framework.infrastructure.repositories.impl.jpa.JpaTransactionalContext-backto-lapr4.shodrone.persistence.impl.jpa.ExemploJpaReportingRepositoryBase" style="stroke:#181818;stroke-width:1.0;"/><polygon fill="none" points="164,47.2,158,65.2,170,65.2,164,47.2" style="stroke:#181818;stroke-width:1.0;"/></g><text fill="#888888" font-family="sans-serif" font-size="10" lengthAdjust="spacing" textLength="184" x="64" y="206.7871">UMLDoclet 2.1.1, PlantUML 1.2023.12</text><!--SRC=[hL9DIqCn4BpxAvQ2q88DLdgIqeCV5r4GgwVQm_AwjT6y9EnkjVNhjxklhQ2YF9NcaZ2PdTdC1W10I25YIPAne05bPDJ445EaBRk6gHyJK9br0HDFOInVqP9qcWnUuaL04MZqn3_IVgVRFvuRAQIJZ1UK4wkFDzL1l7ai3b3eEgwvk_s0cRjEJ8pDt6LYyQ8K2tBUHDnjnWQWm2zuhjONXiDQZfjg6KOZU5e-hLgljJNDrb_80sK3LoKltoTerPUCKR1GdoA6mnILvleXDy8Sl9km3V4XyPtpqSwYF2jqnkJutTAJV0xoFuNkXtvMpMzI4NhFxVPcXhqAbaoMOP9IjLsTdHwb8jZdttCTrzc1yu1H3ONj-yeZnMRh3G00]--></g></svg>