<?xml version="1.0" encoding="us-ascii" standalone="no"?><svg xmlns="http://www.w3.org/2000/svg" xmlns:xlink="http://www.w3.org/1999/xlink" contentStyleType="text/css" height="312px" preserveAspectRatio="none" style="width:953px;height:312px;background:#FFFFFF;" version="1.1" viewBox="0 0 953 312" width="953px" zoomAndPan="magnify"><defs/><g><!--class lapr4.shodrone.persistence.impl.jpa.JpaClientUserRepository--><a href="JpaClientUserRepository.html" target="_top" title="JpaClientUserRepository.html" xlink:actuate="onRequest" xlink:href="JpaClientUserRepository.html" xlink:show="new" xlink:title="JpaClientUserRepository.html" xlink:type="simple"><g id="elem_lapr4.shodrone.persistence.impl.jpa.JpaClientUserRepository"><rect codeLine="5" fill="#F1F1F1" height="136.2344" id="lapr4.shodrone.persistence.impl.jpa.JpaClientUserRepository" rx="2.5" ry="2.5" style="stroke:#181818;stroke-width:0.5;" width="485" x="297.5" y="150"/><ellipse cx="451.75" cy="170.0938" fill="#ADD1B2" rx="11" ry="11" style="stroke:#181818;stroke-width:1.0;"/><path d="M454.5156,165.9688 Q454.6719,165.75 454.8594,165.6406 Q455.0469,165.5313 455.2656,165.5313 Q455.6406,165.5313 455.875,165.7969 Q456.1094,166.0469 456.1094,166.6563 L456.1094,168.1094 Q456.1094,168.7188 455.875,168.9844 Q455.6406,169.25 455.2656,169.25 Q454.9219,169.25 454.7188,169.0469 Q454.5156,168.8594 454.4063,168.3438 Q454.3594,167.9844 454.1719,167.7969 Q453.8438,167.4219 453.2344,167.2031 Q452.625,166.9844 452,166.9844 Q451.2344,166.9844 450.5938,167.3125 Q449.9688,167.6406 449.4688,168.3906 Q448.9844,169.1406 448.9844,170.1719 L448.9844,171.2656 Q448.9844,172.5 449.875,173.3281 Q450.7656,174.1406 452.3594,174.1406 Q453.2969,174.1406 453.9531,173.8906 Q454.3438,173.7344 454.7656,173.2969 Q455.0313,173.0313 455.1719,172.9531 Q455.3281,172.875 455.5313,172.875 Q455.8594,172.875 456.1094,173.1406 Q456.375,173.3906 456.375,173.7344 Q456.375,174.0781 456.0313,174.4844 Q455.5313,175.0625 454.7344,175.3906 Q453.6563,175.8438 452.3594,175.8438 Q450.8438,175.8438 449.6406,175.2188 Q448.6563,174.7188 447.9688,173.6563 Q447.2813,172.5781 447.2813,171.2969 L447.2813,170.1406 Q447.2813,168.8125 447.8906,167.6719 Q448.5156,166.5156 449.6094,165.9063 Q450.7031,165.2813 451.9375,165.2813 Q452.6719,165.2813 453.3125,165.4531 Q453.9688,165.6094 454.5156,165.9688 Z " fill="#000000"/><text fill="#000000" font-family="sans-serif" font-size="14" lengthAdjust="spacing" textLength="155" x="478.75" y="169.5332">JpaClientUserRepository</text><text fill="#000000" font-family="sans-serif" font-size="10" lengthAdjust="spacing" textLength="168" x="472.25" y="182.9902">lapr4.shodrone.persistence.impl.jpa</text><line style="stroke:#181818;stroke-width:0.5;" x1="298.5" x2="781.5" y1="190.1875" y2="190.1875"/><ellipse cx="308.5" cy="204.4922" fill="#84BE84" rx="3" ry="3" style="stroke:#038048;stroke-width:1.0;"/><text fill="#000000" font-family="sans-serif" font-size="14" lengthAdjust="spacing" textLength="299" x="317.5" y="208.7207">JpaClientUserRepository(TransactionalContext)</text><ellipse cx="308.5" cy="222.1016" fill="#84BE84" rx="3" ry="3" style="stroke:#038048;stroke-width:1.0;"/><text fill="#000000" font-family="sans-serif" font-size="14" lengthAdjust="spacing" textLength="202" x="317.5" y="226.3301">JpaClientUserRepository(String)</text><ellipse cx="308.5" cy="239.7109" fill="#84BE84" rx="3" ry="3" style="stroke:#038048;stroke-width:1.0;"/><text fill="#000000" font-family="sans-serif" font-size="14" lengthAdjust="spacing" textLength="295" x="317.5" y="243.9395">findByUsername(Username): Optional&lt;Utente&gt;</text><ellipse cx="308.5" cy="257.3203" fill="#84BE84" rx="3" ry="3" style="stroke:#038048;stroke-width:1.0;"/><text fill="#000000" font-family="sans-serif" font-size="14" lengthAdjust="spacing" textLength="459" x="317.5" y="261.5488">findByMecanographicNumber(MecanographicNumber): Optional&lt;Utente&gt;</text><ellipse cx="308.5" cy="274.9297" fill="#84BE84" rx="3" ry="3" style="stroke:#038048;stroke-width:1.0;"/><text fill="#000000" font-family="sans-serif" font-size="14" lengthAdjust="spacing" textLength="198" x="317.5" y="279.1582">findAllActive(): Iterable&lt;Utente&gt;</text></g></a><!--class eapli.framework.infrastructure.repositories.impl.jpa.JpaAutoTxRepository--><g id="elem_eapli.framework.infrastructure.repositories.impl.jpa.JpaAutoTxRepository"><rect codeLine="13" fill="#F1F1F1" height="40.1875" id="eapli.framework.infrastructure.repositories.impl.jpa.JpaAutoTxRepository" rx="2.5" ry="2.5" style="stroke:#181818;stroke-width:0.5;" width="580" x="7" y="28.5"/><ellipse cx="22" cy="48.5938" fill="#ADD1B2" rx="11" ry="11" style="stroke:#181818;stroke-width:1.0;"/><path d="M24.7656,44.4688 Q24.9219,44.25 25.1094,44.1406 Q25.2969,44.0313 25.5156,44.0313 Q25.8906,44.0313 26.125,44.2969 Q26.3594,44.5469 26.3594,45.1563 L26.3594,46.6094 Q26.3594,47.2188 26.125,47.4844 Q25.8906,47.75 25.5156,47.75 Q25.1719,47.75 24.9688,47.5469 Q24.7656,47.3594 24.6563,46.8438 Q24.6094,46.4844 24.4219,46.2969 Q24.0938,45.9219 23.4844,45.7031 Q22.875,45.4844 22.25,45.4844 Q21.4844,45.4844 20.8438,45.8125 Q20.2188,46.1406 19.7188,46.8906 Q19.2344,47.6406 19.2344,48.6719 L19.2344,49.7656 Q19.2344,51 20.125,51.8281 Q21.0156,52.6406 22.6094,52.6406 Q23.5469,52.6406 24.2031,52.3906 Q24.5938,52.2344 25.0156,51.7969 Q25.2813,51.5313 25.4219,51.4531 Q25.5781,51.375 25.7813,51.375 Q26.1094,51.375 26.3594,51.6406 Q26.625,51.8906 26.625,52.2344 Q26.625,52.5781 26.2813,52.9844 Q25.7813,53.5625 24.9844,53.8906 Q23.9063,54.3438 22.6094,54.3438 Q21.0938,54.3438 19.8906,53.7188 Q18.9063,53.2188 18.2188,52.1563 Q17.5313,51.0781 17.5313,49.7969 L17.5313,48.6406 Q17.5313,47.3125 18.1406,46.1719 Q18.7656,45.0156 19.8594,44.4063 Q20.9531,43.7813 22.1875,43.7813 Q22.9219,43.7813 23.5625,43.9531 Q24.2188,44.1094 24.7656,44.4688 Z " fill="#000000"/><text fill="#000000" font-family="sans-serif" font-size="14" lengthAdjust="spacing" textLength="134" x="87" y="48.0332">JpaAutoTxRepository</text><text fill="#000000" font-family="sans-serif" font-size="10" lengthAdjust="spacing" textLength="236" x="36" y="61.4902">eapli.framework.infrastructure.repositories.impl.jpa</text><rect fill="#FFFFFF" height="17.0938" style="stroke:#181818;stroke-width:1.0;stroke-dasharray:2.0,2.0;" width="310" x="280" y="25.5"/><text fill="#000000" font-family="sans-serif" font-size="12" font-style="italic" lengthAdjust="spacing" textLength="308" x="281" y="38.957">Utente, MecanographicNumber, MecanographicNumber</text></g><!--class lapr4.shodrone.utentemanagement.repositories.UtenteRepository--><g id="elem_lapr4.shodrone.utentemanagement.repositories.UtenteRepository"><rect codeLine="14" fill="#F1F1F1" height="83.4063" id="lapr4.shodrone.utentemanagement.repositories.UtenteRepository" rx="2.5" ry="2.5" style="stroke:#181818;stroke-width:0.5;" width="324" x="622" y="7"/><ellipse cx="669.25" cy="27.0938" fill="#B4A7E5" rx="11" ry="11" style="stroke:#181818;stroke-width:1.0;"/><path d="M670.2031,23.7344 L670.2031,30.3906 L671.9219,30.3906 Q672.5313,30.3906 672.7969,30.625 Q673.0625,30.8594 673.0625,31.25 Q673.0625,31.625 672.7969,31.8594 Q672.5313,32.0938 671.9219,32.0938 L666.7813,32.0938 Q666.1719,32.0938 665.9063,31.8594 Q665.6406,31.625 665.6406,31.2344 Q665.6406,30.8594 665.9063,30.625 Q666.1719,30.3906 666.7813,30.3906 L668.5,30.3906 L668.5,23.7344 L666.7813,23.7344 Q666.1719,23.7344 665.9063,23.5 Q665.6406,23.2656 665.6406,22.875 Q665.6406,22.5 665.9063,22.2656 Q666.1719,22.0313 666.7813,22.0313 L671.9219,22.0313 Q672.5313,22.0313 672.7969,22.2656 Q673.0625,22.5 673.0625,22.875 Q673.0625,23.2656 672.7969,23.5 Q672.5313,23.7344 671.9219,23.7344 L670.2031,23.7344 Z " fill="#000000"/><text fill="#000000" font-family="sans-serif" font-size="14" font-style="italic" lengthAdjust="spacing" textLength="110" x="745.25" y="26.5332">UtenteRepository</text><text fill="#000000" font-family="sans-serif" font-size="10" font-style="italic" lengthAdjust="spacing" textLength="221" x="689.75" y="39.9902">lapr4.shodrone.utentemanagement.repositories</text><line style="stroke:#181818;stroke-width:0.5;" x1="623" x2="945" y1="47.1875" y2="47.1875"/><ellipse cx="633" cy="61.4922" fill="#84BE84" rx="3" ry="3" style="stroke:#038048;stroke-width:1.0;"/><text fill="#000000" font-family="sans-serif" font-size="14" font-style="italic" lengthAdjust="spacing" textLength="298" x="642" y="65.7207">findByUsername(Username): Optional&lt;Utente&gt;</text><ellipse cx="633" cy="79.1016" fill="#84BE84" rx="3" ry="3" style="stroke:#038048;stroke-width:1.0;"/><text fill="#000000" font-family="sans-serif" font-size="14" font-style="italic" lengthAdjust="spacing" textLength="199" x="642" y="83.3301">findAllActive(): Iterable&lt;Utente&gt;</text></g><!--reverse link eapli.framework.infrastructure.repositories.impl.jpa.JpaAutoTxRepository to lapr4.shodrone.persistence.impl.jpa.JpaClientUserRepository--><g id="link_eapli.framework.infrastructure.repositories.impl.jpa.JpaAutoTxRepository_lapr4.shodrone.persistence.impl.jpa.JpaClientUserRepository"><path codeLine="19" d="M339.6991,78.9274 C368.4891,98.7774 400.27,120.69 442.75,149.97 " fill="none" id="eapli.framework.infrastructure.repositories.impl.jpa.JpaAutoTxRepository-backto-lapr4.shodrone.persistence.impl.jpa.JpaClientUserRepository" style="stroke:#181818;stroke-width:1.0;"/><polygon fill="none" points="324.88,68.71,336.2933,83.8671,343.1049,73.9877,324.88,68.71" style="stroke:#181818;stroke-width:1.0;"/></g><!--reverse link lapr4.shodrone.utentemanagement.repositories.UtenteRepository to lapr4.shodrone.persistence.impl.jpa.JpaClientUserRepository--><g id="link_lapr4.shodrone.utentemanagement.repositories.UtenteRepository_lapr4.shodrone.persistence.impl.jpa.JpaClientUserRepository"><path codeLine="20" d="M710.0901,100.2371 C684.0001,118.1471 667.46,129.5 638.02,149.71 " fill="none" id="lapr4.shodrone.utentemanagement.repositories.UtenteRepository-backto-lapr4.shodrone.persistence.impl.jpa.JpaClientUserRepository" style="stroke:#181818;stroke-width:1.0;stroke-dasharray:7.0,7.0;"/><polygon fill="none" points="724.93,90.05,706.6944,95.2905,713.4858,105.1838,724.93,90.05" style="stroke:#181818;stroke-width:1.0;"/></g><text fill="#888888" font-family="sans-serif" font-size="10" lengthAdjust="spacing" textLength="184" x="377.5" y="302.6152">UMLDoclet 2.1.1, PlantUML 1.2023.12</text><!--SRC=[hLHDJo914BtlhwYOc0nPx8ZnP0W9wiMDw4Rbn78ecXfejwUxKztZYX__tHhG1CYm4d4kqwb-xzNNcm40Y9J0OK4neAPR2iYOF8FpZdx8DKpDc82Aa6QG6xBZk1ujA4szXETnRJ56s6j7yqGdhUFEhu1drf1B_KXyGy578-gpF-uTSTYn6FXOHP5WIQa2SJGnaTEaJ16ikW-u1nXX2vpQa0q6WmqtQfeAEnp2yxpuwlcv0PdTCRg8EXdlq9vvb-WnDJwdtIOsRh84p8qRdyugL3NrxEFGE87hi11lzwMjH9rrJeyqEZzX35EZhyfYH9pLn3vLwbhRbJuUA1FeHIB6aQKLwEl6PNRBvEyUQnT96AnHEKip_pp_LSR9EIOkTIgP57zm3CNLpNw5g6fgUM-X2JL3gGqkcZN2uLpClzJfGcaRlvPpP84E9rJ8SQNSEkF-bw3M4oyvynb7CXHnuEkNJBHEtze5txKUQByS7Epo6S-hsMsQxHUbTYv1Lw8CkVVLgz-xFFVQob_qIBLKgmc_BGgjTmdx3vMoTrdZ3G00]--></g></svg>