<?xml version="1.0" encoding="us-ascii" standalone="no"?><svg xmlns="http://www.w3.org/2000/svg" xmlns:xlink="http://www.w3.org/1999/xlink" contentStyleType="text/css" height="436px" preserveAspectRatio="none" style="width:459px;height:436px;background:#FFFFFF;" version="1.1" viewBox="0 0 459 436" width="459px" zoomAndPan="magnify"><defs/><g><!--class lapr4.shodrone.persistence.impl.jpa.JpaRepositoryFactory--><a href="JpaRepositoryFactory.html" target="_top" title="JpaRepositoryFactory.html" xlink:actuate="onRequest" xlink:href="JpaRepositoryFactory.html" xlink:show="new" xlink:title="JpaRepositoryFactory.html" xlink:type="simple"><g id="elem_lapr4.shodrone.persistence.impl.jpa.JpaRepositoryFactory"><rect codeLine="5" fill="#F1F1F1" height="171.4531" id="lapr4.shodrone.persistence.impl.jpa.JpaRepositoryFactory" rx="2.5" ry="2.5" style="stroke:#181818;stroke-width:0.5;" width="445" x="7" y="238"/><ellipse cx="141.25" cy="258.0938" fill="#ADD1B2" rx="11" ry="11" style="stroke:#181818;stroke-width:1.0;"/><path d="M144.0156,253.9688 Q144.1719,253.75 144.3594,253.6406 Q144.5469,253.5313 144.7656,253.5313 Q145.1406,253.5313 145.375,253.7969 Q145.6094,254.0469 145.6094,254.6563 L145.6094,256.1094 Q145.6094,256.7188 145.375,256.9844 Q145.1406,257.25 144.7656,257.25 Q144.4219,257.25 144.2188,257.0469 Q144.0156,256.8594 143.9063,256.3438 Q143.8594,255.9844 143.6719,255.7969 Q143.3438,255.4219 142.7344,255.2031 Q142.125,254.9844 141.5,254.9844 Q140.7344,254.9844 140.0938,255.3125 Q139.4688,255.6406 138.9688,256.3906 Q138.4844,257.1406 138.4844,258.1719 L138.4844,259.2656 Q138.4844,260.5 139.375,261.3281 Q140.2656,262.1406 141.8594,262.1406 Q142.7969,262.1406 143.4531,261.8906 Q143.8438,261.7344 144.2656,261.2969 Q144.5313,261.0313 144.6719,260.9531 Q144.8281,260.875 145.0313,260.875 Q145.3594,260.875 145.6094,261.1406 Q145.875,261.3906 145.875,261.7344 Q145.875,262.0781 145.5313,262.4844 Q145.0313,263.0625 144.2344,263.3906 Q143.1563,263.8438 141.8594,263.8438 Q140.3438,263.8438 139.1406,263.2188 Q138.1563,262.7188 137.4688,261.6563 Q136.7813,260.5781 136.7813,259.2969 L136.7813,258.1406 Q136.7813,256.8125 137.3906,255.6719 Q138.0156,254.5156 139.1094,253.9063 Q140.2031,253.2813 141.4375,253.2813 Q142.1719,253.2813 142.8125,253.4531 Q143.4688,253.6094 144.0156,253.9688 Z " fill="#000000"/><text fill="#000000" font-family="sans-serif" font-size="14" lengthAdjust="spacing" textLength="138" x="176.75" y="257.5332">JpaRepositoryFactory</text><text fill="#000000" font-family="sans-serif" font-size="10" lengthAdjust="spacing" textLength="168" x="161.75" y="270.9902">lapr4.shodrone.persistence.impl.jpa</text><line style="stroke:#181818;stroke-width:0.5;" x1="8" x2="451" y1="278.1875" y2="278.1875"/><ellipse cx="18" cy="292.4922" fill="#84BE84" rx="3" ry="3" style="stroke:#038048;stroke-width:1.0;"/><text fill="#000000" font-family="sans-serif" font-size="14" lengthAdjust="spacing" textLength="284" x="27" y="296.7207">users(TransactionalContext): UserRepository</text><ellipse cx="18" cy="310.1016" fill="#84BE84" rx="3" ry="3" style="stroke:#038048;stroke-width:1.0;"/><text fill="#000000" font-family="sans-serif" font-size="14" lengthAdjust="spacing" textLength="150" x="27" y="314.3301">users(): UserRepository</text><ellipse cx="18" cy="327.7109" fill="#84BE84" rx="3" ry="3" style="stroke:#038048;stroke-width:1.0;"/><text fill="#000000" font-family="sans-serif" font-size="14" lengthAdjust="spacing" textLength="354" x="27" y="331.9395">utentes(TransactionalContext): JpaClientUserRepository</text><ellipse cx="18" cy="345.3203" fill="#84BE84" rx="3" ry="3" style="stroke:#038048;stroke-width:1.0;"/><text fill="#000000" font-family="sans-serif" font-size="14" lengthAdjust="spacing" textLength="220" x="27" y="349.5488">utentes(): JpaClientUserRepository</text><ellipse cx="18" cy="362.9297" fill="#84BE84" rx="3" ry="3" style="stroke:#038048;stroke-width:1.0;"/><text fill="#000000" font-family="sans-serif" font-size="14" lengthAdjust="spacing" textLength="419" x="27" y="367.1582">signupRequests(TransactionalContext): SignupRequestRepository</text><ellipse cx="18" cy="380.5391" fill="#84BE84" rx="3" ry="3" style="stroke:#038048;stroke-width:1.0;"/><text fill="#000000" font-family="sans-serif" font-size="14" lengthAdjust="spacing" textLength="285" x="27" y="384.7676">signupRequests(): SignupRequestRepository</text><ellipse cx="18" cy="398.1484" fill="#84BE84" rx="3" ry="3" style="stroke:#038048;stroke-width:1.0;"/><text fill="#000000" font-family="sans-serif" font-size="14" lengthAdjust="spacing" textLength="311" x="27" y="402.377">newTransactionalContext(): TransactionalContext</text></g></a><!--class lapr4.shodrone.infrastructure.persistence.RepositoryFactory--><g id="elem_lapr4.shodrone.infrastructure.persistence.RepositoryFactory"><rect codeLine="15" fill="#F1F1F1" height="171.4531" id="lapr4.shodrone.infrastructure.persistence.RepositoryFactory" rx="2.5" ry="2.5" style="stroke:#181818;stroke-width:0.5;" width="445" x="7" y="7"/><ellipse cx="129.25" cy="27.0938" fill="#B4A7E5" rx="11" ry="11" style="stroke:#181818;stroke-width:1.0;"/><path d="M130.2031,23.7344 L130.2031,30.3906 L131.9219,30.3906 Q132.5313,30.3906 132.7969,30.625 Q133.0625,30.8594 133.0625,31.25 Q133.0625,31.625 132.7969,31.8594 Q132.5313,32.0938 131.9219,32.0938 L126.7813,32.0938 Q126.1719,32.0938 125.9063,31.8594 Q125.6406,31.625 125.6406,31.2344 Q125.6406,30.8594 125.9063,30.625 Q126.1719,30.3906 126.7813,30.3906 L128.5,30.3906 L128.5,23.7344 L126.7813,23.7344 Q126.1719,23.7344 125.9063,23.5 Q125.6406,23.2656 125.6406,22.875 Q125.6406,22.5 125.9063,22.2656 Q126.1719,22.0313 126.7813,22.0313 L131.9219,22.0313 Q132.5313,22.0313 132.7969,22.2656 Q133.0625,22.5 133.0625,22.875 Q133.0625,23.2656 132.7969,23.5 Q132.5313,23.7344 131.9219,23.7344 L130.2031,23.7344 Z " fill="#000000"/><text fill="#000000" font-family="sans-serif" font-size="14" font-style="italic" lengthAdjust="spacing" textLength="116" x="187.75" y="26.5332">RepositoryFactory</text><text fill="#000000" font-family="sans-serif" font-size="10" font-style="italic" lengthAdjust="spacing" textLength="192" x="149.75" y="39.9902">lapr4.shodrone.infrastructure.persistence</text><line style="stroke:#181818;stroke-width:0.5;" x1="8" x2="451" y1="47.1875" y2="47.1875"/><ellipse cx="18" cy="61.4922" fill="#84BE84" rx="3" ry="3" style="stroke:#038048;stroke-width:1.0;"/><text fill="#000000" font-family="sans-serif" font-size="14" font-style="italic" lengthAdjust="spacing" textLength="311" x="27" y="65.7207">newTransactionalContext(): TransactionalContext</text><ellipse cx="18" cy="79.1016" fill="#84BE84" rx="3" ry="3" style="stroke:#038048;stroke-width:1.0;"/><text fill="#000000" font-family="sans-serif" font-size="14" font-style="italic" lengthAdjust="spacing" textLength="285" x="27" y="83.3301">users(TransactionalContext): UserRepository</text><ellipse cx="18" cy="96.7109" fill="#84BE84" rx="3" ry="3" style="stroke:#038048;stroke-width:1.0;"/><text fill="#000000" font-family="sans-serif" font-size="14" font-style="italic" lengthAdjust="spacing" textLength="151" x="27" y="100.9395">users(): UserRepository</text><ellipse cx="18" cy="114.3203" fill="#84BE84" rx="3" ry="3" style="stroke:#038048;stroke-width:1.0;"/><text fill="#000000" font-family="sans-serif" font-size="14" font-style="italic" lengthAdjust="spacing" textLength="309" x="27" y="118.5488">utentes(TransactionalContext): UtenteRepository</text><ellipse cx="18" cy="131.9297" fill="#84BE84" rx="3" ry="3" style="stroke:#038048;stroke-width:1.0;"/><text fill="#000000" font-family="sans-serif" font-size="14" font-style="italic" lengthAdjust="spacing" textLength="175" x="27" y="136.1582">utentes(): UtenteRepository</text><ellipse cx="18" cy="149.5391" fill="#84BE84" rx="3" ry="3" style="stroke:#038048;stroke-width:1.0;"/><text fill="#000000" font-family="sans-serif" font-size="14" font-style="italic" lengthAdjust="spacing" textLength="419" x="27" y="153.7676">signupRequests(TransactionalContext): SignupRequestRepository</text><ellipse cx="18" cy="167.1484" fill="#84BE84" rx="3" ry="3" style="stroke:#038048;stroke-width:1.0;"/><text fill="#000000" font-family="sans-serif" font-size="14" font-style="italic" lengthAdjust="spacing" textLength="285" x="27" y="171.377">signupRequests(): SignupRequestRepository</text></g><!--reverse link lapr4.shodrone.infrastructure.persistence.RepositoryFactory to lapr4.shodrone.persistence.impl.jpa.JpaRepositoryFactory--><g id="link_lapr4.shodrone.infrastructure.persistence.RepositoryFactory_lapr4.shodrone.persistence.impl.jpa.JpaRepositoryFactory"><path codeLine="25" d="M229.5,196.12 C229.5,215.61 229.5,218.35 229.5,237.85 " fill="none" id="lapr4.shodrone.infrastructure.persistence.RepositoryFactory-backto-lapr4.shodrone.persistence.impl.jpa.JpaRepositoryFactory" style="stroke:#181818;stroke-width:1.0;stroke-dasharray:7.0,7.0;"/><polygon fill="none" points="229.5,178.12,223.5,196.12,235.5,196.12,229.5,178.12" style="stroke:#181818;stroke-width:1.0;"/></g><text fill="#888888" font-family="sans-serif" font-size="10" lengthAdjust="spacing" textLength="184" x="130.5" y="425.834">UMLDoclet 2.1.1, PlantUML 1.2023.12</text><!--SRC=[hLJ1Ji904Btx5HCI4uXc8uOJ8Lmm7Wma1kI47DOobJNRtNLdgoBoxquB2GW5AjhB9c_UUpFRlWu006408nCa9oCSe9DU1kl1M8DdN8QfcY1Wui8COeLwGjjeWc5g6SxnI4iYgBH8VMAptcZVETb7Pqcnv-nMHjdnQ5RbgxQMpZS4iTvpF-7GawA09aAX4gV5YvCLa0GbUAAe5On6HR2OXaIFnp3FPywUYvJOi_hWfI7cA6kaxbWJy2FKcZ3aujfaMtI8m3C6tElBitMqOienVHakgMUJkZw-faXXRyl19gk4JHc9mVUYRfcs2C-5YsLU52C-vkHjPEONWL4czfA2JwEG-X-vA8hDVhROJSuw6tFvn2A65wTTTTlZbAZjwajo3mTmc9TBUfJb_qyG3pWUKQ-YzPUFt_eIukIbiro4sOlo45kR7SDUzyP6cbVjjQYB-YNSQyb_SgyBvs-PhJNLsZS0]--></g></svg>