<?xml version="1.0" encoding="us-ascii" standalone="no"?><svg xmlns="http://www.w3.org/2000/svg" xmlns:xlink="http://www.w3.org/1999/xlink" contentStyleType="text/css" height="260px" preserveAspectRatio="none" style="width:894px;height:260px;background:#FFFFFF;" version="1.1" viewBox="0 0 894 260" width="894px" zoomAndPan="magnify"><defs/><g><!--class lapr4.shodrone.persistence.impl.jpa.JpaSignupRequestRepository--><a href="JpaSignupRequestRepository.html" target="_top" title="JpaSignupRequestRepository.html" xlink:actuate="onRequest" xlink:href="JpaSignupRequestRepository.html" xlink:show="new" xlink:title="JpaSignupRequestRepository.html" xlink:type="simple"><g id="elem_lapr4.shodrone.persistence.impl.jpa.JpaSignupRequestRepository"><rect codeLine="5" fill="#F1F1F1" height="101.0156" id="lapr4.shodrone.persistence.impl.jpa.JpaSignupRequestRepository" rx="2.5" ry="2.5" style="stroke:#181818;stroke-width:0.5;" width="359" x="299" y="133"/><ellipse cx="380.75" cy="153.0938" fill="#ADD1B2" rx="11" ry="11" style="stroke:#181818;stroke-width:1.0;"/><path d="M383.5156,148.9688 Q383.6719,148.75 383.8594,148.6406 Q384.0469,148.5313 384.2656,148.5313 Q384.6406,148.5313 384.875,148.7969 Q385.1094,149.0469 385.1094,149.6563 L385.1094,151.1094 Q385.1094,151.7188 384.875,151.9844 Q384.6406,152.25 384.2656,152.25 Q383.9219,152.25 383.7188,152.0469 Q383.5156,151.8594 383.4063,151.3438 Q383.3594,150.9844 383.1719,150.7969 Q382.8438,150.4219 382.2344,150.2031 Q381.625,149.9844 381,149.9844 Q380.2344,149.9844 379.5938,150.3125 Q378.9688,150.6406 378.4688,151.3906 Q377.9844,152.1406 377.9844,153.1719 L377.9844,154.2656 Q377.9844,155.5 378.875,156.3281 Q379.7656,157.1406 381.3594,157.1406 Q382.2969,157.1406 382.9531,156.8906 Q383.3438,156.7344 383.7656,156.2969 Q384.0313,156.0313 384.1719,155.9531 Q384.3281,155.875 384.5313,155.875 Q384.8594,155.875 385.1094,156.1406 Q385.375,156.3906 385.375,156.7344 Q385.375,157.0781 385.0313,157.4844 Q384.5313,158.0625 383.7344,158.3906 Q382.6563,158.8438 381.3594,158.8438 Q379.8438,158.8438 378.6406,158.2188 Q377.6563,157.7188 376.9688,156.6563 Q376.2813,155.5781 376.2813,154.2969 L376.2813,153.1406 Q376.2813,151.8125 376.8906,150.6719 Q377.5156,149.5156 378.6094,148.9063 Q379.7031,148.2813 380.9375,148.2813 Q381.6719,148.2813 382.3125,148.4531 Q382.9688,148.6094 383.5156,148.9688 Z " fill="#000000"/><text fill="#000000" font-family="sans-serif" font-size="14" lengthAdjust="spacing" textLength="187" x="401.25" y="152.5332">JpaSignupRequestRepository</text><text fill="#000000" font-family="sans-serif" font-size="10" lengthAdjust="spacing" textLength="168" x="410.75" y="165.9902">lapr4.shodrone.persistence.impl.jpa</text><line style="stroke:#181818;stroke-width:0.5;" x1="300" x2="657" y1="173.1875" y2="173.1875"/><ellipse cx="310" cy="187.4922" fill="#84BE84" rx="3" ry="3" style="stroke:#038048;stroke-width:1.0;"/><text fill="#000000" font-family="sans-serif" font-size="14" lengthAdjust="spacing" textLength="331" x="319" y="191.7207">JpaSignupRequestRepository(TransactionalContext)</text><ellipse cx="310" cy="205.1016" fill="#84BE84" rx="3" ry="3" style="stroke:#038048;stroke-width:1.0;"/><text fill="#000000" font-family="sans-serif" font-size="14" lengthAdjust="spacing" textLength="234" x="319" y="209.3301">JpaSignupRequestRepository(String)</text><ellipse cx="310" cy="222.7109" fill="#84BE84" rx="3" ry="3" style="stroke:#038048;stroke-width:1.0;"/><text fill="#000000" font-family="sans-serif" font-size="14" lengthAdjust="spacing" textLength="333" x="319" y="226.9395">pendingSignupRequests(): Iterable&lt;SignupRequest&gt;</text></g></a><!--class eapli.framework.infrastructure.repositories.impl.jpa.JpaAutoTxRepository--><g id="elem_eapli.framework.infrastructure.repositories.impl.jpa.JpaAutoTxRepository"><rect codeLine="11" fill="#F1F1F1" height="40.1875" id="eapli.framework.infrastructure.repositories.impl.jpa.JpaAutoTxRepository" rx="2.5" ry="2.5" style="stroke:#181818;stroke-width:0.5;" width="485" x="7" y="20"/><ellipse cx="22" cy="40.0938" fill="#ADD1B2" rx="11" ry="11" style="stroke:#181818;stroke-width:1.0;"/><path d="M24.7656,35.9688 Q24.9219,35.75 25.1094,35.6406 Q25.2969,35.5313 25.5156,35.5313 Q25.8906,35.5313 26.125,35.7969 Q26.3594,36.0469 26.3594,36.6563 L26.3594,38.1094 Q26.3594,38.7188 26.125,38.9844 Q25.8906,39.25 25.5156,39.25 Q25.1719,39.25 24.9688,39.0469 Q24.7656,38.8594 24.6563,38.3438 Q24.6094,37.9844 24.4219,37.7969 Q24.0938,37.4219 23.4844,37.2031 Q22.875,36.9844 22.25,36.9844 Q21.4844,36.9844 20.8438,37.3125 Q20.2188,37.6406 19.7188,38.3906 Q19.2344,39.1406 19.2344,40.1719 L19.2344,41.2656 Q19.2344,42.5 20.125,43.3281 Q21.0156,44.1406 22.6094,44.1406 Q23.5469,44.1406 24.2031,43.8906 Q24.5938,43.7344 25.0156,43.2969 Q25.2813,43.0313 25.4219,42.9531 Q25.5781,42.875 25.7813,42.875 Q26.1094,42.875 26.3594,43.1406 Q26.625,43.3906 26.625,43.7344 Q26.625,44.0781 26.2813,44.4844 Q25.7813,45.0625 24.9844,45.3906 Q23.9063,45.8438 22.6094,45.8438 Q21.0938,45.8438 19.8906,45.2188 Q18.9063,44.7188 18.2188,43.6563 Q17.5313,42.5781 17.5313,41.2969 L17.5313,40.1406 Q17.5313,38.8125 18.1406,37.6719 Q18.7656,36.5156 19.8594,35.9063 Q20.9531,35.2813 22.1875,35.2813 Q22.9219,35.2813 23.5625,35.4531 Q24.2188,35.6094 24.7656,35.9688 Z " fill="#000000"/><text fill="#000000" font-family="sans-serif" font-size="14" lengthAdjust="spacing" textLength="134" x="87" y="39.5332">JpaAutoTxRepository</text><text fill="#000000" font-family="sans-serif" font-size="10" lengthAdjust="spacing" textLength="236" x="36" y="52.9902">eapli.framework.infrastructure.repositories.impl.jpa</text><rect fill="#FFFFFF" height="17.0938" style="stroke:#181818;stroke-width:1.0;stroke-dasharray:2.0,2.0;" width="215" x="280" y="17"/><text fill="#000000" font-family="sans-serif" font-size="12" font-style="italic" lengthAdjust="spacing" textLength="213" x="281" y="30.457">SignupRequest, Username, Username</text></g><!--class lapr4.shodrone.utentemanagement.repositories.SignupRequestRepository--><g id="elem_lapr4.shodrone.utentemanagement.repositories.SignupRequestRepository"><rect codeLine="12" fill="#F1F1F1" height="65.7969" id="lapr4.shodrone.utentemanagement.repositories.SignupRequestRepository" rx="2.5" ry="2.5" style="stroke:#181818;stroke-width:0.5;" width="360" x="527.5" y="7"/><ellipse cx="592.75" cy="27.0938" fill="#B4A7E5" rx="11" ry="11" style="stroke:#181818;stroke-width:1.0;"/><path d="M593.7031,23.7344 L593.7031,30.3906 L595.4219,30.3906 Q596.0313,30.3906 596.2969,30.625 Q596.5625,30.8594 596.5625,31.25 Q596.5625,31.625 596.2969,31.8594 Q596.0313,32.0938 595.4219,32.0938 L590.2813,32.0938 Q589.6719,32.0938 589.4063,31.8594 Q589.1406,31.625 589.1406,31.2344 Q589.1406,30.8594 589.4063,30.625 Q589.6719,30.3906 590.2813,30.3906 L592,30.3906 L592,23.7344 L590.2813,23.7344 Q589.6719,23.7344 589.4063,23.5 Q589.1406,23.2656 589.1406,22.875 Q589.1406,22.5 589.4063,22.2656 Q589.6719,22.0313 590.2813,22.0313 L595.4219,22.0313 Q596.0313,22.0313 596.2969,22.2656 Q596.5625,22.5 596.5625,22.875 Q596.5625,23.2656 596.2969,23.5 Q596.0313,23.7344 595.4219,23.7344 L593.7031,23.7344 Z " fill="#000000"/><text fill="#000000" font-family="sans-serif" font-size="14" font-style="italic" lengthAdjust="spacing" textLength="165" x="641.25" y="26.5332">SignupRequestRepository</text><text fill="#000000" font-family="sans-serif" font-size="10" font-style="italic" lengthAdjust="spacing" textLength="221" x="613.25" y="39.9902">lapr4.shodrone.utentemanagement.repositories</text><line style="stroke:#181818;stroke-width:0.5;" x1="528.5" x2="886.5" y1="47.1875" y2="47.1875"/><ellipse cx="538.5" cy="61.4922" fill="#84BE84" rx="3" ry="3" style="stroke:#038048;stroke-width:1.0;"/><text fill="#000000" font-family="sans-serif" font-size="14" font-style="italic" lengthAdjust="spacing" textLength="334" x="547.5" y="65.7207">pendingSignupRequests(): Iterable&lt;SignupRequest&gt;</text></g><!--reverse link eapli.framework.infrastructure.repositories.impl.jpa.JpaAutoTxRepository to lapr4.shodrone.persistence.impl.jpa.JpaSignupRequestRepository--><g id="link_eapli.framework.infrastructure.repositories.impl.jpa.JpaAutoTxRepository_lapr4.shodrone.persistence.impl.jpa.JpaSignupRequestRepository"><path codeLine="16" d="M295.693,69.541 C325.733,88.101 357.33,107.63 397.96,132.73 " fill="none" id="eapli.framework.infrastructure.repositories.impl.jpa.JpaAutoTxRepository-backto-lapr4.shodrone.persistence.impl.jpa.JpaSignupRequestRepository" style="stroke:#181818;stroke-width:1.0;"/><polygon fill="none" points="280.38,60.08,292.5393,74.6454,298.8467,64.4367,280.38,60.08" style="stroke:#181818;stroke-width:1.0;"/></g><!--reverse link lapr4.shodrone.utentemanagement.repositories.SignupRequestRepository to lapr4.shodrone.persistence.impl.jpa.JpaSignupRequestRepository--><g id="link_lapr4.shodrone.utentemanagement.repositories.SignupRequestRepository_lapr4.shodrone.persistence.impl.jpa.JpaSignupRequestRepository"><path codeLine="17" d="M640.2258,82.5692 C611.7158,100.1792 591.07,112.94 559.02,132.75 " fill="none" id="lapr4.shodrone.utentemanagement.repositories.SignupRequestRepository-backto-lapr4.shodrone.persistence.impl.jpa.JpaSignupRequestRepository" style="stroke:#181818;stroke-width:1.0;stroke-dasharray:7.0,7.0;"/><polygon fill="none" points="655.54,73.11,637.0728,77.4645,643.3789,87.6739,655.54,73.11" style="stroke:#181818;stroke-width:1.0;"/></g><text fill="#888888" font-family="sans-serif" font-size="10" lengthAdjust="spacing" textLength="184" x="348.25" y="250.3965">UMLDoclet 2.1.1, PlantUML 1.2023.12</text><!--SRC=[hLJ1Ji904Btx5HCI4uYo4SF941AZ5uqcHk2a78OoXTNjxhepLH3zTxUemHfgLEYbavdtTcRUlXO0W4d0OaRiCQ4UUGmeBe1rbdPY6QPwJ42PbpcacioOlsSpagcBwMK-CSWCjGxhPpfgjRld7djwOdD_JGyviLoJTwnZW_cj_G0TT0twq5OSJmcng_8KMBEGJKZfp1jrvx46oF0BdAfk23StrKKrbSmCXx1ORb4yUzNWUZ-WPKn4Eulcn5cXcJH-nUn9q7Ro1Ul9ZcEcXETwumZEX0AE37LAfUwI-Lefzd4khZzRgpAXDrgb8TxramltIjiOiuGyaJoG2fySJLoM_Jz4jMQMyYRxC60AXVDMqVjsEkePqkZ6BwlzsKHvz8LGXXOdbCMmDEOwD_r8K5MUMlbbWQEeIJJ5wsQNkYsreVFIR6xuoIm7sefEdHUbjZ5CKZGFa3fNl0QN5wSkCV4FTgXQghKFLmQjn2piFXQ7Erjll040]--></g></svg>