<?xml version="1.0" encoding="us-ascii" standalone="no"?><svg xmlns="http://www.w3.org/2000/svg" xmlns:xlink="http://www.w3.org/1999/xlink" contentStyleType="text/css" height="502px" preserveAspectRatio="none" style="width:2594px;height:502px;background:#FFFFFF;" version="1.1" viewBox="0 0 2594 502" width="2594px" zoomAndPan="magnify"><defs/><g><!--cluster lapr4.shodrone.persistence.impl.jpa--><g id="cluster_lapr4.shodrone.persistence.impl.jpa"><path d="M8.5,253 L262.5,253 A3.75,3.75 0 0 1 265,255.5 L272,276.6094 L2332.5,276.6094 A2.5,2.5 0 0 1 2335,279.1094 L2335,473.5 A2.5,2.5 0 0 1 2332.5,476 L8.5,476 A2.5,2.5 0 0 1 6,473.5 L6,255.5 A2.5,2.5 0 0 1 8.5,253 " fill="none" style="stroke:#000000;stroke-width:1.5;"/><line style="stroke:#000000;stroke-width:1.5;" x1="6" x2="272" y1="276.6094" y2="276.6094"/><text fill="#000000" font-family="sans-serif" font-size="14" font-weight="bold" lengthAdjust="spacing" textLength="253" x="10" y="269.5332">lapr4.shodrone.persistence.impl.jpa</text></g><!--cluster eapli.framework.infrastructure.repositories.impl.jpa--><g id="cluster_eapli.framework.infrastructure.repositories.impl.jpa"><path d="M307.5,23.5 L669.5,23.5 A3.75,3.75 0 0 1 672,26 L679,47.1094 L1145.5,47.1094 A2.5,2.5 0 0 1 1148,49.6094 L1148,209 A2.5,2.5 0 0 1 1145.5,211.5 L307.5,211.5 A2.5,2.5 0 0 1 305,209 L305,26 A2.5,2.5 0 0 1 307.5,23.5 " fill="none" style="stroke:#000000;stroke-width:1.5;"/><line style="stroke:#000000;stroke-width:1.5;" x1="305" x2="679" y1="47.1094" y2="47.1094"/><text fill="#000000" font-family="sans-serif" font-size="14" font-weight="bold" lengthAdjust="spacing" textLength="361" x="309" y="40.0332">eapli.framework.infrastructure.repositories.impl.jpa</text></g><!--cluster lapr4.shodrone.utentemanagement.repositories--><g id="cluster_lapr4.shodrone.utentemanagement.repositories"><path d="M1174.5,41 L1512.5,41 A3.75,3.75 0 0 1 1515,43.5 L1522,64.6094 L2082.5,64.6094 A2.5,2.5 0 0 1 2085,67.1094 L2085,191.5 A2.5,2.5 0 0 1 2082.5,194 L1174.5,194 A2.5,2.5 0 0 1 1172,191.5 L1172,43.5 A2.5,2.5 0 0 1 1174.5,41 " fill="none" style="stroke:#000000;stroke-width:1.5;"/><line style="stroke:#000000;stroke-width:1.5;" x1="1172" x2="1522" y1="64.6094" y2="64.6094"/><text fill="#000000" font-family="sans-serif" font-size="14" font-weight="bold" lengthAdjust="spacing" textLength="337" x="1176" y="57.5332">lapr4.shodrone.utentemanagement.repositories</text></g><!--cluster lapr4.shodrone.infrastructure.persistence--><g id="cluster_lapr4.shodrone.infrastructure.persistence"><path d="M2111.5,6 L2408.5,6 A3.75,3.75 0 0 1 2411,8.5 L2418,29.6094 L2584.5,29.6094 A2.5,2.5 0 0 1 2587,32.1094 L2587,226.5 A2.5,2.5 0 0 1 2584.5,229 L2111.5,229 A2.5,2.5 0 0 1 2109,226.5 L2109,8.5 A2.5,2.5 0 0 1 2111.5,6 " fill="none" style="stroke:#000000;stroke-width:1.5;"/><line style="stroke:#000000;stroke-width:1.5;" x1="2109" x2="2418" y1="29.6094" y2="29.6094"/><text fill="#000000" font-family="sans-serif" font-size="14" font-weight="bold" lengthAdjust="spacing" textLength="296" x="2113" y="22.5332">lapr4.shodrone.infrastructure.persistence</text></g><!--class BaseJpaRepositoryBase--><a href="BaseJpaRepositoryBase.html" target="_top" title="BaseJpaRepositoryBase.html" xlink:actuate="onRequest" xlink:href="BaseJpaRepositoryBase.html" xlink:show="new" xlink:title="BaseJpaRepositoryBase.html" xlink:type="simple"><g id="elem_BaseJpaRepositoryBase"><rect codeLine="5" fill="#F1F1F1" height="83.2188" id="BaseJpaRepositoryBase" rx="2.5" ry="2.5" style="stroke:#181818;stroke-width:0.5;" width="272" x="307" y="333"/><ellipse cx="344.95" cy="349" fill="#ADD1B2" rx="11" ry="11" style="stroke:#181818;stroke-width:1.0;"/><path d="M347.7156,344.875 Q347.8719,344.6563 348.0594,344.5469 Q348.2469,344.4375 348.4656,344.4375 Q348.8406,344.4375 349.075,344.7031 Q349.3094,344.9531 349.3094,345.5625 L349.3094,347.0156 Q349.3094,347.625 349.075,347.8906 Q348.8406,348.1563 348.4656,348.1563 Q348.1219,348.1563 347.9188,347.9531 Q347.7156,347.7656 347.6063,347.25 Q347.5594,346.8906 347.3719,346.7031 Q347.0438,346.3281 346.4344,346.1094 Q345.825,345.8906 345.2,345.8906 Q344.4344,345.8906 343.7938,346.2188 Q343.1688,346.5469 342.6688,347.2969 Q342.1844,348.0469 342.1844,349.0781 L342.1844,350.1719 Q342.1844,351.4063 343.075,352.2344 Q343.9656,353.0469 345.5594,353.0469 Q346.4969,353.0469 347.1531,352.7969 Q347.5438,352.6406 347.9656,352.2031 Q348.2313,351.9375 348.3719,351.8594 Q348.5281,351.7813 348.7313,351.7813 Q349.0594,351.7813 349.3094,352.0469 Q349.575,352.2969 349.575,352.6406 Q349.575,352.9844 349.2313,353.3906 Q348.7313,353.9688 347.9344,354.2969 Q346.8563,354.75 345.5594,354.75 Q344.0438,354.75 342.8406,354.125 Q341.8563,353.625 341.1688,352.5625 Q340.4813,351.4844 340.4813,350.2031 L340.4813,349.0469 Q340.4813,347.7188 341.0906,346.5781 Q341.7156,345.4219 342.8094,344.8125 Q343.9031,344.1875 345.1375,344.1875 Q345.8719,344.1875 346.5125,344.3594 Q347.1688,344.5156 347.7156,344.875 Z " fill="#000000"/><text fill="#000000" font-family="sans-serif" font-size="14" lengthAdjust="spacing" textLength="154" x="364.05" y="354.7285">BaseJpaRepositoryBase</text><rect fill="#FFFFFF" height="17.0938" style="stroke:#181818;stroke-width:1.0;stroke-dasharray:2.0,2.0;" width="33" x="549" y="330"/><text fill="#000000" font-family="sans-serif" font-size="12" font-style="italic" lengthAdjust="spacing" textLength="31" x="550" y="343.457">T, K, I</text><line style="stroke:#181818;stroke-width:0.5;" x1="308" x2="578" y1="365" y2="365"/><line style="stroke:#181818;stroke-width:0.5;" x1="308" x2="578" y1="373" y2="373"/><polygon fill="#4177AF" points="318,383.3047,314,389.3047,322,389.3047" style="stroke:#1963A0;stroke-width:1.0;"/><text fill="#000000" font-family="sans-serif" font-size="14" lengthAdjust="spacing" textLength="246" x="327" y="391.5332">BaseJpaRepositoryBase(String, String)</text><polygon fill="#4177AF" points="318,400.9141,314,406.9141,322,406.9141" style="stroke:#1963A0;stroke-width:1.0;"/><text fill="#000000" font-family="sans-serif" font-size="14" lengthAdjust="spacing" textLength="201" x="327" y="409.1426">BaseJpaRepositoryBase(String)</text></g></a><!--class ExemploJpaReportingRepositoryBase--><a href="ExemploJpaReportingRepositoryBase.html" target="_top" title="ExemploJpaReportingRepositoryBase.html" xlink:actuate="onRequest" xlink:href="ExemploJpaReportingRepositoryBase.html" xlink:show="new" xlink:title="ExemploJpaReportingRepositoryBase.html" xlink:type="simple"><g id="elem_ExemploJpaReportingRepositoryBase"><rect codeLine="10" fill="#F1F1F1" height="83.2188" id="ExemploJpaReportingRepositoryBase" rx="2.5" ry="2.5" style="stroke:#181818;stroke-width:0.5;" width="310" x="614" y="333"/><ellipse cx="647.45" cy="349" fill="#ADD1B2" rx="11" ry="11" style="stroke:#181818;stroke-width:1.0;"/><path d="M650.2156,344.875 Q650.3719,344.6563 650.5594,344.5469 Q650.7469,344.4375 650.9656,344.4375 Q651.3406,344.4375 651.575,344.7031 Q651.8094,344.9531 651.8094,345.5625 L651.8094,347.0156 Q651.8094,347.625 651.575,347.8906 Q651.3406,348.1563 650.9656,348.1563 Q650.6219,348.1563 650.4188,347.9531 Q650.2156,347.7656 650.1063,347.25 Q650.0594,346.8906 649.8719,346.7031 Q649.5438,346.3281 648.9344,346.1094 Q648.325,345.8906 647.7,345.8906 Q646.9344,345.8906 646.2938,346.2188 Q645.6688,346.5469 645.1688,347.2969 Q644.6844,348.0469 644.6844,349.0781 L644.6844,350.1719 Q644.6844,351.4063 645.575,352.2344 Q646.4656,353.0469 648.0594,353.0469 Q648.9969,353.0469 649.6531,352.7969 Q650.0438,352.6406 650.4656,352.2031 Q650.7313,351.9375 650.8719,351.8594 Q651.0281,351.7813 651.2313,351.7813 Q651.5594,351.7813 651.8094,352.0469 Q652.075,352.2969 652.075,352.6406 Q652.075,352.9844 651.7313,353.3906 Q651.2313,353.9688 650.4344,354.2969 Q649.3563,354.75 648.0594,354.75 Q646.5438,354.75 645.3406,354.125 Q644.3563,353.625 643.6688,352.5625 Q642.9813,351.4844 642.9813,350.2031 L642.9813,349.0469 Q642.9813,347.7188 643.5906,346.5781 Q644.2156,345.4219 645.3094,344.8125 Q646.4031,344.1875 647.6375,344.1875 Q648.3719,344.1875 649.0125,344.3594 Q649.6688,344.5156 650.2156,344.875 Z " fill="#000000"/><text fill="#000000" font-family="sans-serif" font-size="14" lengthAdjust="spacing" textLength="237" x="665.55" y="354.7285">ExemploJpaReportingRepositoryBase</text><line style="stroke:#181818;stroke-width:0.5;" x1="615" x2="923" y1="365" y2="365"/><line style="stroke:#181818;stroke-width:0.5;" x1="615" x2="923" y1="373" y2="373"/><polygon fill="#4177AF" points="625,383.3047,621,389.3047,629,389.3047" style="stroke:#1963A0;stroke-width:1.0;"/><text fill="#000000" font-family="sans-serif" font-size="14" lengthAdjust="spacing" textLength="247" x="634" y="391.5332">ExemploJpaReportingRepositoryBase()</text><polygon fill="#4177AF" points="625,400.9141,621,406.9141,629,406.9141" style="stroke:#1963A0;stroke-width:1.0;"/><text fill="#000000" font-family="sans-serif" font-size="14" lengthAdjust="spacing" textLength="284" x="634" y="409.1426">ExemploJpaReportingRepositoryBase(String)</text></g></a><!--class JpaClientUserRepository--><a href="JpaClientUserRepository.html" target="_top" title="JpaClientUserRepository.html" xlink:actuate="onRequest" xlink:href="JpaClientUserRepository.html" xlink:show="new" xlink:title="JpaClientUserRepository.html" xlink:type="simple"><g id="elem_JpaClientUserRepository"><rect codeLine="15" fill="#F1F1F1" height="136.0469" id="JpaClientUserRepository" rx="2.5" ry="2.5" style="stroke:#181818;stroke-width:0.5;" width="485" x="959.5" y="306.5"/><ellipse cx="1120.25" cy="322.5" fill="#ADD1B2" rx="11" ry="11" style="stroke:#181818;stroke-width:1.0;"/><path d="M1123.0156,318.375 Q1123.1719,318.1563 1123.3594,318.0469 Q1123.5469,317.9375 1123.7656,317.9375 Q1124.1406,317.9375 1124.375,318.2031 Q1124.6094,318.4531 1124.6094,319.0625 L1124.6094,320.5156 Q1124.6094,321.125 1124.375,321.3906 Q1124.1406,321.6563 1123.7656,321.6563 Q1123.4219,321.6563 1123.2188,321.4531 Q1123.0156,321.2656 1122.9063,320.75 Q1122.8594,320.3906 1122.6719,320.2031 Q1122.3438,319.8281 1121.7344,319.6094 Q1121.125,319.3906 1120.5,319.3906 Q1119.7344,319.3906 1119.0938,319.7188 Q1118.4688,320.0469 1117.9688,320.7969 Q1117.4844,321.5469 1117.4844,322.5781 L1117.4844,323.6719 Q1117.4844,324.9063 1118.375,325.7344 Q1119.2656,326.5469 1120.8594,326.5469 Q1121.7969,326.5469 1122.4531,326.2969 Q1122.8438,326.1406 1123.2656,325.7031 Q1123.5313,325.4375 1123.6719,325.3594 Q1123.8281,325.2813 1124.0313,325.2813 Q1124.3594,325.2813 1124.6094,325.5469 Q1124.875,325.7969 1124.875,326.1406 Q1124.875,326.4844 1124.5313,326.8906 Q1124.0313,327.4688 1123.2344,327.7969 Q1122.1563,328.25 1120.8594,328.25 Q1119.3438,328.25 1118.1406,327.625 Q1117.1563,327.125 1116.4688,326.0625 Q1115.7813,324.9844 1115.7813,323.7031 L1115.7813,322.5469 Q1115.7813,321.2188 1116.3906,320.0781 Q1117.0156,318.9219 1118.1094,318.3125 Q1119.2031,317.6875 1120.4375,317.6875 Q1121.1719,317.6875 1121.8125,317.8594 Q1122.4688,318.0156 1123.0156,318.375 Z " fill="#000000"/><text fill="#000000" font-family="sans-serif" font-size="14" lengthAdjust="spacing" textLength="155" x="1140.75" y="328.2285">JpaClientUserRepository</text><line style="stroke:#181818;stroke-width:0.5;" x1="960.5" x2="1443.5" y1="338.5" y2="338.5"/><line style="stroke:#181818;stroke-width:0.5;" x1="960.5" x2="1443.5" y1="346.5" y2="346.5"/><ellipse cx="970.5" cy="360.8047" fill="#84BE84" rx="3" ry="3" style="stroke:#038048;stroke-width:1.0;"/><text fill="#000000" font-family="sans-serif" font-size="14" lengthAdjust="spacing" textLength="299" x="979.5" y="365.0332">JpaClientUserRepository(TransactionalContext)</text><ellipse cx="970.5" cy="378.4141" fill="#84BE84" rx="3" ry="3" style="stroke:#038048;stroke-width:1.0;"/><text fill="#000000" font-family="sans-serif" font-size="14" lengthAdjust="spacing" textLength="202" x="979.5" y="382.6426">JpaClientUserRepository(String)</text><ellipse cx="970.5" cy="396.0234" fill="#84BE84" rx="3" ry="3" style="stroke:#038048;stroke-width:1.0;"/><text fill="#000000" font-family="sans-serif" font-size="14" lengthAdjust="spacing" textLength="295" x="979.5" y="400.252">findByUsername(Username): Optional&lt;Utente&gt;</text><ellipse cx="970.5" cy="413.6328" fill="#84BE84" rx="3" ry="3" style="stroke:#038048;stroke-width:1.0;"/><text fill="#000000" font-family="sans-serif" font-size="14" lengthAdjust="spacing" textLength="459" x="979.5" y="417.8613">findByMecanographicNumber(MecanographicNumber): Optional&lt;Utente&gt;</text><ellipse cx="970.5" cy="431.2422" fill="#84BE84" rx="3" ry="3" style="stroke:#038048;stroke-width:1.0;"/><text fill="#000000" font-family="sans-serif" font-size="14" lengthAdjust="spacing" textLength="198" x="979.5" y="435.4707">findAllActive(): Iterable&lt;Utente&gt;</text></g></a><!--class JpaRepositoryFactory--><a href="JpaRepositoryFactory.html" target="_top" title="JpaRepositoryFactory.html" xlink:actuate="onRequest" xlink:href="JpaRepositoryFactory.html" xlink:show="new" xlink:title="JpaRepositoryFactory.html" xlink:type="simple"><g id="elem_JpaRepositoryFactory"><rect codeLine="23" fill="#F1F1F1" height="171.2656" id="JpaRepositoryFactory" rx="2.5" ry="2.5" style="stroke:#181818;stroke-width:0.5;" width="445" x="1873.5" y="289"/><ellipse cx="2022.75" cy="305" fill="#ADD1B2" rx="11" ry="11" style="stroke:#181818;stroke-width:1.0;"/><path d="M2025.5156,300.875 Q2025.6719,300.6563 2025.8594,300.5469 Q2026.0469,300.4375 2026.2656,300.4375 Q2026.6406,300.4375 2026.875,300.7031 Q2027.1094,300.9531 2027.1094,301.5625 L2027.1094,303.0156 Q2027.1094,303.625 2026.875,303.8906 Q2026.6406,304.1563 2026.2656,304.1563 Q2025.9219,304.1563 2025.7188,303.9531 Q2025.5156,303.7656 2025.4063,303.25 Q2025.3594,302.8906 2025.1719,302.7031 Q2024.8438,302.3281 2024.2344,302.1094 Q2023.625,301.8906 2023,301.8906 Q2022.2344,301.8906 2021.5938,302.2188 Q2020.9688,302.5469 2020.4688,303.2969 Q2019.9844,304.0469 2019.9844,305.0781 L2019.9844,306.1719 Q2019.9844,307.4063 2020.875,308.2344 Q2021.7656,309.0469 2023.3594,309.0469 Q2024.2969,309.0469 2024.9531,308.7969 Q2025.3438,308.6406 2025.7656,308.2031 Q2026.0313,307.9375 2026.1719,307.8594 Q2026.3281,307.7813 2026.5313,307.7813 Q2026.8594,307.7813 2027.1094,308.0469 Q2027.375,308.2969 2027.375,308.6406 Q2027.375,308.9844 2027.0313,309.3906 Q2026.5313,309.9688 2025.7344,310.2969 Q2024.6563,310.75 2023.3594,310.75 Q2021.8438,310.75 2020.6406,310.125 Q2019.6563,309.625 2018.9688,308.5625 Q2018.2813,307.4844 2018.2813,306.2031 L2018.2813,305.0469 Q2018.2813,303.7188 2018.8906,302.5781 Q2019.5156,301.4219 2020.6094,300.8125 Q2021.7031,300.1875 2022.9375,300.1875 Q2023.6719,300.1875 2024.3125,300.3594 Q2024.9688,300.5156 2025.5156,300.875 Z " fill="#000000"/><text fill="#000000" font-family="sans-serif" font-size="14" lengthAdjust="spacing" textLength="138" x="2043.25" y="310.7285">JpaRepositoryFactory</text><line style="stroke:#181818;stroke-width:0.5;" x1="1874.5" x2="2317.5" y1="321" y2="321"/><line style="stroke:#181818;stroke-width:0.5;" x1="1874.5" x2="2317.5" y1="329" y2="329"/><ellipse cx="1884.5" cy="343.3047" fill="#84BE84" rx="3" ry="3" style="stroke:#038048;stroke-width:1.0;"/><text fill="#000000" font-family="sans-serif" font-size="14" lengthAdjust="spacing" textLength="284" x="1893.5" y="347.5332">users(TransactionalContext): UserRepository</text><ellipse cx="1884.5" cy="360.9141" fill="#84BE84" rx="3" ry="3" style="stroke:#038048;stroke-width:1.0;"/><text fill="#000000" font-family="sans-serif" font-size="14" lengthAdjust="spacing" textLength="150" x="1893.5" y="365.1426">users(): UserRepository</text><ellipse cx="1884.5" cy="378.5234" fill="#84BE84" rx="3" ry="3" style="stroke:#038048;stroke-width:1.0;"/><text fill="#000000" font-family="sans-serif" font-size="14" lengthAdjust="spacing" textLength="354" x="1893.5" y="382.752">utentes(TransactionalContext): JpaClientUserRepository</text><ellipse cx="1884.5" cy="396.1328" fill="#84BE84" rx="3" ry="3" style="stroke:#038048;stroke-width:1.0;"/><text fill="#000000" font-family="sans-serif" font-size="14" lengthAdjust="spacing" textLength="220" x="1893.5" y="400.3613">utentes(): JpaClientUserRepository</text><ellipse cx="1884.5" cy="413.7422" fill="#84BE84" rx="3" ry="3" style="stroke:#038048;stroke-width:1.0;"/><text fill="#000000" font-family="sans-serif" font-size="14" lengthAdjust="spacing" textLength="419" x="1893.5" y="417.9707">signupRequests(TransactionalContext): SignupRequestRepository</text><ellipse cx="1884.5" cy="431.3516" fill="#84BE84" rx="3" ry="3" style="stroke:#038048;stroke-width:1.0;"/><text fill="#000000" font-family="sans-serif" font-size="14" lengthAdjust="spacing" textLength="285" x="1893.5" y="435.5801">signupRequests(): SignupRequestRepository</text><ellipse cx="1884.5" cy="448.9609" fill="#84BE84" rx="3" ry="3" style="stroke:#038048;stroke-width:1.0;"/><text fill="#000000" font-family="sans-serif" font-size="14" lengthAdjust="spacing" textLength="311" x="1893.5" y="453.1895">newTransactionalContext(): TransactionalContext</text></g></a><!--class JpaSignupRequestRepository--><a href="JpaSignupRequestRepository.html" target="_top" title="JpaSignupRequestRepository.html" xlink:actuate="onRequest" xlink:href="JpaSignupRequestRepository.html" xlink:show="new" xlink:title="JpaSignupRequestRepository.html" xlink:type="simple"><g id="elem_JpaSignupRequestRepository"><rect codeLine="33" fill="#F1F1F1" height="100.8281" id="JpaSignupRequestRepository" rx="2.5" ry="2.5" style="stroke:#181818;stroke-width:0.5;" width="359" x="1479.5" y="324"/><ellipse cx="1561.25" cy="340" fill="#ADD1B2" rx="11" ry="11" style="stroke:#181818;stroke-width:1.0;"/><path d="M1564.0156,335.875 Q1564.1719,335.6563 1564.3594,335.5469 Q1564.5469,335.4375 1564.7656,335.4375 Q1565.1406,335.4375 1565.375,335.7031 Q1565.6094,335.9531 1565.6094,336.5625 L1565.6094,338.0156 Q1565.6094,338.625 1565.375,338.8906 Q1565.1406,339.1563 1564.7656,339.1563 Q1564.4219,339.1563 1564.2188,338.9531 Q1564.0156,338.7656 1563.9063,338.25 Q1563.8594,337.8906 1563.6719,337.7031 Q1563.3438,337.3281 1562.7344,337.1094 Q1562.125,336.8906 1561.5,336.8906 Q1560.7344,336.8906 1560.0938,337.2188 Q1559.4688,337.5469 1558.9688,338.2969 Q1558.4844,339.0469 1558.4844,340.0781 L1558.4844,341.1719 Q1558.4844,342.4063 1559.375,343.2344 Q1560.2656,344.0469 1561.8594,344.0469 Q1562.7969,344.0469 1563.4531,343.7969 Q1563.8438,343.6406 1564.2656,343.2031 Q1564.5313,342.9375 1564.6719,342.8594 Q1564.8281,342.7813 1565.0313,342.7813 Q1565.3594,342.7813 1565.6094,343.0469 Q1565.875,343.2969 1565.875,343.6406 Q1565.875,343.9844 1565.5313,344.3906 Q1565.0313,344.9688 1564.2344,345.2969 Q1563.1563,345.75 1561.8594,345.75 Q1560.3438,345.75 1559.1406,345.125 Q1558.1563,344.625 1557.4688,343.5625 Q1556.7813,342.4844 1556.7813,341.2031 L1556.7813,340.0469 Q1556.7813,338.7188 1557.3906,337.5781 Q1558.0156,336.4219 1559.1094,335.8125 Q1560.2031,335.1875 1561.4375,335.1875 Q1562.1719,335.1875 1562.8125,335.3594 Q1563.4688,335.5156 1564.0156,335.875 Z " fill="#000000"/><text fill="#000000" font-family="sans-serif" font-size="14" lengthAdjust="spacing" textLength="187" x="1581.75" y="345.7285">JpaSignupRequestRepository</text><line style="stroke:#181818;stroke-width:0.5;" x1="1480.5" x2="1837.5" y1="356" y2="356"/><line style="stroke:#181818;stroke-width:0.5;" x1="1480.5" x2="1837.5" y1="364" y2="364"/><ellipse cx="1490.5" cy="378.3047" fill="#84BE84" rx="3" ry="3" style="stroke:#038048;stroke-width:1.0;"/><text fill="#000000" font-family="sans-serif" font-size="14" lengthAdjust="spacing" textLength="331" x="1499.5" y="382.5332">JpaSignupRequestRepository(TransactionalContext)</text><ellipse cx="1490.5" cy="395.9141" fill="#84BE84" rx="3" ry="3" style="stroke:#038048;stroke-width:1.0;"/><text fill="#000000" font-family="sans-serif" font-size="14" lengthAdjust="spacing" textLength="234" x="1499.5" y="400.1426">JpaSignupRequestRepository(String)</text><ellipse cx="1490.5" cy="413.5234" fill="#84BE84" rx="3" ry="3" style="stroke:#038048;stroke-width:1.0;"/><text fill="#000000" font-family="sans-serif" font-size="14" lengthAdjust="spacing" textLength="333" x="1499.5" y="417.752">pendingSignupRequests(): Iterable&lt;SignupRequest&gt;</text></g></a><!--class PersistenceSettings--><a href="PersistenceSettings.html" target="_top" title="PersistenceSettings.html" xlink:actuate="onRequest" xlink:href="PersistenceSettings.html" xlink:show="new" xlink:title="PersistenceSettings.html" xlink:type="simple"><g id="elem_PersistenceSettings"><rect codeLine="39" fill="#F1F1F1" height="65.6094" id="PersistenceSettings" rx="2.5" ry="2.5" style="stroke:#181818;stroke-width:0.5;" width="250" x="22" y="341.5"/><ellipse cx="80.25" cy="357.5" fill="#ADD1B2" rx="11" ry="11" style="stroke:#181818;stroke-width:1.0;"/><path d="M83.0156,353.375 Q83.1719,353.1563 83.3594,353.0469 Q83.5469,352.9375 83.7656,352.9375 Q84.1406,352.9375 84.375,353.2031 Q84.6094,353.4531 84.6094,354.0625 L84.6094,355.5156 Q84.6094,356.125 84.375,356.3906 Q84.1406,356.6563 83.7656,356.6563 Q83.4219,356.6563 83.2188,356.4531 Q83.0156,356.2656 82.9063,355.75 Q82.8594,355.3906 82.6719,355.2031 Q82.3438,354.8281 81.7344,354.6094 Q81.125,354.3906 80.5,354.3906 Q79.7344,354.3906 79.0938,354.7188 Q78.4688,355.0469 77.9688,355.7969 Q77.4844,356.5469 77.4844,357.5781 L77.4844,358.6719 Q77.4844,359.9063 78.375,360.7344 Q79.2656,361.5469 80.8594,361.5469 Q81.7969,361.5469 82.4531,361.2969 Q82.8438,361.1406 83.2656,360.7031 Q83.5313,360.4375 83.6719,360.3594 Q83.8281,360.2813 84.0313,360.2813 Q84.3594,360.2813 84.6094,360.5469 Q84.875,360.7969 84.875,361.1406 Q84.875,361.4844 84.5313,361.8906 Q84.0313,362.4688 83.2344,362.7969 Q82.1563,363.25 80.8594,363.25 Q79.3438,363.25 78.1406,362.625 Q77.1563,362.125 76.4688,361.0625 Q75.7813,359.9844 75.7813,358.7031 L75.7813,357.5469 Q75.7813,356.2188 76.3906,355.0781 Q77.0156,353.9219 78.1094,353.3125 Q79.2031,352.6875 80.4375,352.6875 Q81.1719,352.6875 81.8125,352.8594 Q82.4688,353.0156 83.0156,353.375 Z " fill="#000000"/><text fill="#000000" font-family="sans-serif" font-size="14" lengthAdjust="spacing" textLength="125" x="100.75" y="363.2285">PersistenceSettings</text><line style="stroke:#181818;stroke-width:0.5;" x1="23" x2="271" y1="373.5" y2="373.5"/><ellipse cx="33" cy="387.8047" fill="none" rx="3" ry="3" style="stroke:#038048;stroke-width:1.0;"/><text fill="#000000" font-family="sans-serif" font-size="14" lengthAdjust="spacing" text-decoration="underline" textLength="224" x="42" y="392.0332">PERSISTENCE_UNIT_NAME: String</text><line style="stroke:#181818;stroke-width:0.5;" x1="23" x2="271" y1="399.1094" y2="399.1094"/></g></a><!--class JpaTransactionalRepository--><g id="elem_JpaTransactionalRepository"><rect codeLine="46" fill="#F1F1F1" height="48" id="JpaTransactionalRepository" rx="2.5" ry="2.5" style="stroke:#181818;stroke-width:0.5;" width="243" x="321.5" y="103.5"/><ellipse cx="336.5" cy="119.5" fill="#ADD1B2" rx="11" ry="11" style="stroke:#181818;stroke-width:1.0;"/><path d="M339.2656,115.375 Q339.4219,115.1563 339.6094,115.0469 Q339.7969,114.9375 340.0156,114.9375 Q340.3906,114.9375 340.625,115.2031 Q340.8594,115.4531 340.8594,116.0625 L340.8594,117.5156 Q340.8594,118.125 340.625,118.3906 Q340.3906,118.6563 340.0156,118.6563 Q339.6719,118.6563 339.4688,118.4531 Q339.2656,118.2656 339.1563,117.75 Q339.1094,117.3906 338.9219,117.2031 Q338.5938,116.8281 337.9844,116.6094 Q337.375,116.3906 336.75,116.3906 Q335.9844,116.3906 335.3438,116.7188 Q334.7188,117.0469 334.2188,117.7969 Q333.7344,118.5469 333.7344,119.5781 L333.7344,120.6719 Q333.7344,121.9063 334.625,122.7344 Q335.5156,123.5469 337.1094,123.5469 Q338.0469,123.5469 338.7031,123.2969 Q339.0938,123.1406 339.5156,122.7031 Q339.7813,122.4375 339.9219,122.3594 Q340.0781,122.2813 340.2813,122.2813 Q340.6094,122.2813 340.8594,122.5469 Q341.125,122.7969 341.125,123.1406 Q341.125,123.4844 340.7813,123.8906 Q340.2813,124.4688 339.4844,124.7969 Q338.4063,125.25 337.1094,125.25 Q335.5938,125.25 334.3906,124.625 Q333.4063,124.125 332.7188,123.0625 Q332.0313,121.9844 332.0313,120.7031 L332.0313,119.5469 Q332.0313,118.2188 332.6406,117.0781 Q333.2656,115.9219 334.3594,115.3125 Q335.4531,114.6875 336.6875,114.6875 Q337.4219,114.6875 338.0625,114.8594 Q338.7188,115.0156 339.2656,115.375 Z " fill="#000000"/><text fill="#000000" font-family="sans-serif" font-size="14" lengthAdjust="spacing" textLength="176" x="350.5" y="125.2285">JpaTransactionalRepository</text><rect fill="#FFFFFF" height="17.0938" style="stroke:#181818;stroke-width:1.0;stroke-dasharray:2.0,2.0;" width="33" x="534.5" y="100.5"/><text fill="#000000" font-family="sans-serif" font-size="12" font-style="italic" lengthAdjust="spacing" textLength="31" x="535.5" y="113.957">T, K, I</text><line style="stroke:#181818;stroke-width:0.5;" x1="322.5" x2="563.5" y1="135.5" y2="135.5"/><line style="stroke:#181818;stroke-width:0.5;" x1="322.5" x2="563.5" y1="143.5" y2="143.5"/></g><!--class JpaTransactionalContext--><g id="elem_JpaTransactionalContext"><rect codeLine="47" fill="#F1F1F1" height="136.0469" id="JpaTransactionalContext" rx="2.5" ry="2.5" style="stroke:#181818;stroke-width:0.5;" width="259" x="599.5" y="59.5"/><ellipse cx="646.75" cy="75.5" fill="#ADD1B2" rx="11" ry="11" style="stroke:#181818;stroke-width:1.0;"/><path d="M649.5156,71.375 Q649.6719,71.1563 649.8594,71.0469 Q650.0469,70.9375 650.2656,70.9375 Q650.6406,70.9375 650.875,71.2031 Q651.1094,71.4531 651.1094,72.0625 L651.1094,73.5156 Q651.1094,74.125 650.875,74.3906 Q650.6406,74.6563 650.2656,74.6563 Q649.9219,74.6563 649.7188,74.4531 Q649.5156,74.2656 649.4063,73.75 Q649.3594,73.3906 649.1719,73.2031 Q648.8438,72.8281 648.2344,72.6094 Q647.625,72.3906 647,72.3906 Q646.2344,72.3906 645.5938,72.7188 Q644.9688,73.0469 644.4688,73.7969 Q643.9844,74.5469 643.9844,75.5781 L643.9844,76.6719 Q643.9844,77.9063 644.875,78.7344 Q645.7656,79.5469 647.3594,79.5469 Q648.2969,79.5469 648.9531,79.2969 Q649.3438,79.1406 649.7656,78.7031 Q650.0313,78.4375 650.1719,78.3594 Q650.3281,78.2813 650.5313,78.2813 Q650.8594,78.2813 651.1094,78.5469 Q651.375,78.7969 651.375,79.1406 Q651.375,79.4844 651.0313,79.8906 Q650.5313,80.4688 649.7344,80.7969 Q648.6563,81.25 647.3594,81.25 Q645.8438,81.25 644.6406,80.625 Q643.6563,80.125 642.9688,79.0625 Q642.2813,77.9844 642.2813,76.7031 L642.2813,75.5469 Q642.2813,74.2188 642.8906,73.0781 Q643.5156,71.9219 644.6094,71.3125 Q645.7031,70.6875 646.9375,70.6875 Q647.6719,70.6875 648.3125,70.8594 Q648.9688,71.0156 649.5156,71.375 Z " fill="#000000"/><text fill="#000000" font-family="sans-serif" font-size="14" lengthAdjust="spacing" textLength="156" x="667.25" y="81.2285">JpaTransactionalContext</text><line style="stroke:#181818;stroke-width:0.5;" x1="600.5" x2="857.5" y1="91.5" y2="91.5"/><rect fill="none" height="6" style="stroke:#C82930;stroke-width:1.0;" width="6" x="607.5" y="102.8047"/><text fill="#000000" font-family="sans-serif" font-size="14" lengthAdjust="spacing" text-decoration="underline" textLength="113" x="619.5" y="110.0332">LOGGER: Logger</text><rect fill="none" height="6" style="stroke:#C82930;stroke-width:1.0;" width="6" x="607.5" y="120.4141"/><text fill="#000000" font-family="sans-serif" font-size="14" lengthAdjust="spacing" textLength="178" x="619.5" y="127.6426">persistenceUnitName: String</text><rect fill="none" height="6" style="stroke:#C82930;stroke-width:1.0;" width="6" x="607.5" y="138.0234"/><text fill="#000000" font-family="sans-serif" font-size="14" lengthAdjust="spacing" text-decoration="underline" textLength="233" x="619.5" y="145.252">singletonEMF: EntityManagerFactory</text><rect fill="none" height="6" style="stroke:#C82930;stroke-width:1.0;" width="6" x="607.5" y="155.6328"/><text fill="#000000" font-family="sans-serif" font-size="14" lengthAdjust="spacing" textLength="189" x="619.5" y="162.8613">entityManager: EntityManager</text><rect fill="none" height="6" style="stroke:#C82930;stroke-width:1.0;" width="6" x="607.5" y="173.2422"/><text fill="#000000" font-family="sans-serif" font-size="14" lengthAdjust="spacing" textLength="99" x="619.5" y="180.4707">properties: Map</text><line style="stroke:#181818;stroke-width:0.5;" x1="600.5" x2="857.5" y1="187.5469" y2="187.5469"/></g><!--class JpaAutoTxRepository--><g id="elem_JpaAutoTxRepository"><rect codeLine="54" fill="#F1F1F1" height="83.2188" id="JpaAutoTxRepository" rx="2.5" ry="2.5" style="stroke:#181818;stroke-width:0.5;" width="238" x="894" y="86"/><ellipse cx="925.65" cy="102" fill="#ADD1B2" rx="11" ry="11" style="stroke:#181818;stroke-width:1.0;"/><path d="M928.4156,97.875 Q928.5719,97.6563 928.7594,97.5469 Q928.9469,97.4375 929.1656,97.4375 Q929.5406,97.4375 929.775,97.7031 Q930.0094,97.9531 930.0094,98.5625 L930.0094,100.0156 Q930.0094,100.625 929.775,100.8906 Q929.5406,101.1563 929.1656,101.1563 Q928.8219,101.1563 928.6188,100.9531 Q928.4156,100.7656 928.3063,100.25 Q928.2594,99.8906 928.0719,99.7031 Q927.7438,99.3281 927.1344,99.1094 Q926.525,98.8906 925.9,98.8906 Q925.1344,98.8906 924.4938,99.2188 Q923.8688,99.5469 923.3688,100.2969 Q922.8844,101.0469 922.8844,102.0781 L922.8844,103.1719 Q922.8844,104.4063 923.775,105.2344 Q924.6656,106.0469 926.2594,106.0469 Q927.1969,106.0469 927.8531,105.7969 Q928.2438,105.6406 928.6656,105.2031 Q928.9313,104.9375 929.0719,104.8594 Q929.2281,104.7813 929.4313,104.7813 Q929.7594,104.7813 930.0094,105.0469 Q930.275,105.2969 930.275,105.6406 Q930.275,105.9844 929.9313,106.3906 Q929.4313,106.9688 928.6344,107.2969 Q927.5563,107.75 926.2594,107.75 Q924.7438,107.75 923.5406,107.125 Q922.5563,106.625 921.8688,105.5625 Q921.1813,104.4844 921.1813,103.2031 L921.1813,102.0469 Q921.1813,100.7188 921.7906,99.5781 Q922.4156,98.4219 923.5094,97.8125 Q924.6031,97.1875 925.8375,97.1875 Q926.5719,97.1875 927.2125,97.3594 Q927.8688,97.5156 928.4156,97.875 Z " fill="#000000"/><text fill="#000000" font-family="sans-serif" font-size="14" lengthAdjust="spacing" textLength="134" x="943.35" y="107.7285">JpaAutoTxRepository</text><rect fill="#FFFFFF" height="17.0938" style="stroke:#181818;stroke-width:1.0;stroke-dasharray:2.0,2.0;" width="33" x="1102" y="83"/><text fill="#000000" font-family="sans-serif" font-size="12" font-style="italic" lengthAdjust="spacing" textLength="31" x="1103" y="96.457">T, K, I</text><line style="stroke:#181818;stroke-width:0.5;" x1="895" x2="1131" y1="118" y2="118"/><polygon fill="none" points="905,127.3047,909,131.3047,905,135.3047,901,131.3047" style="stroke:#B38D22;stroke-width:1.0;"/><text fill="#000000" font-family="sans-serif" font-size="14" lengthAdjust="spacing" textLength="212" x="914" y="136.5332">repo: JpaBaseRepository&lt;T, K, I&gt;</text><rect fill="none" height="6" style="stroke:#C82930;stroke-width:1.0;" width="6" x="902" y="146.9141"/><text fill="#000000" font-family="sans-serif" font-size="14" lengthAdjust="spacing" textLength="185" x="914" y="154.1426">autoTx: TransactionalContext</text><line style="stroke:#181818;stroke-width:0.5;" x1="895" x2="1131" y1="161.2188" y2="161.2188"/></g><!--class UtenteRepository--><g id="elem_UtenteRepository"><rect codeLine="61" fill="#F1F1F1" height="100.8281" id="UtenteRepository" rx="2.5" ry="2.5" style="stroke:#181818;stroke-width:0.5;" width="485" x="1188.5" y="77"/><ellipse cx="1371.75" cy="93" fill="#B4A7E5" rx="11" ry="11" style="stroke:#181818;stroke-width:1.0;"/><path d="M1372.7031,89.6406 L1372.7031,96.2969 L1374.4219,96.2969 Q1375.0313,96.2969 1375.2969,96.5313 Q1375.5625,96.7656 1375.5625,97.1563 Q1375.5625,97.5313 1375.2969,97.7656 Q1375.0313,98 1374.4219,98 L1369.2813,98 Q1368.6719,98 1368.4063,97.7656 Q1368.1406,97.5313 1368.1406,97.1406 Q1368.1406,96.7656 1368.4063,96.5313 Q1368.6719,96.2969 1369.2813,96.2969 L1371,96.2969 L1371,89.6406 L1369.2813,89.6406 Q1368.6719,89.6406 1368.4063,89.4063 Q1368.1406,89.1719 1368.1406,88.7813 Q1368.1406,88.4063 1368.4063,88.1719 Q1368.6719,87.9375 1369.2813,87.9375 L1374.4219,87.9375 Q1375.0313,87.9375 1375.2969,88.1719 Q1375.5625,88.4063 1375.5625,88.7813 Q1375.5625,89.1719 1375.2969,89.4063 Q1375.0313,89.6406 1374.4219,89.6406 L1372.7031,89.6406 Z " fill="#000000"/><text fill="#000000" font-family="sans-serif" font-size="14" font-style="italic" lengthAdjust="spacing" textLength="110" x="1392.25" y="98.7285">UtenteRepository</text><line style="stroke:#181818;stroke-width:0.5;" x1="1189.5" x2="1672.5" y1="109" y2="109"/><line style="stroke:#181818;stroke-width:0.5;" x1="1189.5" x2="1672.5" y1="117" y2="117"/><ellipse cx="1199.5" cy="131.3047" fill="#84BE84" rx="3" ry="3" style="stroke:#038048;stroke-width:1.0;"/><text fill="#000000" font-family="sans-serif" font-size="14" font-style="italic" lengthAdjust="spacing" textLength="298" x="1208.5" y="135.5332">findByUsername(Username): Optional&lt;Utente&gt;</text><ellipse cx="1199.5" cy="148.9141" fill="#84BE84" rx="3" ry="3" style="stroke:#038048;stroke-width:1.0;"/><text fill="#000000" font-family="sans-serif" font-size="14" lengthAdjust="spacing" textLength="459" x="1208.5" y="153.1426">findByMecanographicNumber(MecanographicNumber): Optional&lt;Utente&gt;</text><ellipse cx="1199.5" cy="166.5234" fill="#84BE84" rx="3" ry="3" style="stroke:#038048;stroke-width:1.0;"/><text fill="#000000" font-family="sans-serif" font-size="14" font-style="italic" lengthAdjust="spacing" textLength="199" x="1208.5" y="170.752">findAllActive(): Iterable&lt;Utente&gt;</text></g><!--class SignupRequestRepository--><g id="elem_SignupRequestRepository"><rect codeLine="66" fill="#F1F1F1" height="65.6094" id="SignupRequestRepository" rx="2.5" ry="2.5" style="stroke:#181818;stroke-width:0.5;" width="360" x="1709" y="94.5"/><ellipse cx="1802.25" cy="110.5" fill="#B4A7E5" rx="11" ry="11" style="stroke:#181818;stroke-width:1.0;"/><path d="M1803.2031,107.1406 L1803.2031,113.7969 L1804.9219,113.7969 Q1805.5313,113.7969 1805.7969,114.0313 Q1806.0625,114.2656 1806.0625,114.6563 Q1806.0625,115.0313 1805.7969,115.2656 Q1805.5313,115.5 1804.9219,115.5 L1799.7813,115.5 Q1799.1719,115.5 1798.9063,115.2656 Q1798.6406,115.0313 1798.6406,114.6406 Q1798.6406,114.2656 1798.9063,114.0313 Q1799.1719,113.7969 1799.7813,113.7969 L1801.5,113.7969 L1801.5,107.1406 L1799.7813,107.1406 Q1799.1719,107.1406 1798.9063,106.9063 Q1798.6406,106.6719 1798.6406,106.2813 Q1798.6406,105.9063 1798.9063,105.6719 Q1799.1719,105.4375 1799.7813,105.4375 L1804.9219,105.4375 Q1805.5313,105.4375 1805.7969,105.6719 Q1806.0625,105.9063 1806.0625,106.2813 Q1806.0625,106.6719 1805.7969,106.9063 Q1805.5313,107.1406 1804.9219,107.1406 L1803.2031,107.1406 Z " fill="#000000"/><text fill="#000000" font-family="sans-serif" font-size="14" font-style="italic" lengthAdjust="spacing" textLength="165" x="1822.75" y="116.2285">SignupRequestRepository</text><line style="stroke:#181818;stroke-width:0.5;" x1="1710" x2="2068" y1="126.5" y2="126.5"/><line style="stroke:#181818;stroke-width:0.5;" x1="1710" x2="2068" y1="134.5" y2="134.5"/><ellipse cx="1720" cy="148.8047" fill="#84BE84" rx="3" ry="3" style="stroke:#038048;stroke-width:1.0;"/><text fill="#000000" font-family="sans-serif" font-size="14" font-style="italic" lengthAdjust="spacing" textLength="334" x="1729" y="153.0332">pendingSignupRequests(): Iterable&lt;SignupRequest&gt;</text></g><!--class RepositoryFactory--><g id="elem_RepositoryFactory"><rect codeLine="72" fill="#F1F1F1" height="171.2656" id="RepositoryFactory" rx="2.5" ry="2.5" style="stroke:#181818;stroke-width:0.5;" width="445" x="2125.5" y="42"/><ellipse cx="2285.75" cy="58" fill="#B4A7E5" rx="11" ry="11" style="stroke:#181818;stroke-width:1.0;"/><path d="M2286.7031,54.6406 L2286.7031,61.2969 L2288.4219,61.2969 Q2289.0313,61.2969 2289.2969,61.5313 Q2289.5625,61.7656 2289.5625,62.1563 Q2289.5625,62.5313 2289.2969,62.7656 Q2289.0313,63 2288.4219,63 L2283.2813,63 Q2282.6719,63 2282.4063,62.7656 Q2282.1406,62.5313 2282.1406,62.1406 Q2282.1406,61.7656 2282.4063,61.5313 Q2282.6719,61.2969 2283.2813,61.2969 L2285,61.2969 L2285,54.6406 L2283.2813,54.6406 Q2282.6719,54.6406 2282.4063,54.4063 Q2282.1406,54.1719 2282.1406,53.7813 Q2282.1406,53.4063 2282.4063,53.1719 Q2282.6719,52.9375 2283.2813,52.9375 L2288.4219,52.9375 Q2289.0313,52.9375 2289.2969,53.1719 Q2289.5625,53.4063 2289.5625,53.7813 Q2289.5625,54.1719 2289.2969,54.4063 Q2289.0313,54.6406 2288.4219,54.6406 L2286.7031,54.6406 Z " fill="#000000"/><text fill="#000000" font-family="sans-serif" font-size="14" font-style="italic" lengthAdjust="spacing" textLength="116" x="2306.25" y="63.7285">RepositoryFactory</text><line style="stroke:#181818;stroke-width:0.5;" x1="2126.5" x2="2569.5" y1="74" y2="74"/><line style="stroke:#181818;stroke-width:0.5;" x1="2126.5" x2="2569.5" y1="82" y2="82"/><ellipse cx="2136.5" cy="96.3047" fill="#84BE84" rx="3" ry="3" style="stroke:#038048;stroke-width:1.0;"/><text fill="#000000" font-family="sans-serif" font-size="14" font-style="italic" lengthAdjust="spacing" textLength="311" x="2145.5" y="100.5332">newTransactionalContext(): TransactionalContext</text><ellipse cx="2136.5" cy="113.9141" fill="#84BE84" rx="3" ry="3" style="stroke:#038048;stroke-width:1.0;"/><text fill="#000000" font-family="sans-serif" font-size="14" font-style="italic" lengthAdjust="spacing" textLength="285" x="2145.5" y="118.1426">users(TransactionalContext): UserRepository</text><ellipse cx="2136.5" cy="131.5234" fill="#84BE84" rx="3" ry="3" style="stroke:#038048;stroke-width:1.0;"/><text fill="#000000" font-family="sans-serif" font-size="14" font-style="italic" lengthAdjust="spacing" textLength="151" x="2145.5" y="135.752">users(): UserRepository</text><ellipse cx="2136.5" cy="149.1328" fill="#84BE84" rx="3" ry="3" style="stroke:#038048;stroke-width:1.0;"/><text fill="#000000" font-family="sans-serif" font-size="14" font-style="italic" lengthAdjust="spacing" textLength="309" x="2145.5" y="153.3613">utentes(TransactionalContext): UtenteRepository</text><ellipse cx="2136.5" cy="166.7422" fill="#84BE84" rx="3" ry="3" style="stroke:#038048;stroke-width:1.0;"/><text fill="#000000" font-family="sans-serif" font-size="14" font-style="italic" lengthAdjust="spacing" textLength="175" x="2145.5" y="170.9707">utentes(): UtenteRepository</text><ellipse cx="2136.5" cy="184.3516" fill="#84BE84" rx="3" ry="3" style="stroke:#038048;stroke-width:1.0;"/><text fill="#000000" font-family="sans-serif" font-size="14" font-style="italic" lengthAdjust="spacing" textLength="419" x="2145.5" y="188.5801">signupRequests(TransactionalContext): SignupRequestRepository</text><ellipse cx="2136.5" cy="201.9609" fill="#84BE84" rx="3" ry="3" style="stroke:#038048;stroke-width:1.0;"/><text fill="#000000" font-family="sans-serif" font-size="14" font-style="italic" lengthAdjust="spacing" textLength="285" x="2145.5" y="206.1895">signupRequests(): SignupRequestRepository</text></g><!--reverse link JpaTransactionalRepository to BaseJpaRepositoryBase--><g id="link_JpaTransactionalRepository_BaseJpaRepositoryBase"><path codeLine="83" d="M443,169.55 C443,211.12 443,281.15 443,332.98 " fill="none" id="JpaTransactionalRepository-backto-BaseJpaRepositoryBase" style="stroke:#181818;stroke-width:1.0;"/><polygon fill="none" points="443,151.55,437,169.55,449,169.55,443,151.55" style="stroke:#181818;stroke-width:1.0;"/></g><!--reverse link JpaTransactionalContext to ExemploJpaReportingRepositoryBase--><g id="link_JpaTransactionalContext_ExemploJpaReportingRepositoryBase"><path codeLine="84" d="M742.8801,213.5348 C750.0501,257.4548 756.28,295.58 762.36,332.84 " fill="none" id="JpaTransactionalContext-backto-ExemploJpaReportingRepositoryBase" style="stroke:#181818;stroke-width:1.0;"/><polygon fill="none" points="739.98,195.77,736.9585,214.5015,748.8017,212.5681,739.98,195.77" style="stroke:#181818;stroke-width:1.0;"/></g><!--reverse link JpaAutoTxRepository to JpaClientUserRepository--><g id="link_JpaAutoTxRepository_JpaClientUserRepository"><path codeLine="85" d="M1055.4147,183.4819 C1084.1747,220.7619 1116.29,262.39 1150.15,306.29 " fill="none" id="JpaAutoTxRepository-backto-JpaClientUserRepository" style="stroke:#181818;stroke-width:1.0;"/><polygon fill="none" points="1044.42,169.23,1050.6641,187.1468,1060.1654,179.817,1044.42,169.23" style="stroke:#181818;stroke-width:1.0;"/></g><!--reverse link UtenteRepository to JpaClientUserRepository--><g id="link_UtenteRepository_JpaClientUserRepository"><path codeLine="86" d="M1372.3686,191.23 C1337.8686,228.14 1302.67,265.8 1264.76,306.35 " fill="none" id="UtenteRepository-backto-JpaClientUserRepository" style="stroke:#181818;stroke-width:1.0;stroke-dasharray:7.0,7.0;"/><polygon fill="none" points="1384.66,178.08,1367.9853,187.1329,1376.752,195.3271,1384.66,178.08" style="stroke:#181818;stroke-width:1.0;"/></g><!--reverse link RepositoryFactory to JpaRepositoryFactory--><g id="link_RepositoryFactory_JpaRepositoryFactory"><path codeLine="87" d="M2248.0139,225.7073 C2222.8339,250.1873 2208.26,264.36 2183.08,288.84 " fill="none" id="RepositoryFactory-backto-JpaRepositoryFactory" style="stroke:#181818;stroke-width:1.0;stroke-dasharray:7.0,7.0;"/><polygon fill="none" points="2260.92,213.16,2243.8315,221.4052,2252.1964,230.0093,2260.92,213.16" style="stroke:#181818;stroke-width:1.0;"/></g><!--reverse link JpaAutoTxRepository to JpaSignupRequestRepository--><g id="link_JpaAutoTxRepository_JpaSignupRequestRepository"><path codeLine="88" d="M1071.4541,180.6913 C1101.4241,205.3313 1129.24,223.15 1172,237 C1233.33,256.86 1400.46,225.78 1462,245 C1513.64,261.13 1564.6,294.99 1601.75,323.9 " fill="none" id="JpaAutoTxRepository-backto-JpaSignupRequestRepository" style="stroke:#181818;stroke-width:1.0;"/><polygon fill="none" points="1057.55,169.26,1067.6437,185.326,1075.2646,176.0566,1057.55,169.26" style="stroke:#181818;stroke-width:1.0;"/></g><!--reverse link SignupRequestRepository to JpaSignupRequestRepository--><g id="link_SignupRequestRepository_JpaSignupRequestRepository"><path codeLine="89" d="M1846.6116,173.6547 C1807.6516,215.1647 1751.61,274.85 1705.82,323.63 " fill="none" id="SignupRequestRepository-backto-JpaSignupRequestRepository" style="stroke:#181818;stroke-width:1.0;stroke-dasharray:7.0,7.0;"/><polygon fill="none" points="1858.93,160.53,1842.2367,169.5485,1850.9865,177.7608,1858.93,160.53" style="stroke:#181818;stroke-width:1.0;"/></g><text fill="#888888" font-family="sans-serif" font-size="10" lengthAdjust="spacing" textLength="184" x="1198" y="492.3809">UMLDoclet 2.1.1, PlantUML 1.2023.12</text><!--SRC=[pLTjQzim4FxUNo4OWuGcXevz4g6GTcx9bcGbBvzAAQfxIRKwaYSfVQ7DVllEIThuHV9BMzWC8KQ-v_JSSxexcn12D1ZyHKmn8nMXT6yF5qd4Wbis1nAoI7trz8syLbA05u7IN1iG0NXy4ONUhuYHfmqaleAGQKsEc8Rl4Hj193L7hu_nGcVI8ZzQf7T8pi-j1jwDMOGN5-YE9Au_Ljl6s2WkvYso-MzMX-nCLrdQ_WDWI7ABL0QjqowGUQcD8ufINADP5r0Q3sAFGmx2J3Me7HYZS3onSzztM3ScYWdD0iEbOE6n50OUJBCQr9Qs_HaNrqUFiQLW2sYyt3Gf-HbjDkbCyUWPEBJX1X0m8UUAHJSy62uNLw0QbhLAthfXsCMuxZ0hbFGCA7OLGixS9lWknXDKvbNjtB93wYN6hEt2KfBMq0OiCre7uFJlI9RTHrLxpUTY6OtWznAqSMuzJbfLT5KL9k3UjckCjwqNfjUnuIR9ZeVkgd80AXQM2ssjhGZ4DQwESnA-dkxKeu93VhOR0MCmSL_I6BvbrHxtapRCy615zi_yqRWtdlZ3O_zoEknDBeVTWK-t7Jsx_oezbe158VTc2jl3lLIt7XTuhurQ1cQfm5ClQd3GoJcLosTAwPs6hxEg1B7DZIl4Tl_dwQa_egGlvtDGAQDsOfHE1JT332KNVDgRnaSX62dymGablZ3SF0wOG3tKjgkaTu2aHGQGuQ8aqZ6e5YK35YN4pyNVNHevUR18bH7XKvo3TO-8XrMHj6i6REssj28jHo7pXhBfJujrb0kyJPs514UELch60Y2RjfuevamssHKUBAIq-aycL9PGrM6LZzpLpTm2lAEDbASkKyI90h7cBJzgtRpVEWEoVjuwd_C-QjWNJ-tiyItrKmVpSTExm6i53wdZyvRcJwcxsvFESxjTvKk7KkkNnGUIUXaerHcLVYUyZrsstTTWLlHwMATfKvhhq9rdp_jm4kxsGsc-rzIYa8F_owGKrLgzlBZcHorjYkW4yVQApAIC_wQ3_ZSPu1iG-U8TU0SjSXOoJEoWJpxVnTwbQ3J_0W00]--></g></svg>