<?xml version="1.0" encoding="us-ascii" standalone="no"?><svg xmlns="http://www.w3.org/2000/svg" xmlns:xlink="http://www.w3.org/1999/xlink" contentStyleType="text/css" height="444px" preserveAspectRatio="none" style="width:432px;height:444px;background:#FFFFFF;" version="1.1" viewBox="0 0 432 444" width="432px" zoomAndPan="magnify"><defs/><g><!--class lapr4.shodrone.utentemanagement.application.AcceptRefuseSignupRequestControllerTxImpl--><a href="AcceptRefuseSignupRequestControllerTxImpl.html" target="_top" title="AcceptRefuseSignupRequestControllerTxImpl.html" xlink:actuate="onRequest" xlink:href="AcceptRefuseSignupRequestControllerTxImpl.html" xlink:show="new" xlink:title="AcceptRefuseSignupRequestControllerTxImpl.html" xlink:type="simple"><g id="elem_lapr4.shodrone.utentemanagement.application.AcceptRefuseSignupRequestControllerTxImpl"><rect codeLine="5" fill="#F1F1F1" height="249.8906" id="lapr4.shodrone.utentemanagement.application.AcceptRefuseSignupRequestControllerTxImpl" rx="2.5" ry="2.5" style="stroke:#181818;stroke-width:0.5;" width="418" x="7" y="168"/><ellipse cx="68.25" cy="188.0938" fill="#ADD1B2" rx="11" ry="11" style="stroke:#181818;stroke-width:1.0;"/><path d="M71.0156,183.9688 Q71.1719,183.75 71.3594,183.6406 Q71.5469,183.5313 71.7656,183.5313 Q72.1406,183.5313 72.375,183.7969 Q72.6094,184.0469 72.6094,184.6563 L72.6094,186.1094 Q72.6094,186.7188 72.375,186.9844 Q72.1406,187.25 71.7656,187.25 Q71.4219,187.25 71.2188,187.0469 Q71.0156,186.8594 70.9063,186.3438 Q70.8594,185.9844 70.6719,185.7969 Q70.3438,185.4219 69.7344,185.2031 Q69.125,184.9844 68.5,184.9844 Q67.7344,184.9844 67.0938,185.3125 Q66.4688,185.6406 65.9688,186.3906 Q65.4844,187.1406 65.4844,188.1719 L65.4844,189.2656 Q65.4844,190.5 66.375,191.3281 Q67.2656,192.1406 68.8594,192.1406 Q69.7969,192.1406 70.4531,191.8906 Q70.8438,191.7344 71.2656,191.2969 Q71.5313,191.0313 71.6719,190.9531 Q71.8281,190.875 72.0313,190.875 Q72.3594,190.875 72.6094,191.1406 Q72.875,191.3906 72.875,191.7344 Q72.875,192.0781 72.5313,192.4844 Q72.0313,193.0625 71.2344,193.3906 Q70.1563,193.8438 68.8594,193.8438 Q67.3438,193.8438 66.1406,193.2188 Q65.1563,192.7188 64.4688,191.6563 Q63.7813,190.5781 63.7813,189.2969 L63.7813,188.1406 Q63.7813,186.8125 64.3906,185.6719 Q65.0156,184.5156 66.1094,183.9063 Q67.2031,183.2813 68.4375,183.2813 Q69.1719,183.2813 69.8125,183.4531 Q70.4688,183.6094 71.0156,183.9688 Z " fill="#000000"/><text fill="#000000" font-family="sans-serif" font-size="14" lengthAdjust="spacing" textLength="287" x="88.75" y="187.5332">AcceptRefuseSignupRequestControllerTxImpl</text><text fill="#000000" font-family="sans-serif" font-size="10" lengthAdjust="spacing" textLength="223" x="120.75" y="200.9902">lapr4.shodrone.utentemanagement.application</text><line style="stroke:#181818;stroke-width:0.5;" x1="8" x2="424" y1="208.1875" y2="208.1875"/><rect fill="none" height="6" style="stroke:#C82930;stroke-width:1.0;" width="6" x="15" y="219.4922"/><text fill="#000000" font-family="sans-serif" font-size="14" lengthAdjust="spacing" textLength="171" x="27" y="226.7207">authz: AuthorizationService</text><rect fill="none" height="6" style="stroke:#C82930;stroke-width:1.0;" width="6" x="15" y="237.1016"/><text fill="#000000" font-family="sans-serif" font-size="14" lengthAdjust="spacing" textLength="241" x="27" y="244.3301">userService: UserManagementService</text><rect fill="none" height="6" style="stroke:#C82930;stroke-width:1.0;" width="6" x="15" y="254.7109"/><text fill="#000000" font-family="sans-serif" font-size="14" lengthAdjust="spacing" textLength="172" x="27" y="261.9395">txCtx: TransactionalContext</text><rect fill="none" height="6" style="stroke:#C82930;stroke-width:1.0;" width="6" x="15" y="272.3203"/><text fill="#000000" font-family="sans-serif" font-size="14" lengthAdjust="spacing" textLength="247" x="27" y="279.5488">clientUserRepository: UtenteRepository</text><rect fill="none" height="6" style="stroke:#C82930;stroke-width:1.0;" width="6" x="15" y="289.9297"/><text fill="#000000" font-family="sans-serif" font-size="14" lengthAdjust="spacing" textLength="343" x="27" y="297.1582">signupRequestsRepository: SignupRequestRepository</text><line style="stroke:#181818;stroke-width:0.5;" x1="8" x2="424" y1="304.2344" y2="304.2344"/><ellipse cx="18" cy="318.5391" fill="#84BE84" rx="3" ry="3" style="stroke:#038048;stroke-width:1.0;"/><text fill="#000000" font-family="sans-serif" font-size="14" lengthAdjust="spacing" textLength="351" x="27" y="322.7676">acceptSignupRequest(SignupRequest): SignupRequest</text><rect fill="#F24D5C" height="6" style="stroke:#C82930;stroke-width:1.0;" width="6" x="15" y="333.1484"/><text fill="#000000" font-family="sans-serif" font-size="14" lengthAdjust="spacing" textLength="376" x="27" y="340.377">acceptTheSignupRequest(SignupRequest): SignupRequest</text><rect fill="#F24D5C" height="6" style="stroke:#C82930;stroke-width:1.0;" width="6" x="15" y="350.7578"/><text fill="#000000" font-family="sans-serif" font-size="14" lengthAdjust="spacing" textLength="305" x="27" y="357.9863">createUtente(SignupRequest, SystemUser): void</text><rect fill="#F24D5C" height="6" style="stroke:#C82930;stroke-width:1.0;" width="6" x="15" y="368.3672"/><text fill="#000000" font-family="sans-serif" font-size="14" lengthAdjust="spacing" textLength="392" x="27" y="375.5957">createSystemUserForClientUser(SignupRequest): SystemUser</text><ellipse cx="18" cy="388.9766" fill="#84BE84" rx="3" ry="3" style="stroke:#038048;stroke-width:1.0;"/><text fill="#000000" font-family="sans-serif" font-size="14" lengthAdjust="spacing" textLength="349" x="27" y="393.2051">refuseSignupRequest(SignupRequest): SignupRequest</text><ellipse cx="18" cy="406.5859" fill="#84BE84" rx="3" ry="3" style="stroke:#038048;stroke-width:1.0;"/><text fill="#000000" font-family="sans-serif" font-size="14" lengthAdjust="spacing" textLength="351" x="27" y="410.8145">listPendingSignupRequests(): Iterable&lt;SignupRequest&gt;</text></g></a><!--class lapr4.shodrone.utentemanagement.application.AcceptRefuseSignupRequestController--><a href="AcceptRefuseSignupRequestController.html" target="_top" title="AcceptRefuseSignupRequestController.html" xlink:actuate="onRequest" xlink:href="AcceptRefuseSignupRequestController.html" xlink:show="new" xlink:title="AcceptRefuseSignupRequestController.html" xlink:type="simple"><g id="elem_lapr4.shodrone.utentemanagement.application.AcceptRefuseSignupRequestController"><rect codeLine="19" fill="#F1F1F1" height="101.0156" id="lapr4.shodrone.utentemanagement.application.AcceptRefuseSignupRequestController" rx="2.5" ry="2.5" style="stroke:#181818;stroke-width:0.5;" width="378" x="27" y="7"/><ellipse cx="88.25" cy="27.0938" fill="#B4A7E5" rx="11" ry="11" style="stroke:#181818;stroke-width:1.0;"/><path d="M89.2031,23.7344 L89.2031,30.3906 L90.9219,30.3906 Q91.5313,30.3906 91.7969,30.625 Q92.0625,30.8594 92.0625,31.25 Q92.0625,31.625 91.7969,31.8594 Q91.5313,32.0938 90.9219,32.0938 L85.7813,32.0938 Q85.1719,32.0938 84.9063,31.8594 Q84.6406,31.625 84.6406,31.2344 Q84.6406,30.8594 84.9063,30.625 Q85.1719,30.3906 85.7813,30.3906 L87.5,30.3906 L87.5,23.7344 L85.7813,23.7344 Q85.1719,23.7344 84.9063,23.5 Q84.6406,23.2656 84.6406,22.875 Q84.6406,22.5 84.9063,22.2656 Q85.1719,22.0313 85.7813,22.0313 L90.9219,22.0313 Q91.5313,22.0313 91.7969,22.2656 Q92.0625,22.5 92.0625,22.875 Q92.0625,23.2656 91.7969,23.5 Q91.5313,23.7344 90.9219,23.7344 L89.2031,23.7344 Z " fill="#000000"/><text fill="#000000" font-family="sans-serif" font-size="14" font-style="italic" lengthAdjust="spacing" textLength="247" x="108.75" y="26.5332">AcceptRefuseSignupRequestController</text><text fill="#000000" font-family="sans-serif" font-size="10" font-style="italic" lengthAdjust="spacing" textLength="219" x="122.75" y="39.9902">lapr4.shodrone.utentemanagement.application</text><line style="stroke:#181818;stroke-width:0.5;" x1="28" x2="404" y1="47.1875" y2="47.1875"/><ellipse cx="38" cy="61.4922" fill="#84BE84" rx="3" ry="3" style="stroke:#038048;stroke-width:1.0;"/><text fill="#000000" font-family="sans-serif" font-size="14" font-style="italic" lengthAdjust="spacing" textLength="351" x="47" y="65.7207">acceptSignupRequest(SignupRequest): SignupRequest</text><ellipse cx="38" cy="79.1016" fill="#84BE84" rx="3" ry="3" style="stroke:#038048;stroke-width:1.0;"/><text fill="#000000" font-family="sans-serif" font-size="14" font-style="italic" lengthAdjust="spacing" textLength="349" x="47" y="83.3301">refuseSignupRequest(SignupRequest): SignupRequest</text><ellipse cx="38" cy="96.7109" fill="#84BE84" rx="3" ry="3" style="stroke:#038048;stroke-width:1.0;"/><text fill="#000000" font-family="sans-serif" font-size="14" font-style="italic" lengthAdjust="spacing" textLength="352" x="47" y="100.9395">listPendingSignupRequests(): Iterable&lt;SignupRequest&gt;</text></g></a><!--reverse link lapr4.shodrone.utentemanagement.application.AcceptRefuseSignupRequestController to lapr4.shodrone.utentemanagement.application.AcceptRefuseSignupRequestControllerTxImpl--><g id="link_lapr4.shodrone.utentemanagement.application.AcceptRefuseSignupRequestController_lapr4.shodrone.utentemanagement.application.AcceptRefuseSignupRequestControllerTxImpl"><path codeLine="25" d="M216,126.02 C216,143.69 216,146.48 216,167.6 " fill="none" id="lapr4.shodrone.utentemanagement.application.AcceptRefuseSignupRequestController-backto-lapr4.shodrone.utentemanagement.application.AcceptRefuseSignupRequestControllerTxImpl" style="stroke:#181818;stroke-width:1.0;stroke-dasharray:7.0,7.0;"/><polygon fill="none" points="216,108.02,210,126.02,222,126.02,216,108.02" style="stroke:#181818;stroke-width:1.0;"/></g><text fill="#888888" font-family="sans-serif" font-size="10" lengthAdjust="spacing" textLength="184" x="117" y="434.2715">UMLDoclet 2.1.1, PlantUML 1.2023.12</text><!--SRC=[pLLDQnin4BttLmo1W4CIKPUSZ344bq8WXc0xfpI7YJps2hIIAiqQssd-UsVNmRjhv-0aBNGlMetUUveFZGG0a8Z1OKufeAO91Op8FeBpZhx8CcHcHa1vu3NC3TbPshVcn9aNSsNN5bE2atuo6-frhmRNMbFWCSsBH1EpS4KOqw-24W-zu-YjfJXTtUJ1_dIldAy3Yo5UgIIYKPnG1PDZoj7XWdBvLHY2DHhPU7S2cE0TU7MqF_3mS3HMPPpRnqTuhb9GVfTOSBRfmRKCFffDjVc4uj9ega6Y6r-DFRYNoMZdz06MLqDUzM0QqINKfHpQqWzQSGtIrWYtL1fJyCb88TUYN2MajjJur8mgDJcjUD-WdcELd1QiqvgTxOaqSbDHfnbzYAqZ8TCsfZRd0YRh99KlunV-qflPFgq6_F1nkClMuTuxN1rnF3m8H_fyRatYEt8punOjHEe8vuOfufEbVcjfKB5Vjbrb9DOub_vyNsVzFprrN3STzj4pFYMESjvVFdFYcYeVhs9JvRC5_TlfxVzMwj_SWzjRlLIACFU-7Ev7jz-zjl9kV5DTrRs0EulIHwDRE5rIJ2BVEVi3]--></g></svg>