<?xml version="1.0" encoding="us-ascii" standalone="no"?><svg xmlns="http://www.w3.org/2000/svg" xmlns:xlink="http://www.w3.org/1999/xlink" contentStyleType="text/css" height="374px" preserveAspectRatio="none" style="width:455px;height:374px;background:#FFFFFF;" version="1.1" viewBox="0 0 455 374" width="455px" zoomAndPan="magnify"><defs/><g><!--class lapr4.shodrone.utentemanagement.application.AcceptRefuseSignupRequestControllerEventfullImpl--><a href="AcceptRefuseSignupRequestControllerEventfullImpl.html" target="_top" title="AcceptRefuseSignupRequestControllerEventfullImpl.html" xlink:actuate="onRequest" xlink:href="AcceptRefuseSignupRequestControllerEventfullImpl.html" xlink:show="new" xlink:title="AcceptRefuseSignupRequestControllerEventfullImpl.html" xlink:type="simple"><g id="elem_lapr4.shodrone.utentemanagement.application.AcceptRefuseSignupRequestControllerEventfullImpl"><rect codeLine="5" fill="#F1F1F1" height="179.4531" id="lapr4.shodrone.utentemanagement.application.AcceptRefuseSignupRequestControllerEventfullImpl" rx="2.5" ry="2.5" style="stroke:#181818;stroke-width:0.5;" width="441" x="7" y="168"/><ellipse cx="60.25" cy="188.0938" fill="#ADD1B2" rx="11" ry="11" style="stroke:#181818;stroke-width:1.0;"/><path d="M63.0156,183.9688 Q63.1719,183.75 63.3594,183.6406 Q63.5469,183.5313 63.7656,183.5313 Q64.1406,183.5313 64.375,183.7969 Q64.6094,184.0469 64.6094,184.6563 L64.6094,186.1094 Q64.6094,186.7188 64.375,186.9844 Q64.1406,187.25 63.7656,187.25 Q63.4219,187.25 63.2188,187.0469 Q63.0156,186.8594 62.9063,186.3438 Q62.8594,185.9844 62.6719,185.7969 Q62.3438,185.4219 61.7344,185.2031 Q61.125,184.9844 60.5,184.9844 Q59.7344,184.9844 59.0938,185.3125 Q58.4688,185.6406 57.9688,186.3906 Q57.4844,187.1406 57.4844,188.1719 L57.4844,189.2656 Q57.4844,190.5 58.375,191.3281 Q59.2656,192.1406 60.8594,192.1406 Q61.7969,192.1406 62.4531,191.8906 Q62.8438,191.7344 63.2656,191.2969 Q63.5313,191.0313 63.6719,190.9531 Q63.8281,190.875 64.0313,190.875 Q64.3594,190.875 64.6094,191.1406 Q64.875,191.3906 64.875,191.7344 Q64.875,192.0781 64.5313,192.4844 Q64.0313,193.0625 63.2344,193.3906 Q62.1563,193.8438 60.8594,193.8438 Q59.3438,193.8438 58.1406,193.2188 Q57.1563,192.7188 56.4688,191.6563 Q55.7813,190.5781 55.7813,189.2969 L55.7813,188.1406 Q55.7813,186.8125 56.3906,185.6719 Q57.0156,184.5156 58.1094,183.9063 Q59.2031,183.2813 60.4375,183.2813 Q61.1719,183.2813 61.8125,183.4531 Q62.4688,183.6094 63.0156,183.9688 Z " fill="#000000"/><text fill="#000000" font-family="sans-serif" font-size="14" lengthAdjust="spacing" textLength="326" x="80.75" y="187.5332">AcceptRefuseSignupRequestControllerEventfullImpl</text><text fill="#000000" font-family="sans-serif" font-size="10" lengthAdjust="spacing" textLength="223" x="132.25" y="200.9902">lapr4.shodrone.utentemanagement.application</text><line style="stroke:#181818;stroke-width:0.5;" x1="8" x2="447" y1="208.1875" y2="208.1875"/><rect fill="none" height="6" style="stroke:#C82930;stroke-width:1.0;" width="6" x="15" y="219.4922"/><text fill="#000000" font-family="sans-serif" font-size="14" lengthAdjust="spacing" textLength="343" x="27" y="226.7207">signupRequestsRepository: SignupRequestRepository</text><rect fill="none" height="6" style="stroke:#C82930;stroke-width:1.0;" width="6" x="15" y="237.1016"/><text fill="#000000" font-family="sans-serif" font-size="14" lengthAdjust="spacing" textLength="265" x="27" y="244.3301">authorizationService: AuthorizationService</text><rect fill="none" height="6" style="stroke:#C82930;stroke-width:1.0;" width="6" x="15" y="254.7109"/><text fill="#000000" font-family="sans-serif" font-size="14" lengthAdjust="spacing" textLength="169" x="27" y="261.9395">dispatcher: EventPublisher</text><line style="stroke:#181818;stroke-width:0.5;" x1="8" x2="447" y1="269.0156" y2="269.0156"/><ellipse cx="18" cy="283.3203" fill="#84BE84" rx="3" ry="3" style="stroke:#038048;stroke-width:1.0;"/><text fill="#000000" font-family="sans-serif" font-size="14" lengthAdjust="spacing" textLength="351" x="27" y="287.5488">acceptSignupRequest(SignupRequest): SignupRequest</text><rect fill="#F24D5C" height="6" style="stroke:#C82930;stroke-width:1.0;" width="6" x="15" y="297.9297"/><text fill="#000000" font-family="sans-serif" font-size="14" lengthAdjust="spacing" textLength="415" x="27" y="305.1582">markSignupRequestAsAccepted(SignupRequest): SignupRequest</text><ellipse cx="18" cy="318.5391" fill="#84BE84" rx="3" ry="3" style="stroke:#038048;stroke-width:1.0;"/><text fill="#000000" font-family="sans-serif" font-size="14" lengthAdjust="spacing" textLength="349" x="27" y="322.7676">refuseSignupRequest(SignupRequest): SignupRequest</text><ellipse cx="18" cy="336.1484" fill="#84BE84" rx="3" ry="3" style="stroke:#038048;stroke-width:1.0;"/><text fill="#000000" font-family="sans-serif" font-size="14" lengthAdjust="spacing" textLength="351" x="27" y="340.377">listPendingSignupRequests(): Iterable&lt;SignupRequest&gt;</text></g></a><!--class lapr4.shodrone.utentemanagement.application.AcceptRefuseSignupRequestController--><a href="AcceptRefuseSignupRequestController.html" target="_top" title="AcceptRefuseSignupRequestController.html" xlink:actuate="onRequest" xlink:href="AcceptRefuseSignupRequestController.html" xlink:show="new" xlink:title="AcceptRefuseSignupRequestController.html" xlink:type="simple"><g id="elem_lapr4.shodrone.utentemanagement.application.AcceptRefuseSignupRequestController"><rect codeLine="15" fill="#F1F1F1" height="101.0156" id="lapr4.shodrone.utentemanagement.application.AcceptRefuseSignupRequestController" rx="2.5" ry="2.5" style="stroke:#181818;stroke-width:0.5;" width="378" x="38.5" y="7"/><ellipse cx="99.75" cy="27.0938" fill="#B4A7E5" rx="11" ry="11" style="stroke:#181818;stroke-width:1.0;"/><path d="M100.7031,23.7344 L100.7031,30.3906 L102.4219,30.3906 Q103.0313,30.3906 103.2969,30.625 Q103.5625,30.8594 103.5625,31.25 Q103.5625,31.625 103.2969,31.8594 Q103.0313,32.0938 102.4219,32.0938 L97.2813,32.0938 Q96.6719,32.0938 96.4063,31.8594 Q96.1406,31.625 96.1406,31.2344 Q96.1406,30.8594 96.4063,30.625 Q96.6719,30.3906 97.2813,30.3906 L99,30.3906 L99,23.7344 L97.2813,23.7344 Q96.6719,23.7344 96.4063,23.5 Q96.1406,23.2656 96.1406,22.875 Q96.1406,22.5 96.4063,22.2656 Q96.6719,22.0313 97.2813,22.0313 L102.4219,22.0313 Q103.0313,22.0313 103.2969,22.2656 Q103.5625,22.5 103.5625,22.875 Q103.5625,23.2656 103.2969,23.5 Q103.0313,23.7344 102.4219,23.7344 L100.7031,23.7344 Z " fill="#000000"/><text fill="#000000" font-family="sans-serif" font-size="14" font-style="italic" lengthAdjust="spacing" textLength="247" x="120.25" y="26.5332">AcceptRefuseSignupRequestController</text><text fill="#000000" font-family="sans-serif" font-size="10" font-style="italic" lengthAdjust="spacing" textLength="219" x="134.25" y="39.9902">lapr4.shodrone.utentemanagement.application</text><line style="stroke:#181818;stroke-width:0.5;" x1="39.5" x2="415.5" y1="47.1875" y2="47.1875"/><ellipse cx="49.5" cy="61.4922" fill="#84BE84" rx="3" ry="3" style="stroke:#038048;stroke-width:1.0;"/><text fill="#000000" font-family="sans-serif" font-size="14" font-style="italic" lengthAdjust="spacing" textLength="351" x="58.5" y="65.7207">acceptSignupRequest(SignupRequest): SignupRequest</text><ellipse cx="49.5" cy="79.1016" fill="#84BE84" rx="3" ry="3" style="stroke:#038048;stroke-width:1.0;"/><text fill="#000000" font-family="sans-serif" font-size="14" font-style="italic" lengthAdjust="spacing" textLength="349" x="58.5" y="83.3301">refuseSignupRequest(SignupRequest): SignupRequest</text><ellipse cx="49.5" cy="96.7109" fill="#84BE84" rx="3" ry="3" style="stroke:#038048;stroke-width:1.0;"/><text fill="#000000" font-family="sans-serif" font-size="14" font-style="italic" lengthAdjust="spacing" textLength="352" x="58.5" y="100.9395">listPendingSignupRequests(): Iterable&lt;SignupRequest&gt;</text></g></a><!--reverse link lapr4.shodrone.utentemanagement.application.AcceptRefuseSignupRequestController to lapr4.shodrone.utentemanagement.application.AcceptRefuseSignupRequestControllerEventfullImpl--><g id="link_lapr4.shodrone.utentemanagement.application.AcceptRefuseSignupRequestController_lapr4.shodrone.utentemanagement.application.AcceptRefuseSignupRequestControllerEventfullImpl"><path codeLine="21" d="M227.5,126.21 C227.5,144.31 227.5,147.36 227.5,167.81 " fill="none" id="lapr4.shodrone.utentemanagement.application.AcceptRefuseSignupRequestController-backto-lapr4.shodrone.utentemanagement.application.AcceptRefuseSignupRequestControllerEventfullImpl" style="stroke:#181818;stroke-width:1.0;stroke-dasharray:7.0,7.0;"/><polygon fill="none" points="227.5,108.21,221.5,126.21,233.5,126.21,227.5,108.21" style="stroke:#181818;stroke-width:1.0;"/></g><text fill="#888888" font-family="sans-serif" font-size="10" lengthAdjust="spacing" textLength="184" x="128.5" y="363.834">UMLDoclet 2.1.1, PlantUML 1.2023.12</text><!--SRC=[pLJ1QXin4BtdAuP0mIQjg4DEnXXCsqEW1MFJavF3M3jhYsebLJDhI1p_UyVh47kJ7EocWUv5gvbvJwCt3m40C0a4h8WJMffImemICuGOw4pJi7G50LL9xg1qv0j-7gr8bb73JTnwP8Rp0RjxwlUkXYDhASc4offfwXQXJXFwNHFBbnWaH-yfVrjHaBBs_hfA_YOyGZyFFQPyPLYvi_PYQj4ogZ3WWYhzDPYITnR5nN0Eo712lJcrBPZDJeMOfLJ-zXRMZIxRxnCVmdX2AR9JhU_wq2BS9_PGh5NaxEwRzgUKLyvI7qQlHFUOmkbCnIufzw5fRLpFlMFTFzLSO7Ehrl6TrgxxhBazVONvLoirufr6L1n9SP5VgdaiL2yYOmg52ujM1NSKSosKSUvfq4eD6_HcPrIdviYbMluqi_u__ZpEaYzTkCOvIqOhcxTC_v3bxwTuoFBMWVvhUGSFnhphcx9xBxU46SeOjylF7z-_HklrHRuqFTFx26EFGJGA7rQKMK_fTFy0]--></g></svg>