<?xml version="1.0" encoding="us-ascii" standalone="no"?><svg xmlns="http://www.w3.org/2000/svg" xmlns:xlink="http://www.w3.org/1999/xlink" contentStyleType="text/css" height="487px" preserveAspectRatio="none" style="width:1397px;height:487px;background:#FFFFFF;" version="1.1" viewBox="0 0 1397 487" width="1397px" zoomAndPan="magnify"><defs/><g><!--cluster lapr4.shodrone.utentemanagement.application--><g id="cluster_lapr4.shodrone.utentemanagement.application"><path d="M8.5,6 L337.5,6 A3.75,3.75 0 0 1 340,8.5 L347,29.6094 L1387.5,29.6094 A2.5,2.5 0 0 1 1390,32.1094 L1390,458.5 A2.5,2.5 0 0 1 1387.5,461 L8.5,461 A2.5,2.5 0 0 1 6,458.5 L6,8.5 A2.5,2.5 0 0 1 8.5,6 " fill="none" style="stroke:#000000;stroke-width:1.5;"/><line style="stroke:#000000;stroke-width:1.5;" x1="6" x2="347" y1="29.6094" y2="29.6094"/><text fill="#000000" font-family="sans-serif" font-size="14" font-weight="bold" lengthAdjust="spacing" textLength="328" x="10" y="22.5332">lapr4.shodrone.utentemanagement.application</text></g><!--class AcceptRefuseSignupFactory--><a href="AcceptRefuseSignupFactory.html" target="_top" title="AcceptRefuseSignupFactory.html" xlink:actuate="onRequest" xlink:href="AcceptRefuseSignupFactory.html" xlink:show="new" xlink:title="AcceptRefuseSignupFactory.html" xlink:type="simple"><g id="elem_AcceptRefuseSignupFactory"><rect codeLine="5" fill="#F1F1F1" height="65.6094" id="AcceptRefuseSignupFactory" rx="2.5" ry="2.5" style="stroke:#181818;stroke-width:0.5;" width="321" x="731.5" y="59.5"/><ellipse cx="797.75" cy="75.5" fill="#ADD1B2" rx="11" ry="11" style="stroke:#181818;stroke-width:1.0;"/><path d="M800.5156,71.375 Q800.6719,71.1563 800.8594,71.0469 Q801.0469,70.9375 801.2656,70.9375 Q801.6406,70.9375 801.875,71.2031 Q802.1094,71.4531 802.1094,72.0625 L802.1094,73.5156 Q802.1094,74.125 801.875,74.3906 Q801.6406,74.6563 801.2656,74.6563 Q800.9219,74.6563 800.7188,74.4531 Q800.5156,74.2656 800.4063,73.75 Q800.3594,73.3906 800.1719,73.2031 Q799.8438,72.8281 799.2344,72.6094 Q798.625,72.3906 798,72.3906 Q797.2344,72.3906 796.5938,72.7188 Q795.9688,73.0469 795.4688,73.7969 Q794.9844,74.5469 794.9844,75.5781 L794.9844,76.6719 Q794.9844,77.9063 795.875,78.7344 Q796.7656,79.5469 798.3594,79.5469 Q799.2969,79.5469 799.9531,79.2969 Q800.3438,79.1406 800.7656,78.7031 Q801.0313,78.4375 801.1719,78.3594 Q801.3281,78.2813 801.5313,78.2813 Q801.8594,78.2813 802.1094,78.5469 Q802.375,78.7969 802.375,79.1406 Q802.375,79.4844 802.0313,79.8906 Q801.5313,80.4688 800.7344,80.7969 Q799.6563,81.25 798.3594,81.25 Q796.8438,81.25 795.6406,80.625 Q794.6563,80.125 793.9688,79.0625 Q793.2813,77.9844 793.2813,76.7031 L793.2813,75.5469 Q793.2813,74.2188 793.8906,73.0781 Q794.5156,71.9219 795.6094,71.3125 Q796.7031,70.6875 797.9375,70.6875 Q798.6719,70.6875 799.3125,70.8594 Q799.9688,71.0156 800.5156,71.375 Z " fill="#000000"/><text fill="#000000" font-family="sans-serif" font-size="14" lengthAdjust="spacing" textLength="180" x="818.25" y="81.2285">AcceptRefuseSignupFactory</text><line style="stroke:#181818;stroke-width:0.5;" x1="732.5" x2="1051.5" y1="91.5" y2="91.5"/><line style="stroke:#181818;stroke-width:0.5;" x1="732.5" x2="1051.5" y1="99.5" y2="99.5"/><ellipse cx="742.5" cy="113.8047" fill="#84BE84" rx="3" ry="3" style="stroke:#038048;stroke-width:1.0;"/><text fill="#000000" font-family="sans-serif" font-size="14" lengthAdjust="spacing" text-decoration="underline" textLength="295" x="751.5" y="118.0332">build(): AcceptRefuseSignupRequestController</text></g></a><!--class AcceptRefuseSignupRequestController--><a href="AcceptRefuseSignupRequestController.html" target="_top" title="AcceptRefuseSignupRequestController.html" xlink:actuate="onRequest" xlink:href="AcceptRefuseSignupRequestController.html" xlink:show="new" xlink:title="AcceptRefuseSignupRequestController.html" xlink:type="simple"><g id="elem_AcceptRefuseSignupRequestController"><rect codeLine="9" fill="#F1F1F1" height="100.8281" id="AcceptRefuseSignupRequestController" rx="2.5" ry="2.5" style="stroke:#181818;stroke-width:0.5;" width="378" x="186" y="42"/><ellipse cx="247.25" cy="58" fill="#B4A7E5" rx="11" ry="11" style="stroke:#181818;stroke-width:1.0;"/><path d="M248.2031,54.6406 L248.2031,61.2969 L249.9219,61.2969 Q250.5313,61.2969 250.7969,61.5313 Q251.0625,61.7656 251.0625,62.1563 Q251.0625,62.5313 250.7969,62.7656 Q250.5313,63 249.9219,63 L244.7813,63 Q244.1719,63 243.9063,62.7656 Q243.6406,62.5313 243.6406,62.1406 Q243.6406,61.7656 243.9063,61.5313 Q244.1719,61.2969 244.7813,61.2969 L246.5,61.2969 L246.5,54.6406 L244.7813,54.6406 Q244.1719,54.6406 243.9063,54.4063 Q243.6406,54.1719 243.6406,53.7813 Q243.6406,53.4063 243.9063,53.1719 Q244.1719,52.9375 244.7813,52.9375 L249.9219,52.9375 Q250.5313,52.9375 250.7969,53.1719 Q251.0625,53.4063 251.0625,53.7813 Q251.0625,54.1719 250.7969,54.4063 Q250.5313,54.6406 249.9219,54.6406 L248.2031,54.6406 Z " fill="#000000"/><text fill="#000000" font-family="sans-serif" font-size="14" font-style="italic" lengthAdjust="spacing" textLength="247" x="267.75" y="63.7285">AcceptRefuseSignupRequestController</text><line style="stroke:#181818;stroke-width:0.5;" x1="187" x2="563" y1="74" y2="74"/><line style="stroke:#181818;stroke-width:0.5;" x1="187" x2="563" y1="82" y2="82"/><ellipse cx="197" cy="96.3047" fill="#84BE84" rx="3" ry="3" style="stroke:#038048;stroke-width:1.0;"/><text fill="#000000" font-family="sans-serif" font-size="14" font-style="italic" lengthAdjust="spacing" textLength="351" x="206" y="100.5332">acceptSignupRequest(SignupRequest): SignupRequest</text><ellipse cx="197" cy="113.9141" fill="#84BE84" rx="3" ry="3" style="stroke:#038048;stroke-width:1.0;"/><text fill="#000000" font-family="sans-serif" font-size="14" font-style="italic" lengthAdjust="spacing" textLength="349" x="206" y="118.1426">refuseSignupRequest(SignupRequest): SignupRequest</text><ellipse cx="197" cy="131.5234" fill="#84BE84" rx="3" ry="3" style="stroke:#038048;stroke-width:1.0;"/><text fill="#000000" font-family="sans-serif" font-size="14" font-style="italic" lengthAdjust="spacing" textLength="352" x="206" y="135.752">listPendingSignupRequests(): Iterable&lt;SignupRequest&gt;</text></g></a><!--class AcceptRefuseSignupRequestControllerEventfullImpl--><a href="AcceptRefuseSignupRequestControllerEventfullImpl.html" target="_top" title="AcceptRefuseSignupRequestControllerEventfullImpl.html" xlink:actuate="onRequest" xlink:href="AcceptRefuseSignupRequestControllerEventfullImpl.html" xlink:show="new" xlink:title="AcceptRefuseSignupRequestControllerEventfullImpl.html" xlink:type="simple"><g id="elem_AcceptRefuseSignupRequestControllerEventfullImpl"><rect codeLine="15" fill="#F1F1F1" height="171.2656" id="AcceptRefuseSignupRequestControllerEventfullImpl" rx="2.5" ry="2.5" style="stroke:#181818;stroke-width:0.5;" width="441" x="22.5" y="238.5"/><ellipse cx="75.75" cy="254.5" fill="#ADD1B2" rx="11" ry="11" style="stroke:#181818;stroke-width:1.0;"/><path d="M78.5156,250.375 Q78.6719,250.1563 78.8594,250.0469 Q79.0469,249.9375 79.2656,249.9375 Q79.6406,249.9375 79.875,250.2031 Q80.1094,250.4531 80.1094,251.0625 L80.1094,252.5156 Q80.1094,253.125 79.875,253.3906 Q79.6406,253.6563 79.2656,253.6563 Q78.9219,253.6563 78.7188,253.4531 Q78.5156,253.2656 78.4063,252.75 Q78.3594,252.3906 78.1719,252.2031 Q77.8438,251.8281 77.2344,251.6094 Q76.625,251.3906 76,251.3906 Q75.2344,251.3906 74.5938,251.7188 Q73.9688,252.0469 73.4688,252.7969 Q72.9844,253.5469 72.9844,254.5781 L72.9844,255.6719 Q72.9844,256.9063 73.875,257.7344 Q74.7656,258.5469 76.3594,258.5469 Q77.2969,258.5469 77.9531,258.2969 Q78.3438,258.1406 78.7656,257.7031 Q79.0313,257.4375 79.1719,257.3594 Q79.3281,257.2813 79.5313,257.2813 Q79.8594,257.2813 80.1094,257.5469 Q80.375,257.7969 80.375,258.1406 Q80.375,258.4844 80.0313,258.8906 Q79.5313,259.4688 78.7344,259.7969 Q77.6563,260.25 76.3594,260.25 Q74.8438,260.25 73.6406,259.625 Q72.6563,259.125 71.9688,258.0625 Q71.2813,256.9844 71.2813,255.7031 L71.2813,254.5469 Q71.2813,253.2188 71.8906,252.0781 Q72.5156,250.9219 73.6094,250.3125 Q74.7031,249.6875 75.9375,249.6875 Q76.6719,249.6875 77.3125,249.8594 Q77.9688,250.0156 78.5156,250.375 Z " fill="#000000"/><text fill="#000000" font-family="sans-serif" font-size="14" lengthAdjust="spacing" textLength="326" x="96.25" y="260.2285">AcceptRefuseSignupRequestControllerEventfullImpl</text><line style="stroke:#181818;stroke-width:0.5;" x1="23.5" x2="462.5" y1="270.5" y2="270.5"/><rect fill="none" height="6" style="stroke:#C82930;stroke-width:1.0;" width="6" x="30.5" y="281.8047"/><text fill="#000000" font-family="sans-serif" font-size="14" lengthAdjust="spacing" textLength="343" x="42.5" y="289.0332">signupRequestsRepository: SignupRequestRepository</text><rect fill="none" height="6" style="stroke:#C82930;stroke-width:1.0;" width="6" x="30.5" y="299.4141"/><text fill="#000000" font-family="sans-serif" font-size="14" lengthAdjust="spacing" textLength="265" x="42.5" y="306.6426">authorizationService: AuthorizationService</text><rect fill="none" height="6" style="stroke:#C82930;stroke-width:1.0;" width="6" x="30.5" y="317.0234"/><text fill="#000000" font-family="sans-serif" font-size="14" lengthAdjust="spacing" textLength="169" x="42.5" y="324.252">dispatcher: EventPublisher</text><line style="stroke:#181818;stroke-width:0.5;" x1="23.5" x2="462.5" y1="331.3281" y2="331.3281"/><ellipse cx="33.5" cy="345.6328" fill="#84BE84" rx="3" ry="3" style="stroke:#038048;stroke-width:1.0;"/><text fill="#000000" font-family="sans-serif" font-size="14" lengthAdjust="spacing" textLength="351" x="42.5" y="349.8613">acceptSignupRequest(SignupRequest): SignupRequest</text><rect fill="#F24D5C" height="6" style="stroke:#C82930;stroke-width:1.0;" width="6" x="30.5" y="360.2422"/><text fill="#000000" font-family="sans-serif" font-size="14" lengthAdjust="spacing" textLength="415" x="42.5" y="367.4707">markSignupRequestAsAccepted(SignupRequest): SignupRequest</text><ellipse cx="33.5" cy="380.8516" fill="#84BE84" rx="3" ry="3" style="stroke:#038048;stroke-width:1.0;"/><text fill="#000000" font-family="sans-serif" font-size="14" lengthAdjust="spacing" textLength="349" x="42.5" y="385.0801">refuseSignupRequest(SignupRequest): SignupRequest</text><ellipse cx="33.5" cy="398.4609" fill="#84BE84" rx="3" ry="3" style="stroke:#038048;stroke-width:1.0;"/><text fill="#000000" font-family="sans-serif" font-size="14" lengthAdjust="spacing" textLength="351" x="42.5" y="402.6895">listPendingSignupRequests(): Iterable&lt;SignupRequest&gt;</text></g></a><!--class AcceptRefuseSignupRequestControllerTxImpl--><a href="AcceptRefuseSignupRequestControllerTxImpl.html" target="_top" title="AcceptRefuseSignupRequestControllerTxImpl.html" xlink:actuate="onRequest" xlink:href="AcceptRefuseSignupRequestControllerTxImpl.html" xlink:show="new" xlink:title="AcceptRefuseSignupRequestControllerTxImpl.html" xlink:type="simple"><g id="elem_AcceptRefuseSignupRequestControllerTxImpl"><rect codeLine="25" fill="#F1F1F1" height="241.7031" id="AcceptRefuseSignupRequestControllerTxImpl" rx="2.5" ry="2.5" style="stroke:#181818;stroke-width:0.5;" width="418" x="499" y="203"/><ellipse cx="560.25" cy="219" fill="#ADD1B2" rx="11" ry="11" style="stroke:#181818;stroke-width:1.0;"/><path d="M563.0156,214.875 Q563.1719,214.6563 563.3594,214.5469 Q563.5469,214.4375 563.7656,214.4375 Q564.1406,214.4375 564.375,214.7031 Q564.6094,214.9531 564.6094,215.5625 L564.6094,217.0156 Q564.6094,217.625 564.375,217.8906 Q564.1406,218.1563 563.7656,218.1563 Q563.4219,218.1563 563.2188,217.9531 Q563.0156,217.7656 562.9063,217.25 Q562.8594,216.8906 562.6719,216.7031 Q562.3438,216.3281 561.7344,216.1094 Q561.125,215.8906 560.5,215.8906 Q559.7344,215.8906 559.0938,216.2188 Q558.4688,216.5469 557.9688,217.2969 Q557.4844,218.0469 557.4844,219.0781 L557.4844,220.1719 Q557.4844,221.4063 558.375,222.2344 Q559.2656,223.0469 560.8594,223.0469 Q561.7969,223.0469 562.4531,222.7969 Q562.8438,222.6406 563.2656,222.2031 Q563.5313,221.9375 563.6719,221.8594 Q563.8281,221.7813 564.0313,221.7813 Q564.3594,221.7813 564.6094,222.0469 Q564.875,222.2969 564.875,222.6406 Q564.875,222.9844 564.5313,223.3906 Q564.0313,223.9688 563.2344,224.2969 Q562.1563,224.75 560.8594,224.75 Q559.3438,224.75 558.1406,224.125 Q557.1563,223.625 556.4688,222.5625 Q555.7813,221.4844 555.7813,220.2031 L555.7813,219.0469 Q555.7813,217.7188 556.3906,216.5781 Q557.0156,215.4219 558.1094,214.8125 Q559.2031,214.1875 560.4375,214.1875 Q561.1719,214.1875 561.8125,214.3594 Q562.4688,214.5156 563.0156,214.875 Z " fill="#000000"/><text fill="#000000" font-family="sans-serif" font-size="14" lengthAdjust="spacing" textLength="287" x="580.75" y="224.7285">AcceptRefuseSignupRequestControllerTxImpl</text><line style="stroke:#181818;stroke-width:0.5;" x1="500" x2="916" y1="235" y2="235"/><rect fill="none" height="6" style="stroke:#C82930;stroke-width:1.0;" width="6" x="507" y="246.3047"/><text fill="#000000" font-family="sans-serif" font-size="14" lengthAdjust="spacing" textLength="171" x="519" y="253.5332">authz: AuthorizationService</text><rect fill="none" height="6" style="stroke:#C82930;stroke-width:1.0;" width="6" x="507" y="263.9141"/><text fill="#000000" font-family="sans-serif" font-size="14" lengthAdjust="spacing" textLength="241" x="519" y="271.1426">userService: UserManagementService</text><rect fill="none" height="6" style="stroke:#C82930;stroke-width:1.0;" width="6" x="507" y="281.5234"/><text fill="#000000" font-family="sans-serif" font-size="14" lengthAdjust="spacing" textLength="172" x="519" y="288.752">txCtx: TransactionalContext</text><rect fill="none" height="6" style="stroke:#C82930;stroke-width:1.0;" width="6" x="507" y="299.1328"/><text fill="#000000" font-family="sans-serif" font-size="14" lengthAdjust="spacing" textLength="247" x="519" y="306.3613">clientUserRepository: UtenteRepository</text><rect fill="none" height="6" style="stroke:#C82930;stroke-width:1.0;" width="6" x="507" y="316.7422"/><text fill="#000000" font-family="sans-serif" font-size="14" lengthAdjust="spacing" textLength="343" x="519" y="323.9707">signupRequestsRepository: SignupRequestRepository</text><line style="stroke:#181818;stroke-width:0.5;" x1="500" x2="916" y1="331.0469" y2="331.0469"/><ellipse cx="510" cy="345.3516" fill="#84BE84" rx="3" ry="3" style="stroke:#038048;stroke-width:1.0;"/><text fill="#000000" font-family="sans-serif" font-size="14" lengthAdjust="spacing" textLength="351" x="519" y="349.5801">acceptSignupRequest(SignupRequest): SignupRequest</text><rect fill="#F24D5C" height="6" style="stroke:#C82930;stroke-width:1.0;" width="6" x="507" y="359.9609"/><text fill="#000000" font-family="sans-serif" font-size="14" lengthAdjust="spacing" textLength="376" x="519" y="367.1895">acceptTheSignupRequest(SignupRequest): SignupRequest</text><rect fill="#F24D5C" height="6" style="stroke:#C82930;stroke-width:1.0;" width="6" x="507" y="377.5703"/><text fill="#000000" font-family="sans-serif" font-size="14" lengthAdjust="spacing" textLength="305" x="519" y="384.7988">createUtente(SignupRequest, SystemUser): void</text><rect fill="#F24D5C" height="6" style="stroke:#C82930;stroke-width:1.0;" width="6" x="507" y="395.1797"/><text fill="#000000" font-family="sans-serif" font-size="14" lengthAdjust="spacing" textLength="392" x="519" y="402.4082">createSystemUserForClientUser(SignupRequest): SystemUser</text><ellipse cx="510" cy="415.7891" fill="#84BE84" rx="3" ry="3" style="stroke:#038048;stroke-width:1.0;"/><text fill="#000000" font-family="sans-serif" font-size="14" lengthAdjust="spacing" textLength="349" x="519" y="420.0176">refuseSignupRequest(SignupRequest): SignupRequest</text><ellipse cx="510" cy="433.3984" fill="#84BE84" rx="3" ry="3" style="stroke:#038048;stroke-width:1.0;"/><text fill="#000000" font-family="sans-serif" font-size="14" lengthAdjust="spacing" textLength="351" x="519" y="437.627">listPendingSignupRequests(): Iterable&lt;SignupRequest&gt;</text></g></a><!--class ListExemploUtenteController--><a href="ListExemploUtenteController.html" target="_top" title="ListExemploUtenteController.html" xlink:actuate="onRequest" xlink:href="ListExemploUtenteController.html" xlink:show="new" xlink:title="ListExemploUtenteController.html" xlink:type="simple"><g id="elem_ListExemploUtenteController"><rect codeLine="39" fill="#F1F1F1" height="100.8281" id="ListExemploUtenteController" rx="2.5" ry="2.5" style="stroke:#181818;stroke-width:0.5;" width="286" x="1088" y="42"/><ellipse cx="1137.75" cy="58" fill="#ADD1B2" rx="11" ry="11" style="stroke:#181818;stroke-width:1.0;"/><path d="M1140.5156,53.875 Q1140.6719,53.6563 1140.8594,53.5469 Q1141.0469,53.4375 1141.2656,53.4375 Q1141.6406,53.4375 1141.875,53.7031 Q1142.1094,53.9531 1142.1094,54.5625 L1142.1094,56.0156 Q1142.1094,56.625 1141.875,56.8906 Q1141.6406,57.1563 1141.2656,57.1563 Q1140.9219,57.1563 1140.7188,56.9531 Q1140.5156,56.7656 1140.4063,56.25 Q1140.3594,55.8906 1140.1719,55.7031 Q1139.8438,55.3281 1139.2344,55.1094 Q1138.625,54.8906 1138,54.8906 Q1137.2344,54.8906 1136.5938,55.2188 Q1135.9688,55.5469 1135.4688,56.2969 Q1134.9844,57.0469 1134.9844,58.0781 L1134.9844,59.1719 Q1134.9844,60.4063 1135.875,61.2344 Q1136.7656,62.0469 1138.3594,62.0469 Q1139.2969,62.0469 1139.9531,61.7969 Q1140.3438,61.6406 1140.7656,61.2031 Q1141.0313,60.9375 1141.1719,60.8594 Q1141.3281,60.7813 1141.5313,60.7813 Q1141.8594,60.7813 1142.1094,61.0469 Q1142.375,61.2969 1142.375,61.6406 Q1142.375,61.9844 1142.0313,62.3906 Q1141.5313,62.9688 1140.7344,63.2969 Q1139.6563,63.75 1138.3594,63.75 Q1136.8438,63.75 1135.6406,63.125 Q1134.6563,62.625 1133.9688,61.5625 Q1133.2813,60.4844 1133.2813,59.2031 L1133.2813,58.0469 Q1133.2813,56.7188 1133.8906,55.5781 Q1134.5156,54.4219 1135.6094,53.8125 Q1136.7031,53.1875 1137.9375,53.1875 Q1138.6719,53.1875 1139.3125,53.3594 Q1139.9688,53.5156 1140.5156,53.875 Z " fill="#000000"/><text fill="#000000" font-family="sans-serif" font-size="14" lengthAdjust="spacing" textLength="178" x="1158.25" y="63.7285">ListExemploUtenteController</text><line style="stroke:#181818;stroke-width:0.5;" x1="1089" x2="1373" y1="74" y2="74"/><rect fill="none" height="6" style="stroke:#C82930;stroke-width:1.0;" width="6" x="1096" y="85.3047"/><text fill="#000000" font-family="sans-serif" font-size="14" lengthAdjust="spacing" textLength="171" x="1108" y="92.5332">authz: AuthorizationService</text><rect fill="none" height="6" style="stroke:#C82930;stroke-width:1.0;" width="6" x="1096" y="102.9141"/><text fill="#000000" font-family="sans-serif" font-size="14" lengthAdjust="spacing" textLength="146" x="1108" y="110.1426">repo: UtenteRepository</text><line style="stroke:#181818;stroke-width:0.5;" x1="1089" x2="1373" y1="117.2188" y2="117.2188"/><ellipse cx="1099" cy="131.5234" fill="#84BE84" rx="3" ry="3" style="stroke:#038048;stroke-width:1.0;"/><text fill="#000000" font-family="sans-serif" font-size="14" lengthAdjust="spacing" textLength="260" x="1108" y="135.752">activeshodroneUtente(): Iterable&lt;Utente&gt;</text></g></a><!--class UtenteService--><a href="UtenteService.html" target="_top" title="UtenteService.html" xlink:actuate="onRequest" xlink:href="UtenteService.html" xlink:show="new" xlink:title="UtenteService.html" xlink:type="simple"><g id="elem_UtenteService"><rect codeLine="45" fill="#F1F1F1" height="118.4375" id="UtenteService" rx="2.5" ry="2.5" style="stroke:#181818;stroke-width:0.5;" width="422" x="952" y="265"/><ellipse cx="1114.75" cy="281" fill="#ADD1B2" rx="11" ry="11" style="stroke:#181818;stroke-width:1.0;"/><path d="M1117.5156,276.875 Q1117.6719,276.6563 1117.8594,276.5469 Q1118.0469,276.4375 1118.2656,276.4375 Q1118.6406,276.4375 1118.875,276.7031 Q1119.1094,276.9531 1119.1094,277.5625 L1119.1094,279.0156 Q1119.1094,279.625 1118.875,279.8906 Q1118.6406,280.1563 1118.2656,280.1563 Q1117.9219,280.1563 1117.7188,279.9531 Q1117.5156,279.7656 1117.4063,279.25 Q1117.3594,278.8906 1117.1719,278.7031 Q1116.8438,278.3281 1116.2344,278.1094 Q1115.625,277.8906 1115,277.8906 Q1114.2344,277.8906 1113.5938,278.2188 Q1112.9688,278.5469 1112.4688,279.2969 Q1111.9844,280.0469 1111.9844,281.0781 L1111.9844,282.1719 Q1111.9844,283.4063 1112.875,284.2344 Q1113.7656,285.0469 1115.3594,285.0469 Q1116.2969,285.0469 1116.9531,284.7969 Q1117.3438,284.6406 1117.7656,284.2031 Q1118.0313,283.9375 1118.1719,283.8594 Q1118.3281,283.7813 1118.5313,283.7813 Q1118.8594,283.7813 1119.1094,284.0469 Q1119.375,284.2969 1119.375,284.6406 Q1119.375,284.9844 1119.0313,285.3906 Q1118.5313,285.9688 1117.7344,286.2969 Q1116.6563,286.75 1115.3594,286.75 Q1113.8438,286.75 1112.6406,286.125 Q1111.6563,285.625 1110.9688,284.5625 Q1110.2813,283.4844 1110.2813,282.2031 L1110.2813,281.0469 Q1110.2813,279.7188 1110.8906,278.5781 Q1111.5156,277.4219 1112.6094,276.8125 Q1113.7031,276.1875 1114.9375,276.1875 Q1115.6719,276.1875 1116.3125,276.3594 Q1116.9688,276.5156 1117.5156,276.875 Z " fill="#000000"/><text fill="#000000" font-family="sans-serif" font-size="14" lengthAdjust="spacing" textLength="88" x="1135.25" y="286.7285">UtenteService</text><line style="stroke:#181818;stroke-width:0.5;" x1="953" x2="1373" y1="297" y2="297"/><rect fill="none" height="6" style="stroke:#C82930;stroke-width:1.0;" width="6" x="960" y="308.3047"/><text fill="#000000" font-family="sans-serif" font-size="14" lengthAdjust="spacing" textLength="171" x="972" y="315.5332">authz: AuthorizationService</text><rect fill="none" height="6" style="stroke:#C82930;stroke-width:1.0;" width="6" x="960" y="325.9141"/><text fill="#000000" font-family="sans-serif" font-size="14" lengthAdjust="spacing" textLength="146" x="972" y="333.1426">repo: UtenteRepository</text><line style="stroke:#181818;stroke-width:0.5;" x1="953" x2="1373" y1="340.2188" y2="340.2188"/><ellipse cx="963" cy="354.5234" fill="#84BE84" rx="3" ry="3" style="stroke:#038048;stroke-width:1.0;"/><text fill="#000000" font-family="sans-serif" font-size="14" lengthAdjust="spacing" textLength="380" x="972" y="358.752">findshodroneUtenteByMecNumber(String): Optional&lt;Utente&gt;</text><ellipse cx="963" cy="372.1328" fill="#84BE84" rx="3" ry="3" style="stroke:#038048;stroke-width:1.0;"/><text fill="#000000" font-family="sans-serif" font-size="14" lengthAdjust="spacing" textLength="396" x="972" y="376.3613">findshodroneUtenteByUsername(Username): Optional&lt;Utente&gt;</text></g></a><!--reverse link AcceptRefuseSignupRequestController to AcceptRefuseSignupRequestControllerEventfullImpl--><g id="link_AcceptRefuseSignupRequestController_AcceptRefuseSignupRequestControllerEventfullImpl"><path codeLine="54" d="M337.5454,158.6231 C321.5554,186.4231 310.14,206.27 291.69,238.35 " fill="none" id="AcceptRefuseSignupRequestController-backto-AcceptRefuseSignupRequestControllerEventfullImpl" style="stroke:#181818;stroke-width:1.0;stroke-dasharray:7.0,7.0;"/><polygon fill="none" points="346.52,143.02,332.3444,155.6316,342.7464,161.6146,346.52,143.02" style="stroke:#181818;stroke-width:1.0;"/></g><!--reverse link AcceptRefuseSignupRequestController to AcceptRefuseSignupRequestControllerTxImpl--><g id="link_AcceptRefuseSignupRequestController_AcceptRefuseSignupRequestControllerTxImpl"><path codeLine="55" d="M461.6732,153.2314 C487.4832,171.0114 503.01,181.73 533.72,202.89 " fill="none" id="AcceptRefuseSignupRequestController-backto-AcceptRefuseSignupRequestControllerTxImpl" style="stroke:#181818;stroke-width:1.0;stroke-dasharray:7.0,7.0;"/><polygon fill="none" points="446.85,143.02,458.2694,158.1725,465.077,148.2903,446.85,143.02" style="stroke:#181818;stroke-width:1.0;"/></g><text fill="#888888" font-family="sans-serif" font-size="10" lengthAdjust="spacing" textLength="184" x="599.5" y="477.3809">UMLDoclet 2.1.1, PlantUML 1.2023.12</text><!--SRC=[rLRVJzim47xdh_3Bf29e9AOzHMWIT20XjLlL7q-8XwjpRImSExETgeNnl-_SbBQcILSeGinIb3Xtz-Nkko-s6MFCegCh1mDE6nR7HqVqakN0xs62J49klaKsrOdH2gF2eNAOWI9RHeyHvBaK79pGYZsMeNvm2TQo2yunTpqS5nRxOgAA_1euVMNERczhRL7gCdbtHsXiOpnQHn_XJ-naL0YPD8xZ2lGU_YxGkfPMpcWfqQmWdjQf2Ih0Z87ZFW2LYMvvrQGC8-iC5KL9mm8a26y4CwedcDSYcUr4teWaXNLTL8bGao30Ud9lY2GOIJmFJD-h2AthzHPDLrDIpBYGyYRBvNxC1Y7LD3Tja7mFSss55z8B7jQ6C1mAbseZ7XOQxgEP2euahegtOLmYR0wEfsXYjaYpMuo8qdH3TNuSsFfc1kO-C5_OaZTCNW5pe6m-NYk3sVuYANrhrE7R-x1FFmdVhDe_f4bdjSfL-hjPoyrYDZ2WBFrG10lIvuIp5ntaKX26HzpKvd2najQ9yZ1D7wgvCdoGlbalJMuG79OrXd6dh3-tj8LuFWXZgaLI5RfskjQcjM9mEuULtoVMUvlGhcP88jKb9S46iyDwgAODwUCVKZlnsftYymw_RDbcbUMh7UML3ii4gA1W_X4bZ8LAmW8kvntaFujiv2NZ3BMHAlgLbt_fLaMr85vN2Z9iF3_iGbdoihozuk0Kn_kSHCx_HD6xemRxwt-KTxdaBnBc7igmiTR-DkoqVsWkwKpxDJgBpavPLm8j7Pqs-p95Omc_SVmN]--></g></svg>