<?xml version="1.0" encoding="us-ascii" standalone="no"?><svg xmlns="http://www.w3.org/2000/svg" xmlns:xlink="http://www.w3.org/1999/xlink" contentStyleType="text/css" height="202px" preserveAspectRatio="none" style="width:789px;height:202px;background:#FFFFFF;" version="1.1" viewBox="0 0 789 202" width="789px" zoomAndPan="magnify"><defs/><g><!--cluster lapr4.shodrone.myutente.application--><g id="cluster_lapr4.shodrone.myutente.application"><path d="M8.5,6 L266.5,6 A3.75,3.75 0 0 1 269,8.5 L276,29.6094 L779.5,29.6094 A2.5,2.5 0 0 1 782,32.1094 L782,173.5 A2.5,2.5 0 0 1 779.5,176 L8.5,176 A2.5,2.5 0 0 1 6,173.5 L6,8.5 A2.5,2.5 0 0 1 8.5,6 " fill="none" style="stroke:#000000;stroke-width:1.5;"/><line style="stroke:#000000;stroke-width:1.5;" x1="6" x2="276" y1="29.6094" y2="29.6094"/><text fill="#000000" font-family="sans-serif" font-size="14" font-weight="bold" lengthAdjust="spacing" textLength="257" x="10" y="22.5332">lapr4.shodrone.myutente.application</text></g><!--class MyUtenteService--><a href="MyUtenteService.html" target="_top" title="MyUtenteService.html" xlink:actuate="onRequest" xlink:href="MyUtenteService.html" xlink:show="new" xlink:title="MyUtenteService.html" xlink:type="simple"><g id="elem_MyUtenteService"><rect codeLine="5" fill="#F1F1F1" height="118.4375" id="MyUtenteService" rx="2.5" ry="2.5" style="stroke:#181818;stroke-width:0.5;" width="197" x="568.5" y="42"/><ellipse cx="610.05" cy="58" fill="#ADD1B2" rx="11" ry="11" style="stroke:#181818;stroke-width:1.0;"/><path d="M612.8156,53.875 Q612.9719,53.6563 613.1594,53.5469 Q613.3469,53.4375 613.5656,53.4375 Q613.9406,53.4375 614.175,53.7031 Q614.4094,53.9531 614.4094,54.5625 L614.4094,56.0156 Q614.4094,56.625 614.175,56.8906 Q613.9406,57.1563 613.5656,57.1563 Q613.2219,57.1563 613.0188,56.9531 Q612.8156,56.7656 612.7063,56.25 Q612.6594,55.8906 612.4719,55.7031 Q612.1438,55.3281 611.5344,55.1094 Q610.925,54.8906 610.3,54.8906 Q609.5344,54.8906 608.8938,55.2188 Q608.2688,55.5469 607.7688,56.2969 Q607.2844,57.0469 607.2844,58.0781 L607.2844,59.1719 Q607.2844,60.4063 608.175,61.2344 Q609.0656,62.0469 610.6594,62.0469 Q611.5969,62.0469 612.2531,61.7969 Q612.6438,61.6406 613.0656,61.2031 Q613.3313,60.9375 613.4719,60.8594 Q613.6281,60.7813 613.8313,60.7813 Q614.1594,60.7813 614.4094,61.0469 Q614.675,61.2969 614.675,61.6406 Q614.675,61.9844 614.3313,62.3906 Q613.8313,62.9688 613.0344,63.2969 Q611.9563,63.75 610.6594,63.75 Q609.1438,63.75 607.9406,63.125 Q606.9563,62.625 606.2688,61.5625 Q605.5813,60.4844 605.5813,59.2031 L605.5813,58.0469 Q605.5813,56.7188 606.1906,55.5781 Q606.8156,54.4219 607.9094,53.8125 Q609.0031,53.1875 610.2375,53.1875 Q610.9719,53.1875 611.6125,53.3594 Q612.2688,53.5156 612.8156,53.875 Z " fill="#000000"/><text fill="#000000" font-family="sans-serif" font-size="14" lengthAdjust="spacing" textLength="106" x="629.95" y="63.7285">MyUtenteService</text><line style="stroke:#181818;stroke-width:0.5;" x1="569.5" x2="764.5" y1="74" y2="74"/><rect fill="none" height="6" style="stroke:#C82930;stroke-width:1.0;" width="6" x="576.5" y="85.3047"/><text fill="#000000" font-family="sans-serif" font-size="14" lengthAdjust="spacing" textLength="171" x="588.5" y="92.5332">authz: AuthorizationService</text><rect fill="none" height="6" style="stroke:#C82930;stroke-width:1.0;" width="6" x="576.5" y="102.9141"/><text fill="#000000" font-family="sans-serif" font-size="14" lengthAdjust="spacing" textLength="146" x="588.5" y="110.1426">repo: UtenteRepository</text><line style="stroke:#181818;stroke-width:0.5;" x1="569.5" x2="764.5" y1="117.2188" y2="117.2188"/><ellipse cx="579.5" cy="131.5234" fill="#84BE84" rx="3" ry="3" style="stroke:#038048;stroke-width:1.0;"/><text fill="#000000" font-family="sans-serif" font-size="14" lengthAdjust="spacing" textLength="78" x="588.5" y="135.752">me(): Utente</text><ellipse cx="579.5" cy="149.1328" fill="#84BE84" rx="3" ry="3" style="stroke:#038048;stroke-width:1.0;"/><text fill="#000000" font-family="sans-serif" font-size="14" lengthAdjust="spacing" textLength="106" x="588.5" y="153.3613">myUser(): Utente</text></g></a><!--class SignupController--><a href="SignupController.html" target="_top" title="SignupController.html" xlink:actuate="onRequest" xlink:href="SignupController.html" xlink:show="new" xlink:title="SignupController.html" xlink:type="simple"><g id="elem_SignupController"><rect codeLine="12" fill="#F1F1F1" height="100.8281" id="SignupController" rx="2.5" ry="2.5" style="stroke:#181818;stroke-width:0.5;" width="511" x="22.5" y="50.5"/><ellipse cx="220.75" cy="66.5" fill="#ADD1B2" rx="11" ry="11" style="stroke:#181818;stroke-width:1.0;"/><path d="M223.5156,62.375 Q223.6719,62.1563 223.8594,62.0469 Q224.0469,61.9375 224.2656,61.9375 Q224.6406,61.9375 224.875,62.2031 Q225.1094,62.4531 225.1094,63.0625 L225.1094,64.5156 Q225.1094,65.125 224.875,65.3906 Q224.6406,65.6563 224.2656,65.6563 Q223.9219,65.6563 223.7188,65.4531 Q223.5156,65.2656 223.4063,64.75 Q223.3594,64.3906 223.1719,64.2031 Q222.8438,63.8281 222.2344,63.6094 Q221.625,63.3906 221,63.3906 Q220.2344,63.3906 219.5938,63.7188 Q218.9688,64.0469 218.4688,64.7969 Q217.9844,65.5469 217.9844,66.5781 L217.9844,67.6719 Q217.9844,68.9063 218.875,69.7344 Q219.7656,70.5469 221.3594,70.5469 Q222.2969,70.5469 222.9531,70.2969 Q223.3438,70.1406 223.7656,69.7031 Q224.0313,69.4375 224.1719,69.3594 Q224.3281,69.2813 224.5313,69.2813 Q224.8594,69.2813 225.1094,69.5469 Q225.375,69.7969 225.375,70.1406 Q225.375,70.4844 225.0313,70.8906 Q224.5313,71.4688 223.7344,71.7969 Q222.6563,72.25 221.3594,72.25 Q219.8438,72.25 218.6406,71.625 Q217.6563,71.125 216.9688,70.0625 Q216.2813,68.9844 216.2813,67.7031 L216.2813,66.5469 Q216.2813,65.2188 216.8906,64.0781 Q217.5156,62.9219 218.6094,62.3125 Q219.7031,61.6875 220.9375,61.6875 Q221.6719,61.6875 222.3125,61.8594 Q222.9688,62.0156 223.5156,62.375 Z " fill="#000000"/><text fill="#000000" font-family="sans-serif" font-size="14" lengthAdjust="spacing" textLength="106" x="241.25" y="72.2285">SignupController</text><line style="stroke:#181818;stroke-width:0.5;" x1="23.5" x2="532.5" y1="82.5" y2="82.5"/><rect fill="none" height="6" style="stroke:#C82930;stroke-width:1.0;" width="6" x="30.5" y="93.8047"/><text fill="#000000" font-family="sans-serif" font-size="14" lengthAdjust="spacing" textLength="336" x="42.5" y="101.0332">signupRequestRepository: SignupRequestRepository</text><line style="stroke:#181818;stroke-width:0.5;" x1="23.5" x2="532.5" y1="108.1094" y2="108.1094"/><ellipse cx="33.5" cy="122.4141" fill="#84BE84" rx="3" ry="3" style="stroke:#038048;stroke-width:1.0;"/><text fill="#000000" font-family="sans-serif" font-size="14" lengthAdjust="spacing" textLength="485" x="42.5" y="126.6426">signup(String, String, String, String, String, String, Calendar): SignupRequest</text><ellipse cx="33.5" cy="140.0234" fill="#84BE84" rx="3" ry="3" style="stroke:#038048;stroke-width:1.0;"/><text fill="#000000" font-family="sans-serif" font-size="14" lengthAdjust="spacing" textLength="419" x="42.5" y="144.252">signup(String, String, String, String, String, String): SignupRequest</text></g></a><text fill="#888888" font-family="sans-serif" font-size="10" lengthAdjust="spacing" textLength="184" x="295.5" y="192.3809">UMLDoclet 2.1.1, PlantUML 1.2023.12</text><!--SRC=[hL9DQyCm3BttL-WoI5XdwDWfjz4TLnWDEPKUXAibPexjoKuX7VtlSpx6bco57IgmPQJtdYNP002UGbmE6ODboBB58WR1eNp3aa2ZumVXAtjWQqZKRHF811Bed5OIWx86FWPAPrAZzx1fYnwL4n-L9DZjPX5HXLhlzv49F-mEcr2TCdYCph8wzUeZOmfaSZQ3GN8Rprx5sji9vhQc9Ft2p39juOd_o9xdZUIgD8rRMnFOQaqSEvc7BhJYUzYMtXlouRl4R9JybPXMEB2JFB0ovHB-wzUeoHoGqzarLn2_A3dExDpliXidmwkrdIispqzMwlY_xiLAh9Rmej6468MR8x6FZvkadm00]--></g></svg>