<?xml version="1.0" encoding="us-ascii" standalone="no"?><svg xmlns="http://www.w3.org/2000/svg" xmlns:xlink="http://www.w3.org/1999/xlink" contentStyleType="text/css" height="398px" preserveAspectRatio="none" style="width:898px;height:398px;background:#FFFFFF;" version="1.1" viewBox="0 0 898 398" width="898px" zoomAndPan="magnify"><defs/><g><!--cluster lapr4.shodrone.usermanagement.application--><g id="cluster_lapr4.shodrone.usermanagement.application"><path d="M8.5,6 L323.5,6 A3.75,3.75 0 0 1 326,8.5 L333,29.6094 L888.5,29.6094 A2.5,2.5 0 0 1 891,32.1094 L891,369.5 A2.5,2.5 0 0 1 888.5,372 L8.5,372 A2.5,2.5 0 0 1 6,369.5 L6,8.5 A2.5,2.5 0 0 1 8.5,6 " fill="none" style="stroke:#000000;stroke-width:1.5;"/><line style="stroke:#000000;stroke-width:1.5;" x1="6" x2="333" y1="29.6094" y2="29.6094"/><text fill="#000000" font-family="sans-serif" font-size="14" font-weight="bold" lengthAdjust="spacing" textLength="314" x="10" y="22.5332">lapr4.shodrone.usermanagement.application</text></g><!--class AddUserController--><a href="AddUserController.html" target="_top" title="AddUserController.html" xlink:actuate="onRequest" xlink:href="AddUserController.html" xlink:show="new" xlink:title="AddUserController.html" xlink:type="simple"><g id="elem_AddUserController"><rect codeLine="5" fill="#F1F1F1" height="136.0469" id="AddUserController" rx="2.5" ry="2.5" style="stroke:#181818;stroke-width:0.5;" width="529" x="22.5" y="42"/><ellipse cx="224.75" cy="58" fill="#ADD1B2" rx="11" ry="11" style="stroke:#181818;stroke-width:1.0;"/><path d="M227.5156,53.875 Q227.6719,53.6563 227.8594,53.5469 Q228.0469,53.4375 228.2656,53.4375 Q228.6406,53.4375 228.875,53.7031 Q229.1094,53.9531 229.1094,54.5625 L229.1094,56.0156 Q229.1094,56.625 228.875,56.8906 Q228.6406,57.1563 228.2656,57.1563 Q227.9219,57.1563 227.7188,56.9531 Q227.5156,56.7656 227.4063,56.25 Q227.3594,55.8906 227.1719,55.7031 Q226.8438,55.3281 226.2344,55.1094 Q225.625,54.8906 225,54.8906 Q224.2344,54.8906 223.5938,55.2188 Q222.9688,55.5469 222.4688,56.2969 Q221.9844,57.0469 221.9844,58.0781 L221.9844,59.1719 Q221.9844,60.4063 222.875,61.2344 Q223.7656,62.0469 225.3594,62.0469 Q226.2969,62.0469 226.9531,61.7969 Q227.3438,61.6406 227.7656,61.2031 Q228.0313,60.9375 228.1719,60.8594 Q228.3281,60.7813 228.5313,60.7813 Q228.8594,60.7813 229.1094,61.0469 Q229.375,61.2969 229.375,61.6406 Q229.375,61.9844 229.0313,62.3906 Q228.5313,62.9688 227.7344,63.2969 Q226.6563,63.75 225.3594,63.75 Q223.8438,63.75 222.6406,63.125 Q221.6563,62.625 220.9688,61.5625 Q220.2813,60.4844 220.2813,59.2031 L220.2813,58.0469 Q220.2813,56.7188 220.8906,55.5781 Q221.5156,54.4219 222.6094,53.8125 Q223.7031,53.1875 224.9375,53.1875 Q225.6719,53.1875 226.3125,53.3594 Q226.9688,53.5156 227.5156,53.875 Z " fill="#000000"/><text fill="#000000" font-family="sans-serif" font-size="14" lengthAdjust="spacing" textLength="116" x="245.25" y="63.7285">AddUserController</text><line style="stroke:#181818;stroke-width:0.5;" x1="23.5" x2="550.5" y1="74" y2="74"/><rect fill="none" height="6" style="stroke:#C82930;stroke-width:1.0;" width="6" x="30.5" y="85.3047"/><text fill="#000000" font-family="sans-serif" font-size="14" lengthAdjust="spacing" textLength="171" x="42.5" y="92.5332">authz: AuthorizationService</text><rect fill="none" height="6" style="stroke:#C82930;stroke-width:1.0;" width="6" x="30.5" y="102.9141"/><text fill="#000000" font-family="sans-serif" font-size="14" lengthAdjust="spacing" textLength="217" x="42.5" y="110.1426">userSvc: UserManagementService</text><line style="stroke:#181818;stroke-width:0.5;" x1="23.5" x2="550.5" y1="117.2188" y2="117.2188"/><ellipse cx="33.5" cy="131.5234" fill="#84BE84" rx="3" ry="3" style="stroke:#038048;stroke-width:1.0;"/><text fill="#000000" font-family="sans-serif" font-size="14" lengthAdjust="spacing" textLength="143" x="42.5" y="135.752">getRoleTypes(): Role[]</text><ellipse cx="33.5" cy="149.1328" fill="#84BE84" rx="3" ry="3" style="stroke:#038048;stroke-width:1.0;"/><text fill="#000000" font-family="sans-serif" font-size="14" lengthAdjust="spacing" textLength="503" x="42.5" y="153.3613">addUser(String, String, String, String, String, Set&lt;Role&gt;, Calendar): SystemUser</text><ellipse cx="33.5" cy="166.7422" fill="#84BE84" rx="3" ry="3" style="stroke:#038048;stroke-width:1.0;"/><text fill="#000000" font-family="sans-serif" font-size="14" lengthAdjust="spacing" textLength="437" x="42.5" y="170.9707">addUser(String, String, String, String, String, Set&lt;Role&gt;): SystemUser</text></g></a><!--class DeactivateUserController--><a href="DeactivateUserController.html" target="_top" title="DeactivateUserController.html" xlink:actuate="onRequest" xlink:href="DeactivateUserController.html" xlink:show="new" xlink:title="DeactivateUserController.html" xlink:type="simple"><g id="elem_DeactivateUserController"><rect codeLine="13" fill="#F1F1F1" height="118.4375" id="DeactivateUserController" rx="2.5" ry="2.5" style="stroke:#181818;stroke-width:0.5;" width="288" x="587" y="51"/><ellipse cx="647.75" cy="67" fill="#ADD1B2" rx="11" ry="11" style="stroke:#181818;stroke-width:1.0;"/><path d="M650.5156,62.875 Q650.6719,62.6563 650.8594,62.5469 Q651.0469,62.4375 651.2656,62.4375 Q651.6406,62.4375 651.875,62.7031 Q652.1094,62.9531 652.1094,63.5625 L652.1094,65.0156 Q652.1094,65.625 651.875,65.8906 Q651.6406,66.1563 651.2656,66.1563 Q650.9219,66.1563 650.7188,65.9531 Q650.5156,65.7656 650.4063,65.25 Q650.3594,64.8906 650.1719,64.7031 Q649.8438,64.3281 649.2344,64.1094 Q648.625,63.8906 648,63.8906 Q647.2344,63.8906 646.5938,64.2188 Q645.9688,64.5469 645.4688,65.2969 Q644.9844,66.0469 644.9844,67.0781 L644.9844,68.1719 Q644.9844,69.4063 645.875,70.2344 Q646.7656,71.0469 648.3594,71.0469 Q649.2969,71.0469 649.9531,70.7969 Q650.3438,70.6406 650.7656,70.2031 Q651.0313,69.9375 651.1719,69.8594 Q651.3281,69.7813 651.5313,69.7813 Q651.8594,69.7813 652.1094,70.0469 Q652.375,70.2969 652.375,70.6406 Q652.375,70.9844 652.0313,71.3906 Q651.5313,71.9688 650.7344,72.2969 Q649.6563,72.75 648.3594,72.75 Q646.8438,72.75 645.6406,72.125 Q644.6563,71.625 643.9688,70.5625 Q643.2813,69.4844 643.2813,68.2031 L643.2813,67.0469 Q643.2813,65.7188 643.8906,64.5781 Q644.5156,63.4219 645.6094,62.8125 Q646.7031,62.1875 647.9375,62.1875 Q648.6719,62.1875 649.3125,62.3594 Q649.9688,62.5156 650.5156,62.875 Z " fill="#000000"/><text fill="#000000" font-family="sans-serif" font-size="14" lengthAdjust="spacing" textLength="158" x="668.25" y="72.7285">DeactivateUserController</text><line style="stroke:#181818;stroke-width:0.5;" x1="588" x2="874" y1="83" y2="83"/><rect fill="none" height="6" style="stroke:#C82930;stroke-width:1.0;" width="6" x="595" y="94.3047"/><text fill="#000000" font-family="sans-serif" font-size="14" lengthAdjust="spacing" textLength="171" x="607" y="101.5332">authz: AuthorizationService</text><rect fill="none" height="6" style="stroke:#C82930;stroke-width:1.0;" width="6" x="595" y="111.9141"/><text fill="#000000" font-family="sans-serif" font-size="14" lengthAdjust="spacing" textLength="217" x="607" y="119.1426">userSvc: UserManagementService</text><line style="stroke:#181818;stroke-width:0.5;" x1="588" x2="874" y1="126.2188" y2="126.2188"/><ellipse cx="598" cy="140.5234" fill="#84BE84" rx="3" ry="3" style="stroke:#038048;stroke-width:1.0;"/><text fill="#000000" font-family="sans-serif" font-size="14" lengthAdjust="spacing" textLength="229" x="607" y="144.752">activeUsers(): Iterable&lt;SystemUser&gt;</text><ellipse cx="598" cy="158.1328" fill="#84BE84" rx="3" ry="3" style="stroke:#038048;stroke-width:1.0;"/><text fill="#000000" font-family="sans-serif" font-size="14" lengthAdjust="spacing" textLength="262" x="607" y="162.3613">deactivateUser(SystemUser): SystemUser</text></g></a><!--class ListUsersController--><a href="ListUsersController.html" target="_top" title="ListUsersController.html" xlink:actuate="onRequest" xlink:href="ListUsersController.html" xlink:show="new" xlink:title="ListUsersController.html" xlink:type="simple"><g id="elem_ListUsersController"><rect codeLine="20" fill="#F1F1F1" height="118.4375" id="ListUsersController" rx="2.5" ry="2.5" style="stroke:#181818;stroke-width:0.5;" width="275" x="149.5" y="238"/><ellipse cx="222.75" cy="254" fill="#ADD1B2" rx="11" ry="11" style="stroke:#181818;stroke-width:1.0;"/><path d="M225.5156,249.875 Q225.6719,249.6563 225.8594,249.5469 Q226.0469,249.4375 226.2656,249.4375 Q226.6406,249.4375 226.875,249.7031 Q227.1094,249.9531 227.1094,250.5625 L227.1094,252.0156 Q227.1094,252.625 226.875,252.8906 Q226.6406,253.1563 226.2656,253.1563 Q225.9219,253.1563 225.7188,252.9531 Q225.5156,252.7656 225.4063,252.25 Q225.3594,251.8906 225.1719,251.7031 Q224.8438,251.3281 224.2344,251.1094 Q223.625,250.8906 223,250.8906 Q222.2344,250.8906 221.5938,251.2188 Q220.9688,251.5469 220.4688,252.2969 Q219.9844,253.0469 219.9844,254.0781 L219.9844,255.1719 Q219.9844,256.4063 220.875,257.2344 Q221.7656,258.0469 223.3594,258.0469 Q224.2969,258.0469 224.9531,257.7969 Q225.3438,257.6406 225.7656,257.2031 Q226.0313,256.9375 226.1719,256.8594 Q226.3281,256.7813 226.5313,256.7813 Q226.8594,256.7813 227.1094,257.0469 Q227.375,257.2969 227.375,257.6406 Q227.375,257.9844 227.0313,258.3906 Q226.5313,258.9688 225.7344,259.2969 Q224.6563,259.75 223.3594,259.75 Q221.8438,259.75 220.6406,259.125 Q219.6563,258.625 218.9688,257.5625 Q218.2813,256.4844 218.2813,255.2031 L218.2813,254.0469 Q218.2813,252.7188 218.8906,251.5781 Q219.5156,250.4219 220.6094,249.8125 Q221.7031,249.1875 222.9375,249.1875 Q223.6719,249.1875 224.3125,249.3594 Q224.9688,249.5156 225.5156,249.875 Z " fill="#000000"/><text fill="#000000" font-family="sans-serif" font-size="14" lengthAdjust="spacing" textLength="120" x="243.25" y="259.7285">ListUsersController</text><line style="stroke:#181818;stroke-width:0.5;" x1="150.5" x2="423.5" y1="270" y2="270"/><rect fill="none" height="6" style="stroke:#C82930;stroke-width:1.0;" width="6" x="157.5" y="281.3047"/><text fill="#000000" font-family="sans-serif" font-size="14" lengthAdjust="spacing" textLength="171" x="169.5" y="288.5332">authz: AuthorizationService</text><rect fill="none" height="6" style="stroke:#C82930;stroke-width:1.0;" width="6" x="157.5" y="298.9141"/><text fill="#000000" font-family="sans-serif" font-size="14" lengthAdjust="spacing" textLength="217" x="169.5" y="306.1426">userSvc: UserManagementService</text><line style="stroke:#181818;stroke-width:0.5;" x1="150.5" x2="423.5" y1="313.2188" y2="313.2188"/><ellipse cx="160.5" cy="327.5234" fill="#84BE84" rx="3" ry="3" style="stroke:#038048;stroke-width:1.0;"/><text fill="#000000" font-family="sans-serif" font-size="14" lengthAdjust="spacing" textLength="206" x="169.5" y="331.752">allUsers(): Iterable&lt;SystemUser&gt;</text><ellipse cx="160.5" cy="345.1328" fill="#84BE84" rx="3" ry="3" style="stroke:#038048;stroke-width:1.0;"/><text fill="#000000" font-family="sans-serif" font-size="14" lengthAdjust="spacing" textLength="249" x="169.5" y="349.3613">find(Username): Optional&lt;SystemUser&gt;</text></g></a><text fill="#888888" font-family="sans-serif" font-size="10" lengthAdjust="spacing" textLength="184" x="350" y="388.3809">UMLDoclet 2.1.1, PlantUML 1.2023.12</text><!--SRC=[lLFHQi8m57ttA-xBe39NSEofY23wCb0srlaaFjobTngM9Y6v5dJuxqlgcElis0R3G7lfpJdddfmI001F71wB3jauoB9E9pJ1edZ15O52wsvIlpQ5CvhIZITNeWux9MbEqLeb1R8q6buFnBY4GkzXL1Jp01yRpSueHGuMYvDUkkPIBPU13P_M5MvulSjW58fnSbTFoCbLKb0J60tbbSWWoiu-dBLXBrV43qRHuzQIJxePn8_5ied1Wy4aPoVrgWS_Lk91r1dsO8oAT84kAETRprH6eNzIRzVSVuryGYXOLiXqalntM-Vy0RM3UdwT_osJmoT5W-FHXar2qJ2T776_p6CgFTVZ6b6qTC-QWb9_YE1PwYA9VOqb1SQTZIPGjJBU0zZNRn4CXFC-6nFBV3QT6A72PRzE-sc_1_SADOSkN5J1JD1Ckcy0]--></g></svg>