<?xml version="1.0" encoding="us-ascii" standalone="no"?><svg xmlns="http://www.w3.org/2000/svg" xmlns:xlink="http://www.w3.org/1999/xlink" contentStyleType="text/css" height="436px" preserveAspectRatio="none" style="width:459px;height:436px;background:#FFFFFF;" version="1.1" viewBox="0 0 459 436" width="459px" zoomAndPan="magnify"><defs/><g><!--class lapr4.shodrone.persistence.impl.inmemory.InMemoryRepositoryFactory--><a href="InMemoryRepositoryFactory.html" target="_top" title="InMemoryRepositoryFactory.html" xlink:actuate="onRequest" xlink:href="InMemoryRepositoryFactory.html" xlink:show="new" xlink:title="InMemoryRepositoryFactory.html" xlink:type="simple"><g id="elem_lapr4.shodrone.persistence.impl.inmemory.InMemoryRepositoryFactory"><rect codeLine="5" fill="#F1F1F1" height="171.4531" id="lapr4.shodrone.persistence.impl.inmemory.InMemoryRepositoryFactory" rx="2.5" ry="2.5" style="stroke:#181818;stroke-width:0.5;" width="445" x="7" y="238"/><ellipse cx="125.25" cy="258.0938" fill="#ADD1B2" rx="11" ry="11" style="stroke:#181818;stroke-width:1.0;"/><path d="M128.0156,253.9688 Q128.1719,253.75 128.3594,253.6406 Q128.5469,253.5313 128.7656,253.5313 Q129.1406,253.5313 129.375,253.7969 Q129.6094,254.0469 129.6094,254.6563 L129.6094,256.1094 Q129.6094,256.7188 129.375,256.9844 Q129.1406,257.25 128.7656,257.25 Q128.4219,257.25 128.2188,257.0469 Q128.0156,256.8594 127.9063,256.3438 Q127.8594,255.9844 127.6719,255.7969 Q127.3438,255.4219 126.7344,255.2031 Q126.125,254.9844 125.5,254.9844 Q124.7344,254.9844 124.0938,255.3125 Q123.4688,255.6406 122.9688,256.3906 Q122.4844,257.1406 122.4844,258.1719 L122.4844,259.2656 Q122.4844,260.5 123.375,261.3281 Q124.2656,262.1406 125.8594,262.1406 Q126.7969,262.1406 127.4531,261.8906 Q127.8438,261.7344 128.2656,261.2969 Q128.5313,261.0313 128.6719,260.9531 Q128.8281,260.875 129.0313,260.875 Q129.3594,260.875 129.6094,261.1406 Q129.875,261.3906 129.875,261.7344 Q129.875,262.0781 129.5313,262.4844 Q129.0313,263.0625 128.2344,263.3906 Q127.1563,263.8438 125.8594,263.8438 Q124.3438,263.8438 123.1406,263.2188 Q122.1563,262.7188 121.4688,261.6563 Q120.7813,260.5781 120.7813,259.2969 L120.7813,258.1406 Q120.7813,256.8125 121.3906,255.6719 Q122.0156,254.5156 123.1094,253.9063 Q124.2031,253.2813 125.4375,253.2813 Q126.1719,253.2813 126.8125,253.4531 Q127.4688,253.6094 128.0156,253.9688 Z " fill="#000000"/><text fill="#000000" font-family="sans-serif" font-size="14" lengthAdjust="spacing" textLength="177" x="157.25" y="257.5332">InMemoryRepositoryFactory</text><text fill="#000000" font-family="sans-serif" font-size="10" lengthAdjust="spacing" textLength="200" x="145.75" y="270.9902">lapr4.shodrone.persistence.impl.inmemory</text><line style="stroke:#181818;stroke-width:0.5;" x1="8" x2="451" y1="278.1875" y2="278.1875"/><ellipse cx="18" cy="292.4922" fill="#84BE84" rx="3" ry="3" style="stroke:#038048;stroke-width:1.0;"/><text fill="#000000" font-family="sans-serif" font-size="14" lengthAdjust="spacing" textLength="284" x="27" y="296.7207">users(TransactionalContext): UserRepository</text><ellipse cx="18" cy="310.1016" fill="#84BE84" rx="3" ry="3" style="stroke:#038048;stroke-width:1.0;"/><text fill="#000000" font-family="sans-serif" font-size="14" lengthAdjust="spacing" textLength="150" x="27" y="314.3301">users(): UserRepository</text><ellipse cx="18" cy="327.7109" fill="#84BE84" rx="3" ry="3" style="stroke:#038048;stroke-width:1.0;"/><text fill="#000000" font-family="sans-serif" font-size="14" lengthAdjust="spacing" textLength="308" x="27" y="331.9395">utentes(TransactionalContext): UtenteRepository</text><ellipse cx="18" cy="345.3203" fill="#84BE84" rx="3" ry="3" style="stroke:#038048;stroke-width:1.0;"/><text fill="#000000" font-family="sans-serif" font-size="14" lengthAdjust="spacing" textLength="174" x="27" y="349.5488">utentes(): UtenteRepository</text><ellipse cx="18" cy="362.9297" fill="#84BE84" rx="3" ry="3" style="stroke:#038048;stroke-width:1.0;"/><text fill="#000000" font-family="sans-serif" font-size="14" lengthAdjust="spacing" textLength="285" x="27" y="367.1582">signupRequests(): SignupRequestRepository</text><ellipse cx="18" cy="380.5391" fill="#84BE84" rx="3" ry="3" style="stroke:#038048;stroke-width:1.0;"/><text fill="#000000" font-family="sans-serif" font-size="14" lengthAdjust="spacing" textLength="419" x="27" y="384.7676">signupRequests(TransactionalContext): SignupRequestRepository</text><ellipse cx="18" cy="398.1484" fill="#84BE84" rx="3" ry="3" style="stroke:#038048;stroke-width:1.0;"/><text fill="#000000" font-family="sans-serif" font-size="14" lengthAdjust="spacing" textLength="311" x="27" y="402.377">newTransactionalContext(): TransactionalContext</text></g></a><!--class lapr4.shodrone.infrastructure.persistence.RepositoryFactory--><g id="elem_lapr4.shodrone.infrastructure.persistence.RepositoryFactory"><rect codeLine="15" fill="#F1F1F1" height="171.4531" id="lapr4.shodrone.infrastructure.persistence.RepositoryFactory" rx="2.5" ry="2.5" style="stroke:#181818;stroke-width:0.5;" width="445" x="7" y="7"/><ellipse cx="129.25" cy="27.0938" fill="#B4A7E5" rx="11" ry="11" style="stroke:#181818;stroke-width:1.0;"/><path d="M130.2031,23.7344 L130.2031,30.3906 L131.9219,30.3906 Q132.5313,30.3906 132.7969,30.625 Q133.0625,30.8594 133.0625,31.25 Q133.0625,31.625 132.7969,31.8594 Q132.5313,32.0938 131.9219,32.0938 L126.7813,32.0938 Q126.1719,32.0938 125.9063,31.8594 Q125.6406,31.625 125.6406,31.2344 Q125.6406,30.8594 125.9063,30.625 Q126.1719,30.3906 126.7813,30.3906 L128.5,30.3906 L128.5,23.7344 L126.7813,23.7344 Q126.1719,23.7344 125.9063,23.5 Q125.6406,23.2656 125.6406,22.875 Q125.6406,22.5 125.9063,22.2656 Q126.1719,22.0313 126.7813,22.0313 L131.9219,22.0313 Q132.5313,22.0313 132.7969,22.2656 Q133.0625,22.5 133.0625,22.875 Q133.0625,23.2656 132.7969,23.5 Q132.5313,23.7344 131.9219,23.7344 L130.2031,23.7344 Z " fill="#000000"/><text fill="#000000" font-family="sans-serif" font-size="14" font-style="italic" lengthAdjust="spacing" textLength="116" x="187.75" y="26.5332">RepositoryFactory</text><text fill="#000000" font-family="sans-serif" font-size="10" font-style="italic" lengthAdjust="spacing" textLength="192" x="149.75" y="39.9902">lapr4.shodrone.infrastructure.persistence</text><line style="stroke:#181818;stroke-width:0.5;" x1="8" x2="451" y1="47.1875" y2="47.1875"/><ellipse cx="18" cy="61.4922" fill="#84BE84" rx="3" ry="3" style="stroke:#038048;stroke-width:1.0;"/><text fill="#000000" font-family="sans-serif" font-size="14" font-style="italic" lengthAdjust="spacing" textLength="311" x="27" y="65.7207">newTransactionalContext(): TransactionalContext</text><ellipse cx="18" cy="79.1016" fill="#84BE84" rx="3" ry="3" style="stroke:#038048;stroke-width:1.0;"/><text fill="#000000" font-family="sans-serif" font-size="14" font-style="italic" lengthAdjust="spacing" textLength="285" x="27" y="83.3301">users(TransactionalContext): UserRepository</text><ellipse cx="18" cy="96.7109" fill="#84BE84" rx="3" ry="3" style="stroke:#038048;stroke-width:1.0;"/><text fill="#000000" font-family="sans-serif" font-size="14" font-style="italic" lengthAdjust="spacing" textLength="151" x="27" y="100.9395">users(): UserRepository</text><ellipse cx="18" cy="114.3203" fill="#84BE84" rx="3" ry="3" style="stroke:#038048;stroke-width:1.0;"/><text fill="#000000" font-family="sans-serif" font-size="14" font-style="italic" lengthAdjust="spacing" textLength="309" x="27" y="118.5488">utentes(TransactionalContext): UtenteRepository</text><ellipse cx="18" cy="131.9297" fill="#84BE84" rx="3" ry="3" style="stroke:#038048;stroke-width:1.0;"/><text fill="#000000" font-family="sans-serif" font-size="14" font-style="italic" lengthAdjust="spacing" textLength="175" x="27" y="136.1582">utentes(): UtenteRepository</text><ellipse cx="18" cy="149.5391" fill="#84BE84" rx="3" ry="3" style="stroke:#038048;stroke-width:1.0;"/><text fill="#000000" font-family="sans-serif" font-size="14" font-style="italic" lengthAdjust="spacing" textLength="419" x="27" y="153.7676">signupRequests(TransactionalContext): SignupRequestRepository</text><ellipse cx="18" cy="167.1484" fill="#84BE84" rx="3" ry="3" style="stroke:#038048;stroke-width:1.0;"/><text fill="#000000" font-family="sans-serif" font-size="14" font-style="italic" lengthAdjust="spacing" textLength="285" x="27" y="171.377">signupRequests(): SignupRequestRepository</text></g><!--reverse link lapr4.shodrone.infrastructure.persistence.RepositoryFactory to lapr4.shodrone.persistence.impl.inmemory.InMemoryRepositoryFactory--><g id="link_lapr4.shodrone.infrastructure.persistence.RepositoryFactory_lapr4.shodrone.persistence.impl.inmemory.InMemoryRepositoryFactory"><path codeLine="25" d="M229.5,196.12 C229.5,215.61 229.5,218.35 229.5,237.85 " fill="none" id="lapr4.shodrone.infrastructure.persistence.RepositoryFactory-backto-lapr4.shodrone.persistence.impl.inmemory.InMemoryRepositoryFactory" style="stroke:#181818;stroke-width:1.0;stroke-dasharray:7.0,7.0;"/><polygon fill="none" points="229.5,178.12,223.5,196.12,235.5,196.12,229.5,178.12" style="stroke:#181818;stroke-width:1.0;"/></g><text fill="#888888" font-family="sans-serif" font-size="10" lengthAdjust="spacing" textLength="184" x="130.5" y="425.834">UMLDoclet 2.1.1, PlantUML 1.2023.12</text><!--SRC=[hLHHIm9147xlLmn2e1HBXayYlXH1a12QJ-R3TewviBUxxUnLPlxtvav1qxlpCkzbuPll-sPsxsC000W361aZEHdX09tqCbWFnXeyupBCr0G1OnVcC5Me9xIBnXXcbk4CZxGaWbg7r1UscwtklUbXRFsyZywIOkFvdOpIuzciELTTBPrl2M8Jpqs5Gq-A0fe8XOgT5ih4cKSD945LiYZi3ADHOKtCGgp7OrXabqc_YuIuHVt9IqFCKTP8VMDDmC_GQCEGYnkJNL4PWKSEMEoRbSk4fIHIhoPnVNnBa4B67MmZ5IG5SnsqCVYH9qr7oCCpuN8L7SM8dt88j-BpXzWeC_MIWa-YaFXVmSZBJJ5Rx0TcauQ5V64HmylZhhhhSKouzlKLkKT6Bi-ZAlyqgIfnFA1UH-i_Fx_pBSG9jivgEwPFvc5gRNeCUm-tDjAyVwz5KpGluL5B4nY5y_UqWJNrnWy0]--></g></svg>