<?xml version="1.0" encoding="us-ascii" standalone="no"?><svg xmlns="http://www.w3.org/2000/svg" xmlns:xlink="http://www.w3.org/1999/xlink" contentStyleType="text/css" height="277px" preserveAspectRatio="none" style="width:849px;height:277px;background:#FFFFFF;" version="1.1" viewBox="0 0 849 277" width="849px" zoomAndPan="magnify"><defs/><g><!--class lapr4.shodrone.persistence.impl.inmemory.InMemoryUtenteRepository--><a href="InMemoryUtenteRepository.html" target="_top" title="InMemoryUtenteRepository.html" xlink:actuate="onRequest" xlink:href="InMemoryUtenteRepository.html" xlink:show="new" xlink:title="InMemoryUtenteRepository.html" xlink:type="simple"><g id="elem_lapr4.shodrone.persistence.impl.inmemory.InMemoryUtenteRepository"><rect codeLine="5" fill="#F1F1F1" height="101.0156" id="lapr4.shodrone.persistence.impl.inmemory.InMemoryUtenteRepository" rx="2.5" ry="2.5" style="stroke:#181818;stroke-width:0.5;" width="485" x="219.5" y="150"/><ellipse cx="357.75" cy="170.0938" fill="#ADD1B2" rx="11" ry="11" style="stroke:#181818;stroke-width:1.0;"/><path d="M360.5156,165.9688 Q360.6719,165.75 360.8594,165.6406 Q361.0469,165.5313 361.2656,165.5313 Q361.6406,165.5313 361.875,165.7969 Q362.1094,166.0469 362.1094,166.6563 L362.1094,168.1094 Q362.1094,168.7188 361.875,168.9844 Q361.6406,169.25 361.2656,169.25 Q360.9219,169.25 360.7188,169.0469 Q360.5156,168.8594 360.4063,168.3438 Q360.3594,167.9844 360.1719,167.7969 Q359.8438,167.4219 359.2344,167.2031 Q358.625,166.9844 358,166.9844 Q357.2344,166.9844 356.5938,167.3125 Q355.9688,167.6406 355.4688,168.3906 Q354.9844,169.1406 354.9844,170.1719 L354.9844,171.2656 Q354.9844,172.5 355.875,173.3281 Q356.7656,174.1406 358.3594,174.1406 Q359.2969,174.1406 359.9531,173.8906 Q360.3438,173.7344 360.7656,173.2969 Q361.0313,173.0313 361.1719,172.9531 Q361.3281,172.875 361.5313,172.875 Q361.8594,172.875 362.1094,173.1406 Q362.375,173.3906 362.375,173.7344 Q362.375,174.0781 362.0313,174.4844 Q361.5313,175.0625 360.7344,175.3906 Q359.6563,175.8438 358.3594,175.8438 Q356.8438,175.8438 355.6406,175.2188 Q354.6563,174.7188 353.9688,173.6563 Q353.2813,172.5781 353.2813,171.2969 L353.2813,170.1406 Q353.2813,168.8125 353.8906,167.6719 Q354.5156,166.5156 355.6094,165.9063 Q356.7031,165.2813 357.9375,165.2813 Q358.6719,165.2813 359.3125,165.4531 Q359.9688,165.6094 360.5156,165.9688 Z " fill="#000000"/><text fill="#000000" font-family="sans-serif" font-size="14" lengthAdjust="spacing" textLength="170" x="393.25" y="169.5332">InMemoryUtenteRepository</text><text fill="#000000" font-family="sans-serif" font-size="10" lengthAdjust="spacing" textLength="200" x="378.25" y="182.9902">lapr4.shodrone.persistence.impl.inmemory</text><line style="stroke:#181818;stroke-width:0.5;" x1="220.5" x2="703.5" y1="190.1875" y2="190.1875"/><ellipse cx="230.5" cy="204.4922" fill="#84BE84" rx="3" ry="3" style="stroke:#038048;stroke-width:1.0;"/><text fill="#000000" font-family="sans-serif" font-size="14" lengthAdjust="spacing" textLength="295" x="239.5" y="208.7207">findByUsername(Username): Optional&lt;Utente&gt;</text><ellipse cx="230.5" cy="222.1016" fill="#84BE84" rx="3" ry="3" style="stroke:#038048;stroke-width:1.0;"/><text fill="#000000" font-family="sans-serif" font-size="14" lengthAdjust="spacing" textLength="459" x="239.5" y="226.3301">findByMecanographicNumber(MecanographicNumber): Optional&lt;Utente&gt;</text><ellipse cx="230.5" cy="239.7109" fill="#84BE84" rx="3" ry="3" style="stroke:#038048;stroke-width:1.0;"/><text fill="#000000" font-family="sans-serif" font-size="14" lengthAdjust="spacing" textLength="198" x="239.5" y="243.9395">findAllActive(): Iterable&lt;Utente&gt;</text></g></a><!--class eapli.framework.infrastructure.repositories.impl.inmemory.InMemoryDomainRepository--><g id="elem_eapli.framework.infrastructure.repositories.impl.inmemory.InMemoryDomainRepository"><rect codeLine="11" fill="#F1F1F1" height="40.1875" id="eapli.framework.infrastructure.repositories.impl.inmemory.InMemoryDomainRepository" rx="2.5" ry="2.5" style="stroke:#181818;stroke-width:0.5;" width="476" x="7" y="28.5"/><ellipse cx="22" cy="48.5938" fill="#ADD1B2" rx="11" ry="11" style="stroke:#181818;stroke-width:1.0;"/><path d="M24.7656,44.4688 Q24.9219,44.25 25.1094,44.1406 Q25.2969,44.0313 25.5156,44.0313 Q25.8906,44.0313 26.125,44.2969 Q26.3594,44.5469 26.3594,45.1563 L26.3594,46.6094 Q26.3594,47.2188 26.125,47.4844 Q25.8906,47.75 25.5156,47.75 Q25.1719,47.75 24.9688,47.5469 Q24.7656,47.3594 24.6563,46.8438 Q24.6094,46.4844 24.4219,46.2969 Q24.0938,45.9219 23.4844,45.7031 Q22.875,45.4844 22.25,45.4844 Q21.4844,45.4844 20.8438,45.8125 Q20.2188,46.1406 19.7188,46.8906 Q19.2344,47.6406 19.2344,48.6719 L19.2344,49.7656 Q19.2344,51 20.125,51.8281 Q21.0156,52.6406 22.6094,52.6406 Q23.5469,52.6406 24.2031,52.3906 Q24.5938,52.2344 25.0156,51.7969 Q25.2813,51.5313 25.4219,51.4531 Q25.5781,51.375 25.7813,51.375 Q26.1094,51.375 26.3594,51.6406 Q26.625,51.8906 26.625,52.2344 Q26.625,52.5781 26.2813,52.9844 Q25.7813,53.5625 24.9844,53.8906 Q23.9063,54.3438 22.6094,54.3438 Q21.0938,54.3438 19.8906,53.7188 Q18.9063,53.2188 18.2188,52.1563 Q17.5313,51.0781 17.5313,49.7969 L17.5313,48.6406 Q17.5313,47.3125 18.1406,46.1719 Q18.7656,45.0156 19.8594,44.4063 Q20.9531,43.7813 22.1875,43.7813 Q22.9219,43.7813 23.5625,43.9531 Q24.2188,44.1094 24.7656,44.4688 Z " fill="#000000"/><text fill="#000000" font-family="sans-serif" font-size="14" lengthAdjust="spacing" textLength="177" x="81.5" y="48.0332">InMemoryDomainRepository</text><text fill="#000000" font-family="sans-serif" font-size="10" lengthAdjust="spacing" textLength="268" x="36" y="61.4902">eapli.framework.infrastructure.repositories.impl.inmemory</text><rect fill="#FFFFFF" height="17.0938" style="stroke:#181818;stroke-width:1.0;stroke-dasharray:2.0,2.0;" width="174" x="312" y="25.5"/><text fill="#000000" font-family="sans-serif" font-size="12" font-style="italic" lengthAdjust="spacing" textLength="172" x="313" y="38.957">Utente, MecanographicNumber</text></g><!--class lapr4.shodrone.utentemanagement.repositories.UtenteRepository--><g id="elem_lapr4.shodrone.utentemanagement.repositories.UtenteRepository"><rect codeLine="12" fill="#F1F1F1" height="83.4063" id="lapr4.shodrone.utentemanagement.repositories.UtenteRepository" rx="2.5" ry="2.5" style="stroke:#181818;stroke-width:0.5;" width="324" x="518" y="7"/><ellipse cx="565.25" cy="27.0938" fill="#B4A7E5" rx="11" ry="11" style="stroke:#181818;stroke-width:1.0;"/><path d="M566.2031,23.7344 L566.2031,30.3906 L567.9219,30.3906 Q568.5313,30.3906 568.7969,30.625 Q569.0625,30.8594 569.0625,31.25 Q569.0625,31.625 568.7969,31.8594 Q568.5313,32.0938 567.9219,32.0938 L562.7813,32.0938 Q562.1719,32.0938 561.9063,31.8594 Q561.6406,31.625 561.6406,31.2344 Q561.6406,30.8594 561.9063,30.625 Q562.1719,30.3906 562.7813,30.3906 L564.5,30.3906 L564.5,23.7344 L562.7813,23.7344 Q562.1719,23.7344 561.9063,23.5 Q561.6406,23.2656 561.6406,22.875 Q561.6406,22.5 561.9063,22.2656 Q562.1719,22.0313 562.7813,22.0313 L567.9219,22.0313 Q568.5313,22.0313 568.7969,22.2656 Q569.0625,22.5 569.0625,22.875 Q569.0625,23.2656 568.7969,23.5 Q568.5313,23.7344 567.9219,23.7344 L566.2031,23.7344 Z " fill="#000000"/><text fill="#000000" font-family="sans-serif" font-size="14" font-style="italic" lengthAdjust="spacing" textLength="110" x="641.25" y="26.5332">UtenteRepository</text><text fill="#000000" font-family="sans-serif" font-size="10" font-style="italic" lengthAdjust="spacing" textLength="221" x="585.75" y="39.9902">lapr4.shodrone.utentemanagement.repositories</text><line style="stroke:#181818;stroke-width:0.5;" x1="519" x2="841" y1="47.1875" y2="47.1875"/><ellipse cx="529" cy="61.4922" fill="#84BE84" rx="3" ry="3" style="stroke:#038048;stroke-width:1.0;"/><text fill="#000000" font-family="sans-serif" font-size="14" font-style="italic" lengthAdjust="spacing" textLength="298" x="538" y="65.7207">findByUsername(Username): Optional&lt;Utente&gt;</text><ellipse cx="529" cy="79.1016" fill="#84BE84" rx="3" ry="3" style="stroke:#038048;stroke-width:1.0;"/><text fill="#000000" font-family="sans-serif" font-size="14" font-style="italic" lengthAdjust="spacing" textLength="199" x="538" y="83.3301">findAllActive(): Iterable&lt;Utente&gt;</text></g><!--reverse link eapli.framework.infrastructure.repositories.impl.inmemory.InMemoryDomainRepository to lapr4.shodrone.persistence.impl.inmemory.InMemoryUtenteRepository--><g id="link_eapli.framework.infrastructure.repositories.impl.inmemory.InMemoryDomainRepository_lapr4.shodrone.persistence.impl.inmemory.InMemoryUtenteRepository"><path codeLine="17" d="M287.7267,79.0354 C317.2667,99.4554 350.24,122.24 390.38,149.99 " fill="none" id="eapli.framework.infrastructure.repositories.impl.inmemory.InMemoryDomainRepository-backto-lapr4.shodrone.persistence.impl.inmemory.InMemoryUtenteRepository" style="stroke:#181818;stroke-width:1.0;"/><polygon fill="none" points="272.92,68.8,284.3149,83.9709,291.1385,74.0998,272.92,68.8" style="stroke:#181818;stroke-width:1.0;"/></g><!--reverse link lapr4.shodrone.utentemanagement.repositories.UtenteRepository to lapr4.shodrone.persistence.impl.inmemory.InMemoryUtenteRepository--><g id="link_lapr4.shodrone.utentemanagement.repositories.UtenteRepository_lapr4.shodrone.persistence.impl.inmemory.InMemoryUtenteRepository"><path codeLine="18" d="M606.1815,100.2936 C579.4415,118.6936 562.42,130.41 534.26,149.78 " fill="none" id="lapr4.shodrone.utentemanagement.repositories.UtenteRepository-backto-lapr4.shodrone.persistence.impl.inmemory.InMemoryUtenteRepository" style="stroke:#181818;stroke-width:1.0;stroke-dasharray:7.0,7.0;"/><polygon fill="none" points="621.01,90.09,602.7802,95.3508,609.5827,105.2365,621.01,90.09" style="stroke:#181818;stroke-width:1.0;"/></g><text fill="#888888" font-family="sans-serif" font-size="10" lengthAdjust="spacing" textLength="184" x="325.5" y="267.3965">UMLDoclet 2.1.1, PlantUML 1.2023.12</text><!--SRC=[hLHDJm913BtxAneJ4uWu4SE941AC5nDHe-647ihGbOdpbSwWGU2_Exj0L5oG27lPvlMrqxvvkm00WI9OD1GyIdeaZupHCLXdwIYbOQI616Hyd42cI0_3EceeZbo22rng306EMq5zKBFUQ5_RBXd7arua6-c1l0igjPyysINblAtHSqE4r8FJcS8J1nKINP9GnckXh2bQ70C6s9KiDXqC_Vwcb1X5ev-VOLfiaZ-dcRB3oqal4ESILLP1jGbtFYfdKRSMNThhDLsIQDqBenyfUJis0-9A2VPdfuxM7HdL6rKIzJeIuq3J3-fyk_9Npg2ofSeJUgr4nccZTyUlIRmKXyXZ6STCWbSrYaB9LVoxMcmQRRbM3Kg4MkogKfgpPDHlY-vkhN71D6ZnXKmAVynOPg-j1UANjRwCCyL1KW9bdF_BG-lbEvlWy7S2hTdPsVwVNJ7TVkgsPa8SQ12POmoPS_chrxsvSbAd_-25g8jw3UursfXGE7dB-pjRgNu2]--></g></svg>