<?xml version="1.0" encoding="us-ascii" standalone="no"?><svg xmlns="http://www.w3.org/2000/svg" xmlns:xlink="http://www.w3.org/1999/xlink" contentStyleType="text/css" height="225px" preserveAspectRatio="none" style="width:862px;height:225px;background:#FFFFFF;" version="1.1" viewBox="0 0 862 225" width="862px" zoomAndPan="magnify"><defs/><g><!--class lapr4.shodrone.persistence.impl.inmemory.InMemorySignupRequestRepository--><a href="InMemorySignupRequestRepository.html" target="_top" title="InMemorySignupRequestRepository.html" xlink:actuate="onRequest" xlink:href="InMemorySignupRequestRepository.html" xlink:show="new" xlink:title="InMemorySignupRequestRepository.html" xlink:type="simple"><g id="elem_lapr4.shodrone.persistence.impl.inmemory.InMemorySignupRequestRepository"><rect codeLine="5" fill="#F1F1F1" height="65.7969" id="lapr4.shodrone.persistence.impl.inmemory.InMemorySignupRequestRepository" rx="2.5" ry="2.5" style="stroke:#181818;stroke-width:0.5;" width="359" x="275" y="133"/><ellipse cx="337.25" cy="153.0938" fill="#ADD1B2" rx="11" ry="11" style="stroke:#181818;stroke-width:1.0;"/><path d="M340.0156,148.9688 Q340.1719,148.75 340.3594,148.6406 Q340.5469,148.5313 340.7656,148.5313 Q341.1406,148.5313 341.375,148.7969 Q341.6094,149.0469 341.6094,149.6563 L341.6094,151.1094 Q341.6094,151.7188 341.375,151.9844 Q341.1406,152.25 340.7656,152.25 Q340.4219,152.25 340.2188,152.0469 Q340.0156,151.8594 339.9063,151.3438 Q339.8594,150.9844 339.6719,150.7969 Q339.3438,150.4219 338.7344,150.2031 Q338.125,149.9844 337.5,149.9844 Q336.7344,149.9844 336.0938,150.3125 Q335.4688,150.6406 334.9688,151.3906 Q334.4844,152.1406 334.4844,153.1719 L334.4844,154.2656 Q334.4844,155.5 335.375,156.3281 Q336.2656,157.1406 337.8594,157.1406 Q338.7969,157.1406 339.4531,156.8906 Q339.8438,156.7344 340.2656,156.2969 Q340.5313,156.0313 340.6719,155.9531 Q340.8281,155.875 341.0313,155.875 Q341.3594,155.875 341.6094,156.1406 Q341.875,156.3906 341.875,156.7344 Q341.875,157.0781 341.5313,157.4844 Q341.0313,158.0625 340.2344,158.3906 Q339.1563,158.8438 337.8594,158.8438 Q336.3438,158.8438 335.1406,158.2188 Q334.1563,157.7188 333.4688,156.6563 Q332.7813,155.5781 332.7813,154.2969 L332.7813,153.1406 Q332.7813,151.8125 333.3906,150.6719 Q334.0156,149.5156 335.1094,148.9063 Q336.2031,148.2813 337.4375,148.2813 Q338.1719,148.2813 338.8125,148.4531 Q339.4688,148.6094 340.0156,148.9688 Z " fill="#000000"/><text fill="#000000" font-family="sans-serif" font-size="14" lengthAdjust="spacing" textLength="226" x="357.75" y="152.5332">InMemorySignupRequestRepository</text><text fill="#000000" font-family="sans-serif" font-size="10" lengthAdjust="spacing" textLength="200" x="370.75" y="165.9902">lapr4.shodrone.persistence.impl.inmemory</text><line style="stroke:#181818;stroke-width:0.5;" x1="276" x2="633" y1="173.1875" y2="173.1875"/><ellipse cx="286" cy="187.4922" fill="#84BE84" rx="3" ry="3" style="stroke:#038048;stroke-width:1.0;"/><text fill="#000000" font-family="sans-serif" font-size="14" lengthAdjust="spacing" textLength="333" x="295" y="191.7207">pendingSignupRequests(): Iterable&lt;SignupRequest&gt;</text></g></a><!--class eapli.framework.infrastructure.repositories.impl.inmemory.InMemoryDomainRepository--><g id="elem_eapli.framework.infrastructure.repositories.impl.inmemory.InMemoryDomainRepository"><rect codeLine="9" fill="#F1F1F1" height="40.1875" id="eapli.framework.infrastructure.repositories.impl.inmemory.InMemoryDomainRepository" rx="2.5" ry="2.5" style="stroke:#181818;stroke-width:0.5;" width="453" x="7" y="20"/><ellipse cx="22" cy="40.0938" fill="#ADD1B2" rx="11" ry="11" style="stroke:#181818;stroke-width:1.0;"/><path d="M24.7656,35.9688 Q24.9219,35.75 25.1094,35.6406 Q25.2969,35.5313 25.5156,35.5313 Q25.8906,35.5313 26.125,35.7969 Q26.3594,36.0469 26.3594,36.6563 L26.3594,38.1094 Q26.3594,38.7188 26.125,38.9844 Q25.8906,39.25 25.5156,39.25 Q25.1719,39.25 24.9688,39.0469 Q24.7656,38.8594 24.6563,38.3438 Q24.6094,37.9844 24.4219,37.7969 Q24.0938,37.4219 23.4844,37.2031 Q22.875,36.9844 22.25,36.9844 Q21.4844,36.9844 20.8438,37.3125 Q20.2188,37.6406 19.7188,38.3906 Q19.2344,39.1406 19.2344,40.1719 L19.2344,41.2656 Q19.2344,42.5 20.125,43.3281 Q21.0156,44.1406 22.6094,44.1406 Q23.5469,44.1406 24.2031,43.8906 Q24.5938,43.7344 25.0156,43.2969 Q25.2813,43.0313 25.4219,42.9531 Q25.5781,42.875 25.7813,42.875 Q26.1094,42.875 26.3594,43.1406 Q26.625,43.3906 26.625,43.7344 Q26.625,44.0781 26.2813,44.4844 Q25.7813,45.0625 24.9844,45.3906 Q23.9063,45.8438 22.6094,45.8438 Q21.0938,45.8438 19.8906,45.2188 Q18.9063,44.7188 18.2188,43.6563 Q17.5313,42.5781 17.5313,41.2969 L17.5313,40.1406 Q17.5313,38.8125 18.1406,37.6719 Q18.7656,36.5156 19.8594,35.9063 Q20.9531,35.2813 22.1875,35.2813 Q22.9219,35.2813 23.5625,35.4531 Q24.2188,35.6094 24.7656,35.9688 Z " fill="#000000"/><text fill="#000000" font-family="sans-serif" font-size="14" lengthAdjust="spacing" textLength="177" x="81.5" y="39.5332">InMemoryDomainRepository</text><text fill="#000000" font-family="sans-serif" font-size="10" lengthAdjust="spacing" textLength="268" x="36" y="52.9902">eapli.framework.infrastructure.repositories.impl.inmemory</text><rect fill="#FFFFFF" height="17.0938" style="stroke:#181818;stroke-width:1.0;stroke-dasharray:2.0,2.0;" width="151" x="312" y="17"/><text fill="#000000" font-family="sans-serif" font-size="12" font-style="italic" lengthAdjust="spacing" textLength="149" x="313" y="30.457">SignupRequest, Username</text></g><!--class lapr4.shodrone.utentemanagement.repositories.SignupRequestRepository--><g id="elem_lapr4.shodrone.utentemanagement.repositories.SignupRequestRepository"><rect codeLine="10" fill="#F1F1F1" height="65.7969" id="lapr4.shodrone.utentemanagement.repositories.SignupRequestRepository" rx="2.5" ry="2.5" style="stroke:#181818;stroke-width:0.5;" width="360" x="495.5" y="7"/><ellipse cx="560.75" cy="27.0938" fill="#B4A7E5" rx="11" ry="11" style="stroke:#181818;stroke-width:1.0;"/><path d="M561.7031,23.7344 L561.7031,30.3906 L563.4219,30.3906 Q564.0313,30.3906 564.2969,30.625 Q564.5625,30.8594 564.5625,31.25 Q564.5625,31.625 564.2969,31.8594 Q564.0313,32.0938 563.4219,32.0938 L558.2813,32.0938 Q557.6719,32.0938 557.4063,31.8594 Q557.1406,31.625 557.1406,31.2344 Q557.1406,30.8594 557.4063,30.625 Q557.6719,30.3906 558.2813,30.3906 L560,30.3906 L560,23.7344 L558.2813,23.7344 Q557.6719,23.7344 557.4063,23.5 Q557.1406,23.2656 557.1406,22.875 Q557.1406,22.5 557.4063,22.2656 Q557.6719,22.0313 558.2813,22.0313 L563.4219,22.0313 Q564.0313,22.0313 564.2969,22.2656 Q564.5625,22.5 564.5625,22.875 Q564.5625,23.2656 564.2969,23.5 Q564.0313,23.7344 563.4219,23.7344 L561.7031,23.7344 Z " fill="#000000"/><text fill="#000000" font-family="sans-serif" font-size="14" font-style="italic" lengthAdjust="spacing" textLength="165" x="609.25" y="26.5332">SignupRequestRepository</text><text fill="#000000" font-family="sans-serif" font-size="10" font-style="italic" lengthAdjust="spacing" textLength="221" x="581.25" y="39.9902">lapr4.shodrone.utentemanagement.repositories</text><line style="stroke:#181818;stroke-width:0.5;" x1="496.5" x2="854.5" y1="47.1875" y2="47.1875"/><ellipse cx="506.5" cy="61.4922" fill="#84BE84" rx="3" ry="3" style="stroke:#038048;stroke-width:1.0;"/><text fill="#000000" font-family="sans-serif" font-size="14" font-style="italic" lengthAdjust="spacing" textLength="334" x="515.5" y="65.7207">pendingSignupRequests(): Iterable&lt;SignupRequest&gt;</text></g><!--reverse link eapli.framework.infrastructure.repositories.impl.inmemory.InMemoryDomainRepository to lapr4.shodrone.persistence.impl.inmemory.InMemorySignupRequestRepository--><g id="link_eapli.framework.infrastructure.repositories.impl.inmemory.InMemoryDomainRepository_lapr4.shodrone.persistence.impl.inmemory.InMemorySignupRequestRepository"><path codeLine="14" d="M283.2473,68.9087 C317.7473,88.2687 356.07,109.77 397.19,132.84 " fill="none" id="eapli.framework.infrastructure.repositories.impl.inmemory.InMemoryDomainRepository-backto-lapr4.shodrone.persistence.impl.inmemory.InMemorySignupRequestRepository" style="stroke:#181818;stroke-width:1.0;"/><polygon fill="none" points="267.55,60.1,280.3111,74.1412,286.1836,63.6763,267.55,60.1" style="stroke:#181818;stroke-width:1.0;"/></g><!--reverse link lapr4.shodrone.utentemanagement.repositories.SignupRequestRepository to lapr4.shodrone.persistence.impl.inmemory.InMemorySignupRequestRepository--><g id="link_lapr4.shodrone.utentemanagement.repositories.SignupRequestRepository_lapr4.shodrone.persistence.impl.inmemory.InMemorySignupRequestRepository"><path codeLine="15" d="M602.6022,81.8979 C569.8622,100.2679 544.61,114.44 511.84,132.82 " fill="none" id="lapr4.shodrone.utentemanagement.repositories.SignupRequestRepository-backto-lapr4.shodrone.persistence.impl.inmemory.InMemorySignupRequestRepository" style="stroke:#181818;stroke-width:1.0;stroke-dasharray:7.0,7.0;"/><polygon fill="none" points="618.3,73.09,599.6662,76.6652,605.5381,87.1305,618.3,73.09" style="stroke:#181818;stroke-width:1.0;"/></g><text fill="#888888" font-family="sans-serif" font-size="10" lengthAdjust="spacing" textLength="184" x="332.25" y="215.1777">UMLDoclet 2.1.1, PlantUML 1.2023.12</text><!--SRC=[hLHBQm8n4BxtLmn2GQc6MZp9uicBKA4edgo7k8uQcbSpsHQh_lVERblQBJxws5mI9ZEPxp44080mWfK6oSiKn-XbaD45iCxY1L_3MYqGqFYuWQL2lQ3lKODnxJXSn5CjYQ2Ma7h1RhlJ6zWX6XSsOxMocH_XOuOKH-WTAUwokRVlcTSzBNte2EAd0hSM7WCfYcXJ5CfuBPGrnKira0G_JHPd-iDqUYP3hAFHinbi2thvkl9e5ygkIWLKRtHX4378kSQaTDKhAlUdzUax8vKzA0nAhvLO1lResOK7viPdYY5BOnPGX8yQXNH0gJzNYsFGokoQC24C-G2zyLIMHLZoA7qX-MlpCxOoef5Mhj3miGJpq02SB137pF_qT2ldh8bCu_v_zbQlDYIxLgkoUIz0Lg9TiXEYMbXf3YF0qhbycmnl-oxL_3dTYBPeD-5EIniv2fTFUHjdwurN]--></g></svg>