<?xml version="1.0" encoding="us-ascii" standalone="no"?><svg xmlns="http://www.w3.org/2000/svg" xmlns:xlink="http://www.w3.org/1999/xlink" contentStyleType="text/css" height="637px" preserveAspectRatio="none" style="width:2138px;height:637px;background:#FFFFFF;" version="1.1" viewBox="0 0 2138 637" width="2138px" zoomAndPan="magnify"><defs/><g><!--cluster lapr4.shodrone.persistence.impl.inmemory--><g id="cluster_lapr4.shodrone.persistence.impl.inmemory"><path d="M177.5,262 L478.5,262 A3.75,3.75 0 0 1 481,264.5 L488,285.6094 L1746.5,285.6094 A2.5,2.5 0 0 1 1749,288.1094 L1749,608.5 A2.5,2.5 0 0 1 1746.5,611 L177.5,611 A2.5,2.5 0 0 1 175,608.5 L175,264.5 A2.5,2.5 0 0 1 177.5,262 " fill="none" style="stroke:#000000;stroke-width:1.5;"/><line style="stroke:#000000;stroke-width:1.5;" x1="175" x2="488" y1="285.6094" y2="285.6094"/><text fill="#000000" font-family="sans-serif" font-size="14" font-weight="bold" lengthAdjust="spacing" textLength="300" x="179" y="278.5332">lapr4.shodrone.persistence.impl.inmemory</text></g><!--cluster lapr4.shodrone.infrastructure.persistence--><g id="cluster_lapr4.shodrone.infrastructure.persistence"><path d="M8.5,6 L305.5,6 A3.75,3.75 0 0 1 308,8.5 L315,29.6094 L481.5,29.6094 A2.5,2.5 0 0 1 484,32.1094 L484,226.5 A2.5,2.5 0 0 1 481.5,229 L8.5,229 A2.5,2.5 0 0 1 6,226.5 L6,8.5 A2.5,2.5 0 0 1 8.5,6 " fill="none" style="stroke:#000000;stroke-width:1.5;"/><line style="stroke:#000000;stroke-width:1.5;" x1="6" x2="315" y1="29.6094" y2="29.6094"/><text fill="#000000" font-family="sans-serif" font-size="14" font-weight="bold" lengthAdjust="spacing" textLength="296" x="10" y="22.5332">lapr4.shodrone.infrastructure.persistence</text></g><!--cluster eapli.framework.infrastructure.repositories.impl.inmemory--><g id="cluster_eapli.framework.infrastructure.repositories.impl.inmemory"><path d="M510.5,67.5 L919.5,67.5 A3.75,3.75 0 0 1 922,70 L929,91.1094 L1191.5,91.1094 A2.5,2.5 0 0 1 1194,93.6094 L1194,165 A2.5,2.5 0 0 1 1191.5,167.5 L510.5,167.5 A2.5,2.5 0 0 1 508,165 L508,70 A2.5,2.5 0 0 1 510.5,67.5 " fill="none" style="stroke:#000000;stroke-width:1.5;"/><line style="stroke:#000000;stroke-width:1.5;" x1="508" x2="929" y1="91.1094" y2="91.1094"/><text fill="#000000" font-family="sans-serif" font-size="14" font-weight="bold" lengthAdjust="spacing" textLength="408" x="512" y="84.0332">eapli.framework.infrastructure.repositories.impl.inmemory</text></g><!--cluster lapr4.shodrone.utentemanagement.repositories--><g id="cluster_lapr4.shodrone.utentemanagement.repositories"><path d="M1220.5,41 L1558.5,41 A3.75,3.75 0 0 1 1561,43.5 L1568,64.6094 L2128.5,64.6094 A2.5,2.5 0 0 1 2131,67.1094 L2131,191.5 A2.5,2.5 0 0 1 2128.5,194 L1220.5,194 A2.5,2.5 0 0 1 1218,191.5 L1218,43.5 A2.5,2.5 0 0 1 1220.5,41 " fill="none" style="stroke:#000000;stroke-width:1.5;"/><line style="stroke:#000000;stroke-width:1.5;" x1="1218" x2="1568" y1="64.6094" y2="64.6094"/><text fill="#000000" font-family="sans-serif" font-size="14" font-weight="bold" lengthAdjust="spacing" textLength="337" x="1222" y="57.5332">lapr4.shodrone.utentemanagement.repositories</text></g><!--class InMemoryInitializer--><a href="InMemoryInitializer.html" target="_top" title="InMemoryInitializer.html" xlink:actuate="onRequest" xlink:href="InMemoryInitializer.html" xlink:show="new" xlink:title="InMemoryInitializer.html" xlink:type="simple"><g id="elem_InMemoryInitializer"><rect codeLine="5" fill="#F1F1F1" height="100.8281" id="InMemoryInitializer" rx="2.5" ry="2.5" style="stroke:#181818;stroke-width:0.5;" width="147" x="1585.5" y="333"/><ellipse cx="1600.5" cy="349" fill="#ADD1B2" rx="11" ry="11" style="stroke:#181818;stroke-width:1.0;"/><path d="M1603.2656,344.875 Q1603.4219,344.6563 1603.6094,344.5469 Q1603.7969,344.4375 1604.0156,344.4375 Q1604.3906,344.4375 1604.625,344.7031 Q1604.8594,344.9531 1604.8594,345.5625 L1604.8594,347.0156 Q1604.8594,347.625 1604.625,347.8906 Q1604.3906,348.1563 1604.0156,348.1563 Q1603.6719,348.1563 1603.4688,347.9531 Q1603.2656,347.7656 1603.1563,347.25 Q1603.1094,346.8906 1602.9219,346.7031 Q1602.5938,346.3281 1601.9844,346.1094 Q1601.375,345.8906 1600.75,345.8906 Q1599.9844,345.8906 1599.3438,346.2188 Q1598.7188,346.5469 1598.2188,347.2969 Q1597.7344,348.0469 1597.7344,349.0781 L1597.7344,350.1719 Q1597.7344,351.4063 1598.625,352.2344 Q1599.5156,353.0469 1601.1094,353.0469 Q1602.0469,353.0469 1602.7031,352.7969 Q1603.0938,352.6406 1603.5156,352.2031 Q1603.7813,351.9375 1603.9219,351.8594 Q1604.0781,351.7813 1604.2813,351.7813 Q1604.6094,351.7813 1604.8594,352.0469 Q1605.125,352.2969 1605.125,352.6406 Q1605.125,352.9844 1604.7813,353.3906 Q1604.2813,353.9688 1603.4844,354.2969 Q1602.4063,354.75 1601.1094,354.75 Q1599.5938,354.75 1598.3906,354.125 Q1597.4063,353.625 1596.7188,352.5625 Q1596.0313,351.4844 1596.0313,350.2031 L1596.0313,349.0469 Q1596.0313,347.7188 1596.6406,346.5781 Q1597.2656,345.4219 1598.3594,344.8125 Q1599.4531,344.1875 1600.6875,344.1875 Q1601.4219,344.1875 1602.0625,344.3594 Q1602.7188,344.5156 1603.2656,344.875 Z " fill="#000000"/><text fill="#000000" font-family="sans-serif" font-size="14" lengthAdjust="spacing" textLength="115" x="1614.5" y="354.7285">InMemoryInitializer</text><line style="stroke:#181818;stroke-width:0.5;" x1="1586.5" x2="1731.5" y1="365" y2="365"/><rect fill="none" height="6" style="stroke:#C82930;stroke-width:1.0;" width="6" x="1593.5" y="376.3047"/><text fill="#000000" font-family="sans-serif" font-size="14" lengthAdjust="spacing" textLength="116" x="1605.5" y="383.5332">initialized: boolean</text><line style="stroke:#181818;stroke-width:0.5;" x1="1586.5" x2="1731.5" y1="390.6094" y2="390.6094"/><rect fill="#F24D5C" height="6" style="stroke:#C82930;stroke-width:1.0;" width="6" x="1593.5" y="401.9141"/><text fill="#000000" font-family="sans-serif" font-size="14" lengthAdjust="spacing" textLength="93" x="1605.5" y="409.1426">initialize(): void</text><ellipse cx="1596.5" cy="422.5234" fill="#84BE84" rx="3" ry="3" style="stroke:#038048;stroke-width:1.0;"/><text fill="#000000" font-family="sans-serif" font-size="14" lengthAdjust="spacing" text-decoration="underline" textLength="62" x="1605.5" y="426.752">init(): void</text></g></a><!--class InMemoryInitializer.LazyHolder--><a href="InMemoryInitializer.LazyHolder.html" target="_top" title="InMemoryInitializer.LazyHolder.html" xlink:actuate="onRequest" xlink:href="InMemoryInitializer.LazyHolder.html" xlink:show="new" xlink:title="InMemoryInitializer.LazyHolder.html" xlink:type="simple"><g id="elem_InMemoryInitializer.LazyHolder"><rect codeLine="11" fill="#F1F1F1" height="48" id="InMemoryInitializer.LazyHolder" rx="2.5" ry="2.5" style="stroke:#181818;stroke-width:0.5;" width="221" x="1509.5" y="547"/><ellipse cx="1524.5" cy="563" fill="#ADD1B2" rx="11" ry="11" style="stroke:#181818;stroke-width:1.0;"/><path d="M1527.2656,558.875 Q1527.4219,558.6563 1527.6094,558.5469 Q1527.7969,558.4375 1528.0156,558.4375 Q1528.3906,558.4375 1528.625,558.7031 Q1528.8594,558.9531 1528.8594,559.5625 L1528.8594,561.0156 Q1528.8594,561.625 1528.625,561.8906 Q1528.3906,562.1563 1528.0156,562.1563 Q1527.6719,562.1563 1527.4688,561.9531 Q1527.2656,561.7656 1527.1563,561.25 Q1527.1094,560.8906 1526.9219,560.7031 Q1526.5938,560.3281 1525.9844,560.1094 Q1525.375,559.8906 1524.75,559.8906 Q1523.9844,559.8906 1523.3438,560.2188 Q1522.7188,560.5469 1522.2188,561.2969 Q1521.7344,562.0469 1521.7344,563.0781 L1521.7344,564.1719 Q1521.7344,565.4063 1522.625,566.2344 Q1523.5156,567.0469 1525.1094,567.0469 Q1526.0469,567.0469 1526.7031,566.7969 Q1527.0938,566.6406 1527.5156,566.2031 Q1527.7813,565.9375 1527.9219,565.8594 Q1528.0781,565.7813 1528.2813,565.7813 Q1528.6094,565.7813 1528.8594,566.0469 Q1529.125,566.2969 1529.125,566.6406 Q1529.125,566.9844 1528.7813,567.3906 Q1528.2813,567.9688 1527.4844,568.2969 Q1526.4063,568.75 1525.1094,568.75 Q1523.5938,568.75 1522.3906,568.125 Q1521.4063,567.625 1520.7188,566.5625 Q1520.0313,565.4844 1520.0313,564.2031 L1520.0313,563.0469 Q1520.0313,561.7188 1520.6406,560.5781 Q1521.2656,559.4219 1522.3594,558.8125 Q1523.4531,558.1875 1524.6875,558.1875 Q1525.4219,558.1875 1526.0625,558.3594 Q1526.7188,558.5156 1527.2656,558.875 Z " fill="#000000"/><text fill="#000000" font-family="sans-serif" font-size="14" lengthAdjust="spacing" textLength="189" x="1538.5" y="568.7285">InMemoryInitializer.LazyHolder</text><line style="stroke:#181818;stroke-width:0.5;" x1="1510.5" x2="1729.5" y1="579" y2="579"/><line style="stroke:#181818;stroke-width:0.5;" x1="1510.5" x2="1729.5" y1="587" y2="587"/></g></a><!--class InMemoryRepositoryFactory--><a href="InMemoryRepositoryFactory.html" target="_top" title="InMemoryRepositoryFactory.html" xlink:actuate="onRequest" xlink:href="InMemoryRepositoryFactory.html" xlink:show="new" xlink:title="InMemoryRepositoryFactory.html" xlink:type="simple"><g id="elem_InMemoryRepositoryFactory"><rect codeLine="13" fill="#F1F1F1" height="171.2656" id="InMemoryRepositoryFactory" rx="2.5" ry="2.5" style="stroke:#181818;stroke-width:0.5;" width="445" x="191.5" y="298"/><ellipse cx="321.25" cy="314" fill="#ADD1B2" rx="11" ry="11" style="stroke:#181818;stroke-width:1.0;"/><path d="M324.0156,309.875 Q324.1719,309.6563 324.3594,309.5469 Q324.5469,309.4375 324.7656,309.4375 Q325.1406,309.4375 325.375,309.7031 Q325.6094,309.9531 325.6094,310.5625 L325.6094,312.0156 Q325.6094,312.625 325.375,312.8906 Q325.1406,313.1563 324.7656,313.1563 Q324.4219,313.1563 324.2188,312.9531 Q324.0156,312.7656 323.9063,312.25 Q323.8594,311.8906 323.6719,311.7031 Q323.3438,311.3281 322.7344,311.1094 Q322.125,310.8906 321.5,310.8906 Q320.7344,310.8906 320.0938,311.2188 Q319.4688,311.5469 318.9688,312.2969 Q318.4844,313.0469 318.4844,314.0781 L318.4844,315.1719 Q318.4844,316.4063 319.375,317.2344 Q320.2656,318.0469 321.8594,318.0469 Q322.7969,318.0469 323.4531,317.7969 Q323.8438,317.6406 324.2656,317.2031 Q324.5313,316.9375 324.6719,316.8594 Q324.8281,316.7813 325.0313,316.7813 Q325.3594,316.7813 325.6094,317.0469 Q325.875,317.2969 325.875,317.6406 Q325.875,317.9844 325.5313,318.3906 Q325.0313,318.9688 324.2344,319.2969 Q323.1563,319.75 321.8594,319.75 Q320.3438,319.75 319.1406,319.125 Q318.1563,318.625 317.4688,317.5625 Q316.7813,316.4844 316.7813,315.2031 L316.7813,314.0469 Q316.7813,312.7188 317.3906,311.5781 Q318.0156,310.4219 319.1094,309.8125 Q320.2031,309.1875 321.4375,309.1875 Q322.1719,309.1875 322.8125,309.3594 Q323.4688,309.5156 324.0156,309.875 Z " fill="#000000"/><text fill="#000000" font-family="sans-serif" font-size="14" lengthAdjust="spacing" textLength="177" x="341.75" y="319.7285">InMemoryRepositoryFactory</text><line style="stroke:#181818;stroke-width:0.5;" x1="192.5" x2="635.5" y1="330" y2="330"/><line style="stroke:#181818;stroke-width:0.5;" x1="192.5" x2="635.5" y1="338" y2="338"/><ellipse cx="202.5" cy="352.3047" fill="#84BE84" rx="3" ry="3" style="stroke:#038048;stroke-width:1.0;"/><text fill="#000000" font-family="sans-serif" font-size="14" lengthAdjust="spacing" textLength="284" x="211.5" y="356.5332">users(TransactionalContext): UserRepository</text><ellipse cx="202.5" cy="369.9141" fill="#84BE84" rx="3" ry="3" style="stroke:#038048;stroke-width:1.0;"/><text fill="#000000" font-family="sans-serif" font-size="14" lengthAdjust="spacing" textLength="150" x="211.5" y="374.1426">users(): UserRepository</text><ellipse cx="202.5" cy="387.5234" fill="#84BE84" rx="3" ry="3" style="stroke:#038048;stroke-width:1.0;"/><text fill="#000000" font-family="sans-serif" font-size="14" lengthAdjust="spacing" textLength="308" x="211.5" y="391.752">utentes(TransactionalContext): UtenteRepository</text><ellipse cx="202.5" cy="405.1328" fill="#84BE84" rx="3" ry="3" style="stroke:#038048;stroke-width:1.0;"/><text fill="#000000" font-family="sans-serif" font-size="14" lengthAdjust="spacing" textLength="174" x="211.5" y="409.3613">utentes(): UtenteRepository</text><ellipse cx="202.5" cy="422.7422" fill="#84BE84" rx="3" ry="3" style="stroke:#038048;stroke-width:1.0;"/><text fill="#000000" font-family="sans-serif" font-size="14" lengthAdjust="spacing" textLength="285" x="211.5" y="426.9707">signupRequests(): SignupRequestRepository</text><ellipse cx="202.5" cy="440.3516" fill="#84BE84" rx="3" ry="3" style="stroke:#038048;stroke-width:1.0;"/><text fill="#000000" font-family="sans-serif" font-size="14" lengthAdjust="spacing" textLength="419" x="211.5" y="444.5801">signupRequests(TransactionalContext): SignupRequestRepository</text><ellipse cx="202.5" cy="457.9609" fill="#84BE84" rx="3" ry="3" style="stroke:#038048;stroke-width:1.0;"/><text fill="#000000" font-family="sans-serif" font-size="14" lengthAdjust="spacing" textLength="311" x="211.5" y="462.1895">newTransactionalContext(): TransactionalContext</text></g></a><!--class InMemorySignupRequestRepository--><a href="InMemorySignupRequestRepository.html" target="_top" title="InMemorySignupRequestRepository.html" xlink:actuate="onRequest" xlink:href="InMemorySignupRequestRepository.html" xlink:show="new" xlink:title="InMemorySignupRequestRepository.html" xlink:type="simple"><g id="elem_InMemorySignupRequestRepository"><rect codeLine="23" fill="#F1F1F1" height="65.6094" id="InMemorySignupRequestRepository" rx="2.5" ry="2.5" style="stroke:#181818;stroke-width:0.5;" width="359" x="671.5" y="350.5"/><ellipse cx="733.75" cy="366.5" fill="#ADD1B2" rx="11" ry="11" style="stroke:#181818;stroke-width:1.0;"/><path d="M736.5156,362.375 Q736.6719,362.1563 736.8594,362.0469 Q737.0469,361.9375 737.2656,361.9375 Q737.6406,361.9375 737.875,362.2031 Q738.1094,362.4531 738.1094,363.0625 L738.1094,364.5156 Q738.1094,365.125 737.875,365.3906 Q737.6406,365.6563 737.2656,365.6563 Q736.9219,365.6563 736.7188,365.4531 Q736.5156,365.2656 736.4063,364.75 Q736.3594,364.3906 736.1719,364.2031 Q735.8438,363.8281 735.2344,363.6094 Q734.625,363.3906 734,363.3906 Q733.2344,363.3906 732.5938,363.7188 Q731.9688,364.0469 731.4688,364.7969 Q730.9844,365.5469 730.9844,366.5781 L730.9844,367.6719 Q730.9844,368.9063 731.875,369.7344 Q732.7656,370.5469 734.3594,370.5469 Q735.2969,370.5469 735.9531,370.2969 Q736.3438,370.1406 736.7656,369.7031 Q737.0313,369.4375 737.1719,369.3594 Q737.3281,369.2813 737.5313,369.2813 Q737.8594,369.2813 738.1094,369.5469 Q738.375,369.7969 738.375,370.1406 Q738.375,370.4844 738.0313,370.8906 Q737.5313,371.4688 736.7344,371.7969 Q735.6563,372.25 734.3594,372.25 Q732.8438,372.25 731.6406,371.625 Q730.6563,371.125 729.9688,370.0625 Q729.2813,368.9844 729.2813,367.7031 L729.2813,366.5469 Q729.2813,365.2188 729.8906,364.0781 Q730.5156,362.9219 731.6094,362.3125 Q732.7031,361.6875 733.9375,361.6875 Q734.6719,361.6875 735.3125,361.8594 Q735.9688,362.0156 736.5156,362.375 Z " fill="#000000"/><text fill="#000000" font-family="sans-serif" font-size="14" lengthAdjust="spacing" textLength="226" x="754.25" y="372.2285">InMemorySignupRequestRepository</text><line style="stroke:#181818;stroke-width:0.5;" x1="672.5" x2="1029.5" y1="382.5" y2="382.5"/><line style="stroke:#181818;stroke-width:0.5;" x1="672.5" x2="1029.5" y1="390.5" y2="390.5"/><ellipse cx="682.5" cy="404.8047" fill="#84BE84" rx="3" ry="3" style="stroke:#038048;stroke-width:1.0;"/><text fill="#000000" font-family="sans-serif" font-size="14" lengthAdjust="spacing" textLength="333" x="691.5" y="409.0332">pendingSignupRequests(): Iterable&lt;SignupRequest&gt;</text></g></a><!--class InMemoryUtenteRepository--><a href="InMemoryUtenteRepository.html" target="_top" title="InMemoryUtenteRepository.html" xlink:actuate="onRequest" xlink:href="InMemoryUtenteRepository.html" xlink:show="new" xlink:title="InMemoryUtenteRepository.html" xlink:type="simple"><g id="elem_InMemoryUtenteRepository"><rect codeLine="27" fill="#F1F1F1" height="100.8281" id="InMemoryUtenteRepository" rx="2.5" ry="2.5" style="stroke:#181818;stroke-width:0.5;" width="485" x="1065.5" y="333"/><ellipse cx="1218.75" cy="349" fill="#ADD1B2" rx="11" ry="11" style="stroke:#181818;stroke-width:1.0;"/><path d="M1221.5156,344.875 Q1221.6719,344.6563 1221.8594,344.5469 Q1222.0469,344.4375 1222.2656,344.4375 Q1222.6406,344.4375 1222.875,344.7031 Q1223.1094,344.9531 1223.1094,345.5625 L1223.1094,347.0156 Q1223.1094,347.625 1222.875,347.8906 Q1222.6406,348.1563 1222.2656,348.1563 Q1221.9219,348.1563 1221.7188,347.9531 Q1221.5156,347.7656 1221.4063,347.25 Q1221.3594,346.8906 1221.1719,346.7031 Q1220.8438,346.3281 1220.2344,346.1094 Q1219.625,345.8906 1219,345.8906 Q1218.2344,345.8906 1217.5938,346.2188 Q1216.9688,346.5469 1216.4688,347.2969 Q1215.9844,348.0469 1215.9844,349.0781 L1215.9844,350.1719 Q1215.9844,351.4063 1216.875,352.2344 Q1217.7656,353.0469 1219.3594,353.0469 Q1220.2969,353.0469 1220.9531,352.7969 Q1221.3438,352.6406 1221.7656,352.2031 Q1222.0313,351.9375 1222.1719,351.8594 Q1222.3281,351.7813 1222.5313,351.7813 Q1222.8594,351.7813 1223.1094,352.0469 Q1223.375,352.2969 1223.375,352.6406 Q1223.375,352.9844 1223.0313,353.3906 Q1222.5313,353.9688 1221.7344,354.2969 Q1220.6563,354.75 1219.3594,354.75 Q1217.8438,354.75 1216.6406,354.125 Q1215.6563,353.625 1214.9688,352.5625 Q1214.2813,351.4844 1214.2813,350.2031 L1214.2813,349.0469 Q1214.2813,347.7188 1214.8906,346.5781 Q1215.5156,345.4219 1216.6094,344.8125 Q1217.7031,344.1875 1218.9375,344.1875 Q1219.6719,344.1875 1220.3125,344.3594 Q1220.9688,344.5156 1221.5156,344.875 Z " fill="#000000"/><text fill="#000000" font-family="sans-serif" font-size="14" lengthAdjust="spacing" textLength="170" x="1239.25" y="354.7285">InMemoryUtenteRepository</text><line style="stroke:#181818;stroke-width:0.5;" x1="1066.5" x2="1549.5" y1="365" y2="365"/><line style="stroke:#181818;stroke-width:0.5;" x1="1066.5" x2="1549.5" y1="373" y2="373"/><ellipse cx="1076.5" cy="387.3047" fill="#84BE84" rx="3" ry="3" style="stroke:#038048;stroke-width:1.0;"/><text fill="#000000" font-family="sans-serif" font-size="14" lengthAdjust="spacing" textLength="295" x="1085.5" y="391.5332">findByUsername(Username): Optional&lt;Utente&gt;</text><ellipse cx="1076.5" cy="404.9141" fill="#84BE84" rx="3" ry="3" style="stroke:#038048;stroke-width:1.0;"/><text fill="#000000" font-family="sans-serif" font-size="14" lengthAdjust="spacing" textLength="459" x="1085.5" y="409.1426">findByMecanographicNumber(MecanographicNumber): Optional&lt;Utente&gt;</text><ellipse cx="1076.5" cy="422.5234" fill="#84BE84" rx="3" ry="3" style="stroke:#038048;stroke-width:1.0;"/><text fill="#000000" font-family="sans-serif" font-size="14" lengthAdjust="spacing" textLength="198" x="1085.5" y="426.752">findAllActive(): Iterable&lt;Utente&gt;</text></g></a><!--class RepositoryFactory--><g id="elem_RepositoryFactory"><rect codeLine="36" fill="#F1F1F1" height="171.2656" id="RepositoryFactory" rx="2.5" ry="2.5" style="stroke:#181818;stroke-width:0.5;" width="445" x="22.5" y="42"/><ellipse cx="182.75" cy="58" fill="#B4A7E5" rx="11" ry="11" style="stroke:#181818;stroke-width:1.0;"/><path d="M183.7031,54.6406 L183.7031,61.2969 L185.4219,61.2969 Q186.0313,61.2969 186.2969,61.5313 Q186.5625,61.7656 186.5625,62.1563 Q186.5625,62.5313 186.2969,62.7656 Q186.0313,63 185.4219,63 L180.2813,63 Q179.6719,63 179.4063,62.7656 Q179.1406,62.5313 179.1406,62.1406 Q179.1406,61.7656 179.4063,61.5313 Q179.6719,61.2969 180.2813,61.2969 L182,61.2969 L182,54.6406 L180.2813,54.6406 Q179.6719,54.6406 179.4063,54.4063 Q179.1406,54.1719 179.1406,53.7813 Q179.1406,53.4063 179.4063,53.1719 Q179.6719,52.9375 180.2813,52.9375 L185.4219,52.9375 Q186.0313,52.9375 186.2969,53.1719 Q186.5625,53.4063 186.5625,53.7813 Q186.5625,54.1719 186.2969,54.4063 Q186.0313,54.6406 185.4219,54.6406 L183.7031,54.6406 Z " fill="#000000"/><text fill="#000000" font-family="sans-serif" font-size="14" font-style="italic" lengthAdjust="spacing" textLength="116" x="203.25" y="63.7285">RepositoryFactory</text><line style="stroke:#181818;stroke-width:0.5;" x1="23.5" x2="466.5" y1="74" y2="74"/><line style="stroke:#181818;stroke-width:0.5;" x1="23.5" x2="466.5" y1="82" y2="82"/><ellipse cx="33.5" cy="96.3047" fill="#84BE84" rx="3" ry="3" style="stroke:#038048;stroke-width:1.0;"/><text fill="#000000" font-family="sans-serif" font-size="14" font-style="italic" lengthAdjust="spacing" textLength="311" x="42.5" y="100.5332">newTransactionalContext(): TransactionalContext</text><ellipse cx="33.5" cy="113.9141" fill="#84BE84" rx="3" ry="3" style="stroke:#038048;stroke-width:1.0;"/><text fill="#000000" font-family="sans-serif" font-size="14" font-style="italic" lengthAdjust="spacing" textLength="285" x="42.5" y="118.1426">users(TransactionalContext): UserRepository</text><ellipse cx="33.5" cy="131.5234" fill="#84BE84" rx="3" ry="3" style="stroke:#038048;stroke-width:1.0;"/><text fill="#000000" font-family="sans-serif" font-size="14" font-style="italic" lengthAdjust="spacing" textLength="151" x="42.5" y="135.752">users(): UserRepository</text><ellipse cx="33.5" cy="149.1328" fill="#84BE84" rx="3" ry="3" style="stroke:#038048;stroke-width:1.0;"/><text fill="#000000" font-family="sans-serif" font-size="14" font-style="italic" lengthAdjust="spacing" textLength="309" x="42.5" y="153.3613">utentes(TransactionalContext): UtenteRepository</text><ellipse cx="33.5" cy="166.7422" fill="#84BE84" rx="3" ry="3" style="stroke:#038048;stroke-width:1.0;"/><text fill="#000000" font-family="sans-serif" font-size="14" font-style="italic" lengthAdjust="spacing" textLength="175" x="42.5" y="170.9707">utentes(): UtenteRepository</text><ellipse cx="33.5" cy="184.3516" fill="#84BE84" rx="3" ry="3" style="stroke:#038048;stroke-width:1.0;"/><text fill="#000000" font-family="sans-serif" font-size="14" font-style="italic" lengthAdjust="spacing" textLength="419" x="42.5" y="188.5801">signupRequests(TransactionalContext): SignupRequestRepository</text><ellipse cx="33.5" cy="201.9609" fill="#84BE84" rx="3" ry="3" style="stroke:#038048;stroke-width:1.0;"/><text fill="#000000" font-family="sans-serif" font-size="14" font-style="italic" lengthAdjust="spacing" textLength="285" x="42.5" y="206.1895">signupRequests(): SignupRequestRepository</text></g><!--class InMemoryDomainRepository--><g id="elem_InMemoryDomainRepository"><rect codeLine="48" fill="#F1F1F1" height="48" id="InMemoryDomainRepository" rx="2.5" ry="2.5" style="stroke:#181818;stroke-width:0.5;" width="654" x="524" y="103.5"/><ellipse cx="539" cy="119.5" fill="#ADD1B2" rx="11" ry="11" style="stroke:#181818;stroke-width:1.0;"/><path d="M541.7656,115.375 Q541.9219,115.1563 542.1094,115.0469 Q542.2969,114.9375 542.5156,114.9375 Q542.8906,114.9375 543.125,115.2031 Q543.3594,115.4531 543.3594,116.0625 L543.3594,117.5156 Q543.3594,118.125 543.125,118.3906 Q542.8906,118.6563 542.5156,118.6563 Q542.1719,118.6563 541.9688,118.4531 Q541.7656,118.2656 541.6563,117.75 Q541.6094,117.3906 541.4219,117.2031 Q541.0938,116.8281 540.4844,116.6094 Q539.875,116.3906 539.25,116.3906 Q538.4844,116.3906 537.8438,116.7188 Q537.2188,117.0469 536.7188,117.7969 Q536.2344,118.5469 536.2344,119.5781 L536.2344,120.6719 Q536.2344,121.9063 537.125,122.7344 Q538.0156,123.5469 539.6094,123.5469 Q540.5469,123.5469 541.2031,123.2969 Q541.5938,123.1406 542.0156,122.7031 Q542.2813,122.4375 542.4219,122.3594 Q542.5781,122.2813 542.7813,122.2813 Q543.1094,122.2813 543.3594,122.5469 Q543.625,122.7969 543.625,123.1406 Q543.625,123.4844 543.2813,123.8906 Q542.7813,124.4688 541.9844,124.7969 Q540.9063,125.25 539.6094,125.25 Q538.0938,125.25 536.8906,124.625 Q535.9063,124.125 535.2188,123.0625 Q534.5313,121.9844 534.5313,120.7031 L534.5313,119.5469 Q534.5313,118.2188 535.1406,117.0781 Q535.7656,115.9219 536.8594,115.3125 Q537.9531,114.6875 539.1875,114.6875 Q539.9219,114.6875 540.5625,114.8594 Q541.2188,115.0156 541.7656,115.375 Z " fill="#000000"/><text fill="#000000" font-family="sans-serif" font-size="14" lengthAdjust="spacing" textLength="177" x="553" y="125.2285">InMemoryDomainRepository</text><rect fill="#FFFFFF" height="17.0938" style="stroke:#181818;stroke-width:1.0;stroke-dasharray:2.0,2.0;" width="443" x="738" y="100.5"/><text fill="#000000" font-family="sans-serif" font-size="12" font-style="italic" lengthAdjust="spacing" textLength="441" x="739" y="113.957">T extends AggregateRoot&lt;I extends Comparable&lt;&#8203;I&gt;&gt;, I extends Comparable&lt;&#8203;I&gt;</text><line style="stroke:#181818;stroke-width:0.5;" x1="525" x2="1177" y1="135.5" y2="135.5"/><line style="stroke:#181818;stroke-width:0.5;" x1="525" x2="1177" y1="143.5" y2="143.5"/></g><!--class SignupRequestRepository--><g id="elem_SignupRequestRepository"><rect codeLine="52" fill="#F1F1F1" height="65.6094" id="SignupRequestRepository" rx="2.5" ry="2.5" style="stroke:#181818;stroke-width:0.5;" width="360" x="1234" y="94.5"/><ellipse cx="1327.25" cy="110.5" fill="#B4A7E5" rx="11" ry="11" style="stroke:#181818;stroke-width:1.0;"/><path d="M1328.2031,107.1406 L1328.2031,113.7969 L1329.9219,113.7969 Q1330.5313,113.7969 1330.7969,114.0313 Q1331.0625,114.2656 1331.0625,114.6563 Q1331.0625,115.0313 1330.7969,115.2656 Q1330.5313,115.5 1329.9219,115.5 L1324.7813,115.5 Q1324.1719,115.5 1323.9063,115.2656 Q1323.6406,115.0313 1323.6406,114.6406 Q1323.6406,114.2656 1323.9063,114.0313 Q1324.1719,113.7969 1324.7813,113.7969 L1326.5,113.7969 L1326.5,107.1406 L1324.7813,107.1406 Q1324.1719,107.1406 1323.9063,106.9063 Q1323.6406,106.6719 1323.6406,106.2813 Q1323.6406,105.9063 1323.9063,105.6719 Q1324.1719,105.4375 1324.7813,105.4375 L1329.9219,105.4375 Q1330.5313,105.4375 1330.7969,105.6719 Q1331.0625,105.9063 1331.0625,106.2813 Q1331.0625,106.6719 1330.7969,106.9063 Q1330.5313,107.1406 1329.9219,107.1406 L1328.2031,107.1406 Z " fill="#000000"/><text fill="#000000" font-family="sans-serif" font-size="14" font-style="italic" lengthAdjust="spacing" textLength="165" x="1347.75" y="116.2285">SignupRequestRepository</text><line style="stroke:#181818;stroke-width:0.5;" x1="1235" x2="1593" y1="126.5" y2="126.5"/><line style="stroke:#181818;stroke-width:0.5;" x1="1235" x2="1593" y1="134.5" y2="134.5"/><ellipse cx="1245" cy="148.8047" fill="#84BE84" rx="3" ry="3" style="stroke:#038048;stroke-width:1.0;"/><text fill="#000000" font-family="sans-serif" font-size="14" font-style="italic" lengthAdjust="spacing" textLength="334" x="1254" y="153.0332">pendingSignupRequests(): Iterable&lt;SignupRequest&gt;</text></g><!--class UtenteRepository--><g id="elem_UtenteRepository"><rect codeLine="55" fill="#F1F1F1" height="100.8281" id="UtenteRepository" rx="2.5" ry="2.5" style="stroke:#181818;stroke-width:0.5;" width="485" x="1629.5" y="77"/><ellipse cx="1812.75" cy="93" fill="#B4A7E5" rx="11" ry="11" style="stroke:#181818;stroke-width:1.0;"/><path d="M1813.7031,89.6406 L1813.7031,96.2969 L1815.4219,96.2969 Q1816.0313,96.2969 1816.2969,96.5313 Q1816.5625,96.7656 1816.5625,97.1563 Q1816.5625,97.5313 1816.2969,97.7656 Q1816.0313,98 1815.4219,98 L1810.2813,98 Q1809.6719,98 1809.4063,97.7656 Q1809.1406,97.5313 1809.1406,97.1406 Q1809.1406,96.7656 1809.4063,96.5313 Q1809.6719,96.2969 1810.2813,96.2969 L1812,96.2969 L1812,89.6406 L1810.2813,89.6406 Q1809.6719,89.6406 1809.4063,89.4063 Q1809.1406,89.1719 1809.1406,88.7813 Q1809.1406,88.4063 1809.4063,88.1719 Q1809.6719,87.9375 1810.2813,87.9375 L1815.4219,87.9375 Q1816.0313,87.9375 1816.2969,88.1719 Q1816.5625,88.4063 1816.5625,88.7813 Q1816.5625,89.1719 1816.2969,89.4063 Q1816.0313,89.6406 1815.4219,89.6406 L1813.7031,89.6406 Z " fill="#000000"/><text fill="#000000" font-family="sans-serif" font-size="14" font-style="italic" lengthAdjust="spacing" textLength="110" x="1833.25" y="98.7285">UtenteRepository</text><line style="stroke:#181818;stroke-width:0.5;" x1="1630.5" x2="2113.5" y1="109" y2="109"/><line style="stroke:#181818;stroke-width:0.5;" x1="1630.5" x2="2113.5" y1="117" y2="117"/><ellipse cx="1640.5" cy="131.3047" fill="#84BE84" rx="3" ry="3" style="stroke:#038048;stroke-width:1.0;"/><text fill="#000000" font-family="sans-serif" font-size="14" font-style="italic" lengthAdjust="spacing" textLength="298" x="1649.5" y="135.5332">findByUsername(Username): Optional&lt;Utente&gt;</text><ellipse cx="1640.5" cy="148.9141" fill="#84BE84" rx="3" ry="3" style="stroke:#038048;stroke-width:1.0;"/><text fill="#000000" font-family="sans-serif" font-size="14" lengthAdjust="spacing" textLength="459" x="1649.5" y="153.1426">findByMecanographicNumber(MecanographicNumber): Optional&lt;Utente&gt;</text><ellipse cx="1640.5" cy="166.5234" fill="#84BE84" rx="3" ry="3" style="stroke:#038048;stroke-width:1.0;"/><text fill="#000000" font-family="sans-serif" font-size="14" font-style="italic" lengthAdjust="spacing" textLength="199" x="1649.5" y="170.752">findAllActive(): Iterable&lt;Utente&gt;</text></g><!--reverse link InMemoryInitializer to InMemoryInitializer.LazyHolder--><g id="link_InMemoryInitializer_InMemoryInitializer.LazyHolder"><path codeLine="62" d="M1636.0658,449.2337 C1629.5758,469.1637 1627.87,477.31 1624,499 C1621.18,514.8 1620.19,532.86 1619.91,546.81 " fill="none" id="InMemoryInitializer-backto-InMemoryInitializer.LazyHolder" style="stroke:#181818;stroke-width:1.0;"/><ellipse cx="1638.5429" cy="441.6268" fill="#FFFFFF" rx="8" ry="8" style="stroke:#181818;stroke-width:1.0;"/><line style="stroke:#181818;stroke-width:1.0;" x1="1636.0658" x2="1641.02" y1="449.2337" y2="434.02"/><line style="stroke:#181818;stroke-width:1.0;" x1="1630.9361" x2="1646.1498" y1="439.1498" y2="444.1039"/></g><!--link InMemoryInitializer.LazyHolder to InMemoryInitializer--><g id="link_InMemoryInitializer.LazyHolder_InMemoryInitializer"><path codeLine="63" d="M1624.9,546.68 C1630.81,518.61 1639.6458,476.5717 1647.3158,440.0817 " fill="none" id="InMemoryInitializer.LazyHolder-to-InMemoryInitializer" style="stroke:#181818;stroke-width:1.0;"/><polygon fill="#181818" points="1648.55,434.21,1642.7842,442.1947,1647.5215,439.1031,1650.6132,443.8403,1648.55,434.21" style="stroke:#181818;stroke-width:1.0;"/><text fill="#000000" font-family="sans-serif" font-size="13" lengthAdjust="spacing" textLength="64" x="1635" y="513.4951">INSTANCE</text></g><!--reverse link RepositoryFactory to InMemoryRepositoryFactory--><g id="link_RepositoryFactory_InMemoryRepositoryFactory"><path codeLine="64" d="M311.2432,228.0645 C329.3932,255.3345 339.53,270.58 357.68,297.86 " fill="none" id="RepositoryFactory-backto-InMemoryRepositoryFactory" style="stroke:#181818;stroke-width:1.0;stroke-dasharray:7.0,7.0;"/><polygon fill="none" points="301.27,213.08,306.2484,231.3889,316.238,224.7401,301.27,213.08" style="stroke:#181818;stroke-width:1.0;"/></g><!--reverse link InMemoryDomainRepository to InMemorySignupRequestRepository--><g id="link_InMemoryDomainRepository_InMemorySignupRequestRepository"><path codeLine="65" d="M851,169.94 C851,215.63 851,298.64 851,350.46 " fill="none" id="InMemoryDomainRepository-backto-InMemorySignupRequestRepository" style="stroke:#181818;stroke-width:1.0;"/><polygon fill="none" points="851,151.94,845,169.94,857,169.94,851,151.94" style="stroke:#181818;stroke-width:1.0;"/></g><!--reverse link SignupRequestRepository to InMemorySignupRequestRepository--><g id="link_SignupRequestRepository_InMemorySignupRequestRepository"><path codeLine="66" d="M1346.2708,169.626 C1302.9508,194.696 1254.45,219.16 1194,237 C1131.35,255.5 1109.43,231.79 1048,254 C987.13,276.01 926.12,320.02 888.47,350.36 " fill="none" id="SignupRequestRepository-backto-InMemorySignupRequestRepository" style="stroke:#181818;stroke-width:1.0;stroke-dasharray:7.0,7.0;"/><polygon fill="none" points="1361.85,160.61,1343.2654,164.4329,1349.2761,174.819,1361.85,160.61" style="stroke:#181818;stroke-width:1.0;"/></g><!--reverse link InMemoryDomainRepository to InMemoryUtenteRepository--><g id="link_InMemoryDomainRepository_InMemoryUtenteRepository"><path codeLine="67" d="M908.5023,160.4561 C981.9823,201.3061 1120.18,278.11 1218.58,332.8 " fill="none" id="InMemoryDomainRepository-backto-InMemoryUtenteRepository" style="stroke:#181818;stroke-width:1.0;"/><polygon fill="none" points="892.77,151.71,905.5869,165.7002,911.4177,155.212,892.77,151.71" style="stroke:#181818;stroke-width:1.0;"/></g><!--reverse link UtenteRepository to InMemoryUtenteRepository--><g id="link_UtenteRepository_InMemoryUtenteRepository"><path codeLine="68" d="M1738.5409,185.0021 C1693.8609,203.7421 1658.97,218.13 1612,237 C1592.55,244.82 1587.19,245.57 1568,254 C1512.56,278.35 1451.84,308.18 1403.03,332.96 " fill="none" id="UtenteRepository-backto-InMemoryUtenteRepository" style="stroke:#181818;stroke-width:1.0;stroke-dasharray:7.0,7.0;"/><polygon fill="none" points="1755.14,178.04,1736.2202,179.4691,1740.8616,190.5351,1755.14,178.04" style="stroke:#181818;stroke-width:1.0;"/></g><text fill="#888888" font-family="sans-serif" font-size="10" lengthAdjust="spacing" textLength="184" x="970" y="627.3809">UMLDoclet 2.1.1, PlantUML 1.2023.12</text><!--SRC=[pLVVRzem47xlN-6NILIKI9ts524aHZSDgNHJVpnLVJZ24QmwTcQRTfGXxRt_vVwINQ0j8R4XX3qq4afqT_xy-SxtsJ36c45BlnGqMALP61uTaP6b4Dr3Z4n0gZy5Pg96MaaCKjI66uiome0dgGYuJ31HUiRcgt7P4mamXlNbOEdfIsuv2Fw4cjtUEgp1n2RYxeuGMEvfyRU8KSY6IWa4wOje78ViGV7HXdzkB5WUBLWp2oo5B2eG3ixXQVPDYP6N-phWPHa-r4jCbU6KujbNYB9N3h3aSwUaEJMK_iQr1caeZYi9egUanL-M5dT3pZMGQ-2k82ghHJ_-qhrhyCv0msCvJI_nvnIDNSPVvIqLXtauLeAI-EWQdb5nsNTl6C-ikG9x8ZnbJb6Ek8olIfdgMzGm5DZUS7LsCooM94UjwF9m6dCv-ZpBje-411kl7qJgUxfALtk5r76D6s04KiKQqWcFBgR947N3OQk4rXMYInLwm8sC5CDVKh7OgcPSZZKOgwUHdUeDSSijdnEk7WFPoYsycQGv30cCN8lwcwo8KxVbonXxn1yW12wSVSRylpxVWbe1OU7QFWYfu07jcGGVbRulxX_z2iFHb4v7TsEUgGIuNC_VlcQqGkf_mxfnh346offIjjr_i_TKaXtMsQR_- -Uvt-cSi2tE2bsmAbC2adm9VMwimza8Fi7pjyC1abQUlgHc_ddVXMmL2LLLi5pfgbx3mj1rxMgsMeSXvAuvXzF9NwfQhSvXO9J0YwlhxaNlYukON-33iApcxTz1K8DD2MZ9fBPMh86Bua04QnLoczRjemLXw6lycfdRHkmTvSzvUEsNk99arSoOaqgKsJGRqpb1hvl1-PcA1Fsh-nYS1gSdx8S0QSdAFZna4oZPEFu7]--></g></svg>