<?xml version="1.0" encoding="us-ascii" standalone="no"?><svg xmlns="http://www.w3.org/2000/svg" xmlns:xlink="http://www.w3.org/1999/xlink" contentStyleType="text/css" height="324px" preserveAspectRatio="none" style="width:2852px;height:324px;" version="1.1" viewBox="0 0 2852 324" width="2852px" zoomAndPan="magnify"><defs/><g><!--class lapr4.shodrone.infrastructure.persistence--><a href="lapr4\shodrone\infrastructure\persistence\package-summary.html" target="_top" title="lapr4\shodrone\infrastructure\persistence\package-summary.html" xlink:actuate="onRequest" xlink:href="lapr4\shodrone\infrastructure\persistence\package-summary.html" xlink:show="new" xlink:title="lapr4\shodrone\infrastructure\persistence\package-summary.html" xlink:type="simple"><g id="elem_lapr4.shodrone.infrastructure.persistence"><rect codeLine="49" fill="#F1F1F1" height="27.6094" id="lapr4.shodrone.infrastructure.persistence" rx="2.5" ry="2.5" style="stroke:#181818;stroke-width:0.5;" width="267" x="1400" y="7"/><text fill="#000000" font-family="sans-serif" font-size="14" lengthAdjust="spacing" textLength="261" x="1403" y="26.5332">lapr4.shodrone.infrastructure.persistence</text></g></a><!--class org.slf4j--><g id="elem_org.slf4j"><rect fill="#F1F1F1" height="27.6094" id="org.slf4j" rx="2.5" ry="2.5" style="stroke:#181818;stroke-width:0.5;" width="56" x="1335.5" y="95"/><text fill="#000000" font-family="sans-serif" font-size="14" lengthAdjust="spacing" textLength="50" x="1338.5" y="114.5332">org.slf4j</text></g><!--class eapli.framework.domain.repositories--><g id="elem_eapli.framework.domain.repositories"><rect fill="#F1F1F1" height="27.6094" id="eapli.framework.domain.repositories" rx="2.5" ry="2.5" style="stroke:#181818;stroke-width:0.5;" width="233" x="2084" y="183"/><text fill="#000000" font-family="sans-serif" font-size="14" lengthAdjust="spacing" textLength="227" x="2087" y="202.5332">eapli.framework.domain.repositories</text></g><!--class eapli.framework.infrastructure.authz.domain.repositories--><g id="elem_eapli.framework.infrastructure.authz.domain.repositories"><rect fill="#F1F1F1" height="27.6094" id="eapli.framework.infrastructure.authz.domain.repositories" rx="2.5" ry="2.5" style="stroke:#181818;stroke-width:0.5;" width="359" x="662" y="95"/><text fill="#000000" font-family="sans-serif" font-size="14" lengthAdjust="spacing" textLength="353" x="665" y="114.5332">eapli.framework.infrastructure.authz.domain.repositories</text></g><!--class lapr4.shodrone.utentemanagement.repositories--><a href="lapr4\shodrone\utentemanagement\repositories\package-summary.html" target="_top" title="lapr4\shodrone\utentemanagement\repositories\package-summary.html" xlink:actuate="onRequest" xlink:href="lapr4\shodrone\utentemanagement\repositories\package-summary.html" xlink:show="new" xlink:title="lapr4\shodrone\utentemanagement\repositories\package-summary.html" xlink:type="simple"><g id="elem_lapr4.shodrone.utentemanagement.repositories"><rect codeLine="51" fill="#F1F1F1" height="27.6094" id="lapr4.shodrone.utentemanagement.repositories" rx="2.5" ry="2.5" style="stroke:#181818;stroke-width:0.5;" width="306" x="1869.5" y="95"/><text fill="#000000" font-family="sans-serif" font-size="14" lengthAdjust="spacing" textLength="300" x="1872.5" y="114.5332">lapr4.shodrone.utentemanagement.repositories</text></g></a><!--class lapr4.shodrone.myutente.application--><a href="lapr4\shodrone\myutente\application\package-summary.html" target="_top" title="lapr4\shodrone\myutente\application\package-summary.html" xlink:actuate="onRequest" xlink:href="lapr4\shodrone\myutente\application\package-summary.html" xlink:show="new" xlink:title="lapr4\shodrone\myutente\application\package-summary.html" xlink:type="simple"><g id="elem_lapr4.shodrone.myutente.application"><rect codeLine="53" fill="#F1F1F1" height="27.6094" id="lapr4.shodrone.myutente.application" rx="2.5" ry="2.5" style="stroke:#181818;stroke-width:0.5;" width="236" x="2207.5" y="7"/><text fill="#000000" font-family="sans-serif" font-size="14" lengthAdjust="spacing" textLength="230" x="2210.5" y="26.5332">lapr4.shodrone.myutente.application</text></g></a><!--class eapli.framework.infrastructure.authz.application--><g id="elem_eapli.framework.infrastructure.authz.application"><rect fill="#F1F1F1" height="27.6094" id="eapli.framework.infrastructure.authz.application" rx="2.5" ry="2.5" style="stroke:#181818;stroke-width:0.5;" width="303" x="2424" y="95"/><text fill="#000000" font-family="sans-serif" font-size="14" lengthAdjust="spacing" textLength="297" x="2427" y="114.5332">eapli.framework.infrastructure.authz.application</text></g><!--class lapr4.shodrone.utentemanagement.domain--><a href="lapr4\shodrone\utentemanagement\domain\package-summary.html" target="_top" title="lapr4\shodrone\utentemanagement\domain\package-summary.html" xlink:actuate="onRequest" xlink:href="lapr4\shodrone\utentemanagement\domain\package-summary.html" xlink:show="new" xlink:title="lapr4\shodrone\utentemanagement\domain\package-summary.html" xlink:type="simple"><g id="elem_lapr4.shodrone.utentemanagement.domain"><rect codeLine="55" fill="#F1F1F1" height="27.6094" id="lapr4.shodrone.utentemanagement.domain" rx="2.5" ry="2.5" style="stroke:#181818;stroke-width:0.5;" width="278" x="446.5" y="183"/><text fill="#000000" font-family="sans-serif" font-size="14" lengthAdjust="spacing" textLength="272" x="449.5" y="202.5332">lapr4.shodrone.utentemanagement.domain</text></g></a><!--class lapr4.shodrone.usermanagement.application--><a href="lapr4\shodrone\usermanagement\application\package-summary.html" target="_top" title="lapr4\shodrone\usermanagement\application\package-summary.html" xlink:actuate="onRequest" xlink:href="lapr4\shodrone\usermanagement\application\package-summary.html" xlink:show="new" xlink:title="lapr4\shodrone\usermanagement\application\package-summary.html" xlink:type="simple"><g id="elem_lapr4.shodrone.usermanagement.application"><rect codeLine="57" fill="#F1F1F1" height="27.6094" id="lapr4.shodrone.usermanagement.application" rx="2.5" ry="2.5" style="stroke:#181818;stroke-width:0.5;" width="288" x="2557.5" y="7"/><text fill="#000000" font-family="sans-serif" font-size="14" lengthAdjust="spacing" textLength="282" x="2560.5" y="26.5332">lapr4.shodrone.usermanagement.application</text></g></a><!--class eapli.framework.infrastructure.authz.domain.model--><g id="elem_eapli.framework.infrastructure.authz.domain.model"><rect fill="#F1F1F1" height="27.6094" id="eapli.framework.infrastructure.authz.domain.model" rx="2.5" ry="2.5" style="stroke:#181818;stroke-width:0.5;" width="323" x="1540" y="271"/><text fill="#000000" font-family="sans-serif" font-size="14" lengthAdjust="spacing" textLength="317" x="1543" y="290.5332">eapli.framework.infrastructure.authz.domain.model</text></g><!--class lapr4.shodrone.usermanagement.application.eventhandlers--><a href="lapr4\shodrone\usermanagement\application\eventhandlers\package-summary.html" target="_top" title="lapr4\shodrone\usermanagement\application\eventhandlers\package-summary.html" xlink:actuate="onRequest" xlink:href="lapr4\shodrone\usermanagement\application\eventhandlers\package-summary.html" xlink:show="new" xlink:title="lapr4\shodrone\usermanagement\application\eventhandlers\package-summary.html" xlink:type="simple"><g id="elem_lapr4.shodrone.usermanagement.application.eventhandlers"><rect codeLine="59" fill="#F1F1F1" height="27.6094" id="lapr4.shodrone.usermanagement.application.eventhandlers" rx="2.5" ry="2.5" style="stroke:#181818;stroke-width:0.5;" width="382" x="709.5" y="7"/><text fill="#000000" font-family="sans-serif" font-size="14" lengthAdjust="spacing" textLength="376" x="712.5" y="26.5332">lapr4.shodrone.usermanagement.application.eventhandlers</text></g></a><!--class eapli.framework.infrastructure.pubsub--><g id="elem_eapli.framework.infrastructure.pubsub"><rect fill="#F1F1F1" height="27.6094" id="eapli.framework.infrastructure.pubsub" rx="2.5" ry="2.5" style="stroke:#181818;stroke-width:0.5;" width="244" x="1056.5" y="95"/><text fill="#000000" font-family="sans-serif" font-size="14" lengthAdjust="spacing" textLength="238" x="1059.5" y="114.5332">eapli.framework.infrastructure.pubsub</text></g><!--class lapr4.shodrone.utentemanagement.domain.events--><a href="lapr4\shodrone\utentemanagement\domain\events\package-summary.html" target="_top" title="lapr4\shodrone\utentemanagement\domain\events\package-summary.html" xlink:actuate="onRequest" xlink:href="lapr4\shodrone\utentemanagement\domain\events\package-summary.html" xlink:show="new" xlink:title="lapr4\shodrone\utentemanagement\domain\events\package-summary.html" xlink:type="simple"><g id="elem_lapr4.shodrone.utentemanagement.domain.events"><rect codeLine="61" fill="#F1F1F1" height="27.6094" id="lapr4.shodrone.utentemanagement.domain.events" rx="2.5" ry="2.5" style="stroke:#181818;stroke-width:0.5;" width="324" x="160.5" y="95"/><text fill="#000000" font-family="sans-serif" font-size="14" lengthAdjust="spacing" textLength="318" x="163.5" y="114.5332">lapr4.shodrone.utentemanagement.domain.events</text></g></a><!--class eapli.framework.domain.events--><g id="elem_eapli.framework.domain.events"><rect fill="#F1F1F1" height="27.6094" id="eapli.framework.domain.events" rx="2.5" ry="2.5" style="stroke:#181818;stroke-width:0.5;" width="201" x="7" y="183"/><text fill="#000000" font-family="sans-serif" font-size="14" lengthAdjust="spacing" textLength="195" x="10" y="202.5332">eapli.framework.domain.events</text></g><!--class lapr4.shodrone.usermanagement.domain--><a href="lapr4\shodrone\usermanagement\domain\package-summary.html" target="_top" title="lapr4\shodrone\usermanagement\domain\package-summary.html" xlink:actuate="onRequest" xlink:href="lapr4\shodrone\usermanagement\domain\package-summary.html" xlink:show="new" xlink:title="lapr4\shodrone\usermanagement\domain\package-summary.html" xlink:type="simple"><g id="elem_lapr4.shodrone.usermanagement.domain"><rect codeLine="63" fill="#F1F1F1" height="27.6094" id="lapr4.shodrone.usermanagement.domain" rx="2.5" ry="2.5" style="stroke:#181818;stroke-width:0.5;" width="266" x="1568.5" y="95"/><text fill="#000000" font-family="sans-serif" font-size="14" lengthAdjust="spacing" textLength="260" x="1571.5" y="114.5332">lapr4.shodrone.usermanagement.domain</text></g></a><!--class lapr4.shodrone.utentemanagement.application--><a href="lapr4\shodrone\utentemanagement\application\package-summary.html" target="_top" title="lapr4\shodrone\utentemanagement\application\package-summary.html" xlink:actuate="onRequest" xlink:href="lapr4\shodrone\utentemanagement\application\package-summary.html" xlink:show="new" xlink:title="lapr4\shodrone\utentemanagement\application\package-summary.html" xlink:type="simple"><g id="elem_lapr4.shodrone.utentemanagement.application"><rect codeLine="65" fill="#F1F1F1" height="27.6094" id="lapr4.shodrone.utentemanagement.application" rx="2.5" ry="2.5" style="stroke:#181818;stroke-width:0.5;" width="300" x="1872.5" y="7"/><text fill="#000000" font-family="sans-serif" font-size="14" lengthAdjust="spacing" textLength="294" x="1875.5" y="26.5332">lapr4.shodrone.utentemanagement.application</text></g></a><!--class lapr4.shodrone.utentemanagement.application.eventhandlers--><a href="lapr4\shodrone\utentemanagement\application\eventhandlers\package-summary.html" target="_top" title="lapr4\shodrone\utentemanagement\application\eventhandlers\package-summary.html" xlink:actuate="onRequest" xlink:href="lapr4\shodrone\utentemanagement\application\eventhandlers\package-summary.html" xlink:show="new" xlink:title="lapr4\shodrone\utentemanagement\application\eventhandlers\package-summary.html" xlink:type="simple"><g id="elem_lapr4.shodrone.utentemanagement.application.eventhandlers"><rect codeLine="67" fill="#F1F1F1" height="27.6094" id="lapr4.shodrone.utentemanagement.application.eventhandlers" rx="2.5" ry="2.5" style="stroke:#181818;stroke-width:0.5;" width="394" x="280.5" y="7"/><text fill="#000000" font-family="sans-serif" font-size="14" lengthAdjust="spacing" textLength="388" x="283.5" y="26.5332">lapr4.shodrone.utentemanagement.application.eventhandlers</text></g></a><!--class eapli.framework.domain.model--><g id="elem_eapli.framework.domain.model"><rect fill="#F1F1F1" height="27.6094" id="eapli.framework.domain.model" rx="2.5" ry="2.5" style="stroke:#181818;stroke-width:0.5;" width="197" x="485" y="271"/><text fill="#000000" font-family="sans-serif" font-size="14" lengthAdjust="spacing" textLength="191" x="488" y="290.5332">eapli.framework.domain.model</text></g><!--class eapli.framework.general.domain.model--><g id="elem_eapli.framework.general.domain.model"><rect fill="#F1F1F1" height="27.6094" id="eapli.framework.general.domain.model" rx="2.5" ry="2.5" style="stroke:#181818;stroke-width:0.5;" width="249" x="200" y="271"/><text fill="#000000" font-family="sans-serif" font-size="14" lengthAdjust="spacing" textLength="243" x="203" y="290.5332">eapli.framework.general.domain.model</text></g><!--class org.springframework.security.crypto.password--><g id="elem_org.springframework.security.crypto.password"><rect fill="#F1F1F1" height="27.6094" id="org.springframework.security.crypto.password" rx="2.5" ry="2.5" style="stroke:#181818;stroke-width:0.5;" width="295" x="717" y="271"/><text fill="#000000" font-family="sans-serif" font-size="14" lengthAdjust="spacing" textLength="289" x="720" y="290.5332">org.springframework.security.crypto.password</text></g><!--link lapr4.shodrone.infrastructure.persistence to org.slf4j--><g id="link_lapr4.shodrone.infrastructure.persistence_org.slf4j"><path codeLine="7" d="M1507.68,35.06 C1475.64,51.27 1426.6635,76.0407 1394.6335,92.2507 " fill="none" id="lapr4.shodrone.infrastructure.persistence-to-org.slf4j" style="stroke:#181818;stroke-width:1.0;"/><polygon fill="#181818" points="1389.28,94.96,1399.1164,94.465,1393.7412,92.7022,1395.504,87.327,1389.28,94.96" style="stroke:#181818;stroke-width:1.0;"/></g><!--link lapr4.shodrone.infrastructure.persistence to eapli.framework.domain.repositories--><g id="link_lapr4.shodrone.infrastructure.persistence_eapli.framework.domain.repositories"><path codeLine="8" d="M1667.01,27.74 C1849.33,36.92 2157.78,57.78 2193.5,95 C2216.14,118.59 2211.0104,155.393 2205.7204,176.943 " fill="none" id="lapr4.shodrone.infrastructure.persistence-to-eapli.framework.domain.repositories" style="stroke:#181818;stroke-width:1.0;"/><polygon fill="#181818" points="2204.29,182.77,2210.3203,174.9831,2205.482,177.9142,2202.5509,173.0759,2204.29,182.77" style="stroke:#181818;stroke-width:1.0;"/></g><!--link lapr4.shodrone.infrastructure.persistence to eapli.framework.infrastructure.authz.domain.repositories--><g id="link_lapr4.shodrone.infrastructure.persistence_eapli.framework.infrastructure.authz.domain.repositories"><path codeLine="9" d="M1428.78,35.01 C1298.33,51.23 1082.7242,78.0198 952.2442,94.2398 " fill="none" id="lapr4.shodrone.infrastructure.persistence-to-eapli.framework.infrastructure.authz.domain.repositories" style="stroke:#181818;stroke-width:1.0;"/><polygon fill="#181818" points="946.29,94.98,955.7147,97.8392,951.2518,94.3632,954.7278,89.9003,946.29,94.98" style="stroke:#181818;stroke-width:1.0;"/></g><!--link lapr4.shodrone.infrastructure.persistence to lapr4.shodrone.utentemanagement.repositories--><g id="link_lapr4.shodrone.infrastructure.persistence_lapr4.shodrone.utentemanagement.repositories"><path codeLine="10" d="M1607.5,35.01 C1699.62,51.21 1850.1107,77.6808 1942.3407,93.9008 " fill="none" id="lapr4.shodrone.infrastructure.persistence-to-lapr4.shodrone.utentemanagement.repositories" style="stroke:#181818;stroke-width:1.0;"/><polygon fill="#181818" points="1948.25,94.94,1940.0789,89.4416,1943.3256,94.074,1938.6932,97.3207,1948.25,94.94" style="stroke:#181818;stroke-width:1.0;"/></g><!--link lapr4.shodrone.myutente.application to eapli.framework.infrastructure.authz.application--><g id="link_lapr4.shodrone.myutente.application_eapli.framework.infrastructure.authz.application"><path codeLine="11" d="M2363.47,35.06 C2410.59,51.27 2484.8066,76.7974 2531.9066,93.0074 " fill="none" id="lapr4.shodrone.myutente.application-to-eapli.framework.infrastructure.authz.application" style="stroke:#181818;stroke-width:1.0;"/><polygon fill="#181818" points="2537.58,94.96,2530.3716,88.2489,2532.8522,93.3329,2527.7682,95.8134,2537.58,94.96" style="stroke:#181818;stroke-width:1.0;"/></g><!--link lapr4.shodrone.myutente.application to lapr4.shodrone.utentemanagement.repositories--><g id="link_lapr4.shodrone.myutente.application_lapr4.shodrone.utentemanagement.repositories"><path codeLine="12" d="M2279.48,35.06 C2222.36,51.27 2131.3118,77.1112 2074.2218,93.3212 " fill="none" id="lapr4.shodrone.myutente.application-to-lapr4.shodrone.utentemanagement.repositories" style="stroke:#181818;stroke-width:1.0;"/><polygon fill="#181818" points="2068.45,94.96,2078.2003,96.3496,2073.2599,93.5943,2076.0152,88.6538,2068.45,94.96" style="stroke:#181818;stroke-width:1.0;"/></g><!--link lapr4.shodrone.myutente.application to lapr4.shodrone.utentemanagement.domain--><g id="link_lapr4.shodrone.myutente.application_lapr4.shodrone.utentemanagement.domain"><path codeLine="13" d="M2207.33,33.4 C2201.64,33.94 2196.01,34.48 2190.5,35 C1906.53,62 1829.67,31.83 1551.5,95 C1516.4,102.97 1510.65,115.24 1475.5,123 C1214.55,180.64 907.4994,193.6782 730.8294,196.0882 " fill="none" id="lapr4.shodrone.myutente.application-to-lapr4.shodrone.utentemanagement.domain" style="stroke:#181818;stroke-width:1.0;"/><polygon fill="#181818" points="724.83,196.17,733.8837,200.0469,729.8295,196.1018,733.7746,192.0476,724.83,196.17" style="stroke:#181818;stroke-width:1.0;"/></g><!--link lapr4.shodrone.usermanagement.application to eapli.framework.infrastructure.authz.application--><g id="link_lapr4.shodrone.usermanagement.application_eapli.framework.infrastructure.authz.application"><path codeLine="14" d="M2682.36,35.06 C2658.68,51.23 2623.5345,75.2057 2599.7745,91.4357 " fill="none" id="lapr4.shodrone.usermanagement.application-to-eapli.framework.infrastructure.authz.application" style="stroke:#181818;stroke-width:1.0;"/><polygon fill="#181818" points="2594.82,94.82,2604.5079,93.0465,2598.9487,91.9998,2599.9955,86.4406,2594.82,94.82" style="stroke:#181818;stroke-width:1.0;"/></g><!--link lapr4.shodrone.usermanagement.application to eapli.framework.infrastructure.authz.domain.model--><g id="link_lapr4.shodrone.usermanagement.application_eapli.framework.infrastructure.authz.domain.model"><path codeLine="15" d="M2715.29,35.29 C2734.89,55.81 2766.19,95.69 2744.5,123 C2637.77,257.44 2134.5096,281.2588 1869.1596,284.4088 " fill="none" id="lapr4.shodrone.usermanagement.application-to-eapli.framework.infrastructure.authz.domain.model" style="stroke:#181818;stroke-width:1.0;"/><polygon fill="#181818" points="1863.16,284.48,1872.2068,288.3729,1868.1596,284.4206,1872.1119,280.3734,1863.16,284.48" style="stroke:#181818;stroke-width:1.0;"/></g><!--link lapr4.shodrone.usermanagement.application.eventhandlers to eapli.framework.infrastructure.authz.domain.repositories--><g id="link_lapr4.shodrone.usermanagement.application.eventhandlers_eapli.framework.infrastructure.authz.domain.repositories"><path codeLine="16" d="M891.54,35.06 C880.45,51.23 865.0613,73.6403 853.9413,89.8703 " fill="none" id="lapr4.shodrone.usermanagement.application.eventhandlers-to-eapli.framework.infrastructure.authz.domain.repositories" style="stroke:#181818;stroke-width:1.0;"/><polygon fill="#181818" points="850.55,94.82,858.9367,89.6563,853.3761,90.6953,852.3371,85.1346,850.55,94.82" style="stroke:#181818;stroke-width:1.0;"/></g><!--link lapr4.shodrone.usermanagement.application.eventhandlers to eapli.framework.infrastructure.pubsub--><g id="link_lapr4.shodrone.usermanagement.application.eventhandlers_eapli.framework.infrastructure.pubsub"><path codeLine="17" d="M942.72,35.06 C995.13,51.27 1078.2282,76.9762 1130.6082,93.1862 " fill="none" id="lapr4.shodrone.usermanagement.application.eventhandlers-to-eapli.framework.infrastructure.pubsub" style="stroke:#181818;stroke-width:1.0;"/><polygon fill="#181818" points="1136.34,94.96,1128.9248,88.4781,1131.5635,93.4818,1126.5597,96.1205,1136.34,94.96" style="stroke:#181818;stroke-width:1.0;"/></g><!--link lapr4.shodrone.usermanagement.application.eventhandlers to eapli.framework.infrastructure.authz.domain.model--><g id="link_lapr4.shodrone.usermanagement.application.eventhandlers_eapli.framework.infrastructure.authz.domain.model"><path codeLine="18" d="M757.89,35.07 C677.88,48.01 601.92,73.44 644.5,123 C702.15,190.1 1254.0426,246.0202 1535.2126,270.4702 " fill="none" id="lapr4.shodrone.usermanagement.application.eventhandlers-to-eapli.framework.infrastructure.authz.domain.model" style="stroke:#181818;stroke-width:1.0;"/><polygon fill="#181818" points="1541.19,270.99,1532.5704,266.2254,1536.2088,270.5568,1531.8773,274.1953,1541.19,270.99" style="stroke:#181818;stroke-width:1.0;"/></g><!--link lapr4.shodrone.usermanagement.application.eventhandlers to lapr4.shodrone.utentemanagement.domain.events--><g id="link_lapr4.shodrone.usermanagement.application.eventhandlers_lapr4.shodrone.utentemanagement.domain.events"><path codeLine="19" d="M813.03,35.01 C704.15,51.21 525.2147,77.837 416.2047,94.057 " fill="none" id="lapr4.shodrone.usermanagement.application.eventhandlers-to-lapr4.shodrone.utentemanagement.domain.events" style="stroke:#181818;stroke-width:1.0;"/><polygon fill="#181818" points="410.27,94.94,419.7607,97.5719,415.2156,94.2041,418.5833,89.659,410.27,94.94" style="stroke:#181818;stroke-width:1.0;"/></g><!--link lapr4.shodrone.usermanagement.application.eventhandlers to org.slf4j--><g id="link_lapr4.shodrone.usermanagement.application.eventhandlers_org.slf4j"><path codeLine="20" d="M991.99,35.06 C1077.06,47.89 1207.07,69.25 1318.5,95 C1323.89,96.24 1323.8118,96.1338 1329.2818,97.6638 " fill="none" id="lapr4.shodrone.usermanagement.application.eventhandlers-to-org.slf4j" style="stroke:#181818;stroke-width:1.0;"/><polygon fill="#181818" points="1335.06,99.28,1327.4701,93.0035,1330.2448,97.9332,1325.3152,100.7078,1335.06,99.28" style="stroke:#181818;stroke-width:1.0;"/></g><!--link lapr4.shodrone.usermanagement.application.eventhandlers to eapli.framework.domain.events--><g id="link_lapr4.shodrone.usermanagement.application.eventhandlers_eapli.framework.domain.events"><path codeLine="21" d="M712.64,35.02 C495.45,50.83 164.71,77.53 142.5,95 C115.08,116.57 109.4052,154.9399 108.1352,176.9799 " fill="none" id="lapr4.shodrone.usermanagement.application.eventhandlers-to-eapli.framework.domain.events" style="stroke:#181818;stroke-width:1.0;"/><polygon fill="#181818" points="107.79,182.97,112.3011,174.215,108.0776,177.9783,104.3144,173.7548,107.79,182.97" style="stroke:#181818;stroke-width:1.0;"/></g><!--link lapr4.shodrone.usermanagement.domain to eapli.framework.infrastructure.authz.domain.model--><g id="link_lapr4.shodrone.usermanagement.domain_eapli.framework.infrastructure.authz.domain.model"><path codeLine="22" d="M1701.5,123.08 C1701.5,155.32 1701.5,232.37 1701.5,264.77 " fill="none" id="lapr4.shodrone.usermanagement.domain-to-eapli.framework.infrastructure.authz.domain.model" style="stroke:#181818;stroke-width:1.0;"/><polygon fill="#181818" points="1701.5,270.77,1705.5,261.77,1701.5,265.77,1697.5,261.77,1701.5,270.77" style="stroke:#181818;stroke-width:1.0;"/></g><!--link lapr4.shodrone.usermanagement.domain to lapr4.shodrone.utentemanagement.domain--><g id="link_lapr4.shodrone.usermanagement.domain_lapr4.shodrone.utentemanagement.domain"><path codeLine="23" d="M1568.36,120.87 C1559.27,121.59 1550.25,122.31 1541.5,123 C1251.1,145.88 916.9732,171.1407 730.8232,185.1207 " fill="none" id="lapr4.shodrone.usermanagement.domain-to-lapr4.shodrone.utentemanagement.domain" style="stroke:#181818;stroke-width:1.0;"/><polygon fill="#181818" points="724.84,185.57,734.1143,188.8848,729.826,185.1956,733.5152,180.9072,724.84,185.57" style="stroke:#181818;stroke-width:1.0;"/></g><!--link lapr4.shodrone.utentemanagement.application to lapr4.shodrone.utentemanagement.domain--><g id="link_lapr4.shodrone.utentemanagement.application_lapr4.shodrone.utentemanagement.domain"><path codeLine="24" d="M1872.25,34.46 C1764.64,45.35 1616.85,64.32 1489.5,95 C1452.88,103.82 1446.32,115.05 1409.5,123 C1172.6,174.12 895.9777,189.3933 730.8477,193.9833 " fill="none" id="lapr4.shodrone.utentemanagement.application-to-lapr4.shodrone.utentemanagement.domain" style="stroke:#181818;stroke-width:1.0;"/><polygon fill="#181818" points="724.85,194.15,733.9577,197.8984,729.8481,194.0111,733.7354,189.9015,724.85,194.15" style="stroke:#181818;stroke-width:1.0;"/></g><!--link lapr4.shodrone.utentemanagement.application to lapr4.shodrone.utentemanagement.repositories--><g id="link_lapr4.shodrone.utentemanagement.application_lapr4.shodrone.utentemanagement.repositories"><path codeLine="25" d="M2022.5,35.06 C2022.5,51.23 2022.5,72.59 2022.5,88.82 " fill="none" id="lapr4.shodrone.utentemanagement.application-to-lapr4.shodrone.utentemanagement.repositories" style="stroke:#181818;stroke-width:1.0;"/><polygon fill="#181818" points="2022.5,94.82,2026.5,85.82,2022.5,89.82,2018.5,85.82,2022.5,94.82" style="stroke:#181818;stroke-width:1.0;"/></g><!--link lapr4.shodrone.utentemanagement.application to eapli.framework.infrastructure.authz.application--><g id="link_lapr4.shodrone.utentemanagement.application_eapli.framework.infrastructure.authz.application"><path codeLine="26" d="M2106.19,35.01 C2210.36,51.21 2381.3013,77.798 2485.6013,94.018 " fill="none" id="lapr4.shodrone.utentemanagement.application-to-eapli.framework.infrastructure.authz.application" style="stroke:#181818;stroke-width:1.0;"/><polygon fill="#181818" points="2491.53,94.94,2483.2516,89.6045,2486.5894,94.1717,2482.0222,97.5095,2491.53,94.94" style="stroke:#181818;stroke-width:1.0;"/></g><!--link lapr4.shodrone.utentemanagement.application to eapli.framework.infrastructure.pubsub--><g id="link_lapr4.shodrone.utentemanagement.application_eapli.framework.infrastructure.pubsub"><path codeLine="27" d="M1894.77,35.01 C1733.83,51.41 1465.1391,78.7916 1306.7891,94.9316 " fill="none" id="lapr4.shodrone.utentemanagement.application-to-eapli.framework.infrastructure.pubsub" style="stroke:#181818;stroke-width:1.0;"/><polygon fill="#181818" points="1300.82,95.54,1310.1792,98.6068,1305.7942,95.033,1309.368,90.648,1300.82,95.54" style="stroke:#181818;stroke-width:1.0;"/></g><!--link lapr4.shodrone.utentemanagement.application to eapli.framework.domain.repositories--><g id="link_lapr4.shodrone.utentemanagement.application_eapli.framework.domain.repositories"><path codeLine="28" d="M2158.16,35.02 C2195.29,45.54 2231.58,63.76 2254.5,95 C2275.91,124.18 2244.0936,158.9669 2221.3036,178.9269 " fill="none" id="lapr4.shodrone.utentemanagement.application-to-eapli.framework.domain.repositories" style="stroke:#181818;stroke-width:1.0;"/><polygon fill="#181818" points="2216.79,182.88,2226.1958,179.9594,2220.5513,179.5857,2220.925,173.9412,2216.79,182.88" style="stroke:#181818;stroke-width:1.0;"/></g><!--link lapr4.shodrone.utentemanagement.application to eapli.framework.infrastructure.authz.domain.model--><g id="link_lapr4.shodrone.utentemanagement.application_eapli.framework.infrastructure.authz.domain.model"><path codeLine="29" d="M2139.44,35.01 C2187.91,45.12 2242.31,63.09 2283.5,95 C2328.02,129.49 2371.97,168.96 2334.5,211 C2303.56,245.71 2046.2303,265.9698 1869.1103,276.0298 " fill="none" id="lapr4.shodrone.utentemanagement.application-to-eapli.framework.infrastructure.authz.domain.model" style="stroke:#181818;stroke-width:1.0;"/><polygon fill="#181818" points="1863.12,276.37,1872.3323,279.8532,1868.112,276.0865,1871.8787,271.8661,1863.12,276.37" style="stroke:#181818;stroke-width:1.0;"/></g><!--link lapr4.shodrone.utentemanagement.application.eventhandlers to eapli.framework.infrastructure.authz.domain.repositories--><g id="link_lapr4.shodrone.utentemanagement.application.eventhandlers_eapli.framework.infrastructure.authz.domain.repositories"><path codeLine="30" d="M532.78,35.06 C601.4,51.27 711.8709,77.3698 780.4509,93.5798 " fill="none" id="lapr4.shodrone.utentemanagement.application.eventhandlers-to-eapli.framework.infrastructure.authz.domain.repositories" style="stroke:#181818;stroke-width:1.0;"/><polygon fill="#181818" points="786.29,94.96,778.4515,88.997,781.4241,93.8099,776.6112,96.7825,786.29,94.96" style="stroke:#181818;stroke-width:1.0;"/></g><!--link lapr4.shodrone.utentemanagement.application.eventhandlers to lapr4.shodrone.utentemanagement.repositories--><g id="link_lapr4.shodrone.utentemanagement.application.eventhandlers_lapr4.shodrone.utentemanagement.repositories"><path codeLine="31" d="M674.62,33.99 C680.65,34.33 686.62,34.67 692.5,35 C1207.93,63.91 1337.31,61.98 1852.5,95 C1857.96,95.35 1857.5437,95.3152 1863.1637,95.6952 " fill="none" id="lapr4.shodrone.utentemanagement.application.eventhandlers-to-lapr4.shodrone.utentemanagement.repositories" style="stroke:#181818;stroke-width:1.0;"/><polygon fill="#181818" points="1869.15,96.1,1860.4403,91.502,1864.1614,95.7627,1859.9007,99.4837,1869.15,96.1" style="stroke:#181818;stroke-width:1.0;"/></g><!--link lapr4.shodrone.utentemanagement.application.eventhandlers to lapr4.shodrone.utentemanagement.domain--><g id="link_lapr4.shodrone.utentemanagement.application.eventhandlers_lapr4.shodrone.utentemanagement.domain"><path codeLine="32" d="M485.62,35.08 C505.63,67.32 554.0047,145.2728 574.1247,177.6728 " fill="none" id="lapr4.shodrone.utentemanagement.application.eventhandlers-to-lapr4.shodrone.utentemanagement.domain" style="stroke:#181818;stroke-width:1.0;"/><polygon fill="#181818" points="577.29,182.77,575.9402,173.0141,574.6523,178.5224,569.144,177.2344,577.29,182.77" style="stroke:#181818;stroke-width:1.0;"/></g><!--link lapr4.shodrone.utentemanagement.application.eventhandlers to lapr4.shodrone.utentemanagement.domain.events--><g id="link_lapr4.shodrone.utentemanagement.application.eventhandlers_lapr4.shodrone.utentemanagement.domain.events"><path codeLine="33" d="M453.96,35.06 C424.74,51.27 380.4559,75.8378 351.2559,92.0478 " fill="none" id="lapr4.shodrone.utentemanagement.application.eventhandlers-to-lapr4.shodrone.utentemanagement.domain.events" style="stroke:#181818;stroke-width:1.0;"/><polygon fill="#181818" points="346.01,94.96,355.8203,94.089,350.3816,92.5332,351.9374,87.0945,346.01,94.96" style="stroke:#181818;stroke-width:1.0;"/></g><!--link lapr4.shodrone.utentemanagement.application.eventhandlers to eapli.framework.infrastructure.pubsub--><g id="link_lapr4.shodrone.utentemanagement.application.eventhandlers_eapli.framework.infrastructure.pubsub"><path codeLine="34" d="M583.59,35.01 C715.73,51.23 934.2147,78.0292 1066.3947,94.2492 " fill="none" id="lapr4.shodrone.utentemanagement.application.eventhandlers-to-eapli.framework.infrastructure.pubsub" style="stroke:#181818;stroke-width:1.0;"/><polygon fill="#181818" points="1072.35,94.98,1063.9042,89.9136,1067.3872,94.371,1062.9298,97.854,1072.35,94.98" style="stroke:#181818;stroke-width:1.0;"/></g><!--link lapr4.shodrone.utentemanagement.application.eventhandlers to eapli.framework.domain.events--><g id="link_lapr4.shodrone.utentemanagement.application.eventhandlers_eapli.framework.domain.events"><path codeLine="35" d="M280.43,35.01 C194.82,45.16 108,63.17 81.5,95 C60.07,120.74 79.7757,157.0962 94.2457,178.0062 " fill="none" id="lapr4.shodrone.utentemanagement.application.eventhandlers-to-eapli.framework.domain.events" style="stroke:#181818;stroke-width:1.0;"/><polygon fill="#181818" points="97.66,182.94,95.8278,173.2631,94.8148,178.8285,89.2494,177.8154,97.66,182.94" style="stroke:#181818;stroke-width:1.0;"/></g><!--link lapr4.shodrone.utentemanagement.domain to eapli.framework.domain.model--><g id="link_lapr4.shodrone.utentemanagement.domain_eapli.framework.domain.model"><path codeLine="36" d="M585.2,211.06 C584.82,227.23 584.3167,248.5916 583.9467,264.8216 " fill="none" id="lapr4.shodrone.utentemanagement.domain-to-eapli.framework.domain.model" style="stroke:#181818;stroke-width:1.0;"/><polygon fill="#181818" points="583.81,270.82,588.0141,261.9135,583.924,265.8213,580.0162,261.7312,583.81,270.82" style="stroke:#181818;stroke-width:1.0;"/></g><!--link lapr4.shodrone.utentemanagement.domain to eapli.framework.infrastructure.authz.domain.model--><g id="link_lapr4.shodrone.utentemanagement.domain_eapli.framework.infrastructure.authz.domain.model"><path codeLine="37" d="M724.53,208.9 C733.66,209.61 742.71,210.32 751.5,211 C1028.36,232.48 1344.6475,256.7225 1533.7175,271.1825 " fill="none" id="lapr4.shodrone.utentemanagement.domain-to-eapli.framework.infrastructure.authz.domain.model" style="stroke:#181818;stroke-width:1.0;"/><polygon fill="#181818" points="1539.7,271.64,1531.0312,266.9653,1534.7146,271.2587,1530.4212,274.942,1539.7,271.64" style="stroke:#181818;stroke-width:1.0;"/></g><!--link lapr4.shodrone.utentemanagement.domain to eapli.framework.general.domain.model--><g id="link_lapr4.shodrone.utentemanagement.domain_eapli.framework.general.domain.model"><path codeLine="38" d="M545.86,211.06 C496.66,227.27 418.9584,252.8718 369.7784,269.0818 " fill="none" id="lapr4.shodrone.utentemanagement.domain-to-eapli.framework.general.domain.model" style="stroke:#181818;stroke-width:1.0;"/><polygon fill="#181818" points="364.08,270.96,373.8798,271.9416,368.8287,269.3948,371.3755,264.3437,364.08,270.96" style="stroke:#181818;stroke-width:1.0;"/></g><!--link lapr4.shodrone.utentemanagement.domain to org.springframework.security.crypto.password--><g id="link_lapr4.shodrone.utentemanagement.domain_org.springframework.security.crypto.password"><path codeLine="39" d="M627.87,211.06 C680.47,227.27 763.8864,252.982 816.4564,269.192 " fill="none" id="lapr4.shodrone.utentemanagement.domain-to-org.springframework.security.crypto.password" style="stroke:#181818;stroke-width:1.0;"/><polygon fill="#181818" points="822.19,270.96,814.7682,264.4856,817.412,269.4867,812.4109,272.1305,822.19,270.96" style="stroke:#181818;stroke-width:1.0;"/></g><!--link lapr4.shodrone.utentemanagement.domain.events to eapli.framework.domain.events--><g id="link_lapr4.shodrone.utentemanagement.domain.events_eapli.framework.domain.events"><path codeLine="40" d="M289.85,123.06 C249.32,139.27 186.1804,164.5205 145.6804,180.7305 " fill="none" id="lapr4.shodrone.utentemanagement.domain.events-to-eapli.framework.domain.events" style="stroke:#181818;stroke-width:1.0;"/><polygon fill="#181818" points="140.11,182.96,149.9519,183.3293,144.752,181.1021,146.9792,175.9021,140.11,182.96" style="stroke:#181818;stroke-width:1.0;"/></g><!--link lapr4.shodrone.utentemanagement.domain.events to lapr4.shodrone.utentemanagement.domain--><g id="link_lapr4.shodrone.utentemanagement.domain.events_lapr4.shodrone.utentemanagement.domain"><path codeLine="41" d="M362.44,123.06 C412.02,139.27 490.3574,164.8844 539.9074,181.0944 " fill="none" id="lapr4.shodrone.utentemanagement.domain.events-to-lapr4.shodrone.utentemanagement.domain" style="stroke:#181818;stroke-width:1.0;"/><polygon fill="#181818" points="545.61,182.96,538.2998,176.3599,540.8578,181.4054,535.8124,183.9634,545.61,182.96" style="stroke:#181818;stroke-width:1.0;"/></g><!--link lapr4.shodrone.utentemanagement.domain.events to eapli.framework.infrastructure.authz.domain.model--><g id="link_lapr4.shodrone.utentemanagement.domain.events_eapli.framework.infrastructure.authz.domain.model"><path codeLine="42" d="M331.42,123.2 C347.65,145.94 384.43,191.88 428.5,211 C527.92,254.12 1214.0314,273.8597 1533.9814,280.8097 " fill="none" id="lapr4.shodrone.utentemanagement.domain.events-to-eapli.framework.infrastructure.authz.domain.model" style="stroke:#181818;stroke-width:1.0;"/><polygon fill="#181818" points="1539.98,280.94,1531.069,276.7455,1534.9812,280.8314,1530.8953,284.7436,1539.98,280.94" style="stroke:#181818;stroke-width:1.0;"/></g><!--link lapr4.shodrone.utentemanagement.domain.events to eapli.framework.general.domain.model--><g id="link_lapr4.shodrone.utentemanagement.domain.events_eapli.framework.general.domain.model"><path codeLine="43" d="M322.65,123.08 C323.02,155.32 323.9115,232.3704 324.2815,264.7704 " fill="none" id="lapr4.shodrone.utentemanagement.domain.events-to-eapli.framework.general.domain.model" style="stroke:#181818;stroke-width:1.0;"/><polygon fill="#181818" points="324.35,270.77,328.247,261.7249,324.2929,265.7703,320.2475,261.8163,324.35,270.77" style="stroke:#181818;stroke-width:1.0;"/></g><!--link lapr4.shodrone.utentemanagement.repositories to eapli.framework.domain.repositories--><g id="link_lapr4.shodrone.utentemanagement.repositories_eapli.framework.domain.repositories"><path codeLine="44" d="M2049.53,123.06 C2083.09,139.27 2134.5681,164.1385 2168.0981,180.3485 " fill="none" id="lapr4.shodrone.utentemanagement.repositories-to-eapli.framework.domain.repositories" style="stroke:#181818;stroke-width:1.0;"/><polygon fill="#181818" points="2173.5,182.96,2167.1382,175.4415,2168.9985,180.7837,2163.6562,182.644,2173.5,182.96" style="stroke:#181818;stroke-width:1.0;"/></g><!--link lapr4.shodrone.utentemanagement.repositories to eapli.framework.infrastructure.authz.domain.model--><g id="link_lapr4.shodrone.utentemanagement.repositories_eapli.framework.infrastructure.authz.domain.model"><path codeLine="45" d="M1998.37,123.08 C1938.88,155.32 1790.965,235.511 1731.185,267.911 " fill="none" id="lapr4.shodrone.utentemanagement.repositories-to-eapli.framework.infrastructure.authz.domain.model" style="stroke:#181818;stroke-width:1.0;"/><polygon fill="#181818" points="1725.91,270.77,1735.7286,269.9982,1730.3059,268.3875,1731.9166,262.9648,1725.91,270.77" style="stroke:#181818;stroke-width:1.0;"/></g><!--link lapr4.shodrone.utentemanagement.repositories to lapr4.shodrone.utentemanagement.domain--><g id="link_lapr4.shodrone.utentemanagement.repositories_lapr4.shodrone.utentemanagement.domain"><path codeLine="46" d="M1869.14,121.86 C1863.53,122.25 1857.96,122.63 1852.5,123 C1442.78,150.47 964.0818,176.3167 730.7518,188.5167 " fill="none" id="lapr4.shodrone.utentemanagement.repositories-to-lapr4.shodrone.utentemanagement.domain" style="stroke:#181818;stroke-width:1.0;"/><polygon fill="#181818" points="724.76,188.83,733.9566,192.3546,729.7532,188.5689,733.5389,184.3655,724.76,188.83" style="stroke:#181818;stroke-width:1.0;"/></g><text fill="#888888" font-family="sans-serif" font-size="10" lengthAdjust="spacing" textLength="184" x="1327.25" y="313.9902">UMLDoclet 2.1.1, PlantUML 1.2023.12</text><!--SRC=[lLVBRjim4BptAuW0GLkW9f0YvvvwR840HKvH3ZIrjXdpXIMLmYtwxwKb1vLLHHAjLKwMbyEPVN4bCiPOs2lh1Gh3raBkj-WgMqgd7RA8meQq13Q-OqSaH6Q5WMIJy0EEcsA2MMUXNj-f4fXKA7NhFnWV3soZG9UXQpKGTowPQxiM7czvI0PCX5pP3OeGiPAnGk0UCAWGmKfWgzKNvd3BWzxSFbsm5uJNYYU8WPyEzxnqHYZB4RmBAaMa812mTk2YYhjVH58TT9LM8XXXnHPCUXobDuTc2nS- -In5LCvEZw6rAOjyCQ_7Y9kazr5M0R05N28T51AdhZ6k19sdmU4vMNR2bZhr47cVKWhxQXsgzPk6HvFGQUtNR9oVnS71DojJkNus-CMItgAVSS2xKCBPCPTwz72D2P2CfvaY0wSsbtdgp259osWp3gWiFLJpf9TiiukdtPi93OqhqX9UrkWaOxS_yY6owMrDFiGp1BPW0OMUnLc_3Zqgk_t76q1MgEA1IppuwBWN8QI5CeFxL0xIWhKv2K_HkCEKXHpIkRYUxH55-ceO9QP9pNyo4yjRaxzdT-dUdLQOLdRVn2LrQbbsDVbMUCKU7cfmyG8kpi552rpuHcyLAcC47lWk6ltuo7xNqdy671WClCU7Bhveuozte-yYsAF-0YjQCCBOcnfEYRf1pf1-zQk-J_qCJ1Jxn6j5dZjdMyaBSnfK6VLfDf1bwVN-E4_9xEuO-FoO4lqofoEhHuPSok-I8ncoZNF7d_lltxuwgI6op_o6ttnYTrhOcApi-lau4ftzyF4l]--></g></svg>