<?xml version="1.0" encoding="us-ascii" standalone="no"?><svg xmlns="http://www.w3.org/2000/svg" xmlns:xlink="http://www.w3.org/1999/xlink" contentStyleType="text/css" height="225px" preserveAspectRatio="none" style="width:338px;height:225px;background:#FFFFFF;" version="1.1" viewBox="0 0 338 225" width="338px" zoomAndPan="magnify"><defs/><g><!--class lapr4.shodrone.utentemanagement.application.eventhandlers.NewUserRegisteredFromSignupWatchDog--><a href="NewUserRegisteredFromSignupWatchDog.html" target="_top" title="NewUserRegisteredFromSignupWatchDog.html" xlink:actuate="onRequest" xlink:href="NewUserRegisteredFromSignupWatchDog.html" xlink:show="new" xlink:title="NewUserRegisteredFromSignupWatchDog.html" xlink:type="simple"><g id="elem_lapr4.shodrone.utentemanagement.application.eventhandlers.NewUserRegisteredFromSignupWatchDog"><rect codeLine="5" fill="#F1F1F1" height="65.7969" id="lapr4.shodrone.utentemanagement.application.eventhandlers.NewUserRegisteredFromSignupWatchDog" rx="2.5" ry="2.5" style="stroke:#181818;stroke-width:0.5;" width="324" x="7" y="133"/><ellipse cx="22" cy="153.0938" fill="#ADD1B2" rx="11" ry="11" style="stroke:#181818;stroke-width:1.0;"/><path d="M24.7656,148.9688 Q24.9219,148.75 25.1094,148.6406 Q25.2969,148.5313 25.5156,148.5313 Q25.8906,148.5313 26.125,148.7969 Q26.3594,149.0469 26.3594,149.6563 L26.3594,151.1094 Q26.3594,151.7188 26.125,151.9844 Q25.8906,152.25 25.5156,152.25 Q25.1719,152.25 24.9688,152.0469 Q24.7656,151.8594 24.6563,151.3438 Q24.6094,150.9844 24.4219,150.7969 Q24.0938,150.4219 23.4844,150.2031 Q22.875,149.9844 22.25,149.9844 Q21.4844,149.9844 20.8438,150.3125 Q20.2188,150.6406 19.7188,151.3906 Q19.2344,152.1406 19.2344,153.1719 L19.2344,154.2656 Q19.2344,155.5 20.125,156.3281 Q21.0156,157.1406 22.6094,157.1406 Q23.5469,157.1406 24.2031,156.8906 Q24.5938,156.7344 25.0156,156.2969 Q25.2813,156.0313 25.4219,155.9531 Q25.5781,155.875 25.7813,155.875 Q26.1094,155.875 26.3594,156.1406 Q26.625,156.3906 26.625,156.7344 Q26.625,157.0781 26.2813,157.4844 Q25.7813,158.0625 24.9844,158.3906 Q23.9063,158.8438 22.6094,158.8438 Q21.0938,158.8438 19.8906,158.2188 Q18.9063,157.7188 18.2188,156.6563 Q17.5313,155.5781 17.5313,154.2969 L17.5313,153.1406 Q17.5313,151.8125 18.1406,150.6719 Q18.7656,149.5156 19.8594,148.9063 Q20.9531,148.2813 22.1875,148.2813 Q22.9219,148.2813 23.5625,148.4531 Q24.2188,148.6094 24.7656,148.9688 Z " fill="#000000"/><text fill="#000000" font-family="sans-serif" font-size="14" lengthAdjust="spacing" textLength="267" x="48.5" y="152.5332">NewUserRegisteredFromSignupWatchDog</text><text fill="#000000" font-family="sans-serif" font-size="10" lengthAdjust="spacing" textLength="292" x="36" y="165.9902">lapr4.shodrone.utentemanagement.application.eventhandlers</text><line style="stroke:#181818;stroke-width:0.5;" x1="8" x2="330" y1="173.1875" y2="173.1875"/><ellipse cx="18" cy="187.4922" fill="#84BE84" rx="3" ry="3" style="stroke:#038048;stroke-width:1.0;"/><text fill="#000000" font-family="sans-serif" font-size="14" lengthAdjust="spacing" textLength="180" x="27" y="191.7207">onEvent(DomainEvent): void</text></g></a><!--class eapli.framework.infrastructure.pubsub.EventHandler--><g id="elem_eapli.framework.infrastructure.pubsub.EventHandler"><rect codeLine="9" fill="#F1F1F1" height="65.7969" id="eapli.framework.infrastructure.pubsub.EventHandler" rx="2.5" ry="2.5" style="stroke:#181818;stroke-width:0.5;" width="208" x="65" y="7"/><ellipse cx="80" cy="27.0938" fill="#B4A7E5" rx="11" ry="11" style="stroke:#181818;stroke-width:1.0;"/><path d="M80.9531,23.7344 L80.9531,30.3906 L82.6719,30.3906 Q83.2813,30.3906 83.5469,30.625 Q83.8125,30.8594 83.8125,31.25 Q83.8125,31.625 83.5469,31.8594 Q83.2813,32.0938 82.6719,32.0938 L77.5313,32.0938 Q76.9219,32.0938 76.6563,31.8594 Q76.3906,31.625 76.3906,31.2344 Q76.3906,30.8594 76.6563,30.625 Q76.9219,30.3906 77.5313,30.3906 L79.25,30.3906 L79.25,23.7344 L77.5313,23.7344 Q76.9219,23.7344 76.6563,23.5 Q76.3906,23.2656 76.3906,22.875 Q76.3906,22.5 76.6563,22.2656 Q76.9219,22.0313 77.5313,22.0313 L82.6719,22.0313 Q83.2813,22.0313 83.5469,22.2656 Q83.8125,22.5 83.8125,22.875 Q83.8125,23.2656 83.5469,23.5 Q83.2813,23.7344 82.6719,23.7344 L80.9531,23.7344 Z " fill="#000000"/><text fill="#000000" font-family="sans-serif" font-size="14" font-style="italic" lengthAdjust="spacing" textLength="85" x="139.5" y="26.5332">EventHandler</text><text fill="#000000" font-family="sans-serif" font-size="10" font-style="italic" lengthAdjust="spacing" textLength="176" x="94" y="39.9902">eapli.framework.infrastructure.pubsub</text><line style="stroke:#181818;stroke-width:0.5;" x1="66" x2="272" y1="47.1875" y2="47.1875"/><ellipse cx="76" cy="61.4922" fill="#84BE84" rx="3" ry="3" style="stroke:#038048;stroke-width:1.0;"/><text fill="#000000" font-family="sans-serif" font-size="14" font-style="italic" lengthAdjust="spacing" textLength="177" x="85" y="65.7207">onEvent(DomainEvent): void</text></g><!--reverse link eapli.framework.infrastructure.pubsub.EventHandler to lapr4.shodrone.utentemanagement.application.eventhandlers.NewUserRegisteredFromSignupWatchDog--><g id="link_eapli.framework.infrastructure.pubsub.EventHandler_lapr4.shodrone.utentemanagement.application.eventhandlers.NewUserRegisteredFromSignupWatchDog"><path codeLine="13" d="M169,91.26 C169,109.63 169,114.56 169,132.91 " fill="none" id="eapli.framework.infrastructure.pubsub.EventHandler-backto-lapr4.shodrone.utentemanagement.application.eventhandlers.NewUserRegisteredFromSignupWatchDog" style="stroke:#181818;stroke-width:1.0;stroke-dasharray:7.0,7.0;"/><polygon fill="none" points="169,73.26,163,91.26,175,91.26,169,73.26" style="stroke:#181818;stroke-width:1.0;"/></g><text fill="#888888" font-family="sans-serif" font-size="10" lengthAdjust="spacing" textLength="184" x="70" y="215.1777">UMLDoclet 2.1.1, PlantUML 1.2023.12</text><!--SRC=[jL9DImCn4BtxAuQ2qA84ApsLqjCg7bJ4KZpK7gRPsTrWlaYoBLhxtvtTzR1uMWhcak7bPTxCcm40Y9J0eg7eKTAAF0PCBe1rbYxu6IgL4v3nwHCAHJgFVr53gN8CjxZK62EC5b5zqNmwMpxJOHqfl5AfOg90-NrmPgLAM_itJBBANFbkVzatIuq-p4JaT87bHPt89Z9eiIJ3eK3ljPAObBE2zenKQ7DD8Ou08vpzMmoe4ZQR0InH9QEtMpYsPZJdojcxHckSEOEgYoTps3kLjvnJvvlYKaF14-Xvrt8VkXfx9X5o6w88FBE32nz2MOvZ2hLCTI3XwrsiTwqXWvYYBzCh_8Wxfg9Cfw4zd26t-1RYV-VMRMMJCK3XN7Ejdnup9pNl_QsOYkarl6YqYL6ut7DMbXbFVW00]--></g></svg>