<?xml version="1.0" encoding="us-ascii" standalone="no"?><svg xmlns="http://www.w3.org/2000/svg" xmlns:xlink="http://www.w3.org/1999/xlink" contentStyleType="text/css" height="344px" preserveAspectRatio="none" style="width:857px;height:344px;background:#FFFFFF;" version="1.1" viewBox="0 0 857 344" width="857px" zoomAndPan="magnify"><defs/><g><!--cluster lapr4.shodrone.utentemanagement.application.eventhandlers--><g id="cluster_lapr4.shodrone.utentemanagement.application.eventhandlers"><path d="M8.5,148 L444.5,148 A3.75,3.75 0 0 1 447,150.5 L454,171.6094 L847.5,171.6094 A2.5,2.5 0 0 1 850,174.1094 L850,315.5 A2.5,2.5 0 0 1 847.5,318 L8.5,318 A2.5,2.5 0 0 1 6,315.5 L6,150.5 A2.5,2.5 0 0 1 8.5,148 " fill="none" style="stroke:#000000;stroke-width:1.5;"/><line style="stroke:#000000;stroke-width:1.5;" x1="6" x2="454" y1="171.6094" y2="171.6094"/><text fill="#000000" font-family="sans-serif" font-size="14" font-weight="bold" lengthAdjust="spacing" textLength="435" x="10" y="164.5332">lapr4.shodrone.utentemanagement.application.eventhandlers</text></g><!--cluster eapli.framework.infrastructure.pubsub--><g id="cluster_eapli.framework.infrastructure.pubsub"><path d="M32.5,6 L303.5,6 A3.75,3.75 0 0 1 306,8.5 L313,29.6094 L313.5,29.6094 A2.5,2.5 0 0 1 316,32.1094 L316,121.5 A2.5,2.5 0 0 1 313.5,124 L32.5,124 A2.5,2.5 0 0 1 30,121.5 L30,8.5 A2.5,2.5 0 0 1 32.5,6 " fill="none" style="stroke:#000000;stroke-width:1.5;"/><line style="stroke:#000000;stroke-width:1.5;" x1="30" x2="313" y1="29.6094" y2="29.6094"/><text fill="#000000" font-family="sans-serif" font-size="14" font-weight="bold" lengthAdjust="spacing" textLength="270" x="34" y="22.5332">eapli.framework.infrastructure.pubsub</text></g><!--class AddUtenteOnSignupAcceptedController--><a href="AddUtenteOnSignupAcceptedController.html" target="_top" title="AddUtenteOnSignupAcceptedController.html" xlink:actuate="onRequest" xlink:href="AddUtenteOnSignupAcceptedController.html" xlink:show="new" xlink:title="AddUtenteOnSignupAcceptedController.html" xlink:type="simple"><g id="elem_AddUtenteOnSignupAcceptedController"><rect codeLine="5" fill="#F1F1F1" height="118.4375" id="AddUtenteOnSignupAcceptedController" rx="2.5" ry="2.5" style="stroke:#181818;stroke-width:0.5;" width="477" x="356.5" y="184"/><ellipse cx="465.75" cy="200" fill="#ADD1B2" rx="11" ry="11" style="stroke:#181818;stroke-width:1.0;"/><path d="M468.5156,195.875 Q468.6719,195.6563 468.8594,195.5469 Q469.0469,195.4375 469.2656,195.4375 Q469.6406,195.4375 469.875,195.7031 Q470.1094,195.9531 470.1094,196.5625 L470.1094,198.0156 Q470.1094,198.625 469.875,198.8906 Q469.6406,199.1563 469.2656,199.1563 Q468.9219,199.1563 468.7188,198.9531 Q468.5156,198.7656 468.4063,198.25 Q468.3594,197.8906 468.1719,197.7031 Q467.8438,197.3281 467.2344,197.1094 Q466.625,196.8906 466,196.8906 Q465.2344,196.8906 464.5938,197.2188 Q463.9688,197.5469 463.4688,198.2969 Q462.9844,199.0469 462.9844,200.0781 L462.9844,201.1719 Q462.9844,202.4063 463.875,203.2344 Q464.7656,204.0469 466.3594,204.0469 Q467.2969,204.0469 467.9531,203.7969 Q468.3438,203.6406 468.7656,203.2031 Q469.0313,202.9375 469.1719,202.8594 Q469.3281,202.7813 469.5313,202.7813 Q469.8594,202.7813 470.1094,203.0469 Q470.375,203.2969 470.375,203.6406 Q470.375,203.9844 470.0313,204.3906 Q469.5313,204.9688 468.7344,205.2969 Q467.6563,205.75 466.3594,205.75 Q464.8438,205.75 463.6406,205.125 Q462.6563,204.625 461.9688,203.5625 Q461.2813,202.4844 461.2813,201.2031 L461.2813,200.0469 Q461.2813,198.7188 461.8906,197.5781 Q462.5156,196.4219 463.6094,195.8125 Q464.7031,195.1875 465.9375,195.1875 Q466.6719,195.1875 467.3125,195.3594 Q467.9688,195.5156 468.5156,195.875 Z " fill="#000000"/><text fill="#000000" font-family="sans-serif" font-size="14" lengthAdjust="spacing" textLength="250" x="486.25" y="205.7285">AddUtenteOnSignupAcceptedController</text><line style="stroke:#181818;stroke-width:0.5;" x1="357.5" x2="832.5" y1="216" y2="216"/><rect fill="none" height="6" style="stroke:#C82930;stroke-width:1.0;" width="6" x="364.5" y="227.3047"/><text fill="#000000" font-family="sans-serif" font-size="14" lengthAdjust="spacing" textLength="134" x="376.5" y="234.5332">repo: UserRepository</text><rect fill="none" height="6" style="stroke:#C82930;stroke-width:1.0;" width="6" x="364.5" y="244.9141"/><text fill="#000000" font-family="sans-serif" font-size="14" lengthAdjust="spacing" textLength="247" x="376.5" y="252.1426">clientUserRepository: UtenteRepository</text><line style="stroke:#181818;stroke-width:0.5;" x1="357.5" x2="832.5" y1="259.2188" y2="259.2188"/><ellipse cx="367.5" cy="273.5234" fill="#84BE84" rx="3" ry="3" style="stroke:#038048;stroke-width:1.0;"/><text fill="#000000" font-family="sans-serif" font-size="14" lengthAdjust="spacing" textLength="421" x="376.5" y="277.752">addshodroneUtente(NewUserRegisteredFromSignupEvent): Utente</text><rect fill="#F24D5C" height="6" style="stroke:#C82930;stroke-width:1.0;" width="6" x="364.5" y="288.1328"/><text fill="#000000" font-family="sans-serif" font-size="14" lengthAdjust="spacing" textLength="451" x="376.5" y="295.3613">findUser(NewUserRegisteredFromSignupEvent): Optional&lt;SystemUser&gt;</text></g></a><!--class NewUserRegisteredFromSignupWatchDog--><a href="NewUserRegisteredFromSignupWatchDog.html" target="_top" title="NewUserRegisteredFromSignupWatchDog.html" xlink:actuate="onRequest" xlink:href="NewUserRegisteredFromSignupWatchDog.html" xlink:show="new" xlink:title="NewUserRegisteredFromSignupWatchDog.html" xlink:type="simple"><g id="elem_NewUserRegisteredFromSignupWatchDog"><rect codeLine="12" fill="#F1F1F1" height="65.6094" id="NewUserRegisteredFromSignupWatchDog" rx="2.5" ry="2.5" style="stroke:#181818;stroke-width:0.5;" width="299" x="22.5" y="210"/><ellipse cx="37.5" cy="226" fill="#ADD1B2" rx="11" ry="11" style="stroke:#181818;stroke-width:1.0;"/><path d="M40.2656,221.875 Q40.4219,221.6563 40.6094,221.5469 Q40.7969,221.4375 41.0156,221.4375 Q41.3906,221.4375 41.625,221.7031 Q41.8594,221.9531 41.8594,222.5625 L41.8594,224.0156 Q41.8594,224.625 41.625,224.8906 Q41.3906,225.1563 41.0156,225.1563 Q40.6719,225.1563 40.4688,224.9531 Q40.2656,224.7656 40.1563,224.25 Q40.1094,223.8906 39.9219,223.7031 Q39.5938,223.3281 38.9844,223.1094 Q38.375,222.8906 37.75,222.8906 Q36.9844,222.8906 36.3438,223.2188 Q35.7188,223.5469 35.2188,224.2969 Q34.7344,225.0469 34.7344,226.0781 L34.7344,227.1719 Q34.7344,228.4063 35.625,229.2344 Q36.5156,230.0469 38.1094,230.0469 Q39.0469,230.0469 39.7031,229.7969 Q40.0938,229.6406 40.5156,229.2031 Q40.7813,228.9375 40.9219,228.8594 Q41.0781,228.7813 41.2813,228.7813 Q41.6094,228.7813 41.8594,229.0469 Q42.125,229.2969 42.125,229.6406 Q42.125,229.9844 41.7813,230.3906 Q41.2813,230.9688 40.4844,231.2969 Q39.4063,231.75 38.1094,231.75 Q36.5938,231.75 35.3906,231.125 Q34.4063,230.625 33.7188,229.5625 Q33.0313,228.4844 33.0313,227.2031 L33.0313,226.0469 Q33.0313,224.7188 33.6406,223.5781 Q34.2656,222.4219 35.3594,221.8125 Q36.4531,221.1875 37.6875,221.1875 Q38.4219,221.1875 39.0625,221.3594 Q39.7188,221.5156 40.2656,221.875 Z " fill="#000000"/><text fill="#000000" font-family="sans-serif" font-size="14" lengthAdjust="spacing" textLength="267" x="51.5" y="231.7285">NewUserRegisteredFromSignupWatchDog</text><line style="stroke:#181818;stroke-width:0.5;" x1="23.5" x2="320.5" y1="242" y2="242"/><line style="stroke:#181818;stroke-width:0.5;" x1="23.5" x2="320.5" y1="250" y2="250"/><ellipse cx="33.5" cy="264.3047" fill="#84BE84" rx="3" ry="3" style="stroke:#038048;stroke-width:1.0;"/><text fill="#000000" font-family="sans-serif" font-size="14" lengthAdjust="spacing" textLength="180" x="42.5" y="268.5332">onEvent(DomainEvent): void</text></g></a><!--class EventHandler--><g id="elem_EventHandler"><rect codeLine="19" fill="#F1F1F1" height="65.6094" id="EventHandler" rx="2.5" ry="2.5" style="stroke:#181818;stroke-width:0.5;" width="203" x="70.5" y="42"/><ellipse cx="125.25" cy="58" fill="#B4A7E5" rx="11" ry="11" style="stroke:#181818;stroke-width:1.0;"/><path d="M126.2031,54.6406 L126.2031,61.2969 L127.9219,61.2969 Q128.5313,61.2969 128.7969,61.5313 Q129.0625,61.7656 129.0625,62.1563 Q129.0625,62.5313 128.7969,62.7656 Q128.5313,63 127.9219,63 L122.7813,63 Q122.1719,63 121.9063,62.7656 Q121.6406,62.5313 121.6406,62.1406 Q121.6406,61.7656 121.9063,61.5313 Q122.1719,61.2969 122.7813,61.2969 L124.5,61.2969 L124.5,54.6406 L122.7813,54.6406 Q122.1719,54.6406 121.9063,54.4063 Q121.6406,54.1719 121.6406,53.7813 Q121.6406,53.4063 121.9063,53.1719 Q122.1719,52.9375 122.7813,52.9375 L127.9219,52.9375 Q128.5313,52.9375 128.7969,53.1719 Q129.0625,53.4063 129.0625,53.7813 Q129.0625,54.1719 128.7969,54.4063 Q128.5313,54.6406 127.9219,54.6406 L126.2031,54.6406 Z " fill="#000000"/><text fill="#000000" font-family="sans-serif" font-size="14" font-style="italic" lengthAdjust="spacing" textLength="85" x="145.75" y="63.7285">EventHandler</text><line style="stroke:#181818;stroke-width:0.5;" x1="71.5" x2="272.5" y1="74" y2="74"/><line style="stroke:#181818;stroke-width:0.5;" x1="71.5" x2="272.5" y1="82" y2="82"/><ellipse cx="81.5" cy="96.3047" fill="#84BE84" rx="3" ry="3" style="stroke:#038048;stroke-width:1.0;"/><text fill="#000000" font-family="sans-serif" font-size="14" font-style="italic" lengthAdjust="spacing" textLength="177" x="90.5" y="100.5332">onEvent(DomainEvent): void</text></g><!--reverse link EventHandler to NewUserRegisteredFromSignupWatchDog--><g id="link_EventHandler_NewUserRegisteredFromSignupWatchDog"><path codeLine="24" d="M172,126.01 C172,155.31 172,180.45 172,209.81 " fill="none" id="EventHandler-backto-NewUserRegisteredFromSignupWatchDog" style="stroke:#181818;stroke-width:1.0;stroke-dasharray:7.0,7.0;"/><polygon fill="none" points="172,108.01,166,126.01,178,126.01,172,108.01" style="stroke:#181818;stroke-width:1.0;"/></g><text fill="#888888" font-family="sans-serif" font-size="10" lengthAdjust="spacing" textLength="184" x="329.5" y="334.3809">UMLDoclet 2.1.1, PlantUML 1.2023.12</text><!--SRC=[dLF1QW8n4Btx5RaK5Dk0fQT52b9RUj1QAj93yJ0cisimcuGaguZrtpkxYyMLjYmDX1soRzvxUKmOOonWfEt0GxIU9KcdGuVCWTX0Xao3ytSyhAtqrY0l8fg8EHZwbrF9mJcj14Hb3SSjdQp1I8q-i4DDL2wX8GGsad9HjS_CN6McS2CXq4MK3zP4RpLriO-F5YY-ZhbUBac1dQqRZyucR17Glr4L55rdtqG8hOYvYQ2EIkwNdZv8URfz3Uo-uAwco5I8w54-UPlNNX_B17edogPugemi-zhqprmPAEZXV4-Gl8JVVxCTBuFzW_0TebYFRKR1ja3z76pVcifNTsnpKERaSMkLlFHqR0uF0Wq7JptakBD-mvMXEaHVY5XuvAvOXM9rfgOeD9-2G5Q9FDUZT67d02kY016FBPsT6MjbA4aQwiDFpl__39AaHUwLDr5IUfPQMtuMqydO2arlyvOF-E2QlMgWqPrEsDMMQ4cds_i2]--></g></svg>