<?xml version="1.0" encoding="us-ascii" standalone="no"?><svg xmlns="http://www.w3.org/2000/svg" xmlns:xlink="http://www.w3.org/1999/xlink" contentStyleType="text/css" height="338px" preserveAspectRatio="none" style="width:505px;height:338px;background:#FFFFFF;" version="1.1" viewBox="0 0 505 338" width="505px" zoomAndPan="magnify"><defs/><g><!--class lapr4.shodrone.utentemanagement.domain.events.NewUserRegisteredFromSignupEvent--><a href="NewUserRegisteredFromSignupEvent.html" target="_top" title="NewUserRegisteredFromSignupEvent.html" xlink:actuate="onRequest" xlink:href="NewUserRegisteredFromSignupEvent.html" xlink:show="new" xlink:title="NewUserRegisteredFromSignupEvent.html" xlink:type="simple"><g id="elem_lapr4.shodrone.utentemanagement.domain.events.NewUserRegisteredFromSignupEvent"><rect codeLine="5" fill="#F1F1F1" height="161.8438" id="lapr4.shodrone.utentemanagement.domain.events.NewUserRegisteredFromSignupEvent" rx="2.5" ry="2.5" style="stroke:#181818;stroke-width:0.5;" width="491" x="7" y="150"/><ellipse cx="129.25" cy="170.0938" fill="#ADD1B2" rx="11" ry="11" style="stroke:#181818;stroke-width:1.0;"/><path d="M132.0156,165.9688 Q132.1719,165.75 132.3594,165.6406 Q132.5469,165.5313 132.7656,165.5313 Q133.1406,165.5313 133.375,165.7969 Q133.6094,166.0469 133.6094,166.6563 L133.6094,168.1094 Q133.6094,168.7188 133.375,168.9844 Q133.1406,169.25 132.7656,169.25 Q132.4219,169.25 132.2188,169.0469 Q132.0156,168.8594 131.9063,168.3438 Q131.8594,167.9844 131.6719,167.7969 Q131.3438,167.4219 130.7344,167.2031 Q130.125,166.9844 129.5,166.9844 Q128.7344,166.9844 128.0938,167.3125 Q127.4688,167.6406 126.9688,168.3906 Q126.4844,169.1406 126.4844,170.1719 L126.4844,171.2656 Q126.4844,172.5 127.375,173.3281 Q128.2656,174.1406 129.8594,174.1406 Q130.7969,174.1406 131.4531,173.8906 Q131.8438,173.7344 132.2656,173.2969 Q132.5313,173.0313 132.6719,172.9531 Q132.8281,172.875 133.0313,172.875 Q133.3594,172.875 133.6094,173.1406 Q133.875,173.3906 133.875,173.7344 Q133.875,174.0781 133.5313,174.4844 Q133.0313,175.0625 132.2344,175.3906 Q131.1563,175.8438 129.8594,175.8438 Q128.3438,175.8438 127.1406,175.2188 Q126.1563,174.7188 125.4688,173.6563 Q124.7813,172.5781 124.7813,171.2969 L124.7813,170.1406 Q124.7813,168.8125 125.3906,167.6719 Q126.0156,166.5156 127.1094,165.9063 Q128.2031,165.2813 129.4375,165.2813 Q130.1719,165.2813 130.8125,165.4531 Q131.4688,165.6094 132.0156,165.9688 Z " fill="#000000"/><text fill="#000000" font-family="sans-serif" font-size="14" lengthAdjust="spacing" textLength="237" x="150.25" y="169.5332">NewUserRegisteredFromSignupEvent</text><text fill="#000000" font-family="sans-serif" font-size="10" lengthAdjust="spacing" textLength="238" x="149.75" y="182.9902">lapr4.shodrone.utentemanagement.domain.events</text><line style="stroke:#181818;stroke-width:0.5;" x1="8" x2="497" y1="190.1875" y2="190.1875"/><rect fill="none" height="6" style="stroke:#C82930;stroke-width:1.0;" width="6" x="15" y="201.4922"/><text fill="#000000" font-family="sans-serif" font-size="14" lengthAdjust="spacing" text-decoration="underline" textLength="139" x="27" y="208.7207">serialVersionUID: long</text><rect fill="none" height="6" style="stroke:#C82930;stroke-width:1.0;" width="6" x="15" y="219.1016"/><text fill="#000000" font-family="sans-serif" font-size="14" lengthAdjust="spacing" textLength="300" x="27" y="226.3301">mecanographicNumber: MecanographicNumber</text><rect fill="none" height="6" style="stroke:#C82930;stroke-width:1.0;" width="6" x="15" y="236.7109"/><text fill="#000000" font-family="sans-serif" font-size="14" lengthAdjust="spacing" textLength="126" x="27" y="243.9395">newUser: Username</text><line style="stroke:#181818;stroke-width:0.5;" x1="8" x2="497" y1="251.0156" y2="251.0156"/><ellipse cx="18" cy="265.3203" fill="#84BE84" rx="3" ry="3" style="stroke:#038048;stroke-width:1.0;"/><text fill="#000000" font-family="sans-serif" font-size="14" lengthAdjust="spacing" textLength="465" x="27" y="269.5488">NewUserRegisteredFromSignupEvent(MecanographicNumber, Username)</text><ellipse cx="18" cy="282.9297" fill="#84BE84" rx="3" ry="3" style="stroke:#038048;stroke-width:1.0;"/><text fill="#000000" font-family="sans-serif" font-size="14" lengthAdjust="spacing" textLength="310" x="27" y="287.1582">mecanographicNumber(): MecanographicNumber</text><ellipse cx="18" cy="300.5391" fill="#84BE84" rx="3" ry="3" style="stroke:#038048;stroke-width:1.0;"/><text fill="#000000" font-family="sans-serif" font-size="14" lengthAdjust="spacing" textLength="145" x="27" y="304.7676">username(): Username</text></g></a><!--class eapli.framework.domain.events.DomainEventBase--><g id="elem_eapli.framework.domain.events.DomainEventBase"><rect codeLine="14" fill="#F1F1F1" height="40.1875" id="eapli.framework.domain.events.DomainEventBase" rx="2.5" ry="2.5" style="stroke:#181818;stroke-width:0.5;" width="177" x="58" y="28.5"/><ellipse cx="73" cy="48.5938" fill="#A9DCDF" rx="11" ry="11" style="stroke:#181818;stroke-width:1.0;"/><path d="M75.1875,50.3594 L71.0469,50.3594 L70.625,51.3906 L71.0469,51.3906 Q71.6563,51.3906 71.9219,51.625 Q72.1875,51.8594 72.1875,52.25 Q72.1875,52.625 71.9219,52.8594 Q71.6563,53.0938 71.0469,53.0938 L68.75,53.0938 Q68.1406,53.0938 67.8906,52.8594 Q67.625,52.625 67.625,52.2344 Q67.625,51.8594 67.9063,51.625 Q68.1719,51.375 68.7969,51.3906 L71.4688,44.7344 L70.3594,44.7344 Q69.75,44.7344 69.4844,44.5 Q69.2188,44.2656 69.2188,43.875 Q69.2188,43.5 69.4844,43.2656 Q69.75,43.0313 70.3594,43.0313 L74.0313,43.0313 L77.4219,51.3906 Q78.0156,51.3906 78.2031,51.5313 Q78.5938,51.7969 78.5938,52.25 Q78.5938,52.625 78.3281,52.8594 Q78.0781,53.0938 77.4688,53.0938 L75.1719,53.0938 Q74.5625,53.0938 74.2969,52.8594 Q74.0313,52.625 74.0313,52.2344 Q74.0313,51.8594 74.2969,51.625 Q74.5625,51.3906 75.1719,51.3906 L75.5938,51.3906 L75.1875,50.3594 Z M74.4688,48.6563 L73.1094,45.2813 L71.7344,48.6563 L74.4688,48.6563 Z " fill="#000000"/><text fill="#000000" font-family="sans-serif" font-size="14" font-style="italic" lengthAdjust="spacing" textLength="115" x="102" y="48.0332">DomainEventBase</text><text fill="#000000" font-family="sans-serif" font-size="10" font-style="italic" lengthAdjust="spacing" textLength="145" x="87" y="61.4902">eapli.framework.domain.events</text></g><!--class eapli.framework.domain.events.DomainEvent--><g id="elem_eapli.framework.domain.events.DomainEvent"><rect codeLine="15" fill="#F1F1F1" height="83.4063" id="eapli.framework.domain.events.DomainEvent" rx="2.5" ry="2.5" style="stroke:#181818;stroke-width:0.5;" width="179" x="270" y="7"/><ellipse cx="285.9" cy="27.0938" fill="#B4A7E5" rx="11" ry="11" style="stroke:#181818;stroke-width:1.0;"/><path d="M286.8531,23.7344 L286.8531,30.3906 L288.5719,30.3906 Q289.1813,30.3906 289.4469,30.625 Q289.7125,30.8594 289.7125,31.25 Q289.7125,31.625 289.4469,31.8594 Q289.1813,32.0938 288.5719,32.0938 L283.4313,32.0938 Q282.8219,32.0938 282.5563,31.8594 Q282.2906,31.625 282.2906,31.2344 Q282.2906,30.8594 282.5563,30.625 Q282.8219,30.3906 283.4313,30.3906 L285.15,30.3906 L285.15,23.7344 L283.4313,23.7344 Q282.8219,23.7344 282.5563,23.5 Q282.2906,23.2656 282.2906,22.875 Q282.2906,22.5 282.5563,22.2656 Q282.8219,22.0313 283.4313,22.0313 L288.5719,22.0313 Q289.1813,22.0313 289.4469,22.2656 Q289.7125,22.5 289.7125,22.875 Q289.7125,23.2656 289.4469,23.5 Q289.1813,23.7344 288.5719,23.7344 L286.8531,23.7344 Z " fill="#000000"/><text fill="#000000" font-family="sans-serif" font-size="14" font-style="italic" lengthAdjust="spacing" textLength="83" x="331.1" y="26.5332">DomainEvent</text><text fill="#000000" font-family="sans-serif" font-size="10" font-style="italic" lengthAdjust="spacing" textLength="145" x="300.1" y="39.9902">eapli.framework.domain.events</text><line style="stroke:#181818;stroke-width:0.5;" x1="271" x2="448" y1="47.1875" y2="47.1875"/><ellipse cx="281" cy="61.4922" fill="#84BE84" rx="3" ry="3" style="stroke:#038048;stroke-width:1.0;"/><text fill="#000000" font-family="sans-serif" font-size="14" font-style="italic" lengthAdjust="spacing" textLength="145" x="290" y="65.7207">occurredAt(): Calendar</text><ellipse cx="281" cy="79.1016" fill="#84BE84" rx="3" ry="3" style="stroke:#038048;stroke-width:1.0;"/><text fill="#000000" font-family="sans-serif" font-size="14" font-style="italic" lengthAdjust="spacing" textLength="153" x="290" y="83.3301">registeredAt(): Calendar</text></g><!--reverse link eapli.framework.domain.events.DomainEventBase to lapr4.shodrone.utentemanagement.domain.events.NewUserRegisteredFromSignupEvent--><g id="link_eapli.framework.domain.events.DomainEventBase_lapr4.shodrone.utentemanagement.domain.events.NewUserRegisteredFromSignupEvent"><path codeLine="20" d="M166.9605,84.3383 C178.4505,103.8883 187.86,119.92 205.49,149.95 " fill="none" id="eapli.framework.domain.events.DomainEventBase-backto-lapr4.shodrone.utentemanagement.domain.events.NewUserRegisteredFromSignupEvent" style="stroke:#181818;stroke-width:1.0;"/><polygon fill="none" points="157.84,68.82,161.7877,87.3784,172.1332,81.2981,157.84,68.82" style="stroke:#181818;stroke-width:1.0;"/></g><!--reverse link eapli.framework.domain.events.DomainEvent to lapr4.shodrone.utentemanagement.domain.events.NewUserRegisteredFromSignupEvent--><g id="link_eapli.framework.domain.events.DomainEvent_lapr4.shodrone.utentemanagement.domain.events.NewUserRegisteredFromSignupEvent"><path codeLine="21" d="M326.3078,105.4918 C315.8278,123.1618 312.34,129.05 300.1,149.71 " fill="none" id="eapli.framework.domain.events.DomainEvent-backto-lapr4.shodrone.utentemanagement.domain.events.NewUserRegisteredFromSignupEvent" style="stroke:#181818;stroke-width:1.0;stroke-dasharray:7.0,7.0;"/><polygon fill="none" points="335.49,90.01,321.1472,102.4311,331.4684,108.5526,335.49,90.01" style="stroke:#181818;stroke-width:1.0;"/></g><text fill="#888888" font-family="sans-serif" font-size="10" lengthAdjust="spacing" textLength="184" x="153.5" y="328.2246">UMLDoclet 2.1.1, PlantUML 1.2023.12</text><!--SRC=[jPHDIyD048Rl_ef145hQBbPwAaLGgo1O4QLUgeTnCqqNzoFCRYfQ-z_TfBL-D5WADeSapBxpxfEPsG00U0fWqP3FKD8TPSWO78DrblRYCanKGa0c2wymLgGJ_pjgA4nS39TngT5xsEzvzKRTTkVucbw6dlYMKkK3CIKNxCoTIcsUdK_9XWUxb1uUQyou8tpquhYto4DS9eCMKpBnLIJEeBA2YZI_3-XXgmon2GL6eqqICGb6Fpx2hFpMufhvW479ERHYda9zJ-oLiyFBVXUqi-bAs38aqRgKCPieUPsR9-8k3DQ3NnbsGTE5ubwqQBNKs0HQgp1khdpgNqOLLBNwtroDV6bJ27-WpHSpW4y-CCgmDWpziXybu2bw-jPxmamhCURezEBukQBNVoh4B-SIGyLXu74Swcg2tUp-VJG-wp27XfCovzYcar0KxGmrsGIvKighdbQ8bnNUgXZGUs-r_lciR4SH2OJO1O4iB1Z6pXMFuU2gxwIE_xCZqHRj9jnej256uM2wE9Qr-WS0]--></g></svg>