<?xml version="1.0" encoding="us-ascii" standalone="no"?><svg xmlns="http://www.w3.org/2000/svg" xmlns:xlink="http://www.w3.org/1999/xlink" contentStyleType="text/css" height="450px" preserveAspectRatio="none" style="width:908px;height:450px;background:#FFFFFF;" version="1.1" viewBox="0 0 908 450" width="908px" zoomAndPan="magnify"><defs/><g><!--cluster lapr4.shodrone.utentemanagement.domain.events--><g id="cluster_lapr4.shodrone.utentemanagement.domain.events"><path d="M8.5,183 L364.5,183 A3.75,3.75 0 0 1 367,185.5 L374,206.6094 L898.5,206.6094 A2.5,2.5 0 0 1 901,209.1094 L901,421.5 A2.5,2.5 0 0 1 898.5,424 L8.5,424 A2.5,2.5 0 0 1 6,421.5 L6,185.5 A2.5,2.5 0 0 1 8.5,183 " fill="none" style="stroke:#000000;stroke-width:1.5;"/><line style="stroke:#000000;stroke-width:1.5;" x1="6" x2="374" y1="206.6094" y2="206.6094"/><text fill="#000000" font-family="sans-serif" font-size="14" font-weight="bold" lengthAdjust="spacing" textLength="355" x="10" y="199.5332">lapr4.shodrone.utentemanagement.domain.events</text></g><!--cluster eapli.framework.domain.events--><g id="cluster_eapli.framework.domain.events"><path d="M331.5,6 L552.5,6 A3.75,3.75 0 0 1 555,8.5 L562,29.6094 L742.5,29.6094 A2.5,2.5 0 0 1 745,32.1094 L745,156.5 A2.5,2.5 0 0 1 742.5,159 L331.5,159 A2.5,2.5 0 0 1 329,156.5 L329,8.5 A2.5,2.5 0 0 1 331.5,6 " fill="none" style="stroke:#000000;stroke-width:1.5;"/><line style="stroke:#000000;stroke-width:1.5;" x1="329" x2="562" y1="29.6094" y2="29.6094"/><text fill="#000000" font-family="sans-serif" font-size="14" font-weight="bold" lengthAdjust="spacing" textLength="220" x="333" y="22.5332">eapli.framework.domain.events</text></g><!--class NewUserRegisteredFromSignupEvent--><a href="NewUserRegisteredFromSignupEvent.html" target="_top" title="NewUserRegisteredFromSignupEvent.html" xlink:actuate="onRequest" xlink:href="NewUserRegisteredFromSignupEvent.html" xlink:show="new" xlink:title="NewUserRegisteredFromSignupEvent.html" xlink:type="simple"><g id="elem_NewUserRegisteredFromSignupEvent"><rect codeLine="5" fill="#F1F1F1" height="153.6563" id="NewUserRegisteredFromSignupEvent" rx="2.5" ry="2.5" style="stroke:#181818;stroke-width:0.5;" width="491" x="393.5" y="236.5"/><ellipse cx="516.25" cy="252.5" fill="#ADD1B2" rx="11" ry="11" style="stroke:#181818;stroke-width:1.0;"/><path d="M519.0156,248.375 Q519.1719,248.1563 519.3594,248.0469 Q519.5469,247.9375 519.7656,247.9375 Q520.1406,247.9375 520.375,248.2031 Q520.6094,248.4531 520.6094,249.0625 L520.6094,250.5156 Q520.6094,251.125 520.375,251.3906 Q520.1406,251.6563 519.7656,251.6563 Q519.4219,251.6563 519.2188,251.4531 Q519.0156,251.2656 518.9063,250.75 Q518.8594,250.3906 518.6719,250.2031 Q518.3438,249.8281 517.7344,249.6094 Q517.125,249.3906 516.5,249.3906 Q515.7344,249.3906 515.0938,249.7188 Q514.4688,250.0469 513.9688,250.7969 Q513.4844,251.5469 513.4844,252.5781 L513.4844,253.6719 Q513.4844,254.9063 514.375,255.7344 Q515.2656,256.5469 516.8594,256.5469 Q517.7969,256.5469 518.4531,256.2969 Q518.8438,256.1406 519.2656,255.7031 Q519.5313,255.4375 519.6719,255.3594 Q519.8281,255.2813 520.0313,255.2813 Q520.3594,255.2813 520.6094,255.5469 Q520.875,255.7969 520.875,256.1406 Q520.875,256.4844 520.5313,256.8906 Q520.0313,257.4688 519.2344,257.7969 Q518.1563,258.25 516.8594,258.25 Q515.3438,258.25 514.1406,257.625 Q513.1563,257.125 512.4688,256.0625 Q511.7813,254.9844 511.7813,253.7031 L511.7813,252.5469 Q511.7813,251.2188 512.3906,250.0781 Q513.0156,248.9219 514.1094,248.3125 Q515.2031,247.6875 516.4375,247.6875 Q517.1719,247.6875 517.8125,247.8594 Q518.4688,248.0156 519.0156,248.375 Z " fill="#000000"/><text fill="#000000" font-family="sans-serif" font-size="14" lengthAdjust="spacing" textLength="237" x="536.75" y="258.2285">NewUserRegisteredFromSignupEvent</text><line style="stroke:#181818;stroke-width:0.5;" x1="394.5" x2="883.5" y1="268.5" y2="268.5"/><rect fill="none" height="6" style="stroke:#C82930;stroke-width:1.0;" width="6" x="401.5" y="279.8047"/><text fill="#000000" font-family="sans-serif" font-size="14" lengthAdjust="spacing" text-decoration="underline" textLength="139" x="413.5" y="287.0332">serialVersionUID: long</text><rect fill="none" height="6" style="stroke:#C82930;stroke-width:1.0;" width="6" x="401.5" y="297.4141"/><text fill="#000000" font-family="sans-serif" font-size="14" lengthAdjust="spacing" textLength="300" x="413.5" y="304.6426">mecanographicNumber: MecanographicNumber</text><rect fill="none" height="6" style="stroke:#C82930;stroke-width:1.0;" width="6" x="401.5" y="315.0234"/><text fill="#000000" font-family="sans-serif" font-size="14" lengthAdjust="spacing" textLength="126" x="413.5" y="322.252">newUser: Username</text><line style="stroke:#181818;stroke-width:0.5;" x1="394.5" x2="883.5" y1="329.3281" y2="329.3281"/><ellipse cx="404.5" cy="343.6328" fill="#84BE84" rx="3" ry="3" style="stroke:#038048;stroke-width:1.0;"/><text fill="#000000" font-family="sans-serif" font-size="14" lengthAdjust="spacing" textLength="465" x="413.5" y="347.8613">NewUserRegisteredFromSignupEvent(MecanographicNumber, Username)</text><ellipse cx="404.5" cy="361.2422" fill="#84BE84" rx="3" ry="3" style="stroke:#038048;stroke-width:1.0;"/><text fill="#000000" font-family="sans-serif" font-size="14" lengthAdjust="spacing" textLength="310" x="413.5" y="365.4707">mecanographicNumber(): MecanographicNumber</text><ellipse cx="404.5" cy="378.8516" fill="#84BE84" rx="3" ry="3" style="stroke:#038048;stroke-width:1.0;"/><text fill="#000000" font-family="sans-serif" font-size="14" lengthAdjust="spacing" textLength="145" x="413.5" y="383.0801">username(): Username</text></g></a><!--class SignupAcceptedEvent--><a href="SignupAcceptedEvent.html" target="_top" title="SignupAcceptedEvent.html" xlink:actuate="onRequest" xlink:href="SignupAcceptedEvent.html" xlink:show="new" xlink:title="SignupAcceptedEvent.html" xlink:type="simple"><g id="elem_SignupAcceptedEvent"><rect codeLine="14" fill="#F1F1F1" height="188.875" id="SignupAcceptedEvent" rx="2.5" ry="2.5" style="stroke:#181818;stroke-width:0.5;" width="336" x="22" y="219"/><ellipse cx="116.25" cy="235" fill="#ADD1B2" rx="11" ry="11" style="stroke:#181818;stroke-width:1.0;"/><path d="M119.0156,230.875 Q119.1719,230.6563 119.3594,230.5469 Q119.5469,230.4375 119.7656,230.4375 Q120.1406,230.4375 120.375,230.7031 Q120.6094,230.9531 120.6094,231.5625 L120.6094,233.0156 Q120.6094,233.625 120.375,233.8906 Q120.1406,234.1563 119.7656,234.1563 Q119.4219,234.1563 119.2188,233.9531 Q119.0156,233.7656 118.9063,233.25 Q118.8594,232.8906 118.6719,232.7031 Q118.3438,232.3281 117.7344,232.1094 Q117.125,231.8906 116.5,231.8906 Q115.7344,231.8906 115.0938,232.2188 Q114.4688,232.5469 113.9688,233.2969 Q113.4844,234.0469 113.4844,235.0781 L113.4844,236.1719 Q113.4844,237.4063 114.375,238.2344 Q115.2656,239.0469 116.8594,239.0469 Q117.7969,239.0469 118.4531,238.7969 Q118.8438,238.6406 119.2656,238.2031 Q119.5313,237.9375 119.6719,237.8594 Q119.8281,237.7813 120.0313,237.7813 Q120.3594,237.7813 120.6094,238.0469 Q120.875,238.2969 120.875,238.6406 Q120.875,238.9844 120.5313,239.3906 Q120.0313,239.9688 119.2344,240.2969 Q118.1563,240.75 116.8594,240.75 Q115.3438,240.75 114.1406,240.125 Q113.1563,239.625 112.4688,238.5625 Q111.7813,237.4844 111.7813,236.2031 L111.7813,235.0469 Q111.7813,233.7188 112.3906,232.5781 Q113.0156,231.4219 114.1094,230.8125 Q115.2031,230.1875 116.4375,230.1875 Q117.1719,230.1875 117.8125,230.3594 Q118.4688,230.5156 119.0156,230.875 Z " fill="#000000"/><text fill="#000000" font-family="sans-serif" font-size="14" lengthAdjust="spacing" textLength="139" x="136.75" y="240.7285">SignupAcceptedEvent</text><line style="stroke:#181818;stroke-width:0.5;" x1="23" x2="357" y1="251" y2="251"/><rect fill="none" height="6" style="stroke:#C82930;stroke-width:1.0;" width="6" x="30" y="262.3047"/><text fill="#000000" font-family="sans-serif" font-size="14" lengthAdjust="spacing" text-decoration="underline" textLength="139" x="42" y="269.5332">serialVersionUID: long</text><rect fill="none" height="6" style="stroke:#C82930;stroke-width:1.0;" width="6" x="30" y="279.9141"/><text fill="#000000" font-family="sans-serif" font-size="14" lengthAdjust="spacing" textLength="222" x="42" y="287.1426">theSignupRequest: SignupRequest</text><line style="stroke:#181818;stroke-width:0.5;" x1="23" x2="357" y1="294.2188" y2="294.2188"/><ellipse cx="33" cy="308.5234" fill="#84BE84" rx="3" ry="3" style="stroke:#038048;stroke-width:1.0;"/><text fill="#000000" font-family="sans-serif" font-size="14" lengthAdjust="spacing" textLength="246" x="42" y="312.752">SignupAcceptedEvent(SignupRequest)</text><ellipse cx="33" cy="326.1328" fill="#84BE84" rx="3" ry="3" style="stroke:#038048;stroke-width:1.0;"/><text fill="#000000" font-family="sans-serif" font-size="14" lengthAdjust="spacing" textLength="145" x="42" y="330.3613">username(): Username</text><ellipse cx="33" cy="343.7422" fill="#84BE84" rx="3" ry="3" style="stroke:#038048;stroke-width:1.0;"/><text fill="#000000" font-family="sans-serif" font-size="14" lengthAdjust="spacing" textLength="139" x="42" y="347.9707">password(): Password</text><ellipse cx="33" cy="361.3516" fill="#84BE84" rx="3" ry="3" style="stroke:#038048;stroke-width:1.0;"/><text fill="#000000" font-family="sans-serif" font-size="14" lengthAdjust="spacing" textLength="89" x="42" y="365.5801">name(): Name</text><ellipse cx="33" cy="378.9609" fill="#84BE84" rx="3" ry="3" style="stroke:#038048;stroke-width:1.0;"/><text fill="#000000" font-family="sans-serif" font-size="14" lengthAdjust="spacing" textLength="137" x="42" y="383.1895">email(): EmailAddress</text><ellipse cx="33" cy="396.5703" fill="#84BE84" rx="3" ry="3" style="stroke:#038048;stroke-width:1.0;"/><text fill="#000000" font-family="sans-serif" font-size="14" lengthAdjust="spacing" textLength="310" x="42" y="400.7988">mecanographicNumber(): MecanographicNumber</text></g></a><!--class DomainEventBase--><g id="elem_DomainEventBase"><rect codeLine="28" fill="#F1F1F1" height="100.8281" id="DomainEventBase" rx="2.5" ry="2.5" style="stroke:#181818;stroke-width:0.5;" width="169" x="345.5" y="42"/><ellipse cx="370.4" cy="58" fill="#A9DCDF" rx="11" ry="11" style="stroke:#181818;stroke-width:1.0;"/><path d="M372.5875,59.7656 L368.4469,59.7656 L368.025,60.7969 L368.4469,60.7969 Q369.0563,60.7969 369.3219,61.0313 Q369.5875,61.2656 369.5875,61.6563 Q369.5875,62.0313 369.3219,62.2656 Q369.0563,62.5 368.4469,62.5 L366.15,62.5 Q365.5406,62.5 365.2906,62.2656 Q365.025,62.0313 365.025,61.6406 Q365.025,61.2656 365.3063,61.0313 Q365.5719,60.7813 366.1969,60.7969 L368.8688,54.1406 L367.7594,54.1406 Q367.15,54.1406 366.8844,53.9063 Q366.6188,53.6719 366.6188,53.2813 Q366.6188,52.9063 366.8844,52.6719 Q367.15,52.4375 367.7594,52.4375 L371.4313,52.4375 L374.8219,60.7969 Q375.4156,60.7969 375.6031,60.9375 Q375.9938,61.2031 375.9938,61.6563 Q375.9938,62.0313 375.7281,62.2656 Q375.4781,62.5 374.8688,62.5 L372.5719,62.5 Q371.9625,62.5 371.6969,62.2656 Q371.4313,62.0313 371.4313,61.6406 Q371.4313,61.2656 371.6969,61.0313 Q371.9625,60.7969 372.5719,60.7969 L372.9938,60.7969 L372.5875,59.7656 Z M371.8688,58.0625 L370.5094,54.6875 L369.1344,58.0625 L371.8688,58.0625 Z " fill="#000000"/><text fill="#000000" font-family="sans-serif" font-size="14" font-style="italic" lengthAdjust="spacing" textLength="115" x="386.6" y="63.7285">DomainEventBase</text><line style="stroke:#181818;stroke-width:0.5;" x1="346.5" x2="513.5" y1="74" y2="74"/><rect fill="none" height="6" style="stroke:#C82930;stroke-width:1.0;" width="6" x="353.5" y="85.3047"/><text fill="#000000" font-family="sans-serif" font-size="14" lengthAdjust="spacing" text-decoration="underline" textLength="139" x="365.5" y="92.5332">serialVersionUID: long</text><rect fill="none" height="6" style="stroke:#C82930;stroke-width:1.0;" width="6" x="353.5" y="102.9141"/><text fill="#000000" font-family="sans-serif" font-size="14" lengthAdjust="spacing" textLength="130" x="365.5" y="110.1426">occuredAt: Calendar</text><rect fill="none" height="6" style="stroke:#C82930;stroke-width:1.0;" width="6" x="353.5" y="120.5234"/><text fill="#000000" font-family="sans-serif" font-size="14" lengthAdjust="spacing" textLength="143" x="365.5" y="127.752">registeredAt: Calendar</text><line style="stroke:#181818;stroke-width:0.5;" x1="346.5" x2="513.5" y1="134.8281" y2="134.8281"/></g><!--class DomainEvent--><g id="elem_DomainEvent"><rect codeLine="33" fill="#F1F1F1" height="83.2188" id="DomainEvent" rx="2.5" ry="2.5" style="stroke:#181818;stroke-width:0.5;" width="179" x="549.5" y="51"/><ellipse cx="593.3" cy="67" fill="#B4A7E5" rx="11" ry="11" style="stroke:#181818;stroke-width:1.0;"/><path d="M594.2531,63.6406 L594.2531,70.2969 L595.9719,70.2969 Q596.5813,70.2969 596.8469,70.5313 Q597.1125,70.7656 597.1125,71.1563 Q597.1125,71.5313 596.8469,71.7656 Q596.5813,72 595.9719,72 L590.8313,72 Q590.2219,72 589.9563,71.7656 Q589.6906,71.5313 589.6906,71.1406 Q589.6906,70.7656 589.9563,70.5313 Q590.2219,70.2969 590.8313,70.2969 L592.55,70.2969 L592.55,63.6406 L590.8313,63.6406 Q590.2219,63.6406 589.9563,63.4063 Q589.6906,63.1719 589.6906,62.7813 Q589.6906,62.4063 589.9563,62.1719 Q590.2219,61.9375 590.8313,61.9375 L595.9719,61.9375 Q596.5813,61.9375 596.8469,62.1719 Q597.1125,62.4063 597.1125,62.7813 Q597.1125,63.1719 596.8469,63.4063 Q596.5813,63.6406 595.9719,63.6406 L594.2531,63.6406 Z " fill="#000000"/><text fill="#000000" font-family="sans-serif" font-size="14" font-style="italic" lengthAdjust="spacing" textLength="83" x="613.7" y="72.7285">DomainEvent</text><line style="stroke:#181818;stroke-width:0.5;" x1="550.5" x2="727.5" y1="83" y2="83"/><line style="stroke:#181818;stroke-width:0.5;" x1="550.5" x2="727.5" y1="91" y2="91"/><ellipse cx="560.5" cy="105.3047" fill="#84BE84" rx="3" ry="3" style="stroke:#038048;stroke-width:1.0;"/><text fill="#000000" font-family="sans-serif" font-size="14" font-style="italic" lengthAdjust="spacing" textLength="145" x="569.5" y="109.5332">occurredAt(): Calendar</text><ellipse cx="560.5" cy="122.9141" fill="#84BE84" rx="3" ry="3" style="stroke:#038048;stroke-width:1.0;"/><text fill="#000000" font-family="sans-serif" font-size="14" font-style="italic" lengthAdjust="spacing" textLength="153" x="569.5" y="127.1426">registeredAt(): Calendar</text></g><!--reverse link DomainEventBase to NewUserRegisteredFromSignupEvent--><g id="link_DomainEventBase_NewUserRegisteredFromSignupEvent"><path codeLine="39" d="M489.8538,156.2149 C516.1038,183.7349 536.87,205.48 566.33,236.35 " fill="none" id="DomainEventBase-backto-NewUserRegisteredFromSignupEvent" style="stroke:#181818;stroke-width:1.0;"/><polygon fill="none" points="477.43,143.19,485.5122,160.3562,494.1955,152.0736,477.43,143.19" style="stroke:#181818;stroke-width:1.0;"/></g><!--reverse link DomainEvent to NewUserRegisteredFromSignupEvent--><g id="link_DomainEvent_NewUserRegisteredFromSignupEvent"><path codeLine="40" d="M639,152.18 C639,180.75 639,201.84 639,236.14 " fill="none" id="DomainEvent-backto-NewUserRegisteredFromSignupEvent" style="stroke:#181818;stroke-width:1.0;stroke-dasharray:7.0,7.0;"/><polygon fill="none" points="639,134.18,633,152.18,645,152.18,639,134.18" style="stroke:#181818;stroke-width:1.0;"/></g><!--reverse link DomainEventBase to SignupAcceptedEvent--><g id="link_DomainEventBase_SignupAcceptedEvent"><path codeLine="41" d="M362.2442,155.3235 C337.7642,177.6635 321.33,192.66 292.91,218.59 " fill="none" id="DomainEventBase-backto-SignupAcceptedEvent" style="stroke:#181818;stroke-width:1.0;"/><polygon fill="none" points="375.54,143.19,358.1997,150.8916,366.2887,159.7554,375.54,143.19" style="stroke:#181818;stroke-width:1.0;"/></g><text fill="#888888" font-family="sans-serif" font-size="10" lengthAdjust="spacing" textLength="184" x="355" y="440.3809">UMLDoclet 2.1.1, PlantUML 1.2023.12</text><!--SRC=[nLN1JkCm4Btp5ND1QbLg2SJ9ubAs8251XLYL2-8mEDFKmh63xS21pRzZ9sqLjn5LbvNMKX9x_DxupOpj000uyk4fqQ8t5ZW_EWf6A56yOawWiBJdp2rDPeqcLddIdWhKOQu8NPQP0gLcz1u63ZvRScn2eNCmeu-v8_j0kNIUB6NNrXI_PQwhyYfIuEbf7uGjVQ6UduDlwBHFvz5BKSCuS2MgHx9E6Zs_cN9GHkS9U5oGG6roY-LIYbbLl93bSBThJ5cwLSOXlZKMb4oFzWaVz2nmil4rJ9trA1mCzsiSLIjt4RmZizukHwjk8WILdh9r1Ngi_oBfVacjvmTwgyXv3iamZQD7mo213m-8kq6K8U0FOxE8k5_rKyIQFzlXXXqkLPowYfr9bbboxiS5MvMZJayOOQaaMzWW8aXytJbHQpQ-E6zH-5KffmsiITGbElfHfOmGLTY_ar2YNwX8PxXr4kncZ_TYwarFXjl1Bb1GLz-sjdKaDOoQbHktCNczYtVXNHszXBgRuMypo_bs1Y_-ZCU7tNUSxxi33jGHD33sdpNyTIvwZd2pj8Wq2mjZucT-TpirGeMVpXaxPQSdSAzG-s25u_Tsamw6Nm00]--></g></svg>