<?xml version="1.0" encoding="us-ascii" standalone="no"?><svg xmlns="http://www.w3.org/2000/svg" xmlns:xlink="http://www.w3.org/1999/xlink" contentStyleType="text/css" height="330px" preserveAspectRatio="none" style="width:350px;height:330px;background:#FFFFFF;" version="1.1" viewBox="0 0 350 330" width="350px" zoomAndPan="magnify"><defs/><g><!--class lapr4.shodrone.utentemanagement.domain.events.SignupAcceptedEvent--><a href="SignupAcceptedEvent.html" target="_top" title="SignupAcceptedEvent.html" xlink:actuate="onRequest" xlink:href="SignupAcceptedEvent.html" xlink:show="new" xlink:title="SignupAcceptedEvent.html" xlink:type="simple"><g id="elem_lapr4.shodrone.utentemanagement.domain.events.SignupAcceptedEvent"><rect codeLine="5" fill="#F1F1F1" height="197.0625" id="lapr4.shodrone.utentemanagement.domain.events.SignupAcceptedEvent" rx="2.5" ry="2.5" style="stroke:#181818;stroke-width:0.5;" width="336" x="7" y="107"/><ellipse cx="51.75" cy="127.0938" fill="#ADD1B2" rx="11" ry="11" style="stroke:#181818;stroke-width:1.0;"/><path d="M54.5156,122.9688 Q54.6719,122.75 54.8594,122.6406 Q55.0469,122.5313 55.2656,122.5313 Q55.6406,122.5313 55.875,122.7969 Q56.1094,123.0469 56.1094,123.6563 L56.1094,125.1094 Q56.1094,125.7188 55.875,125.9844 Q55.6406,126.25 55.2656,126.25 Q54.9219,126.25 54.7188,126.0469 Q54.5156,125.8594 54.4063,125.3438 Q54.3594,124.9844 54.1719,124.7969 Q53.8438,124.4219 53.2344,124.2031 Q52.625,123.9844 52,123.9844 Q51.2344,123.9844 50.5938,124.3125 Q49.9688,124.6406 49.4688,125.3906 Q48.9844,126.1406 48.9844,127.1719 L48.9844,128.2656 Q48.9844,129.5 49.875,130.3281 Q50.7656,131.1406 52.3594,131.1406 Q53.2969,131.1406 53.9531,130.8906 Q54.3438,130.7344 54.7656,130.2969 Q55.0313,130.0313 55.1719,129.9531 Q55.3281,129.875 55.5313,129.875 Q55.8594,129.875 56.1094,130.1406 Q56.375,130.3906 56.375,130.7344 Q56.375,131.0781 56.0313,131.4844 Q55.5313,132.0625 54.7344,132.3906 Q53.6563,132.8438 52.3594,132.8438 Q50.8438,132.8438 49.6406,132.2188 Q48.6563,131.7188 47.9688,130.6563 Q47.2813,129.5781 47.2813,128.2969 L47.2813,127.1406 Q47.2813,125.8125 47.8906,124.6719 Q48.5156,123.5156 49.6094,122.9063 Q50.7031,122.2813 51.9375,122.2813 Q52.6719,122.2813 53.3125,122.4531 Q53.9688,122.6094 54.5156,122.9688 Z " fill="#000000"/><text fill="#000000" font-family="sans-serif" font-size="14" lengthAdjust="spacing" textLength="139" x="121.75" y="126.5332">SignupAcceptedEvent</text><text fill="#000000" font-family="sans-serif" font-size="10" lengthAdjust="spacing" textLength="238" x="72.25" y="139.9902">lapr4.shodrone.utentemanagement.domain.events</text><line style="stroke:#181818;stroke-width:0.5;" x1="8" x2="342" y1="147.1875" y2="147.1875"/><rect fill="none" height="6" style="stroke:#C82930;stroke-width:1.0;" width="6" x="15" y="158.4922"/><text fill="#000000" font-family="sans-serif" font-size="14" lengthAdjust="spacing" text-decoration="underline" textLength="139" x="27" y="165.7207">serialVersionUID: long</text><rect fill="none" height="6" style="stroke:#C82930;stroke-width:1.0;" width="6" x="15" y="176.1016"/><text fill="#000000" font-family="sans-serif" font-size="14" lengthAdjust="spacing" textLength="222" x="27" y="183.3301">theSignupRequest: SignupRequest</text><line style="stroke:#181818;stroke-width:0.5;" x1="8" x2="342" y1="190.4063" y2="190.4063"/><ellipse cx="18" cy="204.7109" fill="#84BE84" rx="3" ry="3" style="stroke:#038048;stroke-width:1.0;"/><text fill="#000000" font-family="sans-serif" font-size="14" lengthAdjust="spacing" textLength="246" x="27" y="208.9395">SignupAcceptedEvent(SignupRequest)</text><ellipse cx="18" cy="222.3203" fill="#84BE84" rx="3" ry="3" style="stroke:#038048;stroke-width:1.0;"/><text fill="#000000" font-family="sans-serif" font-size="14" lengthAdjust="spacing" textLength="145" x="27" y="226.5488">username(): Username</text><ellipse cx="18" cy="239.9297" fill="#84BE84" rx="3" ry="3" style="stroke:#038048;stroke-width:1.0;"/><text fill="#000000" font-family="sans-serif" font-size="14" lengthAdjust="spacing" textLength="139" x="27" y="244.1582">password(): Password</text><ellipse cx="18" cy="257.5391" fill="#84BE84" rx="3" ry="3" style="stroke:#038048;stroke-width:1.0;"/><text fill="#000000" font-family="sans-serif" font-size="14" lengthAdjust="spacing" textLength="89" x="27" y="261.7676">name(): Name</text><ellipse cx="18" cy="275.1484" fill="#84BE84" rx="3" ry="3" style="stroke:#038048;stroke-width:1.0;"/><text fill="#000000" font-family="sans-serif" font-size="14" lengthAdjust="spacing" textLength="137" x="27" y="279.377">email(): EmailAddress</text><ellipse cx="18" cy="292.7578" fill="#84BE84" rx="3" ry="3" style="stroke:#038048;stroke-width:1.0;"/><text fill="#000000" font-family="sans-serif" font-size="14" lengthAdjust="spacing" textLength="310" x="27" y="296.9863">mecanographicNumber(): MecanographicNumber</text></g></a><!--class eapli.framework.domain.events.DomainEventBase--><g id="elem_eapli.framework.domain.events.DomainEventBase"><rect codeLine="16" fill="#F1F1F1" height="40.1875" id="eapli.framework.domain.events.DomainEventBase" rx="2.5" ry="2.5" style="stroke:#181818;stroke-width:0.5;" width="177" x="86.5" y="7"/><ellipse cx="101.5" cy="27.0938" fill="#A9DCDF" rx="11" ry="11" style="stroke:#181818;stroke-width:1.0;"/><path d="M103.6875,28.8594 L99.5469,28.8594 L99.125,29.8906 L99.5469,29.8906 Q100.1563,29.8906 100.4219,30.125 Q100.6875,30.3594 100.6875,30.75 Q100.6875,31.125 100.4219,31.3594 Q100.1563,31.5938 99.5469,31.5938 L97.25,31.5938 Q96.6406,31.5938 96.3906,31.3594 Q96.125,31.125 96.125,30.7344 Q96.125,30.3594 96.4063,30.125 Q96.6719,29.875 97.2969,29.8906 L99.9688,23.2344 L98.8594,23.2344 Q98.25,23.2344 97.9844,23 Q97.7188,22.7656 97.7188,22.375 Q97.7188,22 97.9844,21.7656 Q98.25,21.5313 98.8594,21.5313 L102.5313,21.5313 L105.9219,29.8906 Q106.5156,29.8906 106.7031,30.0313 Q107.0938,30.2969 107.0938,30.75 Q107.0938,31.125 106.8281,31.3594 Q106.5781,31.5938 105.9688,31.5938 L103.6719,31.5938 Q103.0625,31.5938 102.7969,31.3594 Q102.5313,31.125 102.5313,30.7344 Q102.5313,30.3594 102.7969,30.125 Q103.0625,29.8906 103.6719,29.8906 L104.0938,29.8906 L103.6875,28.8594 Z M102.9688,27.1563 L101.6094,23.7813 L100.2344,27.1563 L102.9688,27.1563 Z " fill="#000000"/><text fill="#000000" font-family="sans-serif" font-size="14" font-style="italic" lengthAdjust="spacing" textLength="115" x="130.5" y="26.5332">DomainEventBase</text><text fill="#000000" font-family="sans-serif" font-size="10" font-style="italic" lengthAdjust="spacing" textLength="145" x="115.5" y="39.9902">eapli.framework.domain.events</text></g><!--reverse link eapli.framework.domain.events.DomainEventBase to lapr4.shodrone.utentemanagement.domain.events.SignupAcceptedEvent--><g id="link_eapli.framework.domain.events.DomainEventBase_lapr4.shodrone.utentemanagement.domain.events.SignupAcceptedEvent"><path codeLine="18" d="M175,65.22 C175,80.15 175,84.06 175,106.83 " fill="none" id="eapli.framework.domain.events.DomainEventBase-backto-lapr4.shodrone.utentemanagement.domain.events.SignupAcceptedEvent" style="stroke:#181818;stroke-width:1.0;"/><polygon fill="none" points="175,47.22,169,65.22,181,65.22,175,47.22" style="stroke:#181818;stroke-width:1.0;"/></g><text fill="#888888" font-family="sans-serif" font-size="10" lengthAdjust="spacing" textLength="184" x="76" y="320.4434">UMLDoclet 2.1.1, PlantUML 1.2023.12</text><!--SRC=[fLDBImCn4BxxAmP1QD46AvwA29Ns85WHfLwqXsbssWtcPIQh-Fhl9hlLsbg4ubvszdja9lco001C4ImQOe-IRiXZmEW2M6Tf9z5GgeA0Z8ylC5Ea2rv73SNI9RZ6fKPcs3rXzKgzxl7fZPhRolUb91-f63wHZVTsmHwUQlJXM72oXzHEL37HPD3Yd4mgHU4CAYiestWNa64hXzZG7UxkDg2YZ4PF9l1MRo8_RnmnAla17QQWKDzIOENi-7pG0-ti_5lOYIKrArxJOqKSUx3o-ItStz2tjI9jBxLLwffJQRLxC5xKIzQdGtvseSZirQ9Uib- -onLFEYMbCppCHRye0Z4lQKCIhPi7zAMIbvMPKiZYqM-uzdmqSUEKOq0PV-K-g7EeztY6J3yo9_HQYLb8mwMn7pPa_AT2hAtSpB6L1KxUEvt_twJclcTNW9bp-JKUNGoSrEcFEX9TqJs0Auqs9XJsdfhxqsf_0W00]--></g></svg>