<?xml version="1.0" encoding="us-ascii" standalone="no"?><svg xmlns="http://www.w3.org/2000/svg" xmlns:xlink="http://www.w3.org/1999/xlink" contentStyleType="text/css" height="327px" preserveAspectRatio="none" style="width:598px;height:327px;background:#FFFFFF;" version="1.1" viewBox="0 0 598 327" width="598px" zoomAndPan="magnify"><defs/><g><!--cluster lapr4.shodrone.usermanagement.application.eventhandlers--><g id="cluster_lapr4.shodrone.usermanagement.application.eventhandlers"><path d="M8.5,148 L430.5,148 A3.75,3.75 0 0 1 433,150.5 L440,171.6094 L588.5,171.6094 A2.5,2.5 0 0 1 591,174.1094 L591,298.5 A2.5,2.5 0 0 1 588.5,301 L8.5,301 A2.5,2.5 0 0 1 6,298.5 L6,150.5 A2.5,2.5 0 0 1 8.5,148 " fill="none" style="stroke:#000000;stroke-width:1.5;"/><line style="stroke:#000000;stroke-width:1.5;" x1="6" x2="440" y1="171.6094" y2="171.6094"/><text fill="#000000" font-family="sans-serif" font-size="14" font-weight="bold" lengthAdjust="spacing" textLength="421" x="10" y="164.5332">lapr4.shodrone.usermanagement.application.eventhandlers</text></g><!--cluster eapli.framework.infrastructure.pubsub--><g id="cluster_eapli.framework.infrastructure.pubsub"><path d="M9.5,6 L280.5,6 A3.75,3.75 0 0 1 283,8.5 L290,29.6094 L290.5,29.6094 A2.5,2.5 0 0 1 293,32.1094 L293,121.5 A2.5,2.5 0 0 1 290.5,124 L9.5,124 A2.5,2.5 0 0 1 7,121.5 L7,8.5 A2.5,2.5 0 0 1 9.5,6 " fill="none" style="stroke:#000000;stroke-width:1.5;"/><line style="stroke:#000000;stroke-width:1.5;" x1="7" x2="290" y1="29.6094" y2="29.6094"/><text fill="#000000" font-family="sans-serif" font-size="14" font-weight="bold" lengthAdjust="spacing" textLength="270" x="11" y="22.5332">eapli.framework.infrastructure.pubsub</text></g><!--class AddUserOnSignupAcceptedController--><a href="AddUserOnSignupAcceptedController.html" target="_top" title="AddUserOnSignupAcceptedController.html" xlink:actuate="onRequest" xlink:href="AddUserOnSignupAcceptedController.html" xlink:show="new" xlink:title="AddUserOnSignupAcceptedController.html" xlink:type="simple"><g id="elem_AddUserOnSignupAcceptedController"><rect codeLine="5" fill="#F1F1F1" height="100.8281" id="AddUserOnSignupAcceptedController" rx="2.5" ry="2.5" style="stroke:#181818;stroke-width:0.5;" width="311" x="263.5" y="184"/><ellipse cx="296.95" cy="200" fill="#ADD1B2" rx="11" ry="11" style="stroke:#181818;stroke-width:1.0;"/><path d="M299.7156,195.875 Q299.8719,195.6563 300.0594,195.5469 Q300.2469,195.4375 300.4656,195.4375 Q300.8406,195.4375 301.075,195.7031 Q301.3094,195.9531 301.3094,196.5625 L301.3094,198.0156 Q301.3094,198.625 301.075,198.8906 Q300.8406,199.1563 300.4656,199.1563 Q300.1219,199.1563 299.9188,198.9531 Q299.7156,198.7656 299.6063,198.25 Q299.5594,197.8906 299.3719,197.7031 Q299.0438,197.3281 298.4344,197.1094 Q297.825,196.8906 297.2,196.8906 Q296.4344,196.8906 295.7938,197.2188 Q295.1688,197.5469 294.6688,198.2969 Q294.1844,199.0469 294.1844,200.0781 L294.1844,201.1719 Q294.1844,202.4063 295.075,203.2344 Q295.9656,204.0469 297.5594,204.0469 Q298.4969,204.0469 299.1531,203.7969 Q299.5438,203.6406 299.9656,203.2031 Q300.2313,202.9375 300.3719,202.8594 Q300.5281,202.7813 300.7313,202.7813 Q301.0594,202.7813 301.3094,203.0469 Q301.575,203.2969 301.575,203.6406 Q301.575,203.9844 301.2313,204.3906 Q300.7313,204.9688 299.9344,205.2969 Q298.8563,205.75 297.5594,205.75 Q296.0438,205.75 294.8406,205.125 Q293.8563,204.625 293.1688,203.5625 Q292.4813,202.4844 292.4813,201.2031 L292.4813,200.0469 Q292.4813,198.7188 293.0906,197.5781 Q293.7156,196.4219 294.8094,195.8125 Q295.9031,195.1875 297.1375,195.1875 Q297.8719,195.1875 298.5125,195.3594 Q299.1688,195.5156 299.7156,195.875 Z " fill="#000000"/><text fill="#000000" font-family="sans-serif" font-size="14" lengthAdjust="spacing" textLength="238" x="315.05" y="205.7285">AddUserOnSignupAcceptedController</text><line style="stroke:#181818;stroke-width:0.5;" x1="264.5" x2="573.5" y1="216" y2="216"/><rect fill="none" height="6" style="stroke:#C82930;stroke-width:1.0;" width="6" x="271.5" y="227.3047"/><text fill="#000000" font-family="sans-serif" font-size="14" lengthAdjust="spacing" textLength="201" x="283.5" y="234.5332">userRepository: UserRepository</text><rect fill="none" height="6" style="stroke:#C82930;stroke-width:1.0;" width="6" x="271.5" y="244.9141"/><text fill="#000000" font-family="sans-serif" font-size="14" lengthAdjust="spacing" textLength="169" x="283.5" y="252.1426">dispatcher: EventPublisher</text><line style="stroke:#181818;stroke-width:0.5;" x1="264.5" x2="573.5" y1="259.2188" y2="259.2188"/><ellipse cx="274.5" cy="273.5234" fill="#84BE84" rx="3" ry="3" style="stroke:#038048;stroke-width:1.0;"/><text fill="#000000" font-family="sans-serif" font-size="14" lengthAdjust="spacing" textLength="285" x="283.5" y="277.752">addUser(SignupAcceptedEvent): SystemUser</text></g></a><!--class SignupAcceptedWatchDog--><a href="SignupAcceptedWatchDog.html" target="_top" title="SignupAcceptedWatchDog.html" xlink:actuate="onRequest" xlink:href="SignupAcceptedWatchDog.html" xlink:show="new" xlink:title="SignupAcceptedWatchDog.html" xlink:type="simple"><g id="elem_SignupAcceptedWatchDog"><rect codeLine="11" fill="#F1F1F1" height="83.2188" id="SignupAcceptedWatchDog" rx="2.5" ry="2.5" style="stroke:#181818;stroke-width:0.5;" width="206" x="22" y="193"/><ellipse cx="39.25" cy="209" fill="#ADD1B2" rx="11" ry="11" style="stroke:#181818;stroke-width:1.0;"/><path d="M42.0156,204.875 Q42.1719,204.6563 42.3594,204.5469 Q42.5469,204.4375 42.7656,204.4375 Q43.1406,204.4375 43.375,204.7031 Q43.6094,204.9531 43.6094,205.5625 L43.6094,207.0156 Q43.6094,207.625 43.375,207.8906 Q43.1406,208.1563 42.7656,208.1563 Q42.4219,208.1563 42.2188,207.9531 Q42.0156,207.7656 41.9063,207.25 Q41.8594,206.8906 41.6719,206.7031 Q41.3438,206.3281 40.7344,206.1094 Q40.125,205.8906 39.5,205.8906 Q38.7344,205.8906 38.0938,206.2188 Q37.4688,206.5469 36.9688,207.2969 Q36.4844,208.0469 36.4844,209.0781 L36.4844,210.1719 Q36.4844,211.4063 37.375,212.2344 Q38.2656,213.0469 39.8594,213.0469 Q40.7969,213.0469 41.4531,212.7969 Q41.8438,212.6406 42.2656,212.2031 Q42.5313,211.9375 42.6719,211.8594 Q42.8281,211.7813 43.0313,211.7813 Q43.3594,211.7813 43.6094,212.0469 Q43.875,212.2969 43.875,212.6406 Q43.875,212.9844 43.5313,213.3906 Q43.0313,213.9688 42.2344,214.2969 Q41.1563,214.75 39.8594,214.75 Q38.3438,214.75 37.1406,214.125 Q36.1563,213.625 35.4688,212.5625 Q34.7813,211.4844 34.7813,210.2031 L34.7813,209.0469 Q34.7813,207.7188 35.3906,206.5781 Q36.0156,205.4219 37.1094,204.8125 Q38.2031,204.1875 39.4375,204.1875 Q40.1719,204.1875 40.8125,204.3594 Q41.4688,204.5156 42.0156,204.875 Z " fill="#000000"/><text fill="#000000" font-family="sans-serif" font-size="14" lengthAdjust="spacing" textLength="169" x="53.75" y="214.7285">SignupAcceptedWatchDog</text><line style="stroke:#181818;stroke-width:0.5;" x1="23" x2="227" y1="225" y2="225"/><rect fill="none" height="6" style="stroke:#C82930;stroke-width:1.0;" width="6" x="30" y="236.3047"/><text fill="#000000" font-family="sans-serif" font-size="14" lengthAdjust="spacing" text-decoration="underline" textLength="113" x="42" y="243.5332">LOGGER: Logger</text><line style="stroke:#181818;stroke-width:0.5;" x1="23" x2="227" y1="250.6094" y2="250.6094"/><ellipse cx="33" cy="264.9141" fill="#84BE84" rx="3" ry="3" style="stroke:#038048;stroke-width:1.0;"/><text fill="#000000" font-family="sans-serif" font-size="14" lengthAdjust="spacing" textLength="180" x="42" y="269.1426">onEvent(DomainEvent): void</text></g></a><!--class EventHandler--><g id="elem_EventHandler"><rect codeLine="19" fill="#F1F1F1" height="65.6094" id="EventHandler" rx="2.5" ry="2.5" style="stroke:#181818;stroke-width:0.5;" width="203" x="23.5" y="42"/><ellipse cx="78.25" cy="58" fill="#B4A7E5" rx="11" ry="11" style="stroke:#181818;stroke-width:1.0;"/><path d="M79.2031,54.6406 L79.2031,61.2969 L80.9219,61.2969 Q81.5313,61.2969 81.7969,61.5313 Q82.0625,61.7656 82.0625,62.1563 Q82.0625,62.5313 81.7969,62.7656 Q81.5313,63 80.9219,63 L75.7813,63 Q75.1719,63 74.9063,62.7656 Q74.6406,62.5313 74.6406,62.1406 Q74.6406,61.7656 74.9063,61.5313 Q75.1719,61.2969 75.7813,61.2969 L77.5,61.2969 L77.5,54.6406 L75.7813,54.6406 Q75.1719,54.6406 74.9063,54.4063 Q74.6406,54.1719 74.6406,53.7813 Q74.6406,53.4063 74.9063,53.1719 Q75.1719,52.9375 75.7813,52.9375 L80.9219,52.9375 Q81.5313,52.9375 81.7969,53.1719 Q82.0625,53.4063 82.0625,53.7813 Q82.0625,54.1719 81.7969,54.4063 Q81.5313,54.6406 80.9219,54.6406 L79.2031,54.6406 Z " fill="#000000"/><text fill="#000000" font-family="sans-serif" font-size="14" font-style="italic" lengthAdjust="spacing" textLength="85" x="98.75" y="63.7285">EventHandler</text><line style="stroke:#181818;stroke-width:0.5;" x1="24.5" x2="225.5" y1="74" y2="74"/><line style="stroke:#181818;stroke-width:0.5;" x1="24.5" x2="225.5" y1="82" y2="82"/><ellipse cx="34.5" cy="96.3047" fill="#84BE84" rx="3" ry="3" style="stroke:#038048;stroke-width:1.0;"/><text fill="#000000" font-family="sans-serif" font-size="14" font-style="italic" lengthAdjust="spacing" textLength="177" x="43.5" y="100.5332">onEvent(DomainEvent): void</text></g><!--reverse link EventHandler to SignupAcceptedWatchDog--><g id="link_EventHandler_SignupAcceptedWatchDog"><path codeLine="24" d="M125,126.25 C125,150.73 125,166.55 125,192.88 " fill="none" id="EventHandler-backto-SignupAcceptedWatchDog" style="stroke:#181818;stroke-width:1.0;stroke-dasharray:7.0,7.0;"/><polygon fill="none" points="125,108.25,119,126.25,131,126.25,125,108.25" style="stroke:#181818;stroke-width:1.0;"/></g><text fill="#888888" font-family="sans-serif" font-size="10" lengthAdjust="spacing" textLength="184" x="200" y="317.3809">UMLDoclet 2.1.1, PlantUML 1.2023.12</text><!--SRC=[dPF1QW8n48RlFiLS2afhmD9JwALKiGUBeaWFuc4sEwx1R1AIh4MixzvPfSKLeTB0ifl9_7- -oMG1028bVZm6J2w0bAqM1y6Zsc11OD279n7NBW_EagWYXH8jhvHaaq3lZLQOjBE2jXnPeyqDXGZxaqqzbC4OuINFvomUsvakRELVb2AVA7zrDWLdM0EBnPyvOfrAirooEvoDRaqr9U-YvX9s4kQDUJCtrz5ZKciA4WOrygJAZ8uyR-JTuucbtKGvAZeIPhkOgAmJVbM7ougRoezwqxuhkCph2zThsyV4nwiEq1sDXyF1LCB85SKbhBD7i7RVbQZj3-JMwVmIxz1iBo4tKAm2blJfmaPeozynXKgbAf3mLHQhx0n9sqHXXOfEP_TsQlSbCsPiWIeTRYGx0xi9ICh6xizVGlpteafvlHj764LrkR1ohdxDtqTzfmp_Be-Y9teFC35e4qVXRijERDtkV0C0]--></g></svg>