<?xml version="1.0" encoding="us-ascii" standalone="no"?><svg xmlns="http://www.w3.org/2000/svg" xmlns:xlink="http://www.w3.org/1999/xlink" contentStyleType="text/css" height="250px" preserveAspectRatio="none" style="width:327px;height:250px;background:#FFFFFF;" version="1.1" viewBox="0 0 327 250" width="327px" zoomAndPan="magnify"><defs/><g><!--class lapr4.shodrone.usermanagement.application.eventhandlers.SignupAcceptedWatchDog--><a href="SignupAcceptedWatchDog.html" target="_top" title="SignupAcceptedWatchDog.html" xlink:actuate="onRequest" xlink:href="SignupAcceptedWatchDog.html" xlink:show="new" xlink:title="SignupAcceptedWatchDog.html" xlink:type="simple"><g id="elem_lapr4.shodrone.usermanagement.application.eventhandlers.SignupAcceptedWatchDog"><rect codeLine="5" fill="#F1F1F1" height="91.4063" id="lapr4.shodrone.usermanagement.application.eventhandlers.SignupAcceptedWatchDog" rx="2.5" ry="2.5" style="stroke:#181818;stroke-width:0.5;" width="313" x="7" y="133"/><ellipse cx="22" cy="153.0938" fill="#ADD1B2" rx="11" ry="11" style="stroke:#181818;stroke-width:1.0;"/><path d="M24.7656,148.9688 Q24.9219,148.75 25.1094,148.6406 Q25.2969,148.5313 25.5156,148.5313 Q25.8906,148.5313 26.125,148.7969 Q26.3594,149.0469 26.3594,149.6563 L26.3594,151.1094 Q26.3594,151.7188 26.125,151.9844 Q25.8906,152.25 25.5156,152.25 Q25.1719,152.25 24.9688,152.0469 Q24.7656,151.8594 24.6563,151.3438 Q24.6094,150.9844 24.4219,150.7969 Q24.0938,150.4219 23.4844,150.2031 Q22.875,149.9844 22.25,149.9844 Q21.4844,149.9844 20.8438,150.3125 Q20.2188,150.6406 19.7188,151.3906 Q19.2344,152.1406 19.2344,153.1719 L19.2344,154.2656 Q19.2344,155.5 20.125,156.3281 Q21.0156,157.1406 22.6094,157.1406 Q23.5469,157.1406 24.2031,156.8906 Q24.5938,156.7344 25.0156,156.2969 Q25.2813,156.0313 25.4219,155.9531 Q25.5781,155.875 25.7813,155.875 Q26.1094,155.875 26.3594,156.1406 Q26.625,156.3906 26.625,156.7344 Q26.625,157.0781 26.2813,157.4844 Q25.7813,158.0625 24.9844,158.3906 Q23.9063,158.8438 22.6094,158.8438 Q21.0938,158.8438 19.8906,158.2188 Q18.9063,157.7188 18.2188,156.6563 Q17.5313,155.5781 17.5313,154.2969 L17.5313,153.1406 Q17.5313,151.8125 18.1406,150.6719 Q18.7656,149.5156 19.8594,148.9063 Q20.9531,148.2813 22.1875,148.2813 Q22.9219,148.2813 23.5625,148.4531 Q24.2188,148.6094 24.7656,148.9688 Z " fill="#000000"/><text fill="#000000" font-family="sans-serif" font-size="14" lengthAdjust="spacing" textLength="169" x="92" y="152.5332">SignupAcceptedWatchDog</text><text fill="#000000" font-family="sans-serif" font-size="10" lengthAdjust="spacing" textLength="281" x="36" y="165.9902">lapr4.shodrone.usermanagement.application.eventhandlers</text><line style="stroke:#181818;stroke-width:0.5;" x1="8" x2="319" y1="173.1875" y2="173.1875"/><rect fill="none" height="6" style="stroke:#C82930;stroke-width:1.0;" width="6" x="15" y="184.4922"/><text fill="#000000" font-family="sans-serif" font-size="14" lengthAdjust="spacing" text-decoration="underline" textLength="113" x="27" y="191.7207">LOGGER: Logger</text><line style="stroke:#181818;stroke-width:0.5;" x1="8" x2="319" y1="198.7969" y2="198.7969"/><ellipse cx="18" cy="213.1016" fill="#84BE84" rx="3" ry="3" style="stroke:#038048;stroke-width:1.0;"/><text fill="#000000" font-family="sans-serif" font-size="14" lengthAdjust="spacing" textLength="180" x="27" y="217.3301">onEvent(DomainEvent): void</text></g></a><!--class eapli.framework.infrastructure.pubsub.EventHandler--><g id="elem_eapli.framework.infrastructure.pubsub.EventHandler"><rect codeLine="10" fill="#F1F1F1" height="65.7969" id="eapli.framework.infrastructure.pubsub.EventHandler" rx="2.5" ry="2.5" style="stroke:#181818;stroke-width:0.5;" width="208" x="59.5" y="7"/><ellipse cx="74.5" cy="27.0938" fill="#B4A7E5" rx="11" ry="11" style="stroke:#181818;stroke-width:1.0;"/><path d="M75.4531,23.7344 L75.4531,30.3906 L77.1719,30.3906 Q77.7813,30.3906 78.0469,30.625 Q78.3125,30.8594 78.3125,31.25 Q78.3125,31.625 78.0469,31.8594 Q77.7813,32.0938 77.1719,32.0938 L72.0313,32.0938 Q71.4219,32.0938 71.1563,31.8594 Q70.8906,31.625 70.8906,31.2344 Q70.8906,30.8594 71.1563,30.625 Q71.4219,30.3906 72.0313,30.3906 L73.75,30.3906 L73.75,23.7344 L72.0313,23.7344 Q71.4219,23.7344 71.1563,23.5 Q70.8906,23.2656 70.8906,22.875 Q70.8906,22.5 71.1563,22.2656 Q71.4219,22.0313 72.0313,22.0313 L77.1719,22.0313 Q77.7813,22.0313 78.0469,22.2656 Q78.3125,22.5 78.3125,22.875 Q78.3125,23.2656 78.0469,23.5 Q77.7813,23.7344 77.1719,23.7344 L75.4531,23.7344 Z " fill="#000000"/><text fill="#000000" font-family="sans-serif" font-size="14" font-style="italic" lengthAdjust="spacing" textLength="85" x="134" y="26.5332">EventHandler</text><text fill="#000000" font-family="sans-serif" font-size="10" font-style="italic" lengthAdjust="spacing" textLength="176" x="88.5" y="39.9902">eapli.framework.infrastructure.pubsub</text><line style="stroke:#181818;stroke-width:0.5;" x1="60.5" x2="266.5" y1="47.1875" y2="47.1875"/><ellipse cx="70.5" cy="61.4922" fill="#84BE84" rx="3" ry="3" style="stroke:#038048;stroke-width:1.0;"/><text fill="#000000" font-family="sans-serif" font-size="14" font-style="italic" lengthAdjust="spacing" textLength="177" x="79.5" y="65.7207">onEvent(DomainEvent): void</text></g><!--reverse link eapli.framework.infrastructure.pubsub.EventHandler to lapr4.shodrone.usermanagement.application.eventhandlers.SignupAcceptedWatchDog--><g id="link_eapli.framework.infrastructure.pubsub.EventHandler_lapr4.shodrone.usermanagement.application.eventhandlers.SignupAcceptedWatchDog"><path codeLine="14" d="M163.5,91 C163.5,108.81 163.5,113.26 163.5,132.78 " fill="none" id="eapli.framework.infrastructure.pubsub.EventHandler-backto-lapr4.shodrone.usermanagement.application.eventhandlers.SignupAcceptedWatchDog" style="stroke:#181818;stroke-width:1.0;stroke-dasharray:7.0,7.0;"/><polygon fill="none" points="163.5,73,157.5,91,169.5,91,163.5,73" style="stroke:#181818;stroke-width:1.0;"/></g><text fill="#888888" font-family="sans-serif" font-size="10" lengthAdjust="spacing" textLength="184" x="64.5" y="240.7871">UMLDoclet 2.1.1, PlantUML 1.2023.12</text><!--SRC=[hLB1IWCn4Btx5KD1Q563bPvAAGXRwg6YMCH3xM6QdTqDPfEGP2jQ- -_ExeeiqaCfvfBXpSkRcJS100WKmM19mQ6a9Jdq6Aq7OmsTSHeAbH9GwU87P8fq6lwY9SN2CjpWKcC8q9i4zKdZuMYwLBcftAsKv2AbBnXbaTZyrVmGhgSQdH-9m0gUAuega2_HO4ubcIZGEQqaHcMDe2qZ1PfKamyzm00dlXM7cuBLwd125B7KwpNicWdhimkHTUKUhXOFy_diQGmBc-VaVmaNripgalt4bgZQU326hLLfmzctRYaJoMViUyUnXdlNjjhnYP2d4PddJRrR_oQKuJX4NybOUHAkseHgqxXo55DqotGdmmrJKSRziJESK6xo9SG_Bw_zV5Jx2PcrzVLylqYirFozRyHG32_XKQE9ZCBvbeLOkJ_u1W00]--></g></svg>