<?xml version="1.0" encoding="us-ascii" standalone="no"?><svg xmlns="http://www.w3.org/2000/svg" xmlns:xlink="http://www.w3.org/1999/xlink" contentStyleType="text/css" height="503px" preserveAspectRatio="none" style="width:926px;height:503px;background:#FFFFFF;" version="1.1" viewBox="0 0 926 503" width="926px" zoomAndPan="magnify"><defs/><g><!--cluster lapr4.shodrone.utentemanagement.repositories--><g id="cluster_lapr4.shodrone.utentemanagement.repositories"><path d="M8.5,324 L346.5,324 A3.75,3.75 0 0 1 349,326.5 L356,347.6094 L916.5,347.6094 A2.5,2.5 0 0 1 919,350.1094 L919,474.5 A2.5,2.5 0 0 1 916.5,477 L8.5,477 A2.5,2.5 0 0 1 6,474.5 L6,326.5 A2.5,2.5 0 0 1 8.5,324 " fill="none" style="stroke:#000000;stroke-width:1.5;"/><line style="stroke:#000000;stroke-width:1.5;" x1="6" x2="356" y1="347.6094" y2="347.6094"/><text fill="#000000" font-family="sans-serif" font-size="14" font-weight="bold" lengthAdjust="spacing" textLength="337" x="10" y="340.5332">lapr4.shodrone.utentemanagement.repositories</text></g><!--cluster eapli.framework.domain.repositories--><g id="cluster_eapli.framework.domain.repositories"><path d="M9.5,6 L267.5,6 A3.75,3.75 0 0 1 270,8.5 L277,29.6094 L836.5,29.6094 A2.5,2.5 0 0 1 839,32.1094 L839,297.5 A2.5,2.5 0 0 1 836.5,300 L9.5,300 A2.5,2.5 0 0 1 7,297.5 L7,8.5 A2.5,2.5 0 0 1 9.5,6 " fill="none" style="stroke:#000000;stroke-width:1.5;"/><line style="stroke:#000000;stroke-width:1.5;" x1="7" x2="277" y1="29.6094" y2="29.6094"/><text fill="#000000" font-family="sans-serif" font-size="14" font-weight="bold" lengthAdjust="spacing" textLength="257" x="11" y="22.5332">eapli.framework.domain.repositories</text></g><!--class SignupRequestRepository--><a href="SignupRequestRepository.html" target="_top" title="SignupRequestRepository.html" xlink:actuate="onRequest" xlink:href="SignupRequestRepository.html" xlink:show="new" xlink:title="SignupRequestRepository.html" xlink:type="simple"><g id="elem_SignupRequestRepository"><rect codeLine="5" fill="#F1F1F1" height="65.6094" id="SignupRequestRepository" rx="2.5" ry="2.5" style="stroke:#181818;stroke-width:0.5;" width="360" x="543" y="377.5"/><ellipse cx="636.25" cy="393.5" fill="#B4A7E5" rx="11" ry="11" style="stroke:#181818;stroke-width:1.0;"/><path d="M637.2031,390.1406 L637.2031,396.7969 L638.9219,396.7969 Q639.5313,396.7969 639.7969,397.0313 Q640.0625,397.2656 640.0625,397.6563 Q640.0625,398.0313 639.7969,398.2656 Q639.5313,398.5 638.9219,398.5 L633.7813,398.5 Q633.1719,398.5 632.9063,398.2656 Q632.6406,398.0313 632.6406,397.6406 Q632.6406,397.2656 632.9063,397.0313 Q633.1719,396.7969 633.7813,396.7969 L635.5,396.7969 L635.5,390.1406 L633.7813,390.1406 Q633.1719,390.1406 632.9063,389.9063 Q632.6406,389.6719 632.6406,389.2813 Q632.6406,388.9063 632.9063,388.6719 Q633.1719,388.4375 633.7813,388.4375 L638.9219,388.4375 Q639.5313,388.4375 639.7969,388.6719 Q640.0625,388.9063 640.0625,389.2813 Q640.0625,389.6719 639.7969,389.9063 Q639.5313,390.1406 638.9219,390.1406 L637.2031,390.1406 Z " fill="#000000"/><text fill="#000000" font-family="sans-serif" font-size="14" font-style="italic" lengthAdjust="spacing" textLength="165" x="656.75" y="399.2285">SignupRequestRepository</text><line style="stroke:#181818;stroke-width:0.5;" x1="544" x2="902" y1="409.5" y2="409.5"/><line style="stroke:#181818;stroke-width:0.5;" x1="544" x2="902" y1="417.5" y2="417.5"/><ellipse cx="554" cy="431.8047" fill="#84BE84" rx="3" ry="3" style="stroke:#038048;stroke-width:1.0;"/><text fill="#000000" font-family="sans-serif" font-size="14" font-style="italic" lengthAdjust="spacing" textLength="334" x="563" y="436.0332">pendingSignupRequests(): Iterable&lt;SignupRequest&gt;</text></g></a><!--class UtenteRepository--><a href="UtenteRepository.html" target="_top" title="UtenteRepository.html" xlink:actuate="onRequest" xlink:href="UtenteRepository.html" xlink:show="new" xlink:title="UtenteRepository.html" xlink:type="simple"><g id="elem_UtenteRepository"><rect codeLine="9" fill="#F1F1F1" height="100.8281" id="UtenteRepository" rx="2.5" ry="2.5" style="stroke:#181818;stroke-width:0.5;" width="485" x="22.5" y="360"/><ellipse cx="205.75" cy="376" fill="#B4A7E5" rx="11" ry="11" style="stroke:#181818;stroke-width:1.0;"/><path d="M206.7031,372.6406 L206.7031,379.2969 L208.4219,379.2969 Q209.0313,379.2969 209.2969,379.5313 Q209.5625,379.7656 209.5625,380.1563 Q209.5625,380.5313 209.2969,380.7656 Q209.0313,381 208.4219,381 L203.2813,381 Q202.6719,381 202.4063,380.7656 Q202.1406,380.5313 202.1406,380.1406 Q202.1406,379.7656 202.4063,379.5313 Q202.6719,379.2969 203.2813,379.2969 L205,379.2969 L205,372.6406 L203.2813,372.6406 Q202.6719,372.6406 202.4063,372.4063 Q202.1406,372.1719 202.1406,371.7813 Q202.1406,371.4063 202.4063,371.1719 Q202.6719,370.9375 203.2813,370.9375 L208.4219,370.9375 Q209.0313,370.9375 209.2969,371.1719 Q209.5625,371.4063 209.5625,371.7813 Q209.5625,372.1719 209.2969,372.4063 Q209.0313,372.6406 208.4219,372.6406 L206.7031,372.6406 Z " fill="#000000"/><text fill="#000000" font-family="sans-serif" font-size="14" font-style="italic" lengthAdjust="spacing" textLength="110" x="226.25" y="381.7285">UtenteRepository</text><line style="stroke:#181818;stroke-width:0.5;" x1="23.5" x2="506.5" y1="392" y2="392"/><line style="stroke:#181818;stroke-width:0.5;" x1="23.5" x2="506.5" y1="400" y2="400"/><ellipse cx="33.5" cy="414.3047" fill="#84BE84" rx="3" ry="3" style="stroke:#038048;stroke-width:1.0;"/><text fill="#000000" font-family="sans-serif" font-size="14" font-style="italic" lengthAdjust="spacing" textLength="298" x="42.5" y="418.5332">findByUsername(Username): Optional&lt;Utente&gt;</text><ellipse cx="33.5" cy="431.9141" fill="#84BE84" rx="3" ry="3" style="stroke:#038048;stroke-width:1.0;"/><text fill="#000000" font-family="sans-serif" font-size="14" lengthAdjust="spacing" textLength="459" x="42.5" y="436.1426">findByMecanographicNumber(MecanographicNumber): Optional&lt;Utente&gt;</text><ellipse cx="33.5" cy="449.5234" fill="#84BE84" rx="3" ry="3" style="stroke:#038048;stroke-width:1.0;"/><text fill="#000000" font-family="sans-serif" font-size="14" font-style="italic" lengthAdjust="spacing" textLength="199" x="42.5" y="453.752">findAllActive(): Iterable&lt;Utente&gt;</text></g></a><!--class DomainRepository--><g id="elem_DomainRepository"><rect codeLine="18" fill="#F1F1F1" height="241.7031" id="DomainRepository" rx="2.5" ry="2.5" style="stroke:#181818;stroke-width:0.5;" width="799" x="23.5" y="42"/><ellipse cx="138.25" cy="58" fill="#B4A7E5" rx="11" ry="11" style="stroke:#181818;stroke-width:1.0;"/><path d="M139.2031,54.6406 L139.2031,61.2969 L140.9219,61.2969 Q141.5313,61.2969 141.7969,61.5313 Q142.0625,61.7656 142.0625,62.1563 Q142.0625,62.5313 141.7969,62.7656 Q141.5313,63 140.9219,63 L135.7813,63 Q135.1719,63 134.9063,62.7656 Q134.6406,62.5313 134.6406,62.1406 Q134.6406,61.7656 134.9063,61.5313 Q135.1719,61.2969 135.7813,61.2969 L137.5,61.2969 L137.5,54.6406 L135.7813,54.6406 Q135.1719,54.6406 134.9063,54.4063 Q134.6406,54.1719 134.6406,53.7813 Q134.6406,53.4063 134.9063,53.1719 Q135.1719,52.9375 135.7813,52.9375 L140.9219,52.9375 Q141.5313,52.9375 141.7969,53.1719 Q142.0625,53.4063 142.0625,53.7813 Q142.0625,54.1719 141.7969,54.4063 Q141.5313,54.6406 140.9219,54.6406 L139.2031,54.6406 Z " fill="#000000"/><text fill="#000000" font-family="sans-serif" font-size="14" font-style="italic" lengthAdjust="spacing" textLength="116" x="158.75" y="63.7285">DomainRepository</text><rect fill="#FFFFFF" height="17.0938" style="stroke:#181818;stroke-width:1.0;stroke-dasharray:2.0,2.0;" width="443" x="382.5" y="39"/><text fill="#000000" font-family="sans-serif" font-size="12" font-style="italic" lengthAdjust="spacing" textLength="441" x="383.5" y="52.457">I extends Comparable&lt;&#8203;I&gt;, T extends AggregateRoot&lt;I extends Comparable&lt;&#8203;I&gt;&gt;</text><line style="stroke:#181818;stroke-width:0.5;" x1="24.5" x2="821.5" y1="74" y2="74"/><line style="stroke:#181818;stroke-width:0.5;" x1="24.5" x2="821.5" y1="82" y2="82"/><ellipse cx="34.5" cy="96.3047" fill="#84BE84" rx="3" ry="3" style="stroke:#038048;stroke-width:1.0;"/><text fill="#000000" font-family="sans-serif" font-size="14" font-style="italic" lengthAdjust="spacing" textLength="719" x="43.5" y="100.5332">save(S extends AggregateRoot&lt;I extends Comparable&lt;&#8203;I&gt;&gt;): S extends AggregateRoot&lt;I extends Comparable&lt;&#8203;I&gt;&gt;</text><ellipse cx="34.5" cy="113.9141" fill="#84BE84" rx="3" ry="3" style="stroke:#038048;stroke-width:1.0;"/><text fill="#000000" font-family="sans-serif" font-size="14" font-style="italic" lengthAdjust="spacing" textLength="456" x="43.5" y="118.1426">findAll(): Iterable&lt;T extends AggregateRoot&lt;I extends Comparable&lt;&#8203;I&gt;&gt;&gt;</text><ellipse cx="34.5" cy="131.5234" fill="#84BE84" rx="3" ry="3" style="stroke:#038048;stroke-width:1.0;"/><text fill="#000000" font-family="sans-serif" font-size="14" font-style="italic" lengthAdjust="spacing" textLength="347" x="43.5" y="135.752">ofIdentity(I extends Comparable&lt;I extends Comparable</text><text fill="#000000" font-family="sans-serif" font-size="14" font-style="italic" lengthAdjust="spacing" textLength="426" x="390.5" y="135.752">&gt;): Optional&lt;T extends AggregateRoot&lt;I extends Comparable&lt;&#8203;I&gt;&gt;&gt;</text><ellipse cx="34.5" cy="149.1328" fill="#84BE84" rx="3" ry="3" style="stroke:#038048;stroke-width:1.0;"/><text fill="#000000" font-family="sans-serif" font-size="14" lengthAdjust="spacing" textLength="400" x="43.5" y="153.3613">containsOfIdentity(I extends Comparable&lt;I extends Comparable</text><text fill="#000000" font-family="sans-serif" font-size="14" font-style="italic" lengthAdjust="spacing" textLength="72" x="443.5" y="153.3613">&gt;): boolean</text><ellipse cx="34.5" cy="166.7422" fill="#84BE84" rx="3" ry="3" style="stroke:#038048;stroke-width:1.0;"/><text fill="#000000" font-family="sans-serif" font-size="14" lengthAdjust="spacing" textLength="456" x="43.5" y="170.9707">contains(T extends AggregateRoot&lt;I extends Comparable&lt;&#8203;I&gt;&gt;): boolean</text><ellipse cx="34.5" cy="184.3516" fill="#84BE84" rx="3" ry="3" style="stroke:#038048;stroke-width:1.0;"/><text fill="#000000" font-family="sans-serif" font-size="14" font-style="italic" lengthAdjust="spacing" textLength="418" x="43.5" y="188.5801">delete(T extends AggregateRoot&lt;I extends Comparable&lt;&#8203;I&gt;&gt;): void</text><ellipse cx="34.5" cy="201.9609" fill="#84BE84" rx="3" ry="3" style="stroke:#038048;stroke-width:1.0;"/><text fill="#000000" font-family="sans-serif" font-size="14" font-style="italic" lengthAdjust="spacing" textLength="389" x="43.5" y="206.1895">deleteOfIdentity(I extends Comparable&lt;I extends Comparable</text><text fill="#000000" font-family="sans-serif" font-size="14" font-style="italic" lengthAdjust="spacing" textLength="46" x="432.5" y="206.1895">&gt;): void</text><ellipse cx="34.5" cy="219.5703" fill="#84BE84" rx="3" ry="3" style="stroke:#038048;stroke-width:1.0;"/><text fill="#000000" font-family="sans-serif" font-size="14" font-style="italic" lengthAdjust="spacing" textLength="80" x="43.5" y="223.7988">count(): long</text><ellipse cx="34.5" cy="237.1797" fill="#84BE84" rx="3" ry="3" style="stroke:#038048;stroke-width:1.0;"/><text fill="#000000" font-family="sans-serif" font-size="14" lengthAdjust="spacing" textLength="69" x="43.5" y="241.4082">size(): long</text><ellipse cx="34.5" cy="254.7891" fill="#84BE84" rx="3" ry="3" style="stroke:#038048;stroke-width:1.0;"/><text fill="#000000" font-family="sans-serif" font-size="14" lengthAdjust="spacing" textLength="425" x="43.5" y="259.0176">remove(T extends AggregateRoot&lt;I extends Comparable&lt;&#8203;I&gt;&gt;): void</text><ellipse cx="34.5" cy="272.3984" fill="#84BE84" rx="3" ry="3" style="stroke:#038048;stroke-width:1.0;"/><text fill="#000000" font-family="sans-serif" font-size="14" lengthAdjust="spacing" textLength="394" x="43.5" y="276.627">removeOfIdentity(I extends Comparable&lt;I extends Comparable</text><text fill="#000000" font-family="sans-serif" font-size="14" font-style="italic" lengthAdjust="spacing" textLength="46" x="437.5" y="276.627">&gt;): void</text></g><!--reverse link DomainRepository to SignupRequestRepository--><g id="link_DomainRepository_SignupRequestRepository"><path codeLine="33" d="M583.8512,295.6283 C625.8712,330.0083 654.27,353.26 683.74,377.37 " fill="none" id="DomainRepository-backto-SignupRequestRepository" style="stroke:#181818;stroke-width:1.0;"/><polygon fill="none" points="569.92,284.23,580.0518,300.272,587.6507,290.9845,569.92,284.23" style="stroke:#181818;stroke-width:1.0;"/></g><!--reverse link DomainRepository to UtenteRepository--><g id="link_DomainRepository_UtenteRepository"><path codeLine="34" d="M335.8798,299.367 C318.6798,326.097 311.11,337.85 296.97,359.82 " fill="none" id="DomainRepository-backto-UtenteRepository" style="stroke:#181818;stroke-width:1.0;"/><polygon fill="none" points="345.62,284.23,330.8341,296.1202,340.9254,302.6137,345.62,284.23" style="stroke:#181818;stroke-width:1.0;"/></g><text fill="#888888" font-family="sans-serif" font-size="10" lengthAdjust="spacing" textLength="184" x="364" y="493.3809">UMLDoclet 2.1.1, PlantUML 1.2023.12</text><!--SRC=[lLN1Rjim3BttAtWPuAAjWGux6O61RBq4MDUXRKv53unDEq9bqPFaR5aNOFVzvRvaT9gciUSagrlCW66151yV7sa90C2HbxT4YvujHD71WHYXnEGESmADfNqNkYcdbWs5bIVZgK0ZlaAMeQMIdP98HGxk7sBhHyascs52SALoKvMNzAKYvoyVjy_XvcQB9vpwGj_U2XfiFFSuSTvYuXTmL999bSaRyIuuZ60aIN6YQT1mnMkWHHV1yRAc1hEsQJ-bJ9dq_Npio1eiA7XS2AUBqYisg0SFe743OXLtJWaQpYsMKvLygee9sQ33jW-jJMYezJ3nQaODRTgHAr4MpSOJbbg5cPKYlhAz2rCkK9bsl_zMysovxqcwmGZecsHC7NpWeXwpciFldxz6yJ5Shtt3FBUKeuZEx7V4nF6E9ZYKKg-UZodgz8ZQ9tr3z3wLRat0sIYL7Ye_3phZkutBEjVpys92HmaRBwrs5_tPJ9WreUd63QvxTR8BSrEyb3HvwWa-OvNkGNw173lH4wwChsTAiycRYZdrdRezbWgUlLgnAxZNgd2nUUxymtaJHUt31GO_JawUTKT5qPPRv_-IQ5ymo-n9RREGIMVaCpx_UCQ9J1Iy3K_3qsFuhD5uiSAR6LadVt5m-0S0]--></g></svg>