<?xml version="1.0" encoding="us-ascii" standalone="no"?><svg xmlns="http://www.w3.org/2000/svg" xmlns:xlink="http://www.w3.org/1999/xlink" contentStyleType="text/css" height="316px" preserveAspectRatio="none" style="width:590px;height:316px;background:#FFFFFF;" version="1.1" viewBox="0 0 590 316" width="590px" zoomAndPan="magnify"><defs/><g><!--class lapr4.shodrone.utentemanagement.repositories.SignupRequestRepository--><a href="SignupRequestRepository.html" target="_top" title="SignupRequestRepository.html" xlink:actuate="onRequest" xlink:href="SignupRequestRepository.html" xlink:show="new" xlink:title="SignupRequestRepository.html" xlink:type="simple"><g id="elem_lapr4.shodrone.utentemanagement.repositories.SignupRequestRepository"><rect codeLine="5" fill="#F1F1F1" height="65.7969" id="lapr4.shodrone.utentemanagement.repositories.SignupRequestRepository" rx="2.5" ry="2.5" style="stroke:#181818;stroke-width:0.5;" width="360" x="113" y="224"/><ellipse cx="178.25" cy="244.0938" fill="#B4A7E5" rx="11" ry="11" style="stroke:#181818;stroke-width:1.0;"/><path d="M179.2031,240.7344 L179.2031,247.3906 L180.9219,247.3906 Q181.5313,247.3906 181.7969,247.625 Q182.0625,247.8594 182.0625,248.25 Q182.0625,248.625 181.7969,248.8594 Q181.5313,249.0938 180.9219,249.0938 L175.7813,249.0938 Q175.1719,249.0938 174.9063,248.8594 Q174.6406,248.625 174.6406,248.2344 Q174.6406,247.8594 174.9063,247.625 Q175.1719,247.3906 175.7813,247.3906 L177.5,247.3906 L177.5,240.7344 L175.7813,240.7344 Q175.1719,240.7344 174.9063,240.5 Q174.6406,240.2656 174.6406,239.875 Q174.6406,239.5 174.9063,239.2656 Q175.1719,239.0313 175.7813,239.0313 L180.9219,239.0313 Q181.5313,239.0313 181.7969,239.2656 Q182.0625,239.5 182.0625,239.875 Q182.0625,240.2656 181.7969,240.5 Q181.5313,240.7344 180.9219,240.7344 L179.2031,240.7344 Z " fill="#000000"/><text fill="#000000" font-family="sans-serif" font-size="14" font-style="italic" lengthAdjust="spacing" textLength="165" x="226.75" y="243.5332">SignupRequestRepository</text><text fill="#000000" font-family="sans-serif" font-size="10" font-style="italic" lengthAdjust="spacing" textLength="221" x="198.75" y="256.9902">lapr4.shodrone.utentemanagement.repositories</text><line style="stroke:#181818;stroke-width:0.5;" x1="114" x2="472" y1="264.1875" y2="264.1875"/><ellipse cx="124" cy="278.4922" fill="#84BE84" rx="3" ry="3" style="stroke:#038048;stroke-width:1.0;"/><text fill="#000000" font-family="sans-serif" font-size="14" font-style="italic" lengthAdjust="spacing" textLength="334" x="133" y="282.7207">pendingSignupRequests(): Iterable&lt;SignupRequest&gt;</text></g></a><!--class eapli.framework.domain.repositories.DomainRepository--><g id="elem_eapli.framework.domain.repositories.DomainRepository"><rect codeLine="9" fill="#F1F1F1" height="153.8438" id="eapli.framework.domain.repositories.DomainRepository" rx="2.5" ry="2.5" style="stroke:#181818;stroke-width:0.5;" width="572" x="7" y="10"/><ellipse cx="127.75" cy="30.0938" fill="#B4A7E5" rx="11" ry="11" style="stroke:#181818;stroke-width:1.0;"/><path d="M128.7031,26.7344 L128.7031,33.3906 L130.4219,33.3906 Q131.0313,33.3906 131.2969,33.625 Q131.5625,33.8594 131.5625,34.25 Q131.5625,34.625 131.2969,34.8594 Q131.0313,35.0938 130.4219,35.0938 L125.2813,35.0938 Q124.6719,35.0938 124.4063,34.8594 Q124.1406,34.625 124.1406,34.2344 Q124.1406,33.8594 124.4063,33.625 Q124.6719,33.3906 125.2813,33.3906 L127,33.3906 L127,26.7344 L125.2813,26.7344 Q124.6719,26.7344 124.4063,26.5 Q124.1406,26.2656 124.1406,25.875 Q124.1406,25.5 124.4063,25.2656 Q124.6719,25.0313 125.2813,25.0313 L130.4219,25.0313 Q131.0313,25.0313 131.2969,25.2656 Q131.5625,25.5 131.5625,25.875 Q131.5625,26.2656 131.2969,26.5 Q131.0313,26.7344 130.4219,26.7344 L128.7031,26.7344 Z " fill="#000000"/><text fill="#000000" font-family="sans-serif" font-size="14" font-style="italic" lengthAdjust="spacing" textLength="116" x="174.75" y="29.5332">DomainRepository</text><text fill="#000000" font-family="sans-serif" font-size="10" font-style="italic" lengthAdjust="spacing" textLength="169" x="148.25" y="42.9902">eapli.framework.domain.repositories</text><rect fill="#FFFFFF" height="17.0938" style="stroke:#181818;stroke-width:1.0;stroke-dasharray:2.0,2.0;" width="151" x="431" y="7"/><text fill="#000000" font-family="sans-serif" font-size="12" font-style="italic" lengthAdjust="spacing" textLength="149" x="432" y="20.457">Username, SignupRequest</text><line style="stroke:#181818;stroke-width:0.5;" x1="8" x2="578" y1="50.1875" y2="50.1875"/><ellipse cx="18" cy="64.4922" fill="#84BE84" rx="3" ry="3" style="stroke:#038048;stroke-width:1.0;"/><text fill="#000000" font-family="sans-serif" font-size="14" font-style="italic" lengthAdjust="spacing" textLength="241" x="27" y="68.7207">save(SignupRequest): SignupRequest</text><ellipse cx="18" cy="82.1016" fill="#84BE84" rx="3" ry="3" style="stroke:#038048;stroke-width:1.0;"/><text fill="#000000" font-family="sans-serif" font-size="14" font-style="italic" lengthAdjust="spacing" textLength="456" x="27" y="86.3301">findAll(): Iterable&lt;T extends AggregateRoot&lt;I extends Comparable&lt;&#8203;I&gt;&gt;&gt;</text><ellipse cx="18" cy="99.7109" fill="#84BE84" rx="3" ry="3" style="stroke:#038048;stroke-width:1.0;"/><text fill="#000000" font-family="sans-serif" font-size="14" font-style="italic" lengthAdjust="spacing" textLength="546" x="27" y="103.9395">ofIdentity(Username): Optional&lt;T extends AggregateRoot&lt;I extends Comparable&lt;&#8203;I&gt;&gt;&gt;</text><ellipse cx="18" cy="117.3203" fill="#84BE84" rx="3" ry="3" style="stroke:#038048;stroke-width:1.0;"/><text fill="#000000" font-family="sans-serif" font-size="14" font-style="italic" lengthAdjust="spacing" textLength="179" x="27" y="121.5488">delete(SignupRequest): void</text><ellipse cx="18" cy="134.9297" fill="#84BE84" rx="3" ry="3" style="stroke:#038048;stroke-width:1.0;"/><text fill="#000000" font-family="sans-serif" font-size="14" font-style="italic" lengthAdjust="spacing" textLength="208" x="27" y="139.1582">deleteOfIdentity(Username): void</text><ellipse cx="18" cy="152.5391" fill="#84BE84" rx="3" ry="3" style="stroke:#038048;stroke-width:1.0;"/><text fill="#000000" font-family="sans-serif" font-size="14" font-style="italic" lengthAdjust="spacing" textLength="80" x="27" y="156.7676">count(): long</text></g><!--reverse link eapli.framework.domain.repositories.DomainRepository to lapr4.shodrone.utentemanagement.repositories.SignupRequestRepository--><g id="link_eapli.framework.domain.repositories.DomainRepository_lapr4.shodrone.utentemanagement.repositories.SignupRequestRepository"><path codeLine="18" d="M293,182.14 C293,203.15 293,206.82 293,223.83 " fill="none" id="eapli.framework.domain.repositories.DomainRepository-backto-lapr4.shodrone.utentemanagement.repositories.SignupRequestRepository" style="stroke:#181818;stroke-width:1.0;"/><polygon fill="none" points="293,164.14,287,182.14,299,182.14,293,164.14" style="stroke:#181818;stroke-width:1.0;"/></g><text fill="#888888" font-family="sans-serif" font-size="10" lengthAdjust="spacing" textLength="184" x="196" y="306.1777">UMLDoclet 2.1.1, PlantUML 1.2023.12</text><!--SRC=[hLFBIkn04DtVhoW4OUHguuWh2G7HpO2YZBfI5sMwacdiTBVTDQFZ0zpxbtx9hOIh69s8YjaagJfLfywfRW20H0mEQqe12pgYW17PHt3UqHz9myHe0ge3pw4qP7Lw7ws99rx2RTmufbXA9rZAahcbhU5cVcGgDmrZkffIuZ45dummpC_SVyHwRZ74JPMaJHHQDMMIDZKwhAYMJnLVYWob9S04tobGFVnmUjgJKHEkxVavtBMIckSEBn97BFW1_WPoshYgKvi6Arim4kbuOIdhfFAsoKE_FRk-HkCM-a8Oh55bbFLS-tYfT0lzQCSNSEezJNQIA3QBNuNkl3so4yveq46AvCx_mhBIEBrjRSUVOw0RsPXEi5rLaIfa6dlFsUWrlkFhvY0suEV7fr6UvmkR-tAaPTs6vuCNDS9p4DXuX_RtU3HPue_gPzxeJ_072wVhBIhyr77Za_MkUdjeVh9ToExNrdxbchGZ54rXX5BSazV9_jwkBqGYRAYX6gx2eKN74eNb6SKavWzM_W40]--></g></svg>