<?xml version="1.0" encoding="us-ascii" standalone="no"?><svg xmlns="http://www.w3.org/2000/svg" xmlns:xlink="http://www.w3.org/1999/xlink" contentStyleType="text/css" height="351px" preserveAspectRatio="none" style="width:673px;height:351px;background:#FFFFFF;" version="1.1" viewBox="0 0 673 351" width="673px" zoomAndPan="magnify"><defs/><g><!--class lapr4.shodrone.utentemanagement.repositories.UtenteRepository--><a href="UtenteRepository.html" target="_top" title="UtenteRepository.html" xlink:actuate="onRequest" xlink:href="UtenteRepository.html" xlink:show="new" xlink:title="UtenteRepository.html" xlink:type="simple"><g id="elem_lapr4.shodrone.utentemanagement.repositories.UtenteRepository"><rect codeLine="5" fill="#F1F1F1" height="101.0156" id="lapr4.shodrone.utentemanagement.repositories.UtenteRepository" rx="2.5" ry="2.5" style="stroke:#181818;stroke-width:0.5;" width="485" x="92" y="224"/><ellipse cx="219.75" cy="244.0938" fill="#B4A7E5" rx="11" ry="11" style="stroke:#181818;stroke-width:1.0;"/><path d="M220.7031,240.7344 L220.7031,247.3906 L222.4219,247.3906 Q223.0313,247.3906 223.2969,247.625 Q223.5625,247.8594 223.5625,248.25 Q223.5625,248.625 223.2969,248.8594 Q223.0313,249.0938 222.4219,249.0938 L217.2813,249.0938 Q216.6719,249.0938 216.4063,248.8594 Q216.1406,248.625 216.1406,248.2344 Q216.1406,247.8594 216.4063,247.625 Q216.6719,247.3906 217.2813,247.3906 L219,247.3906 L219,240.7344 L217.2813,240.7344 Q216.6719,240.7344 216.4063,240.5 Q216.1406,240.2656 216.1406,239.875 Q216.1406,239.5 216.4063,239.2656 Q216.6719,239.0313 217.2813,239.0313 L222.4219,239.0313 Q223.0313,239.0313 223.2969,239.2656 Q223.5625,239.5 223.5625,239.875 Q223.5625,240.2656 223.2969,240.5 Q223.0313,240.7344 222.4219,240.7344 L220.7031,240.7344 Z " fill="#000000"/><text fill="#000000" font-family="sans-serif" font-size="14" font-style="italic" lengthAdjust="spacing" textLength="110" x="295.75" y="243.5332">UtenteRepository</text><text fill="#000000" font-family="sans-serif" font-size="10" font-style="italic" lengthAdjust="spacing" textLength="221" x="240.25" y="256.9902">lapr4.shodrone.utentemanagement.repositories</text><line style="stroke:#181818;stroke-width:0.5;" x1="93" x2="576" y1="264.1875" y2="264.1875"/><ellipse cx="103" cy="278.4922" fill="#84BE84" rx="3" ry="3" style="stroke:#038048;stroke-width:1.0;"/><text fill="#000000" font-family="sans-serif" font-size="14" font-style="italic" lengthAdjust="spacing" textLength="298" x="112" y="282.7207">findByUsername(Username): Optional&lt;Utente&gt;</text><ellipse cx="103" cy="296.1016" fill="#84BE84" rx="3" ry="3" style="stroke:#038048;stroke-width:1.0;"/><text fill="#000000" font-family="sans-serif" font-size="14" lengthAdjust="spacing" textLength="459" x="112" y="300.3301">findByMecanographicNumber(MecanographicNumber): Optional&lt;Utente&gt;</text><ellipse cx="103" cy="313.7109" fill="#84BE84" rx="3" ry="3" style="stroke:#038048;stroke-width:1.0;"/><text fill="#000000" font-family="sans-serif" font-size="14" font-style="italic" lengthAdjust="spacing" textLength="199" x="112" y="317.9395">findAllActive(): Iterable&lt;Utente&gt;</text></g></a><!--class eapli.framework.domain.repositories.DomainRepository--><g id="elem_eapli.framework.domain.repositories.DomainRepository"><rect codeLine="11" fill="#F1F1F1" height="153.8438" id="eapli.framework.domain.repositories.DomainRepository" rx="2.5" ry="2.5" style="stroke:#181818;stroke-width:0.5;" width="655" x="7" y="10"/><ellipse cx="157.75" cy="30.0938" fill="#B4A7E5" rx="11" ry="11" style="stroke:#181818;stroke-width:1.0;"/><path d="M158.7031,26.7344 L158.7031,33.3906 L160.4219,33.3906 Q161.0313,33.3906 161.2969,33.625 Q161.5625,33.8594 161.5625,34.25 Q161.5625,34.625 161.2969,34.8594 Q161.0313,35.0938 160.4219,35.0938 L155.2813,35.0938 Q154.6719,35.0938 154.4063,34.8594 Q154.1406,34.625 154.1406,34.2344 Q154.1406,33.8594 154.4063,33.625 Q154.6719,33.3906 155.2813,33.3906 L157,33.3906 L157,26.7344 L155.2813,26.7344 Q154.6719,26.7344 154.4063,26.5 Q154.1406,26.2656 154.1406,25.875 Q154.1406,25.5 154.4063,25.2656 Q154.6719,25.0313 155.2813,25.0313 L160.4219,25.0313 Q161.0313,25.0313 161.2969,25.2656 Q161.5625,25.5 161.5625,25.875 Q161.5625,26.2656 161.2969,26.5 Q161.0313,26.7344 160.4219,26.7344 L158.7031,26.7344 Z " fill="#000000"/><text fill="#000000" font-family="sans-serif" font-size="14" font-style="italic" lengthAdjust="spacing" textLength="116" x="204.75" y="29.5332">DomainRepository</text><text fill="#000000" font-family="sans-serif" font-size="10" font-style="italic" lengthAdjust="spacing" textLength="169" x="178.25" y="42.9902">eapli.framework.domain.repositories</text><rect fill="#FFFFFF" height="17.0938" style="stroke:#181818;stroke-width:1.0;stroke-dasharray:2.0,2.0;" width="174" x="491" y="7"/><text fill="#000000" font-family="sans-serif" font-size="12" font-style="italic" lengthAdjust="spacing" textLength="172" x="492" y="20.457">MecanographicNumber, Utente</text><line style="stroke:#181818;stroke-width:0.5;" x1="8" x2="661" y1="50.1875" y2="50.1875"/><ellipse cx="18" cy="64.4922" fill="#84BE84" rx="3" ry="3" style="stroke:#038048;stroke-width:1.0;"/><text fill="#000000" font-family="sans-serif" font-size="14" font-style="italic" lengthAdjust="spacing" textLength="131" x="27" y="68.7207">save(Utente): Utente</text><ellipse cx="18" cy="82.1016" fill="#84BE84" rx="3" ry="3" style="stroke:#038048;stroke-width:1.0;"/><text fill="#000000" font-family="sans-serif" font-size="14" font-style="italic" lengthAdjust="spacing" textLength="456" x="27" y="86.3301">findAll(): Iterable&lt;T extends AggregateRoot&lt;I extends Comparable&lt;&#8203;I&gt;&gt;&gt;</text><ellipse cx="18" cy="99.7109" fill="#84BE84" rx="3" ry="3" style="stroke:#038048;stroke-width:1.0;"/><text fill="#000000" font-family="sans-serif" font-size="14" font-style="italic" lengthAdjust="spacing" textLength="629" x="27" y="103.9395">ofIdentity(MecanographicNumber): Optional&lt;T extends AggregateRoot&lt;I extends Comparable&lt;&#8203;I&gt;&gt;&gt;</text><ellipse cx="18" cy="117.3203" fill="#84BE84" rx="3" ry="3" style="stroke:#038048;stroke-width:1.0;"/><text fill="#000000" font-family="sans-serif" font-size="14" font-style="italic" lengthAdjust="spacing" textLength="124" x="27" y="121.5488">delete(Utente): void</text><ellipse cx="18" cy="134.9297" fill="#84BE84" rx="3" ry="3" style="stroke:#038048;stroke-width:1.0;"/><text fill="#000000" font-family="sans-serif" font-size="14" font-style="italic" lengthAdjust="spacing" textLength="291" x="27" y="139.1582">deleteOfIdentity(MecanographicNumber): void</text><ellipse cx="18" cy="152.5391" fill="#84BE84" rx="3" ry="3" style="stroke:#038048;stroke-width:1.0;"/><text fill="#000000" font-family="sans-serif" font-size="14" font-style="italic" lengthAdjust="spacing" textLength="80" x="27" y="156.7676">count(): long</text></g><!--reverse link eapli.framework.domain.repositories.DomainRepository to lapr4.shodrone.utentemanagement.repositories.UtenteRepository--><g id="link_eapli.framework.domain.repositories.DomainRepository_lapr4.shodrone.utentemanagement.repositories.UtenteRepository"><path codeLine="20" d="M334.5,182.25 C334.5,202.34 334.5,205.49 334.5,223.78 " fill="none" id="eapli.framework.domain.repositories.DomainRepository-backto-lapr4.shodrone.utentemanagement.repositories.UtenteRepository" style="stroke:#181818;stroke-width:1.0;"/><polygon fill="none" points="334.5,164.25,328.5,182.25,340.5,182.25,334.5,164.25" style="stroke:#181818;stroke-width:1.0;"/></g><text fill="#888888" font-family="sans-serif" font-size="10" lengthAdjust="spacing" textLength="184" x="237.5" y="341.3965">UMLDoclet 2.1.1, PlantUML 1.2023.12</text><!--SRC=[hLF9JiD03Btp5HOIKX7jY29EA8fKu5A9JK1FmC5Dd7J4BD7Cj50MYJj_oPVWf0NHq9Orbx7U-FdPpnC004y136ho1IPqHWKw3DQ1iOPM-1e6CYKWNOGnP99KwkkefZ2m35UuD85SnfLWDVBoZdRQst4l4AEdL5WlkVJuqaolDcE5XTiMdlcEzSImojHeC2VDeN1l94b-5T33JmYYBWmN5tL8389MLrTmNtLVVlVOzy5X4XvX8vCctHttFBdIeSPRiBu3nqMGrg2A9WNZT_gKSqW96fixB0OoEHhgFhd676nPfNeZ7QKwIP0ZQZ2hopPZNz4Cwt7n3lQjHcdcxe2mK59aZWUxiUvQf5NgP-k_aIVgCj6ScPimxNc1wHvvn4aA3pe9bfaoOySvq2qpKW-TF7UK8o_RsX1rt_4zgyitNYQ_F3rtutY-upRhfgmim_YhlVsRP4gAmeVHHrQcInAFl-fm8J-nGnDAsvGr-SUNyviLG_JGQltjlwoqan9paB5rVFGE3_PjmcF2bcYBTXDE59h0AAoDo7bslh7-2W00]--></g></svg>