<?xml version="1.0" encoding="us-ascii" standalone="no"?><svg xmlns="http://www.w3.org/2000/svg" xmlns:xlink="http://www.w3.org/1999/xlink" contentStyleType="text/css" height="234px" preserveAspectRatio="none" style="width:316px;height:234px;background:#FFFFFF;" version="1.1" viewBox="0 0 316 234" width="316px" zoomAndPan="magnify"><defs/><g><!--class lapr4.shodrone.usermanagement.domain.ExemploPasswordPolicy.PasswordStrength--><a href="ExemploPasswordPolicy.PasswordStrength.html" target="_top" title="ExemploPasswordPolicy.PasswordStrength.html" xlink:actuate="onRequest" xlink:href="ExemploPasswordPolicy.PasswordStrength.html" xlink:show="new" xlink:title="ExemploPasswordPolicy.PasswordStrength.html" xlink:type="simple"><g id="elem_lapr4.shodrone.usermanagement.domain.ExemploPasswordPolicy.PasswordStrength"><rect codeLine="5" fill="#F1F1F1" height="101.0156" id="lapr4.shodrone.usermanagement.domain.ExemploPasswordPolicy.PasswordStrength" rx="2.5" ry="2.5" style="stroke:#181818;stroke-width:0.5;" width="302" x="7" y="107"/><ellipse cx="22" cy="127.0938" fill="#EB937F" rx="11" ry="11" style="stroke:#181818;stroke-width:1.0;"/><path d="M20.8594,127.8906 L20.8594,130.3906 L25.1875,130.3906 L25.1875,129.4688 Q25.1875,128.8594 25.4219,128.5938 Q25.6719,128.3281 26.0469,128.3281 Q26.4219,128.3281 26.6563,128.5938 Q26.8906,128.8594 26.8906,129.4688 L26.8906,132.0938 L18.8906,132.0938 Q18.2656,132.0938 18,131.8594 Q17.75,131.625 17.75,131.2344 Q17.75,130.8594 18.0156,130.625 Q18.2813,130.3906 18.8906,130.3906 L19.1563,130.3906 L19.1563,123.7344 L18.8906,123.7344 Q18.2656,123.7344 18,123.5 Q17.75,123.2656 17.75,122.875 Q17.75,122.5 18,122.2656 Q18.2656,122.0313 18.8906,122.0313 L26.5156,122.0313 L26.5156,124.625 Q26.5156,125.2344 26.2813,125.5 Q26.0625,125.75 25.6719,125.75 Q25.2969,125.75 25.0625,125.5 Q24.8281,125.2344 24.8281,124.625 L24.8281,123.7344 L20.8594,123.7344 L20.8594,126.1875 L22.3438,126.1875 Q22.3438,125.5313 22.4688,125.3438 Q22.7344,124.9375 23.2031,124.9375 Q23.5781,124.9375 23.8125,125.2031 Q24.0469,125.4531 24.0469,126.0625 L24.0469,128.0313 Q24.0469,128.5781 23.9219,128.7656 Q23.6563,129.1563 23.2031,129.1563 Q22.7344,129.1563 22.4688,128.75 Q22.3438,128.5625 22.3438,127.8906 L20.8594,127.8906 Z " fill="#000000"/><text fill="#000000" font-family="sans-serif" font-size="14" lengthAdjust="spacing" textLength="270" x="36" y="126.5332">ExemploPasswordPolicy.PasswordStrength</text><text fill="#000000" font-family="sans-serif" font-size="10" lengthAdjust="spacing" textLength="194" x="74" y="139.9902">lapr4.shodrone.usermanagement.domain</text><line style="stroke:#181818;stroke-width:0.5;" x1="8" x2="308" y1="147.1875" y2="147.1875"/><ellipse cx="18" cy="161.4922" fill="none" rx="3" ry="3" style="stroke:#038048;stroke-width:1.0;"/><text fill="#000000" font-family="sans-serif" font-size="14" lengthAdjust="spacing" text-decoration="underline" textLength="40" x="27" y="165.7207">WEAK</text><ellipse cx="18" cy="179.1016" fill="none" rx="3" ry="3" style="stroke:#038048;stroke-width:1.0;"/><text fill="#000000" font-family="sans-serif" font-size="14" lengthAdjust="spacing" text-decoration="underline" textLength="43" x="27" y="183.3301">GOOD</text><ellipse cx="18" cy="196.7109" fill="none" rx="3" ry="3" style="stroke:#038048;stroke-width:1.0;"/><text fill="#000000" font-family="sans-serif" font-size="14" lengthAdjust="spacing" text-decoration="underline" textLength="71" x="27" y="200.9395">EXCELENT</text></g></a><!--class lapr4.shodrone.usermanagement.domain.ExemploPasswordPolicy--><a href="ExemploPasswordPolicy.html" target="_top" title="ExemploPasswordPolicy.html" xlink:actuate="onRequest" xlink:href="ExemploPasswordPolicy.html" xlink:show="new" xlink:title="ExemploPasswordPolicy.html" xlink:type="simple"><g id="elem_lapr4.shodrone.usermanagement.domain.ExemploPasswordPolicy"><rect codeLine="11" fill="#F1F1F1" height="40.1875" id="lapr4.shodrone.usermanagement.domain.ExemploPasswordPolicy" rx="2.5" ry="2.5" style="stroke:#181818;stroke-width:0.5;" width="226" x="45" y="7"/><ellipse cx="60" cy="27.0938" fill="#ADD1B2" rx="11" ry="11" style="stroke:#181818;stroke-width:1.0;"/><path d="M62.7656,22.9688 Q62.9219,22.75 63.1094,22.6406 Q63.2969,22.5313 63.5156,22.5313 Q63.8906,22.5313 64.125,22.7969 Q64.3594,23.0469 64.3594,23.6563 L64.3594,25.1094 Q64.3594,25.7188 64.125,25.9844 Q63.8906,26.25 63.5156,26.25 Q63.1719,26.25 62.9688,26.0469 Q62.7656,25.8594 62.6563,25.3438 Q62.6094,24.9844 62.4219,24.7969 Q62.0938,24.4219 61.4844,24.2031 Q60.875,23.9844 60.25,23.9844 Q59.4844,23.9844 58.8438,24.3125 Q58.2188,24.6406 57.7188,25.3906 Q57.2344,26.1406 57.2344,27.1719 L57.2344,28.2656 Q57.2344,29.5 58.125,30.3281 Q59.0156,31.1406 60.6094,31.1406 Q61.5469,31.1406 62.2031,30.8906 Q62.5938,30.7344 63.0156,30.2969 Q63.2813,30.0313 63.4219,29.9531 Q63.5781,29.875 63.7813,29.875 Q64.1094,29.875 64.3594,30.1406 Q64.625,30.3906 64.625,30.7344 Q64.625,31.0781 64.2813,31.4844 Q63.7813,32.0625 62.9844,32.3906 Q61.9063,32.8438 60.6094,32.8438 Q59.0938,32.8438 57.8906,32.2188 Q56.9063,31.7188 56.2188,30.6563 Q55.5313,29.5781 55.5313,28.2969 L55.5313,27.1406 Q55.5313,25.8125 56.1406,24.6719 Q56.7656,23.5156 57.8594,22.9063 Q58.9531,22.2813 60.1875,22.2813 Q60.9219,22.2813 61.5625,22.4531 Q62.2188,22.6094 62.7656,22.9688 Z " fill="#000000"/><text fill="#000000" font-family="sans-serif" font-size="14" lengthAdjust="spacing" textLength="151" x="95.5" y="26.5332">ExemploPasswordPolicy</text><text fill="#000000" font-family="sans-serif" font-size="10" lengthAdjust="spacing" textLength="194" x="74" y="39.9902">lapr4.shodrone.usermanagement.domain</text></g></a><!--reverse link lapr4.shodrone.usermanagement.domain.ExemploPasswordPolicy to lapr4.shodrone.usermanagement.domain.ExemploPasswordPolicy.PasswordStrength--><g id="link_lapr4.shodrone.usermanagement.domain.ExemploPasswordPolicy_lapr4.shodrone.usermanagement.domain.ExemploPasswordPolicy.PasswordStrength"><path codeLine="13" d="M158,63.24 C158,78.99 158,86 158,106.84 " fill="none" id="lapr4.shodrone.usermanagement.domain.ExemploPasswordPolicy-backto-lapr4.shodrone.usermanagement.domain.ExemploPasswordPolicy.PasswordStrength" style="stroke:#181818;stroke-width:1.0;"/><ellipse cx="158" cy="55.24" fill="#FFFFFF" rx="8" ry="8" style="stroke:#181818;stroke-width:1.0;"/><line style="stroke:#181818;stroke-width:1.0;" x1="158" x2="158" y1="63.24" y2="47.24"/><line style="stroke:#181818;stroke-width:1.0;" x1="150" x2="166" y1="55.24" y2="55.24"/></g><text fill="#888888" font-family="sans-serif" font-size="10" lengthAdjust="spacing" textLength="184" x="59" y="224.3965">UMLDoclet 2.1.1, PlantUML 1.2023.12</text><!--SRC=[lP9DImCn48Rl_egX82YrmPMUH0fY5mzMkr2bGkrXs9rs0_bOCbErblvtqrszICK5nLn2tddd8qy20C0auD0ILvZJX2eCA3w0yuuEOXXANH2GhMGD2qscuA-g9Ibzb6kTtCf2vuBr6vqd_K7w6Zt6PyZyuaEHUQFpjVeyJYIGMqhvv3uIJWS6gz1N70k6E81QCGMB3fTaoOagl4NjEe0CROogNNkOpTePLIdMpEUmgQ-wMniM59rleJjDBs_soDVZyN2Fd3vUfQFqxhuERHjqkOdjVcBtlwY-9TE0QER-HVbkh_UN3zbWZ6aKOE7zRdku7GrzRk8VFrE9IauWC-Wagd3uJ86rTqV7xm00]--></g></svg>