<?xml version="1.0" encoding="us-ascii" standalone="no"?><svg xmlns="http://www.w3.org/2000/svg" xmlns:xlink="http://www.w3.org/1999/xlink" contentStyleType="text/css" height="341px" preserveAspectRatio="none" style="width:316px;height:341px;background:#FFFFFF;" version="1.1" viewBox="0 0 316 341" width="316px" zoomAndPan="magnify"><defs/><g><!--class lapr4.shodrone.usermanagement.domain.ExemploPasswordPolicy--><a href="ExemploPasswordPolicy.html" target="_top" title="ExemploPasswordPolicy.html" xlink:actuate="onRequest" xlink:href="ExemploPasswordPolicy.html" xlink:show="new" xlink:title="ExemploPasswordPolicy.html" xlink:type="simple"><g id="elem_lapr4.shodrone.usermanagement.domain.ExemploPasswordPolicy"><rect codeLine="5" fill="#F1F1F1" height="83.4063" id="lapr4.shodrone.usermanagement.domain.ExemploPasswordPolicy" rx="2.5" ry="2.5" style="stroke:#181818;stroke-width:0.5;" width="248" x="34" y="133"/><ellipse cx="58.9" cy="153.0938" fill="#ADD1B2" rx="11" ry="11" style="stroke:#181818;stroke-width:1.0;"/><path d="M61.6656,148.9688 Q61.8219,148.75 62.0094,148.6406 Q62.1969,148.5313 62.4156,148.5313 Q62.7906,148.5313 63.025,148.7969 Q63.2594,149.0469 63.2594,149.6563 L63.2594,151.1094 Q63.2594,151.7188 63.025,151.9844 Q62.7906,152.25 62.4156,152.25 Q62.0719,152.25 61.8688,152.0469 Q61.6656,151.8594 61.5563,151.3438 Q61.5094,150.9844 61.3219,150.7969 Q60.9938,150.4219 60.3844,150.2031 Q59.775,149.9844 59.15,149.9844 Q58.3844,149.9844 57.7438,150.3125 Q57.1188,150.6406 56.6188,151.3906 Q56.1344,152.1406 56.1344,153.1719 L56.1344,154.2656 Q56.1344,155.5 57.025,156.3281 Q57.9156,157.1406 59.5094,157.1406 Q60.4469,157.1406 61.1031,156.8906 Q61.4938,156.7344 61.9156,156.2969 Q62.1813,156.0313 62.3219,155.9531 Q62.4781,155.875 62.6813,155.875 Q63.0094,155.875 63.2594,156.1406 Q63.525,156.3906 63.525,156.7344 Q63.525,157.0781 63.1813,157.4844 Q62.6813,158.0625 61.8844,158.3906 Q60.8063,158.8438 59.5094,158.8438 Q57.9938,158.8438 56.7906,158.2188 Q55.8063,157.7188 55.1188,156.6563 Q54.4313,155.5781 54.4313,154.2969 L54.4313,153.1406 Q54.4313,151.8125 55.0406,150.6719 Q55.6656,149.5156 56.7594,148.9063 Q57.8531,148.2813 59.0875,148.2813 Q59.8219,148.2813 60.4625,148.4531 Q61.1188,148.6094 61.6656,148.9688 Z " fill="#000000"/><text fill="#000000" font-family="sans-serif" font-size="14" lengthAdjust="spacing" textLength="151" x="96.6" y="152.5332">ExemploPasswordPolicy</text><text fill="#000000" font-family="sans-serif" font-size="10" lengthAdjust="spacing" textLength="194" x="75.1" y="165.9902">lapr4.shodrone.usermanagement.domain</text><line style="stroke:#181818;stroke-width:0.5;" x1="35" x2="281" y1="173.1875" y2="173.1875"/><ellipse cx="45" cy="187.4922" fill="#84BE84" rx="3" ry="3" style="stroke:#038048;stroke-width:1.0;"/><text fill="#000000" font-family="sans-serif" font-size="14" lengthAdjust="spacing" textLength="186" x="54" y="191.7207">isSatisfiedBy(String): boolean</text><ellipse cx="45" cy="205.1016" fill="#84BE84" rx="3" ry="3" style="stroke:#038048;stroke-width:1.0;"/><text fill="#000000" font-family="sans-serif" font-size="14" lengthAdjust="spacing" textLength="222" x="54" y="209.3301">strength(String): PasswordStrength</text></g></a><!--class eapli.framework.infrastructure.authz.domain.model.PasswordPolicy--><g id="elem_eapli.framework.infrastructure.authz.domain.model.PasswordPolicy"><rect codeLine="10" fill="#F1F1F1" height="65.7969" id="eapli.framework.infrastructure.authz.domain.model.PasswordPolicy" rx="2.5" ry="2.5" style="stroke:#181818;stroke-width:0.5;" width="267" x="24.5" y="7"/><ellipse cx="39.5" cy="27.0938" fill="#B4A7E5" rx="11" ry="11" style="stroke:#181818;stroke-width:1.0;"/><path d="M40.4531,23.7344 L40.4531,30.3906 L42.1719,30.3906 Q42.7813,30.3906 43.0469,30.625 Q43.3125,30.8594 43.3125,31.25 Q43.3125,31.625 43.0469,31.8594 Q42.7813,32.0938 42.1719,32.0938 L37.0313,32.0938 Q36.4219,32.0938 36.1563,31.8594 Q35.8906,31.625 35.8906,31.2344 Q35.8906,30.8594 36.1563,30.625 Q36.4219,30.3906 37.0313,30.3906 L38.75,30.3906 L38.75,23.7344 L37.0313,23.7344 Q36.4219,23.7344 36.1563,23.5 Q35.8906,23.2656 35.8906,22.875 Q35.8906,22.5 36.1563,22.2656 Q36.4219,22.0313 37.0313,22.0313 L42.1719,22.0313 Q42.7813,22.0313 43.0469,22.2656 Q43.3125,22.5 43.3125,22.875 Q43.3125,23.2656 43.0469,23.5 Q42.7813,23.7344 42.1719,23.7344 L40.4531,23.7344 Z " fill="#000000"/><text fill="#000000" font-family="sans-serif" font-size="14" font-style="italic" lengthAdjust="spacing" textLength="98" x="122" y="26.5332">PasswordPolicy</text><text fill="#000000" font-family="sans-serif" font-size="10" font-style="italic" lengthAdjust="spacing" textLength="235" x="53.5" y="39.9902">eapli.framework.infrastructure.authz.domain.model</text><line style="stroke:#181818;stroke-width:0.5;" x1="25.5" x2="290.5" y1="47.1875" y2="47.1875"/><ellipse cx="35.5" cy="61.4922" fill="#84BE84" rx="3" ry="3" style="stroke:#038048;stroke-width:1.0;"/><text fill="#000000" font-family="sans-serif" font-size="14" font-style="italic" lengthAdjust="spacing" textLength="186" x="44.5" y="65.7207">isSatisfiedBy(String): boolean</text></g><!--class lapr4.shodrone.usermanagement.domain.ExemploPasswordPolicy.PasswordStrength--><a href="ExemploPasswordPolicy.PasswordStrength.html" target="_top" title="ExemploPasswordPolicy.PasswordStrength.html" xlink:actuate="onRequest" xlink:href="ExemploPasswordPolicy.PasswordStrength.html" xlink:show="new" xlink:title="ExemploPasswordPolicy.PasswordStrength.html" xlink:type="simple"><g id="elem_lapr4.shodrone.usermanagement.domain.ExemploPasswordPolicy.PasswordStrength"><rect codeLine="13" fill="#F1F1F1" height="40.1875" id="lapr4.shodrone.usermanagement.domain.ExemploPasswordPolicy.PasswordStrength" rx="2.5" ry="2.5" style="stroke:#181818;stroke-width:0.5;" width="302" x="7" y="276"/><ellipse cx="22" cy="296.0938" fill="#EB937F" rx="11" ry="11" style="stroke:#181818;stroke-width:1.0;"/><path d="M20.8594,296.8906 L20.8594,299.3906 L25.1875,299.3906 L25.1875,298.4688 Q25.1875,297.8594 25.4219,297.5938 Q25.6719,297.3281 26.0469,297.3281 Q26.4219,297.3281 26.6563,297.5938 Q26.8906,297.8594 26.8906,298.4688 L26.8906,301.0938 L18.8906,301.0938 Q18.2656,301.0938 18,300.8594 Q17.75,300.625 17.75,300.2344 Q17.75,299.8594 18.0156,299.625 Q18.2813,299.3906 18.8906,299.3906 L19.1563,299.3906 L19.1563,292.7344 L18.8906,292.7344 Q18.2656,292.7344 18,292.5 Q17.75,292.2656 17.75,291.875 Q17.75,291.5 18,291.2656 Q18.2656,291.0313 18.8906,291.0313 L26.5156,291.0313 L26.5156,293.625 Q26.5156,294.2344 26.2813,294.5 Q26.0625,294.75 25.6719,294.75 Q25.2969,294.75 25.0625,294.5 Q24.8281,294.2344 24.8281,293.625 L24.8281,292.7344 L20.8594,292.7344 L20.8594,295.1875 L22.3438,295.1875 Q22.3438,294.5313 22.4688,294.3438 Q22.7344,293.9375 23.2031,293.9375 Q23.5781,293.9375 23.8125,294.2031 Q24.0469,294.4531 24.0469,295.0625 L24.0469,297.0313 Q24.0469,297.5781 23.9219,297.7656 Q23.6563,298.1563 23.2031,298.1563 Q22.7344,298.1563 22.4688,297.75 Q22.3438,297.5625 22.3438,296.8906 L20.8594,296.8906 Z " fill="#000000"/><text fill="#000000" font-family="sans-serif" font-size="14" lengthAdjust="spacing" textLength="270" x="36" y="295.5332">ExemploPasswordPolicy.PasswordStrength</text><text fill="#000000" font-family="sans-serif" font-size="10" lengthAdjust="spacing" textLength="194" x="74" y="308.9902">lapr4.shodrone.usermanagement.domain</text></g></a><!--reverse link eapli.framework.infrastructure.authz.domain.model.PasswordPolicy to lapr4.shodrone.usermanagement.domain.ExemploPasswordPolicy--><g id="link_eapli.framework.infrastructure.authz.domain.model.PasswordPolicy_lapr4.shodrone.usermanagement.domain.ExemploPasswordPolicy"><path codeLine="15" d="M158,91.07 C158,109 158,113.51 158,132.68 " fill="none" id="eapli.framework.infrastructure.authz.domain.model.PasswordPolicy-backto-lapr4.shodrone.usermanagement.domain.ExemploPasswordPolicy" style="stroke:#181818;stroke-width:1.0;stroke-dasharray:7.0,7.0;"/><polygon fill="none" points="158,73.07,152,91.07,164,91.07,158,73.07" style="stroke:#181818;stroke-width:1.0;"/></g><!--reverse link lapr4.shodrone.usermanagement.domain.ExemploPasswordPolicy to lapr4.shodrone.usermanagement.domain.ExemploPasswordPolicy.PasswordStrength--><g id="link_lapr4.shodrone.usermanagement.domain.ExemploPasswordPolicy_lapr4.shodrone.usermanagement.domain.ExemploPasswordPolicy.PasswordStrength"><path codeLine="16" d="M158,232.29 C158,252.44 158,259.8 158,275.8 " fill="none" id="lapr4.shodrone.usermanagement.domain.ExemploPasswordPolicy-backto-lapr4.shodrone.usermanagement.domain.ExemploPasswordPolicy.PasswordStrength" style="stroke:#181818;stroke-width:1.0;"/><ellipse cx="158" cy="224.29" fill="#FFFFFF" rx="8" ry="8" style="stroke:#181818;stroke-width:1.0;"/><line style="stroke:#181818;stroke-width:1.0;" x1="158" x2="158" y1="232.29" y2="216.29"/><line style="stroke:#181818;stroke-width:1.0;" x1="150" x2="166" y1="224.29" y2="224.29"/></g><text fill="#888888" font-family="sans-serif" font-size="10" lengthAdjust="spacing" textLength="184" x="59" y="331.5684">UMLDoclet 2.1.1, PlantUML 1.2023.12</text><!--SRC=[lPJ1JW8n48RlFiM4n0I2D68u4SB1w4qJ4k89EGox0zlOJZVjh0h8kriM26Q5YC6uXztDFtyxdQ_J0W044c2q579CQ4WvUXJdWHtJHGn3fbC2ihdCOQh9fA6gMfBCHRdK4uCXGAqNz8AwxKx__ZsQZ1j4zStvTE2CJkRFl8rVzmtclgD2dC37XAe8v2qopiWIYqgTHSqrm02d6DN1R30Q7THL9jQCnx0i5xv-cZeCKNI8TQQty_fGlEPPemiJvmmXxtr1FF5CihrbD_Lm6oczgmqJpK9-6kb-uN8K265kj9hwk2Cn_g8qn_-OhqYayAIma6onAzUwb4n9vzUZL8NH7i8I9t4W9h8wYSUgV1CNzgTTLrL6_zi6tz8VxOkgSTiecyqyctJlGwapoYWNSSPXQBPQVmbnS-XftU4mTMxzUNfyk7E9YTVAZMghzXKC3B945IvVoGVjkDxu1000]--></g></svg>