<?xml version="1.0" encoding="us-ascii" standalone="no"?><svg xmlns="http://www.w3.org/2000/svg" xmlns:xlink="http://www.w3.org/1999/xlink" contentStyleType="text/css" height="576px" preserveAspectRatio="none" style="width:967px;height:576px;background:#FFFFFF;" version="1.1" viewBox="0 0 967 576" width="967px" zoomAndPan="magnify"><defs/><g><!--cluster lapr4.shodrone.usermanagement.domain--><g id="cluster_lapr4.shodrone.usermanagement.domain"><path d="M8.5,148 L297.5,148 A3.75,3.75 0 0 1 300,150.5 L307,171.6094 L901.5,171.6094 A2.5,2.5 0 0 1 904,174.1094 L904,547.5 A2.5,2.5 0 0 1 901.5,550 L8.5,550 A2.5,2.5 0 0 1 6,547.5 L6,150.5 A2.5,2.5 0 0 1 8.5,148 " fill="none" style="stroke:#000000;stroke-width:1.5;"/><line style="stroke:#000000;stroke-width:1.5;" x1="6" x2="307" y1="171.6094" y2="171.6094"/><text fill="#000000" font-family="sans-serif" font-size="14" font-weight="bold" lengthAdjust="spacing" textLength="288" x="10" y="164.5332">lapr4.shodrone.usermanagement.domain</text></g><!--cluster eapli.framework.infrastructure.authz.domain.model--><g id="cluster_eapli.framework.infrastructure.authz.domain.model"><path d="M589.5,6 L947.5,6 A3.75,3.75 0 0 1 950,8.5 L957,29.6094 L957.5,29.6094 A2.5,2.5 0 0 1 960,32.1094 L960,121.5 A2.5,2.5 0 0 1 957.5,124 L589.5,124 A2.5,2.5 0 0 1 587,121.5 L587,8.5 A2.5,2.5 0 0 1 589.5,6 " fill="none" style="stroke:#000000;stroke-width:1.5;"/><line style="stroke:#000000;stroke-width:1.5;" x1="587" x2="957" y1="29.6094" y2="29.6094"/><text fill="#000000" font-family="sans-serif" font-size="14" font-weight="bold" lengthAdjust="spacing" textLength="357" x="591" y="22.5332">eapli.framework.infrastructure.authz.domain.model</text></g><!--class ExemploPasswordPolicy--><a href="ExemploPasswordPolicy.html" target="_top" title="ExemploPasswordPolicy.html" xlink:actuate="onRequest" xlink:href="ExemploPasswordPolicy.html" xlink:show="new" xlink:title="ExemploPasswordPolicy.html" xlink:type="simple"><g id="elem_ExemploPasswordPolicy"><rect codeLine="5" fill="#F1F1F1" height="83.2188" id="ExemploPasswordPolicy" rx="2.5" ry="2.5" style="stroke:#181818;stroke-width:0.5;" width="248" x="640" y="237"/><ellipse cx="684.25" cy="253" fill="#ADD1B2" rx="11" ry="11" style="stroke:#181818;stroke-width:1.0;"/><path d="M687.0156,248.875 Q687.1719,248.6563 687.3594,248.5469 Q687.5469,248.4375 687.7656,248.4375 Q688.1406,248.4375 688.375,248.7031 Q688.6094,248.9531 688.6094,249.5625 L688.6094,251.0156 Q688.6094,251.625 688.375,251.8906 Q688.1406,252.1563 687.7656,252.1563 Q687.4219,252.1563 687.2188,251.9531 Q687.0156,251.7656 686.9063,251.25 Q686.8594,250.8906 686.6719,250.7031 Q686.3438,250.3281 685.7344,250.1094 Q685.125,249.8906 684.5,249.8906 Q683.7344,249.8906 683.0938,250.2188 Q682.4688,250.5469 681.9688,251.2969 Q681.4844,252.0469 681.4844,253.0781 L681.4844,254.1719 Q681.4844,255.4063 682.375,256.2344 Q683.2656,257.0469 684.8594,257.0469 Q685.7969,257.0469 686.4531,256.7969 Q686.8438,256.6406 687.2656,256.2031 Q687.5313,255.9375 687.6719,255.8594 Q687.8281,255.7813 688.0313,255.7813 Q688.3594,255.7813 688.6094,256.0469 Q688.875,256.2969 688.875,256.6406 Q688.875,256.9844 688.5313,257.3906 Q688.0313,257.9688 687.2344,258.2969 Q686.1563,258.75 684.8594,258.75 Q683.3438,258.75 682.1406,258.125 Q681.1563,257.625 680.4688,256.5625 Q679.7813,255.4844 679.7813,254.2031 L679.7813,253.0469 Q679.7813,251.7188 680.3906,250.5781 Q681.0156,249.4219 682.1094,248.8125 Q683.2031,248.1875 684.4375,248.1875 Q685.1719,248.1875 685.8125,248.3594 Q686.4688,248.5156 687.0156,248.875 Z " fill="#000000"/><text fill="#000000" font-family="sans-serif" font-size="14" lengthAdjust="spacing" textLength="151" x="704.75" y="258.7285">ExemploPasswordPolicy</text><line style="stroke:#181818;stroke-width:0.5;" x1="641" x2="887" y1="269" y2="269"/><line style="stroke:#181818;stroke-width:0.5;" x1="641" x2="887" y1="277" y2="277"/><ellipse cx="651" cy="291.3047" fill="#84BE84" rx="3" ry="3" style="stroke:#038048;stroke-width:1.0;"/><text fill="#000000" font-family="sans-serif" font-size="14" lengthAdjust="spacing" textLength="186" x="660" y="295.5332">isSatisfiedBy(String): boolean</text><ellipse cx="651" cy="308.9141" fill="#84BE84" rx="3" ry="3" style="stroke:#038048;stroke-width:1.0;"/><text fill="#000000" font-family="sans-serif" font-size="14" lengthAdjust="spacing" textLength="222" x="660" y="313.1426">strength(String): PasswordStrength</text></g></a><!--class ExemploPasswordPolicy.PasswordStrength--><a href="ExemploPasswordPolicy.PasswordStrength.html" target="_top" title="ExemploPasswordPolicy.PasswordStrength.html" xlink:actuate="onRequest" xlink:href="ExemploPasswordPolicy.PasswordStrength.html" xlink:show="new" xlink:title="ExemploPasswordPolicy.PasswordStrength.html" xlink:type="simple"><g id="elem_ExemploPasswordPolicy.PasswordStrength"><rect codeLine="10" fill="#F1F1F1" height="100.8281" id="ExemploPasswordPolicy.PasswordStrength" rx="2.5" ry="2.5" style="stroke:#181818;stroke-width:0.5;" width="302" x="586" y="433"/><ellipse cx="601" cy="449" fill="#EB937F" rx="11" ry="11" style="stroke:#181818;stroke-width:1.0;"/><path d="M599.8594,449.7969 L599.8594,452.2969 L604.1875,452.2969 L604.1875,451.375 Q604.1875,450.7656 604.4219,450.5 Q604.6719,450.2344 605.0469,450.2344 Q605.4219,450.2344 605.6563,450.5 Q605.8906,450.7656 605.8906,451.375 L605.8906,454 L597.8906,454 Q597.2656,454 597,453.7656 Q596.75,453.5313 596.75,453.1406 Q596.75,452.7656 597.0156,452.5313 Q597.2813,452.2969 597.8906,452.2969 L598.1563,452.2969 L598.1563,445.6406 L597.8906,445.6406 Q597.2656,445.6406 597,445.4063 Q596.75,445.1719 596.75,444.7813 Q596.75,444.4063 597,444.1719 Q597.2656,443.9375 597.8906,443.9375 L605.5156,443.9375 L605.5156,446.5313 Q605.5156,447.1406 605.2813,447.4063 Q605.0625,447.6563 604.6719,447.6563 Q604.2969,447.6563 604.0625,447.4063 Q603.8281,447.1406 603.8281,446.5313 L603.8281,445.6406 L599.8594,445.6406 L599.8594,448.0938 L601.3438,448.0938 Q601.3438,447.4375 601.4688,447.25 Q601.7344,446.8438 602.2031,446.8438 Q602.5781,446.8438 602.8125,447.1094 Q603.0469,447.3594 603.0469,447.9688 L603.0469,449.9375 Q603.0469,450.4844 602.9219,450.6719 Q602.6563,451.0625 602.2031,451.0625 Q601.7344,451.0625 601.4688,450.6563 Q601.3438,450.4688 601.3438,449.7969 L599.8594,449.7969 Z " fill="#000000"/><text fill="#000000" font-family="sans-serif" font-size="14" lengthAdjust="spacing" textLength="270" x="615" y="454.7285">ExemploPasswordPolicy.PasswordStrength</text><line style="stroke:#181818;stroke-width:0.5;" x1="587" x2="887" y1="465" y2="465"/><ellipse cx="597" cy="479.3047" fill="none" rx="3" ry="3" style="stroke:#038048;stroke-width:1.0;"/><text fill="#000000" font-family="sans-serif" font-size="14" lengthAdjust="spacing" text-decoration="underline" textLength="40" x="606" y="483.5332">WEAK</text><ellipse cx="597" cy="496.9141" fill="none" rx="3" ry="3" style="stroke:#038048;stroke-width:1.0;"/><text fill="#000000" font-family="sans-serif" font-size="14" lengthAdjust="spacing" text-decoration="underline" textLength="43" x="606" y="501.1426">GOOD</text><ellipse cx="597" cy="514.5234" fill="none" rx="3" ry="3" style="stroke:#038048;stroke-width:1.0;"/><text fill="#000000" font-family="sans-serif" font-size="14" lengthAdjust="spacing" text-decoration="underline" textLength="71" x="606" y="518.752">EXCELENT</text><line style="stroke:#181818;stroke-width:0.5;" x1="587" x2="887" y1="525.8281" y2="525.8281"/></g></a><!--class ExemploRoles--><a href="ExemploRoles.html" target="_top" title="ExemploRoles.html" xlink:actuate="onRequest" xlink:href="ExemploRoles.html" xlink:show="new" xlink:title="ExemploRoles.html" xlink:type="simple"><g id="elem_ExemploRoles"><rect codeLine="16" fill="#F1F1F1" height="188.875" id="ExemploRoles" rx="2.5" ry="2.5" style="stroke:#181818;stroke-width:0.5;" width="276" x="329" y="184"/><ellipse cx="418.25" cy="200" fill="#ADD1B2" rx="11" ry="11" style="stroke:#181818;stroke-width:1.0;"/><path d="M421.0156,195.875 Q421.1719,195.6563 421.3594,195.5469 Q421.5469,195.4375 421.7656,195.4375 Q422.1406,195.4375 422.375,195.7031 Q422.6094,195.9531 422.6094,196.5625 L422.6094,198.0156 Q422.6094,198.625 422.375,198.8906 Q422.1406,199.1563 421.7656,199.1563 Q421.4219,199.1563 421.2188,198.9531 Q421.0156,198.7656 420.9063,198.25 Q420.8594,197.8906 420.6719,197.7031 Q420.3438,197.3281 419.7344,197.1094 Q419.125,196.8906 418.5,196.8906 Q417.7344,196.8906 417.0938,197.2188 Q416.4688,197.5469 415.9688,198.2969 Q415.4844,199.0469 415.4844,200.0781 L415.4844,201.1719 Q415.4844,202.4063 416.375,203.2344 Q417.2656,204.0469 418.8594,204.0469 Q419.7969,204.0469 420.4531,203.7969 Q420.8438,203.6406 421.2656,203.2031 Q421.5313,202.9375 421.6719,202.8594 Q421.8281,202.7813 422.0313,202.7813 Q422.3594,202.7813 422.6094,203.0469 Q422.875,203.2969 422.875,203.6406 Q422.875,203.9844 422.5313,204.3906 Q422.0313,204.9688 421.2344,205.2969 Q420.1563,205.75 418.8594,205.75 Q417.3438,205.75 416.1406,205.125 Q415.1563,204.625 414.4688,203.5625 Q413.7813,202.4844 413.7813,201.2031 L413.7813,200.0469 Q413.7813,198.7188 414.3906,197.5781 Q415.0156,196.4219 416.1094,195.8125 Q417.2031,195.1875 418.4375,195.1875 Q419.1719,195.1875 419.8125,195.3594 Q420.4688,195.5156 421.0156,195.875 Z " fill="#000000"/><text fill="#000000" font-family="sans-serif" font-size="14" lengthAdjust="spacing" textLength="89" x="438.75" y="205.7285">ExemploRoles</text><line style="stroke:#181818;stroke-width:0.5;" x1="330" x2="604" y1="216" y2="216"/><ellipse cx="340" cy="230.3047" fill="none" rx="3" ry="3" style="stroke:#038048;stroke-width:1.0;"/><text fill="#000000" font-family="sans-serif" font-size="14" lengthAdjust="spacing" text-decoration="underline" textLength="134" x="349" y="234.5332">POWER_USER: Role</text><ellipse cx="340" cy="247.9141" fill="none" rx="3" ry="3" style="stroke:#038048;stroke-width:1.0;"/><text fill="#000000" font-family="sans-serif" font-size="14" lengthAdjust="spacing" text-decoration="underline" textLength="91" x="349" y="252.1426">UTENTE: Role</text><ellipse cx="340" cy="265.5234" fill="none" rx="3" ry="3" style="stroke:#038048;stroke-width:1.0;"/><text fill="#000000" font-family="sans-serif" font-size="14" lengthAdjust="spacing" text-decoration="underline" textLength="79" x="349" y="269.752">ADMIN: Role</text><ellipse cx="340" cy="283.1328" fill="none" rx="3" ry="3" style="stroke:#038048;stroke-width:1.0;"/><text fill="#000000" font-family="sans-serif" font-size="14" lengthAdjust="spacing" text-decoration="underline" textLength="184" x="349" y="287.3613">SAMPLE_1_MANAGER: Role</text><ellipse cx="340" cy="300.7422" fill="none" rx="3" ry="3" style="stroke:#038048;stroke-width:1.0;"/><text fill="#000000" font-family="sans-serif" font-size="14" lengthAdjust="spacing" text-decoration="underline" textLength="250" x="349" y="304.9707">ANOTHER_EXAMPLE_MANAGER: Role</text><ellipse cx="340" cy="318.3516" fill="none" rx="3" ry="3" style="stroke:#038048;stroke-width:1.0;"/><text fill="#000000" font-family="sans-serif" font-size="14" lengthAdjust="spacing" text-decoration="underline" textLength="156" x="349" y="322.5801">OTHER_EXAMPLE: Role</text><line style="stroke:#181818;stroke-width:0.5;" x1="330" x2="604" y1="329.6563" y2="329.6563"/><ellipse cx="340" cy="343.9609" fill="#84BE84" rx="3" ry="3" style="stroke:#038048;stroke-width:1.0;"/><text fill="#000000" font-family="sans-serif" font-size="14" lengthAdjust="spacing" text-decoration="underline" textLength="151" x="349" y="348.1895">nonUserValues(): Role[]</text><ellipse cx="340" cy="361.5703" fill="#84BE84" rx="3" ry="3" style="stroke:#038048;stroke-width:1.0;"/><text fill="#000000" font-family="sans-serif" font-size="14" lengthAdjust="spacing" textLength="186" x="349" y="365.7988">isCollaborator(Role): boolean</text></g></a><!--class UserBuilderHelper--><a href="UserBuilderHelper.html" target="_top" title="UserBuilderHelper.html" xlink:actuate="onRequest" xlink:href="UserBuilderHelper.html" xlink:show="new" xlink:title="UserBuilderHelper.html" xlink:type="simple"><g id="elem_UserBuilderHelper"><rect codeLine="27" fill="#F1F1F1" height="83.2188" id="UserBuilderHelper" rx="2.5" ry="2.5" style="stroke:#181818;stroke-width:0.5;" width="271" x="22.5" y="237"/><ellipse cx="96.75" cy="253" fill="#ADD1B2" rx="11" ry="11" style="stroke:#181818;stroke-width:1.0;"/><path d="M99.5156,248.875 Q99.6719,248.6563 99.8594,248.5469 Q100.0469,248.4375 100.2656,248.4375 Q100.6406,248.4375 100.875,248.7031 Q101.1094,248.9531 101.1094,249.5625 L101.1094,251.0156 Q101.1094,251.625 100.875,251.8906 Q100.6406,252.1563 100.2656,252.1563 Q99.9219,252.1563 99.7188,251.9531 Q99.5156,251.7656 99.4063,251.25 Q99.3594,250.8906 99.1719,250.7031 Q98.8438,250.3281 98.2344,250.1094 Q97.625,249.8906 97,249.8906 Q96.2344,249.8906 95.5938,250.2188 Q94.9688,250.5469 94.4688,251.2969 Q93.9844,252.0469 93.9844,253.0781 L93.9844,254.1719 Q93.9844,255.4063 94.875,256.2344 Q95.7656,257.0469 97.3594,257.0469 Q98.2969,257.0469 98.9531,256.7969 Q99.3438,256.6406 99.7656,256.2031 Q100.0313,255.9375 100.1719,255.8594 Q100.3281,255.7813 100.5313,255.7813 Q100.8594,255.7813 101.1094,256.0469 Q101.375,256.2969 101.375,256.6406 Q101.375,256.9844 101.0313,257.3906 Q100.5313,257.9688 99.7344,258.2969 Q98.6563,258.75 97.3594,258.75 Q95.8438,258.75 94.6406,258.125 Q93.6563,257.625 92.9688,256.5625 Q92.2813,255.4844 92.2813,254.2031 L92.2813,253.0469 Q92.2813,251.7188 92.8906,250.5781 Q93.5156,249.4219 94.6094,248.8125 Q95.7031,248.1875 96.9375,248.1875 Q97.6719,248.1875 98.3125,248.3594 Q98.9688,248.5156 99.5156,248.875 Z " fill="#000000"/><text fill="#000000" font-family="sans-serif" font-size="14" lengthAdjust="spacing" textLength="114" x="117.25" y="258.7285">UserBuilderHelper</text><line style="stroke:#181818;stroke-width:0.5;" x1="23.5" x2="292.5" y1="269" y2="269"/><line style="stroke:#181818;stroke-width:0.5;" x1="23.5" x2="292.5" y1="277" y2="277"/><ellipse cx="33.5" cy="291.3047" fill="#84BE84" rx="3" ry="3" style="stroke:#038048;stroke-width:1.0;"/><text fill="#000000" font-family="sans-serif" font-size="14" lengthAdjust="spacing" text-decoration="underline" textLength="180" x="42.5" y="295.5332">builder(): SystemUserBuilder</text><ellipse cx="33.5" cy="308.9141" fill="#84BE84" rx="3" ry="3" style="stroke:#038048;stroke-width:1.0;"/><text fill="#000000" font-family="sans-serif" font-size="14" lengthAdjust="spacing" text-decoration="underline" textLength="245" x="42.5" y="313.1426">signupBuilder(): SignupRequestBuilder</text></g></a><!--class PasswordPolicy--><g id="elem_PasswordPolicy"><rect codeLine="35" fill="#F1F1F1" height="65.6094" id="PasswordPolicy" rx="2.5" ry="2.5" style="stroke:#181818;stroke-width:0.5;" width="212" x="658" y="42"/><ellipse cx="710.75" cy="58" fill="#B4A7E5" rx="11" ry="11" style="stroke:#181818;stroke-width:1.0;"/><path d="M711.7031,54.6406 L711.7031,61.2969 L713.4219,61.2969 Q714.0313,61.2969 714.2969,61.5313 Q714.5625,61.7656 714.5625,62.1563 Q714.5625,62.5313 714.2969,62.7656 Q714.0313,63 713.4219,63 L708.2813,63 Q707.6719,63 707.4063,62.7656 Q707.1406,62.5313 707.1406,62.1406 Q707.1406,61.7656 707.4063,61.5313 Q707.6719,61.2969 708.2813,61.2969 L710,61.2969 L710,54.6406 L708.2813,54.6406 Q707.6719,54.6406 707.4063,54.4063 Q707.1406,54.1719 707.1406,53.7813 Q707.1406,53.4063 707.4063,53.1719 Q707.6719,52.9375 708.2813,52.9375 L713.4219,52.9375 Q714.0313,52.9375 714.2969,53.1719 Q714.5625,53.4063 714.5625,53.7813 Q714.5625,54.1719 714.2969,54.4063 Q714.0313,54.6406 713.4219,54.6406 L711.7031,54.6406 Z " fill="#000000"/><text fill="#000000" font-family="sans-serif" font-size="14" font-style="italic" lengthAdjust="spacing" textLength="98" x="731.25" y="63.7285">PasswordPolicy</text><line style="stroke:#181818;stroke-width:0.5;" x1="659" x2="869" y1="74" y2="74"/><line style="stroke:#181818;stroke-width:0.5;" x1="659" x2="869" y1="82" y2="82"/><ellipse cx="669" cy="96.3047" fill="#84BE84" rx="3" ry="3" style="stroke:#038048;stroke-width:1.0;"/><text fill="#000000" font-family="sans-serif" font-size="14" font-style="italic" lengthAdjust="spacing" textLength="186" x="678" y="100.5332">isSatisfiedBy(String): boolean</text></g><!--reverse link PasswordPolicy to ExemploPasswordPolicy--><g id="link_PasswordPolicy_ExemploPasswordPolicy"><path codeLine="40" d="M764,126.37 C764,161.31 764,199 764,236.86 " fill="none" id="PasswordPolicy-backto-ExemploPasswordPolicy" style="stroke:#181818;stroke-width:1.0;stroke-dasharray:7.0,7.0;"/><polygon fill="none" points="764,108.37,758,126.37,770,126.37,764,108.37" style="stroke:#181818;stroke-width:1.0;"/></g><!--reverse link ExemploPasswordPolicy to ExemploPasswordPolicy.PasswordStrength--><g id="link_ExemploPasswordPolicy_ExemploPasswordPolicy.PasswordStrength"><path codeLine="41" d="M756.4902,335.9503 C752.1802,368.3503 748.24,398.02 743.63,432.64 " fill="none" id="ExemploPasswordPolicy-backto-ExemploPasswordPolicy.PasswordStrength" style="stroke:#181818;stroke-width:1.0;"/><ellipse cx="757.5451" cy="328.0201" fill="#FFFFFF" rx="8" ry="8" style="stroke:#181818;stroke-width:1.0;"/><line style="stroke:#181818;stroke-width:1.0;" x1="756.4902" x2="758.6" y1="335.9503" y2="320.09"/><line style="stroke:#181818;stroke-width:1.0;" x1="749.615" x2="765.4752" y1="326.9652" y2="329.075"/></g><text fill="#888888" font-family="sans-serif" font-size="10" lengthAdjust="spacing" textLength="184" x="384.5" y="566.3809">UMLDoclet 2.1.1, PlantUML 1.2023.12</text><!--SRC=[fLJVRzem47xlNt4laq2ibfZs5Eqb5AkTnYyHM2iXX4noW5N7pcnd6-lolyy1DaAQ05CjHR7llk_ydNrd0023rdq9qymg3PvtS-ECaB3mcQqH14lqHs8sAj9A8aaDwfX9vubHMXAfc749BtjEFaB1Z07w4-D4g96R_r0w6Yd1motCPfLsih6ncCzT52YC5ZS1izoiE4QTRIEmcijrquEbKWAPFCKQgr6kxUO8-xj5SF3ymsT7hIZJk5egATDhjPU1rScy6Ejo2JDeFLB_IuthVZZirhZeqntjqS6aAekJ4n-xmp57iRlb9KcZuICTBwO17NkG4sfWquaJGCz2_6x_y-0i8l3xenvTj1TzV-3VNzZH7mmd3quQVTgphk6SCCuYfP9JLyrVcKZHD9fxx6nUBi8x9GHRgbrtD798HGs-keqyS2Vb8aBzW291xQxabUtIlIptu5nQi3KMuqA46ehXQvacdG9nPnZZDvUZBNCFihFJZaUM24vMciNe2lkPSEdchi7IqAOQ2KljvjUXyKci8XI51BYqg5SiH2YrVYb7jdG1MMYpgziyAqhzRucULzBpwJSXLxrjdbVPzpiPR-13w_RsBNnI-Rw5c9y_h9JAVzD-hwj2uPxt3wHDskzX99YqpWhllgCsNCb6ymy0]--></g></svg>