<?xml version="1.0" encoding="us-ascii" standalone="no"?><svg xmlns="http://www.w3.org/2000/svg" xmlns:xlink="http://www.w3.org/1999/xlink" contentStyleType="text/css" height="324px" preserveAspectRatio="none" style="width:506px;height:324px;background:#FFFFFF;" version="1.1" viewBox="0 0 506 324" width="506px" zoomAndPan="magnify"><defs/><g><!--class lapr4.shodrone.utentemanagement.domain.MecanographicNumber--><a href="MecanographicNumber.html" target="_top" title="MecanographicNumber.html" xlink:actuate="onRequest" xlink:href="MecanographicNumber.html" xlink:show="new" xlink:title="MecanographicNumber.html" xlink:type="simple"><g id="elem_lapr4.shodrone.utentemanagement.domain.MecanographicNumber"><rect codeLine="5" fill="#F1F1F1" height="161.8438" id="lapr4.shodrone.utentemanagement.domain.MecanographicNumber" rx="2.5" ry="2.5" style="stroke:#181818;stroke-width:0.5;" width="277" x="86.5" y="136"/><ellipse cx="119.5" cy="156.0938" fill="#ADD1B2" rx="11" ry="11" style="stroke:#181818;stroke-width:1.0;"/><path d="M122.2656,151.9688 Q122.4219,151.75 122.6094,151.6406 Q122.7969,151.5313 123.0156,151.5313 Q123.3906,151.5313 123.625,151.7969 Q123.8594,152.0469 123.8594,152.6563 L123.8594,154.1094 Q123.8594,154.7188 123.625,154.9844 Q123.3906,155.25 123.0156,155.25 Q122.6719,155.25 122.4688,155.0469 Q122.2656,154.8594 122.1563,154.3438 Q122.1094,153.9844 121.9219,153.7969 Q121.5938,153.4219 120.9844,153.2031 Q120.375,152.9844 119.75,152.9844 Q118.9844,152.9844 118.3438,153.3125 Q117.7188,153.6406 117.2188,154.3906 Q116.7344,155.1406 116.7344,156.1719 L116.7344,157.2656 Q116.7344,158.5 117.625,159.3281 Q118.5156,160.1406 120.1094,160.1406 Q121.0469,160.1406 121.7031,159.8906 Q122.0938,159.7344 122.5156,159.2969 Q122.7813,159.0313 122.9219,158.9531 Q123.0781,158.875 123.2813,158.875 Q123.6094,158.875 123.8594,159.1406 Q124.125,159.3906 124.125,159.7344 Q124.125,160.0781 123.7813,160.4844 Q123.2813,161.0625 122.4844,161.3906 Q121.4063,161.8438 120.1094,161.8438 Q118.5938,161.8438 117.3906,161.2188 Q116.4063,160.7188 115.7188,159.6563 Q115.0313,158.5781 115.0313,157.2969 L115.0313,156.1406 Q115.0313,154.8125 115.6406,153.6719 Q116.2656,152.5156 117.3594,151.9063 Q118.4531,151.2813 119.6875,151.2813 Q120.4219,151.2813 121.0625,151.4531 Q121.7188,151.6094 122.2656,151.9688 Z " fill="#000000"/><text fill="#000000" font-family="sans-serif" font-size="14" lengthAdjust="spacing" textLength="146" x="167" y="155.5332">MecanographicNumber</text><text fill="#000000" font-family="sans-serif" font-size="10" lengthAdjust="spacing" textLength="205" x="137.5" y="168.9902">lapr4.shodrone.utentemanagement.domain</text><line style="stroke:#181818;stroke-width:0.5;" x1="87.5" x2="362.5" y1="176.1875" y2="176.1875"/><rect fill="none" height="6" style="stroke:#C82930;stroke-width:1.0;" width="6" x="94.5" y="187.4922"/><text fill="#000000" font-family="sans-serif" font-size="14" lengthAdjust="spacing" text-decoration="underline" textLength="139" x="106.5" y="194.7207">serialVersionUID: long</text><rect fill="none" height="6" style="stroke:#C82930;stroke-width:1.0;" width="6" x="94.5" y="205.1016"/><text fill="#000000" font-family="sans-serif" font-size="14" lengthAdjust="spacing" textLength="93" x="106.5" y="212.3301">number: String</text><line style="stroke:#181818;stroke-width:0.5;" x1="87.5" x2="362.5" y1="219.4063" y2="219.4063"/><ellipse cx="97.5" cy="233.7109" fill="#84BE84" rx="3" ry="3" style="stroke:#038048;stroke-width:1.0;"/><text fill="#000000" font-family="sans-serif" font-size="14" lengthAdjust="spacing" textLength="193" x="106.5" y="237.9395">MecanographicNumber(String)</text><polygon fill="#FFFF44" points="97.5,246.3203,101.5,250.3203,97.5,254.3203,93.5,250.3203" style="stroke:#B38D22;stroke-width:1.0;"/><text fill="#000000" font-family="sans-serif" font-size="14" lengthAdjust="spacing" textLength="156" x="106.5" y="255.5488">MecanographicNumber()</text><ellipse cx="97.5" cy="268.9297" fill="#84BE84" rx="3" ry="3" style="stroke:#038048;stroke-width:1.0;"/><text fill="#000000" font-family="sans-serif" font-size="14" lengthAdjust="spacing" text-decoration="underline" textLength="250" x="106.5" y="273.1582">valueOf(String): MecanographicNumber</text><ellipse cx="97.5" cy="286.5391" fill="#84BE84" rx="3" ry="3" style="stroke:#038048;stroke-width:1.0;"/><text fill="#000000" font-family="sans-serif" font-size="14" lengthAdjust="spacing" textLength="251" x="106.5" y="290.7676">compareTo(MecanographicNumber): int</text></g></a><!--class eapli.framework.domain.model.ValueObject--><g id="elem_eapli.framework.domain.model.ValueObject"><rect codeLine="14" fill="#F1F1F1" height="40.1875" id="eapli.framework.domain.model.ValueObject" rx="2.5" ry="2.5" style="stroke:#181818;stroke-width:0.5;" width="174" x="7" y="23"/><ellipse cx="22" cy="43.0938" fill="#B4A7E5" rx="11" ry="11" style="stroke:#181818;stroke-width:1.0;"/><path d="M22.9531,39.7344 L22.9531,46.3906 L24.6719,46.3906 Q25.2813,46.3906 25.5469,46.625 Q25.8125,46.8594 25.8125,47.25 Q25.8125,47.625 25.5469,47.8594 Q25.2813,48.0938 24.6719,48.0938 L19.5313,48.0938 Q18.9219,48.0938 18.6563,47.8594 Q18.3906,47.625 18.3906,47.2344 Q18.3906,46.8594 18.6563,46.625 Q18.9219,46.3906 19.5313,46.3906 L21.25,46.3906 L21.25,39.7344 L19.5313,39.7344 Q18.9219,39.7344 18.6563,39.5 Q18.3906,39.2656 18.3906,38.875 Q18.3906,38.5 18.6563,38.2656 Q18.9219,38.0313 19.5313,38.0313 L24.6719,38.0313 Q25.2813,38.0313 25.5469,38.2656 Q25.8125,38.5 25.8125,38.875 Q25.8125,39.2656 25.5469,39.5 Q25.2813,39.7344 24.6719,39.7344 L22.9531,39.7344 Z " fill="#000000"/><text fill="#000000" font-family="sans-serif" font-size="14" font-style="italic" lengthAdjust="spacing" textLength="77" x="68.5" y="42.5332">ValueObject</text><text fill="#000000" font-family="sans-serif" font-size="10" font-style="italic" lengthAdjust="spacing" textLength="142" x="36" y="55.9902">eapli.framework.domain.model</text></g><!--class java.lang.Comparable--><g id="elem_java.lang.Comparable"><rect codeLine="15" fill="#F1F1F1" height="65.7969" id="java.lang.Comparable" rx="2.5" ry="2.5" style="stroke:#181818;stroke-width:0.5;" width="279" x="216.5" y="10"/><ellipse cx="247.7" cy="30.0938" fill="#B4A7E5" rx="11" ry="11" style="stroke:#181818;stroke-width:1.0;"/><path d="M248.6531,26.7344 L248.6531,33.3906 L250.3719,33.3906 Q250.9813,33.3906 251.2469,33.625 Q251.5125,33.8594 251.5125,34.25 Q251.5125,34.625 251.2469,34.8594 Q250.9813,35.0938 250.3719,35.0938 L245.2313,35.0938 Q244.6219,35.0938 244.3563,34.8594 Q244.0906,34.625 244.0906,34.2344 Q244.0906,33.8594 244.3563,33.625 Q244.6219,33.3906 245.2313,33.3906 L246.95,33.3906 L246.95,26.7344 L245.2313,26.7344 Q244.6219,26.7344 244.3563,26.5 Q244.0906,26.2656 244.0906,25.875 Q244.0906,25.5 244.3563,25.2656 Q244.6219,25.0313 245.2313,25.0313 L250.3719,25.0313 Q250.9813,25.0313 251.2469,25.2656 Q251.5125,25.5 251.5125,25.875 Q251.5125,26.2656 251.2469,26.5 Q250.9813,26.7344 250.3719,26.7344 L248.6531,26.7344 Z " fill="#000000"/><text fill="#000000" font-family="sans-serif" font-size="14" font-style="italic" lengthAdjust="spacing" textLength="77" x="265.3" y="29.5332">Comparable</text><text fill="#000000" font-family="sans-serif" font-size="10" font-style="italic" lengthAdjust="spacing" textLength="43" x="282.3" y="42.9902">java.lang</text><rect fill="#FFFFFF" height="17.0938" style="stroke:#181818;stroke-width:1.0;stroke-dasharray:2.0,2.0;" width="132" x="366.5" y="7"/><text fill="#000000" font-family="sans-serif" font-size="12" font-style="italic" lengthAdjust="spacing" textLength="130" x="367.5" y="20.457">MecanographicNumber</text><line style="stroke:#181818;stroke-width:0.5;" x1="217.5" x2="494.5" y1="50.1875" y2="50.1875"/><ellipse cx="227.5" cy="64.4922" fill="#84BE84" rx="3" ry="3" style="stroke:#038048;stroke-width:1.0;"/><text fill="#000000" font-family="sans-serif" font-size="14" font-style="italic" lengthAdjust="spacing" textLength="253" x="236.5" y="68.7207">compareTo(MecanographicNumber): int</text></g><!--reverse link eapli.framework.domain.model.ValueObject to lapr4.shodrone.utentemanagement.domain.MecanographicNumber--><g id="link_eapli.framework.domain.model.ValueObject_lapr4.shodrone.utentemanagement.domain.MecanographicNumber"><path codeLine="19" d="M119.4237,77.3816 C133.0137,95.2316 143.36,108.81 164.01,135.92 " fill="none" id="eapli.framework.domain.model.ValueObject-backto-lapr4.shodrone.utentemanagement.domain.MecanographicNumber" style="stroke:#181818;stroke-width:1.0;stroke-dasharray:7.0,7.0;"/><polygon fill="none" points="108.52,63.06,114.6498,81.0162,124.1976,73.7471,108.52,63.06" style="stroke:#181818;stroke-width:1.0;"/></g><!--reverse link java.lang.Comparable to lapr4.shodrone.utentemanagement.domain.MecanographicNumber--><g id="link_java.lang.Comparable_lapr4.shodrone.utentemanagement.domain.MecanographicNumber"><path codeLine="20" d="M320.4507,90.6674 C307.5507,107.5974 302.05,114.84 286,135.91 " fill="none" id="java.lang.Comparable-backto-lapr4.shodrone.utentemanagement.domain.MecanographicNumber" style="stroke:#181818;stroke-width:1.0;stroke-dasharray:7.0,7.0;"/><polygon fill="none" points="331.36,76.35,315.6783,87.031,325.2232,94.3038,331.36,76.35" style="stroke:#181818;stroke-width:1.0;"/></g><text fill="#888888" font-family="sans-serif" font-size="10" lengthAdjust="spacing" textLength="184" x="154.25" y="314.2246">UMLDoclet 2.1.1, PlantUML 1.2023.12</text><!--SRC=[hLDDJm8n4BtxAoOO4mZIYE5421Uvc8YQ85oGmr1cTulzsBG5eyX_jnI1ZQu6exri-_fctapVB0208myQ5RaSEGqeHulUMD16qqcuXapC24Zb_WKIGNBcFgEAV6O2774kqJceT9nufNQprUqJHsrIYtac-Er2JSa-we_RYwx4tBQO2-4soB659-r9eSQKLDYocL4eT0NGmN5KLg87ut49oZAlv6G2grZsPgsSHo_u6XgEh40v8kk4qSFhNXkaqUcUsD0nGni6tee2NY-HgMuvjJtfj8nK-rf4VOboGNV9Ba4RIW8Fqjoeu1mzc6e9BGGBxIDvlRKf7CacmV22LQCeE9qJzmMB27CfM6B3X3mR-xHxPsLc9ACnFn5O8UUtkbUnT9nAAiZESObCeawZnlx43kHEIQFTefquTTuYz-jVlywnBK7dZR4_J6OKA-ljNnBp3Tr2OipcC-pVz0oNuMU_P4tMF8VxeEa32cVBxQ1NQ-y0]--></g></svg>