<?xml version="1.0" encoding="us-ascii" standalone="no"?><svg xmlns="http://www.w3.org/2000/svg" xmlns:xlink="http://www.w3.org/1999/xlink" contentStyleType="text/css" height="850px" preserveAspectRatio="none" style="width:2213px;height:850px;background:#FFFFFF;" version="1.1" viewBox="0 0 2213 850" width="2213px" zoomAndPan="magnify"><defs/><g><!--cluster lapr4.shodrone.utentemanagement.domain--><g id="cluster_lapr4.shodrone.utentemanagement.domain"><path d="M8.5,157 L311.5,157 A3.75,3.75 0 0 1 314,159.5 L321,180.6094 L1957.5,180.6094 A2.5,2.5 0 0 1 1960,183.1094 L1960,821.5 A2.5,2.5 0 0 1 1957.5,824 L8.5,824 A2.5,2.5 0 0 1 6,821.5 L6,159.5 A2.5,2.5 0 0 1 8.5,157 " fill="none" style="stroke:#000000;stroke-width:1.5;"/><line style="stroke:#000000;stroke-width:1.5;" x1="6" x2="321" y1="180.6094" y2="180.6094"/><text fill="#000000" font-family="sans-serif" font-size="14" font-weight="bold" lengthAdjust="spacing" textLength="302" x="10" y="173.5332">lapr4.shodrone.utentemanagement.domain</text></g><!--cluster eapli.framework.domain.model--><g id="cluster_eapli.framework.domain.model"><path d="M794.5,6 L1009.5,6 A3.75,3.75 0 0 1 1012,8.5 L1019,29.6094 L1557.5,29.6094 A2.5,2.5 0 0 1 1560,32.1094 L1560,121.5 A2.5,2.5 0 0 1 1557.5,124 L794.5,124 A2.5,2.5 0 0 1 792,121.5 L792,8.5 A2.5,2.5 0 0 1 794.5,6 " fill="none" style="stroke:#000000;stroke-width:1.5;"/><line style="stroke:#000000;stroke-width:1.5;" x1="792" x2="1019" y1="29.6094" y2="29.6094"/><text fill="#000000" font-family="sans-serif" font-size="14" font-weight="bold" lengthAdjust="spacing" textLength="214" x="796" y="22.5332">eapli.framework.domain.model</text></g><!--cluster java.lang--><g id="cluster_java.lang"><path d="M2036.5,315.5 L2100.5,315.5 A3.75,3.75 0 0 1 2103,318 L2110,339.1094 L2203.5,339.1094 A2.5,2.5 0 0 1 2206,341.6094 L2206,431 A2.5,2.5 0 0 1 2203.5,433.5 L2036.5,433.5 A2.5,2.5 0 0 1 2034,431 L2034,318 A2.5,2.5 0 0 1 2036.5,315.5 " fill="none" style="stroke:#000000;stroke-width:1.5;"/><line style="stroke:#000000;stroke-width:1.5;" x1="2034" x2="2110" y1="339.1094" y2="339.1094"/><text fill="#000000" font-family="sans-serif" font-size="14" font-weight="bold" lengthAdjust="spacing" textLength="63" x="2038" y="332.0332">java.lang</text></g><!--class ApprovalStatus--><a href="ApprovalStatus.html" target="_top" title="ApprovalStatus.html" xlink:actuate="onRequest" xlink:href="ApprovalStatus.html" xlink:show="new" xlink:title="ApprovalStatus.html" xlink:type="simple"><g id="elem_ApprovalStatus"><rect codeLine="5" fill="#F1F1F1" height="100.8281" id="ApprovalStatus" rx="2.5" ry="2.5" style="stroke:#181818;stroke-width:0.5;" width="128" x="270" y="680.5"/><ellipse cx="285" cy="696.5" fill="#EB937F" rx="11" ry="11" style="stroke:#181818;stroke-width:1.0;"/><path d="M283.8594,697.2969 L283.8594,699.7969 L288.1875,699.7969 L288.1875,698.875 Q288.1875,698.2656 288.4219,698 Q288.6719,697.7344 289.0469,697.7344 Q289.4219,697.7344 289.6563,698 Q289.8906,698.2656 289.8906,698.875 L289.8906,701.5 L281.8906,701.5 Q281.2656,701.5 281,701.2656 Q280.75,701.0313 280.75,700.6406 Q280.75,700.2656 281.0156,700.0313 Q281.2813,699.7969 281.8906,699.7969 L282.1563,699.7969 L282.1563,693.1406 L281.8906,693.1406 Q281.2656,693.1406 281,692.9063 Q280.75,692.6719 280.75,692.2813 Q280.75,691.9063 281,691.6719 Q281.2656,691.4375 281.8906,691.4375 L289.5156,691.4375 L289.5156,694.0313 Q289.5156,694.6406 289.2813,694.9063 Q289.0625,695.1563 288.6719,695.1563 Q288.2969,695.1563 288.0625,694.9063 Q287.8281,694.6406 287.8281,694.0313 L287.8281,693.1406 L283.8594,693.1406 L283.8594,695.5938 L285.3438,695.5938 Q285.3438,694.9375 285.4688,694.75 Q285.7344,694.3438 286.2031,694.3438 Q286.5781,694.3438 286.8125,694.6094 Q287.0469,694.8594 287.0469,695.4688 L287.0469,697.4375 Q287.0469,697.9844 286.9219,698.1719 Q286.6563,698.5625 286.2031,698.5625 Q285.7344,698.5625 285.4688,698.1563 Q285.3438,697.9688 285.3438,697.2969 L283.8594,697.2969 Z " fill="#000000"/><text fill="#000000" font-family="sans-serif" font-size="14" lengthAdjust="spacing" textLength="96" x="299" y="702.2285">ApprovalStatus</text><line style="stroke:#181818;stroke-width:0.5;" x1="271" x2="397" y1="712.5" y2="712.5"/><ellipse cx="281" cy="726.8047" fill="none" rx="3" ry="3" style="stroke:#038048;stroke-width:1.0;"/><text fill="#000000" font-family="sans-serif" font-size="14" lengthAdjust="spacing" text-decoration="underline" textLength="60" x="290" y="731.0332">PENDING</text><ellipse cx="281" cy="744.4141" fill="none" rx="3" ry="3" style="stroke:#038048;stroke-width:1.0;"/><text fill="#000000" font-family="sans-serif" font-size="14" lengthAdjust="spacing" text-decoration="underline" textLength="75" x="290" y="748.6426">ACCEPTED</text><ellipse cx="281" cy="762.0234" fill="none" rx="3" ry="3" style="stroke:#038048;stroke-width:1.0;"/><text fill="#000000" font-family="sans-serif" font-size="14" lengthAdjust="spacing" text-decoration="underline" textLength="65" x="290" y="766.252">REFUSED</text><line style="stroke:#181818;stroke-width:0.5;" x1="271" x2="397" y1="773.3281" y2="773.3281"/></g></a><!--class MecanographicNumber--><a href="MecanographicNumber.html" target="_top" title="MecanographicNumber.html" xlink:actuate="onRequest" xlink:href="MecanographicNumber.html" xlink:show="new" xlink:title="MecanographicNumber.html" xlink:type="simple"><g id="elem_MecanographicNumber"><rect codeLine="11" fill="#F1F1F1" height="153.6563" id="MecanographicNumber" rx="2.5" ry="2.5" style="stroke:#181818;stroke-width:0.5;" width="277" x="1582.5" y="654"/><ellipse cx="1643.75" cy="670" fill="#ADD1B2" rx="11" ry="11" style="stroke:#181818;stroke-width:1.0;"/><path d="M1646.5156,665.875 Q1646.6719,665.6563 1646.8594,665.5469 Q1647.0469,665.4375 1647.2656,665.4375 Q1647.6406,665.4375 1647.875,665.7031 Q1648.1094,665.9531 1648.1094,666.5625 L1648.1094,668.0156 Q1648.1094,668.625 1647.875,668.8906 Q1647.6406,669.1563 1647.2656,669.1563 Q1646.9219,669.1563 1646.7188,668.9531 Q1646.5156,668.7656 1646.4063,668.25 Q1646.3594,667.8906 1646.1719,667.7031 Q1645.8438,667.3281 1645.2344,667.1094 Q1644.625,666.8906 1644,666.8906 Q1643.2344,666.8906 1642.5938,667.2188 Q1641.9688,667.5469 1641.4688,668.2969 Q1640.9844,669.0469 1640.9844,670.0781 L1640.9844,671.1719 Q1640.9844,672.4063 1641.875,673.2344 Q1642.7656,674.0469 1644.3594,674.0469 Q1645.2969,674.0469 1645.9531,673.7969 Q1646.3438,673.6406 1646.7656,673.2031 Q1647.0313,672.9375 1647.1719,672.8594 Q1647.3281,672.7813 1647.5313,672.7813 Q1647.8594,672.7813 1648.1094,673.0469 Q1648.375,673.2969 1648.375,673.6406 Q1648.375,673.9844 1648.0313,674.3906 Q1647.5313,674.9688 1646.7344,675.2969 Q1645.6563,675.75 1644.3594,675.75 Q1642.8438,675.75 1641.6406,675.125 Q1640.6563,674.625 1639.9688,673.5625 Q1639.2813,672.4844 1639.2813,671.2031 L1639.2813,670.0469 Q1639.2813,668.7188 1639.8906,667.5781 Q1640.5156,666.4219 1641.6094,665.8125 Q1642.7031,665.1875 1643.9375,665.1875 Q1644.6719,665.1875 1645.3125,665.3594 Q1645.9688,665.5156 1646.5156,665.875 Z " fill="#000000"/><text fill="#000000" font-family="sans-serif" font-size="14" lengthAdjust="spacing" textLength="146" x="1664.25" y="675.7285">MecanographicNumber</text><line style="stroke:#181818;stroke-width:0.5;" x1="1583.5" x2="1858.5" y1="686" y2="686"/><rect fill="none" height="6" style="stroke:#C82930;stroke-width:1.0;" width="6" x="1590.5" y="697.3047"/><text fill="#000000" font-family="sans-serif" font-size="14" lengthAdjust="spacing" text-decoration="underline" textLength="139" x="1602.5" y="704.5332">serialVersionUID: long</text><rect fill="none" height="6" style="stroke:#C82930;stroke-width:1.0;" width="6" x="1590.5" y="714.9141"/><text fill="#000000" font-family="sans-serif" font-size="14" lengthAdjust="spacing" textLength="93" x="1602.5" y="722.1426">number: String</text><line style="stroke:#181818;stroke-width:0.5;" x1="1583.5" x2="1858.5" y1="729.2188" y2="729.2188"/><ellipse cx="1593.5" cy="743.5234" fill="#84BE84" rx="3" ry="3" style="stroke:#038048;stroke-width:1.0;"/><text fill="#000000" font-family="sans-serif" font-size="14" lengthAdjust="spacing" textLength="193" x="1602.5" y="747.752">MecanographicNumber(String)</text><polygon fill="#FFFF44" points="1593.5,756.1328,1597.5,760.1328,1593.5,764.1328,1589.5,760.1328" style="stroke:#B38D22;stroke-width:1.0;"/><text fill="#000000" font-family="sans-serif" font-size="14" lengthAdjust="spacing" textLength="156" x="1602.5" y="765.3613">MecanographicNumber()</text><ellipse cx="1593.5" cy="778.7422" fill="#84BE84" rx="3" ry="3" style="stroke:#038048;stroke-width:1.0;"/><text fill="#000000" font-family="sans-serif" font-size="14" lengthAdjust="spacing" text-decoration="underline" textLength="250" x="1602.5" y="782.9707">valueOf(String): MecanographicNumber</text><ellipse cx="1593.5" cy="796.3516" fill="#84BE84" rx="3" ry="3" style="stroke:#038048;stroke-width:1.0;"/><text fill="#000000" font-family="sans-serif" font-size="14" lengthAdjust="spacing" textLength="251" x="1602.5" y="800.5801">compareTo(MecanographicNumber): int</text></g></a><!--class SignupRequest--><a href="SignupRequest.html" target="_top" title="SignupRequest.html" xlink:actuate="onRequest" xlink:href="SignupRequest.html" xlink:show="new" xlink:title="SignupRequest.html" xlink:type="simple"><g id="elem_SignupRequest"><rect codeLine="20" fill="#F1F1F1" height="382.5781" id="SignupRequest" rx="2.5" ry="2.5" style="stroke:#181818;stroke-width:0.5;" width="624" x="22" y="193"/><ellipse cx="281.25" cy="209" fill="#ADD1B2" rx="11" ry="11" style="stroke:#181818;stroke-width:1.0;"/><path d="M284.0156,204.875 Q284.1719,204.6563 284.3594,204.5469 Q284.5469,204.4375 284.7656,204.4375 Q285.1406,204.4375 285.375,204.7031 Q285.6094,204.9531 285.6094,205.5625 L285.6094,207.0156 Q285.6094,207.625 285.375,207.8906 Q285.1406,208.1563 284.7656,208.1563 Q284.4219,208.1563 284.2188,207.9531 Q284.0156,207.7656 283.9063,207.25 Q283.8594,206.8906 283.6719,206.7031 Q283.3438,206.3281 282.7344,206.1094 Q282.125,205.8906 281.5,205.8906 Q280.7344,205.8906 280.0938,206.2188 Q279.4688,206.5469 278.9688,207.2969 Q278.4844,208.0469 278.4844,209.0781 L278.4844,210.1719 Q278.4844,211.4063 279.375,212.2344 Q280.2656,213.0469 281.8594,213.0469 Q282.7969,213.0469 283.4531,212.7969 Q283.8438,212.6406 284.2656,212.2031 Q284.5313,211.9375 284.6719,211.8594 Q284.8281,211.7813 285.0313,211.7813 Q285.3594,211.7813 285.6094,212.0469 Q285.875,212.2969 285.875,212.6406 Q285.875,212.9844 285.5313,213.3906 Q285.0313,213.9688 284.2344,214.2969 Q283.1563,214.75 281.8594,214.75 Q280.3438,214.75 279.1406,214.125 Q278.1563,213.625 277.4688,212.5625 Q276.7813,211.4844 276.7813,210.2031 L276.7813,209.0469 Q276.7813,207.7188 277.3906,206.5781 Q278.0156,205.4219 279.1094,204.8125 Q280.2031,204.1875 281.4375,204.1875 Q282.1719,204.1875 282.8125,204.3594 Q283.4688,204.5156 284.0156,204.875 Z " fill="#000000"/><text fill="#000000" font-family="sans-serif" font-size="14" lengthAdjust="spacing" textLength="97" x="301.75" y="214.7285">SignupRequest</text><line style="stroke:#181818;stroke-width:0.5;" x1="23" x2="645" y1="225" y2="225"/><rect fill="none" height="6" style="stroke:#C82930;stroke-width:1.0;" width="6" x="30" y="236.3047"/><text fill="#000000" font-family="sans-serif" font-size="14" lengthAdjust="spacing" text-decoration="underline" textLength="139" x="42" y="243.5332">serialVersionUID: long</text><rect fill="none" height="6" style="stroke:#C82930;stroke-width:1.0;" width="6" x="30" y="253.9141"/><text fill="#000000" font-family="sans-serif" font-size="14" lengthAdjust="spacing" textLength="86" x="42" y="261.1426">version: Long</text><rect fill="none" height="6" style="stroke:#C82930;stroke-width:1.0;" width="6" x="30" y="271.5234"/><text fill="#000000" font-family="sans-serif" font-size="14" lengthAdjust="spacing" textLength="135" x="42" y="278.752">username: Username</text><rect fill="none" height="6" style="stroke:#C82930;stroke-width:1.0;" width="6" x="30" y="289.1328"/><text fill="#000000" font-family="sans-serif" font-size="14" lengthAdjust="spacing" textLength="129" x="42" y="296.3613">password: Password</text><rect fill="none" height="6" style="stroke:#C82930;stroke-width:1.0;" width="6" x="30" y="306.7422"/><text fill="#000000" font-family="sans-serif" font-size="14" lengthAdjust="spacing" textLength="79" x="42" y="313.9707">name: Name</text><rect fill="none" height="6" style="stroke:#C82930;stroke-width:1.0;" width="6" x="30" y="324.3516"/><text fill="#000000" font-family="sans-serif" font-size="14" lengthAdjust="spacing" textLength="127" x="42" y="331.5801">email: EmailAddress</text><rect fill="none" height="6" style="stroke:#C82930;stroke-width:1.0;" width="6" x="30" y="341.9609"/><text fill="#000000" font-family="sans-serif" font-size="14" lengthAdjust="spacing" textLength="133" x="42" y="349.1895">createdOn: Calendar</text><line style="stroke:#181818;stroke-width:0.5;" x1="23" x2="645" y1="356.2656" y2="356.2656"/><polygon fill="#4177AF" points="33,366.5703,29,372.5703,37,372.5703" style="stroke:#1963A0;stroke-width:1.0;"/><text fill="#000000" font-family="sans-serif" font-size="14" lengthAdjust="spacing" textLength="598" x="42" y="374.7988">SignupRequest(Username, Password, Name, EmailAddress, MecanographicNumber, Calendar)</text><polygon fill="#FFFF44" points="33,383.1797,37,387.1797,33,391.1797,29,387.1797" style="stroke:#B38D22;stroke-width:1.0;"/><text fill="#000000" font-family="sans-serif" font-size="14" lengthAdjust="spacing" textLength="107" x="42" y="392.4082">SignupRequest()</text><ellipse cx="33" cy="405.7891" fill="#84BE84" rx="3" ry="3" style="stroke:#038048;stroke-width:1.0;"/><text fill="#000000" font-family="sans-serif" font-size="14" lengthAdjust="spacing" textLength="86" x="42" y="410.0176">accept(): void</text><ellipse cx="33" cy="423.3984" fill="#84BE84" rx="3" ry="3" style="stroke:#038048;stroke-width:1.0;"/><text fill="#000000" font-family="sans-serif" font-size="14" lengthAdjust="spacing" textLength="84" x="42" y="427.627">refuse(): void</text><ellipse cx="33" cy="441.0078" fill="#84BE84" rx="3" ry="3" style="stroke:#038048;stroke-width:1.0;"/><text fill="#000000" font-family="sans-serif" font-size="14" lengthAdjust="spacing" textLength="160" x="42" y="445.2363">sameAs(Object): boolean</text><ellipse cx="33" cy="458.6172" fill="#84BE84" rx="3" ry="3" style="stroke:#038048;stroke-width:1.0;"/><text fill="#000000" font-family="sans-serif" font-size="14" lengthAdjust="spacing" textLength="310" x="42" y="462.8457">mecanographicNumber(): MecanographicNumber</text><ellipse cx="33" cy="476.2266" fill="#84BE84" rx="3" ry="3" style="stroke:#038048;stroke-width:1.0;"/><text fill="#000000" font-family="sans-serif" font-size="14" lengthAdjust="spacing" textLength="127" x="42" y="480.4551">identity(): Username</text><ellipse cx="33" cy="493.8359" fill="#84BE84" rx="3" ry="3" style="stroke:#038048;stroke-width:1.0;"/><text fill="#000000" font-family="sans-serif" font-size="14" lengthAdjust="spacing" textLength="145" x="42" y="498.0645">username(): Username</text><ellipse cx="33" cy="511.4453" fill="#84BE84" rx="3" ry="3" style="stroke:#038048;stroke-width:1.0;"/><text fill="#000000" font-family="sans-serif" font-size="14" lengthAdjust="spacing" textLength="89" x="42" y="515.6738">name(): Name</text><ellipse cx="33" cy="529.0547" fill="#84BE84" rx="3" ry="3" style="stroke:#038048;stroke-width:1.0;"/><text fill="#000000" font-family="sans-serif" font-size="14" lengthAdjust="spacing" textLength="131" x="42" y="533.2832">isPending(): boolean</text><ellipse cx="33" cy="546.6641" fill="#84BE84" rx="3" ry="3" style="stroke:#038048;stroke-width:1.0;"/><text fill="#000000" font-family="sans-serif" font-size="14" lengthAdjust="spacing" textLength="137" x="42" y="550.8926">email(): EmailAddress</text><ellipse cx="33" cy="564.2734" fill="#84BE84" rx="3" ry="3" style="stroke:#038048;stroke-width:1.0;"/><text fill="#000000" font-family="sans-serif" font-size="14" lengthAdjust="spacing" textLength="139" x="42" y="568.502">password(): Password</text></g></a><!--class SignupRequestBuilder--><a href="SignupRequestBuilder.html" target="_top" title="SignupRequestBuilder.html" xlink:actuate="onRequest" xlink:href="SignupRequestBuilder.html" xlink:show="new" xlink:title="SignupRequestBuilder.html" xlink:type="simple"><g id="elem_SignupRequestBuilder"><rect codeLine="42" fill="#F1F1F1" height="364.9688" id="SignupRequestBuilder" rx="2.5" ry="2.5" style="stroke:#181818;stroke-width:0.5;" width="411" x="1052.5" y="202"/><ellipse cx="1183.25" cy="218" fill="#ADD1B2" rx="11" ry="11" style="stroke:#181818;stroke-width:1.0;"/><path d="M1186.0156,213.875 Q1186.1719,213.6563 1186.3594,213.5469 Q1186.5469,213.4375 1186.7656,213.4375 Q1187.1406,213.4375 1187.375,213.7031 Q1187.6094,213.9531 1187.6094,214.5625 L1187.6094,216.0156 Q1187.6094,216.625 1187.375,216.8906 Q1187.1406,217.1563 1186.7656,217.1563 Q1186.4219,217.1563 1186.2188,216.9531 Q1186.0156,216.7656 1185.9063,216.25 Q1185.8594,215.8906 1185.6719,215.7031 Q1185.3438,215.3281 1184.7344,215.1094 Q1184.125,214.8906 1183.5,214.8906 Q1182.7344,214.8906 1182.0938,215.2188 Q1181.4688,215.5469 1180.9688,216.2969 Q1180.4844,217.0469 1180.4844,218.0781 L1180.4844,219.1719 Q1180.4844,220.4063 1181.375,221.2344 Q1182.2656,222.0469 1183.8594,222.0469 Q1184.7969,222.0469 1185.4531,221.7969 Q1185.8438,221.6406 1186.2656,221.2031 Q1186.5313,220.9375 1186.6719,220.8594 Q1186.8281,220.7813 1187.0313,220.7813 Q1187.3594,220.7813 1187.6094,221.0469 Q1187.875,221.2969 1187.875,221.6406 Q1187.875,221.9844 1187.5313,222.3906 Q1187.0313,222.9688 1186.2344,223.2969 Q1185.1563,223.75 1183.8594,223.75 Q1182.3438,223.75 1181.1406,223.125 Q1180.1563,222.625 1179.4688,221.5625 Q1178.7813,220.4844 1178.7813,219.2031 L1178.7813,218.0469 Q1178.7813,216.7188 1179.3906,215.5781 Q1180.0156,214.4219 1181.1094,213.8125 Q1182.2031,213.1875 1183.4375,213.1875 Q1184.1719,213.1875 1184.8125,213.3594 Q1185.4688,213.5156 1186.0156,213.875 Z " fill="#000000"/><text fill="#000000" font-family="sans-serif" font-size="14" lengthAdjust="spacing" textLength="141" x="1203.75" y="223.7285">SignupRequestBuilder</text><line style="stroke:#181818;stroke-width:0.5;" x1="1053.5" x2="1462.5" y1="234" y2="234"/><rect fill="none" height="6" style="stroke:#C82930;stroke-width:1.0;" width="6" x="1060.5" y="245.3047"/><text fill="#000000" font-family="sans-serif" font-size="14" lengthAdjust="spacing" textLength="142" x="1072.5" y="252.5332">policy: PasswordPolicy</text><rect fill="none" height="6" style="stroke:#C82930;stroke-width:1.0;" width="6" x="1060.5" y="262.9141"/><text fill="#000000" font-family="sans-serif" font-size="14" lengthAdjust="spacing" textLength="174" x="1072.5" y="270.1426">encoder: PasswordEncoder</text><rect fill="none" height="6" style="stroke:#C82930;stroke-width:1.0;" width="6" x="1060.5" y="280.5234"/><text fill="#000000" font-family="sans-serif" font-size="14" lengthAdjust="spacing" textLength="108" x="1072.5" y="287.752">username: String</text><rect fill="none" height="6" style="stroke:#C82930;stroke-width:1.0;" width="6" x="1060.5" y="298.1328"/><text fill="#000000" font-family="sans-serif" font-size="14" lengthAdjust="spacing" textLength="129" x="1072.5" y="305.3613">password: Password</text><rect fill="none" height="6" style="stroke:#C82930;stroke-width:1.0;" width="6" x="1060.5" y="315.7422"/><text fill="#000000" font-family="sans-serif" font-size="14" lengthAdjust="spacing" textLength="104" x="1072.5" y="322.9707">firstName: String</text><rect fill="none" height="6" style="stroke:#C82930;stroke-width:1.0;" width="6" x="1060.5" y="333.3516"/><text fill="#000000" font-family="sans-serif" font-size="14" lengthAdjust="spacing" textLength="103" x="1072.5" y="340.5801">lastName: String</text><rect fill="none" height="6" style="stroke:#C82930;stroke-width:1.0;" width="6" x="1060.5" y="350.9609"/><text fill="#000000" font-family="sans-serif" font-size="14" lengthAdjust="spacing" textLength="78" x="1072.5" y="358.1895">email: String</text><rect fill="none" height="6" style="stroke:#C82930;stroke-width:1.0;" width="6" x="1060.5" y="368.5703"/><text fill="#000000" font-family="sans-serif" font-size="14" lengthAdjust="spacing" textLength="191" x="1072.5" y="375.7988">mecanographicNumber: String</text><rect fill="none" height="6" style="stroke:#C82930;stroke-width:1.0;" width="6" x="1060.5" y="386.1797"/><text fill="#000000" font-family="sans-serif" font-size="14" lengthAdjust="spacing" textLength="133" x="1072.5" y="393.4082">createdOn: Calendar</text><line style="stroke:#181818;stroke-width:0.5;" x1="1053.5" x2="1462.5" y1="400.4844" y2="400.4844"/><ellipse cx="1063.5" cy="414.7891" fill="#84BE84" rx="3" ry="3" style="stroke:#038048;stroke-width:1.0;"/><text fill="#000000" font-family="sans-serif" font-size="14" lengthAdjust="spacing" textLength="371" x="1072.5" y="419.0176">SignupRequestBuilder(PasswordPolicy, PasswordEncoder)</text><ellipse cx="1063.5" cy="432.3984" fill="#84BE84" rx="3" ry="3" style="stroke:#038048;stroke-width:1.0;"/><text fill="#000000" font-family="sans-serif" font-size="14" lengthAdjust="spacing" textLength="385" x="1072.5" y="436.627">withData(String, String, String, String): SignupRequestBuilder</text><ellipse cx="1063.5" cy="450.0078" fill="#84BE84" rx="3" ry="3" style="stroke:#038048;stroke-width:1.0;"/><text fill="#000000" font-family="sans-serif" font-size="14" lengthAdjust="spacing" textLength="284" x="1072.5" y="454.2363">withUsername(String): SignupRequestBuilder</text><ellipse cx="1063.5" cy="467.6172" fill="#84BE84" rx="3" ry="3" style="stroke:#038048;stroke-width:1.0;"/><text fill="#000000" font-family="sans-serif" font-size="14" lengthAdjust="spacing" textLength="281" x="1072.5" y="471.8457">withPassword(String): SignupRequestBuilder</text><ellipse cx="1063.5" cy="485.2266" fill="#84BE84" rx="3" ry="3" style="stroke:#038048;stroke-width:1.0;"/><text fill="#000000" font-family="sans-serif" font-size="14" lengthAdjust="spacing" textLength="301" x="1072.5" y="489.4551">withName(String, String): SignupRequestBuilder</text><ellipse cx="1063.5" cy="502.8359" fill="#84BE84" rx="3" ry="3" style="stroke:#038048;stroke-width:1.0;"/><text fill="#000000" font-family="sans-serif" font-size="14" lengthAdjust="spacing" textLength="254" x="1072.5" y="507.0645">withEmail(String): SignupRequestBuilder</text><ellipse cx="1063.5" cy="520.4453" fill="#84BE84" rx="3" ry="3" style="stroke:#038048;stroke-width:1.0;"/><text fill="#000000" font-family="sans-serif" font-size="14" lengthAdjust="spacing" textLength="366" x="1072.5" y="524.6738">withMecanographicNumber(String): SignupRequestBuilder</text><ellipse cx="1063.5" cy="538.0547" fill="#84BE84" rx="3" ry="3" style="stroke:#038048;stroke-width:1.0;"/><text fill="#000000" font-family="sans-serif" font-size="14" lengthAdjust="spacing" textLength="284" x="1072.5" y="542.2832">createdOn(Calendar): SignupRequestBuilder</text><ellipse cx="1063.5" cy="555.6641" fill="#84BE84" rx="3" ry="3" style="stroke:#038048;stroke-width:1.0;"/><text fill="#000000" font-family="sans-serif" font-size="14" lengthAdjust="spacing" textLength="145" x="1072.5" y="559.8926">build(): SignupRequest</text></g></a><!--class Utente--><a href="Utente.html" target="_top" title="Utente.html" xlink:actuate="onRequest" xlink:href="Utente.html" xlink:show="new" xlink:title="Utente.html" xlink:type="simple"><g id="elem_Utente"><rect codeLine="63" fill="#F1F1F1" height="206.4844" id="Utente" rx="2.5" ry="2.5" style="stroke:#181818;stroke-width:0.5;" width="336" x="681" y="281.5"/><ellipse cx="824.25" cy="297.5" fill="#ADD1B2" rx="11" ry="11" style="stroke:#181818;stroke-width:1.0;"/><path d="M827.0156,293.375 Q827.1719,293.1563 827.3594,293.0469 Q827.5469,292.9375 827.7656,292.9375 Q828.1406,292.9375 828.375,293.2031 Q828.6094,293.4531 828.6094,294.0625 L828.6094,295.5156 Q828.6094,296.125 828.375,296.3906 Q828.1406,296.6563 827.7656,296.6563 Q827.4219,296.6563 827.2188,296.4531 Q827.0156,296.2656 826.9063,295.75 Q826.8594,295.3906 826.6719,295.2031 Q826.3438,294.8281 825.7344,294.6094 Q825.125,294.3906 824.5,294.3906 Q823.7344,294.3906 823.0938,294.7188 Q822.4688,295.0469 821.9688,295.7969 Q821.4844,296.5469 821.4844,297.5781 L821.4844,298.6719 Q821.4844,299.9063 822.375,300.7344 Q823.2656,301.5469 824.8594,301.5469 Q825.7969,301.5469 826.4531,301.2969 Q826.8438,301.1406 827.2656,300.7031 Q827.5313,300.4375 827.6719,300.3594 Q827.8281,300.2813 828.0313,300.2813 Q828.3594,300.2813 828.6094,300.5469 Q828.875,300.7969 828.875,301.1406 Q828.875,301.4844 828.5313,301.8906 Q828.0313,302.4688 827.2344,302.7969 Q826.1563,303.25 824.8594,303.25 Q823.3438,303.25 822.1406,302.625 Q821.1563,302.125 820.4688,301.0625 Q819.7813,299.9844 819.7813,298.7031 L819.7813,297.5469 Q819.7813,296.2188 820.3906,295.0781 Q821.0156,293.9219 822.1094,293.3125 Q823.2031,292.6875 824.4375,292.6875 Q825.1719,292.6875 825.8125,292.8594 Q826.4688,293.0156 827.0156,293.375 Z " fill="#000000"/><text fill="#000000" font-family="sans-serif" font-size="14" lengthAdjust="spacing" textLength="41" x="844.75" y="303.2285">Utente</text><line style="stroke:#181818;stroke-width:0.5;" x1="682" x2="1016" y1="313.5" y2="313.5"/><rect fill="none" height="6" style="stroke:#C82930;stroke-width:1.0;" width="6" x="689" y="324.8047"/><text fill="#000000" font-family="sans-serif" font-size="14" lengthAdjust="spacing" text-decoration="underline" textLength="139" x="701" y="332.0332">serialVersionUID: long</text><rect fill="none" height="6" style="stroke:#C82930;stroke-width:1.0;" width="6" x="689" y="342.4141"/><text fill="#000000" font-family="sans-serif" font-size="14" lengthAdjust="spacing" textLength="86" x="701" y="349.6426">version: Long</text><rect fill="none" height="6" style="stroke:#C82930;stroke-width:1.0;" width="6" x="689" y="360.0234"/><text fill="#000000" font-family="sans-serif" font-size="14" lengthAdjust="spacing" textLength="156" x="701" y="367.252">systemUser: SystemUser</text><line style="stroke:#181818;stroke-width:0.5;" x1="682" x2="1016" y1="374.3281" y2="374.3281"/><ellipse cx="692" cy="388.6328" fill="#84BE84" rx="3" ry="3" style="stroke:#038048;stroke-width:1.0;"/><text fill="#000000" font-family="sans-serif" font-size="14" lengthAdjust="spacing" textLength="280" x="701" y="392.8613">Utente(SystemUser, MecanographicNumber)</text><polygon fill="#FFFF44" points="692,401.2422,696,405.2422,692,409.2422,688,405.2422" style="stroke:#B38D22;stroke-width:1.0;"/><text fill="#000000" font-family="sans-serif" font-size="14" lengthAdjust="spacing" textLength="51" x="701" y="410.4707">Utente()</text><ellipse cx="692" cy="423.8516" fill="#84BE84" rx="3" ry="3" style="stroke:#038048;stroke-width:1.0;"/><text fill="#000000" font-family="sans-serif" font-size="14" lengthAdjust="spacing" textLength="121" x="701" y="428.0801">user(): SystemUser</text><ellipse cx="692" cy="441.4609" fill="#84BE84" rx="3" ry="3" style="stroke:#038048;stroke-width:1.0;"/><text fill="#000000" font-family="sans-serif" font-size="14" lengthAdjust="spacing" textLength="160" x="701" y="445.6895">sameAs(Object): boolean</text><ellipse cx="692" cy="459.0703" fill="#84BE84" rx="3" ry="3" style="stroke:#038048;stroke-width:1.0;"/><text fill="#000000" font-family="sans-serif" font-size="14" lengthAdjust="spacing" textLength="310" x="701" y="463.2988">mecanographicNumber(): MecanographicNumber</text><ellipse cx="692" cy="476.6797" fill="#84BE84" rx="3" ry="3" style="stroke:#038048;stroke-width:1.0;"/><text fill="#000000" font-family="sans-serif" font-size="14" lengthAdjust="spacing" textLength="209" x="701" y="480.9082">identity(): MecanographicNumber</text></g></a><!--class UtenteBuilder--><a href="UtenteBuilder.html" target="_top" title="UtenteBuilder.html" xlink:actuate="onRequest" xlink:href="UtenteBuilder.html" xlink:show="new" xlink:title="UtenteBuilder.html" xlink:type="simple"><g id="elem_UtenteBuilder"><rect codeLine="75" fill="#F1F1F1" height="136.0469" id="UtenteBuilder" rx="2.5" ry="2.5" style="stroke:#181818;stroke-width:0.5;" width="445" x="1498.5" y="316.5"/><ellipse cx="1674.25" cy="332.5" fill="#ADD1B2" rx="11" ry="11" style="stroke:#181818;stroke-width:1.0;"/><path d="M1677.0156,328.375 Q1677.1719,328.1563 1677.3594,328.0469 Q1677.5469,327.9375 1677.7656,327.9375 Q1678.1406,327.9375 1678.375,328.2031 Q1678.6094,328.4531 1678.6094,329.0625 L1678.6094,330.5156 Q1678.6094,331.125 1678.375,331.3906 Q1678.1406,331.6563 1677.7656,331.6563 Q1677.4219,331.6563 1677.2188,331.4531 Q1677.0156,331.2656 1676.9063,330.75 Q1676.8594,330.3906 1676.6719,330.2031 Q1676.3438,329.8281 1675.7344,329.6094 Q1675.125,329.3906 1674.5,329.3906 Q1673.7344,329.3906 1673.0938,329.7188 Q1672.4688,330.0469 1671.9688,330.7969 Q1671.4844,331.5469 1671.4844,332.5781 L1671.4844,333.6719 Q1671.4844,334.9063 1672.375,335.7344 Q1673.2656,336.5469 1674.8594,336.5469 Q1675.7969,336.5469 1676.4531,336.2969 Q1676.8438,336.1406 1677.2656,335.7031 Q1677.5313,335.4375 1677.6719,335.3594 Q1677.8281,335.2813 1678.0313,335.2813 Q1678.3594,335.2813 1678.6094,335.5469 Q1678.875,335.7969 1678.875,336.1406 Q1678.875,336.4844 1678.5313,336.8906 Q1678.0313,337.4688 1677.2344,337.7969 Q1676.1563,338.25 1674.8594,338.25 Q1673.3438,338.25 1672.1406,337.625 Q1671.1563,337.125 1670.4688,336.0625 Q1669.7813,334.9844 1669.7813,333.7031 L1669.7813,332.5469 Q1669.7813,331.2188 1670.3906,330.0781 Q1671.0156,328.9219 1672.1094,328.3125 Q1673.2031,327.6875 1674.4375,327.6875 Q1675.1719,327.6875 1675.8125,327.8594 Q1676.4688,328.0156 1677.0156,328.375 Z " fill="#000000"/><text fill="#000000" font-family="sans-serif" font-size="14" lengthAdjust="spacing" textLength="85" x="1694.75" y="338.2285">UtenteBuilder</text><line style="stroke:#181818;stroke-width:0.5;" x1="1499.5" x2="1942.5" y1="348.5" y2="348.5"/><rect fill="none" height="6" style="stroke:#C82930;stroke-width:1.0;" width="6" x="1506.5" y="359.8047"/><text fill="#000000" font-family="sans-serif" font-size="14" lengthAdjust="spacing" textLength="156" x="1518.5" y="367.0332">systemUser: SystemUser</text><line style="stroke:#181818;stroke-width:0.5;" x1="1499.5" x2="1942.5" y1="374.1094" y2="374.1094"/><ellipse cx="1509.5" cy="388.4141" fill="#84BE84" rx="3" ry="3" style="stroke:#038048;stroke-width:1.0;"/><text fill="#000000" font-family="sans-serif" font-size="14" lengthAdjust="spacing" textLength="277" x="1518.5" y="392.6426">withSystemUser(SystemUser): UtenteBuilder</text><ellipse cx="1509.5" cy="406.0234" fill="#84BE84" rx="3" ry="3" style="stroke:#038048;stroke-width:1.0;"/><text fill="#000000" font-family="sans-serif" font-size="14" lengthAdjust="spacing" textLength="419" x="1518.5" y="410.252">withMecanographicNumber(MecanographicNumber): UtenteBuilder</text><ellipse cx="1509.5" cy="423.6328" fill="#84BE84" rx="3" ry="3" style="stroke:#038048;stroke-width:1.0;"/><text fill="#000000" font-family="sans-serif" font-size="14" lengthAdjust="spacing" textLength="310" x="1518.5" y="427.8613">withMecanographicNumber(String): UtenteBuilder</text><ellipse cx="1509.5" cy="441.2422" fill="#84BE84" rx="3" ry="3" style="stroke:#038048;stroke-width:1.0;"/><text fill="#000000" font-family="sans-serif" font-size="14" lengthAdjust="spacing" textLength="89" x="1518.5" y="445.4707">build(): Utente</text></g></a><!--class ValueObject--><g id="elem_ValueObject"><rect codeLine="86" fill="#F1F1F1" height="48" id="ValueObject" rx="2.5" ry="2.5" style="stroke:#181818;stroke-width:0.5;" width="109" x="1434.5" y="51"/><ellipse cx="1449.5" cy="67" fill="#B4A7E5" rx="11" ry="11" style="stroke:#181818;stroke-width:1.0;"/><path d="M1450.4531,63.6406 L1450.4531,70.2969 L1452.1719,70.2969 Q1452.7813,70.2969 1453.0469,70.5313 Q1453.3125,70.7656 1453.3125,71.1563 Q1453.3125,71.5313 1453.0469,71.7656 Q1452.7813,72 1452.1719,72 L1447.0313,72 Q1446.4219,72 1446.1563,71.7656 Q1445.8906,71.5313 1445.8906,71.1406 Q1445.8906,70.7656 1446.1563,70.5313 Q1446.4219,70.2969 1447.0313,70.2969 L1448.75,70.2969 L1448.75,63.6406 L1447.0313,63.6406 Q1446.4219,63.6406 1446.1563,63.4063 Q1445.8906,63.1719 1445.8906,62.7813 Q1445.8906,62.4063 1446.1563,62.1719 Q1446.4219,61.9375 1447.0313,61.9375 L1452.1719,61.9375 Q1452.7813,61.9375 1453.0469,62.1719 Q1453.3125,62.4063 1453.3125,62.7813 Q1453.3125,63.1719 1453.0469,63.4063 Q1452.7813,63.6406 1452.1719,63.6406 L1450.4531,63.6406 Z " fill="#000000"/><text fill="#000000" font-family="sans-serif" font-size="14" font-style="italic" lengthAdjust="spacing" textLength="77" x="1463.5" y="72.7285">ValueObject</text><line style="stroke:#181818;stroke-width:0.5;" x1="1435.5" x2="1542.5" y1="83" y2="83"/><line style="stroke:#181818;stroke-width:0.5;" x1="1435.5" x2="1542.5" y1="91" y2="91"/></g><!--class AggregateRoot--><g id="elem_AggregateRoot"><rect codeLine="87" fill="#F1F1F1" height="48" id="AggregateRoot" rx="2.5" ry="2.5" style="stroke:#181818;stroke-width:0.5;" width="273" x="808.5" y="51"/><ellipse cx="823.5" cy="67" fill="#B4A7E5" rx="11" ry="11" style="stroke:#181818;stroke-width:1.0;"/><path d="M824.4531,63.6406 L824.4531,70.2969 L826.1719,70.2969 Q826.7813,70.2969 827.0469,70.5313 Q827.3125,70.7656 827.3125,71.1563 Q827.3125,71.5313 827.0469,71.7656 Q826.7813,72 826.1719,72 L821.0313,72 Q820.4219,72 820.1563,71.7656 Q819.8906,71.5313 819.8906,71.1406 Q819.8906,70.7656 820.1563,70.5313 Q820.4219,70.2969 821.0313,70.2969 L822.75,70.2969 L822.75,63.6406 L821.0313,63.6406 Q820.4219,63.6406 820.1563,63.4063 Q819.8906,63.1719 819.8906,62.7813 Q819.8906,62.4063 820.1563,62.1719 Q820.4219,61.9375 821.0313,61.9375 L826.1719,61.9375 Q826.7813,61.9375 827.0469,62.1719 Q827.3125,62.4063 827.3125,62.7813 Q827.3125,63.1719 827.0469,63.4063 Q826.7813,63.6406 826.1719,63.6406 L824.4531,63.6406 Z " fill="#000000"/><text fill="#000000" font-family="sans-serif" font-size="14" font-style="italic" lengthAdjust="spacing" textLength="96" x="837.5" y="72.7285">AggregateRoot</text><rect fill="#FFFFFF" height="17.0938" style="stroke:#181818;stroke-width:1.0;stroke-dasharray:2.0,2.0;" width="143" x="941.5" y="48"/><text fill="#000000" font-family="sans-serif" font-size="12" font-style="italic" lengthAdjust="spacing" textLength="141" x="942.5" y="61.457">I extends Comparable&lt;&#8203;I&gt;</text><line style="stroke:#181818;stroke-width:0.5;" x1="809.5" x2="1080.5" y1="83" y2="83"/><line style="stroke:#181818;stroke-width:0.5;" x1="809.5" x2="1080.5" y1="91" y2="91"/></g><!--class DomainFactory--><g id="elem_DomainFactory"><rect codeLine="88" fill="#F1F1F1" height="65.6094" id="DomainFactory" rx="2.5" ry="2.5" style="stroke:#181818;stroke-width:0.5;" width="283" x="1116.5" y="42"/><ellipse cx="1131.5" cy="58" fill="#B4A7E5" rx="11" ry="11" style="stroke:#181818;stroke-width:1.0;"/><path d="M1132.4531,54.6406 L1132.4531,61.2969 L1134.1719,61.2969 Q1134.7813,61.2969 1135.0469,61.5313 Q1135.3125,61.7656 1135.3125,62.1563 Q1135.3125,62.5313 1135.0469,62.7656 Q1134.7813,63 1134.1719,63 L1129.0313,63 Q1128.4219,63 1128.1563,62.7656 Q1127.8906,62.5313 1127.8906,62.1406 Q1127.8906,61.7656 1128.1563,61.5313 Q1128.4219,61.2969 1129.0313,61.2969 L1130.75,61.2969 L1130.75,54.6406 L1129.0313,54.6406 Q1128.4219,54.6406 1128.1563,54.4063 Q1127.8906,54.1719 1127.8906,53.7813 Q1127.8906,53.4063 1128.1563,53.1719 Q1128.4219,52.9375 1129.0313,52.9375 L1134.1719,52.9375 Q1134.7813,52.9375 1135.0469,53.1719 Q1135.3125,53.4063 1135.3125,53.7813 Q1135.3125,54.1719 1135.0469,54.4063 Q1134.7813,54.6406 1134.1719,54.6406 L1132.4531,54.6406 Z " fill="#000000"/><text fill="#000000" font-family="sans-serif" font-size="14" font-style="italic" lengthAdjust="spacing" textLength="96" x="1145.5" y="63.7285">DomainFactory</text><rect fill="#FFFFFF" height="17.0938" style="stroke:#181818;stroke-width:1.0;stroke-dasharray:2.0,2.0;" width="153" x="1249.5" y="39"/><text fill="#000000" font-family="sans-serif" font-size="12" font-style="italic" lengthAdjust="spacing" textLength="151" x="1250.5" y="52.457">T extends DomainEntity&lt;?&gt;</text><line style="stroke:#181818;stroke-width:0.5;" x1="1117.5" x2="1398.5" y1="74" y2="74"/><line style="stroke:#181818;stroke-width:0.5;" x1="1117.5" x2="1398.5" y1="82" y2="82"/><ellipse cx="1127.5" cy="96.3047" fill="#84BE84" rx="3" ry="3" style="stroke:#038048;stroke-width:1.0;"/><text fill="#000000" font-family="sans-serif" font-size="14" font-style="italic" lengthAdjust="spacing" textLength="221" x="1136.5" y="100.5332">build(): T extends DomainEntity&lt;?&gt;</text></g><!--class Comparable--><g id="elem_Comparable"><rect codeLine="94" fill="#F1F1F1" height="65.6094" id="Comparable" rx="2.5" ry="2.5" style="stroke:#181818;stroke-width:0.5;" width="140" x="2050" y="351.5"/><ellipse cx="2074" cy="367.5" fill="#B4A7E5" rx="11" ry="11" style="stroke:#181818;stroke-width:1.0;"/><path d="M2074.9531,364.1406 L2074.9531,370.7969 L2076.6719,370.7969 Q2077.2813,370.7969 2077.5469,371.0313 Q2077.8125,371.2656 2077.8125,371.6563 Q2077.8125,372.0313 2077.5469,372.2656 Q2077.2813,372.5 2076.6719,372.5 L2071.5313,372.5 Q2070.9219,372.5 2070.6563,372.2656 Q2070.3906,372.0313 2070.3906,371.6406 Q2070.3906,371.2656 2070.6563,371.0313 Q2070.9219,370.7969 2071.5313,370.7969 L2073.25,370.7969 L2073.25,364.1406 L2071.5313,364.1406 Q2070.9219,364.1406 2070.6563,363.9063 Q2070.3906,363.6719 2070.3906,363.2813 Q2070.3906,362.9063 2070.6563,362.6719 Q2070.9219,362.4375 2071.5313,362.4375 L2076.6719,362.4375 Q2077.2813,362.4375 2077.5469,362.6719 Q2077.8125,362.9063 2077.8125,363.2813 Q2077.8125,363.6719 2077.5469,363.9063 Q2077.2813,364.1406 2076.6719,364.1406 L2074.9531,364.1406 Z " fill="#000000"/><text fill="#000000" font-family="sans-serif" font-size="14" font-style="italic" lengthAdjust="spacing" textLength="77" x="2090" y="373.2285">Comparable</text><rect fill="#FFFFFF" height="17.0938" style="stroke:#181818;stroke-width:1.0;stroke-dasharray:2.0,2.0;" width="9" x="2184" y="348.5"/><text fill="#000000" font-family="sans-serif" font-size="12" font-style="italic" lengthAdjust="spacing" textLength="7" x="2185" y="361.957">T</text><line style="stroke:#181818;stroke-width:0.5;" x1="2051" x2="2189" y1="383.5" y2="383.5"/><line style="stroke:#181818;stroke-width:0.5;" x1="2051" x2="2189" y1="391.5" y2="391.5"/><ellipse cx="2061" cy="405.8047" fill="#84BE84" rx="3" ry="3" style="stroke:#038048;stroke-width:1.0;"/><text fill="#000000" font-family="sans-serif" font-size="14" font-style="italic" lengthAdjust="spacing" textLength="114" x="2070" y="410.0332">compareTo(T): int</text></g><!--reverse link ValueObject to MecanographicNumber--><g id="link_ValueObject_MecanographicNumber"><path codeLine="99" d="M1561.759,76.1518 C1674.349,77.3518 1907.78,86.91 1961,149 C2022.76,221.04 2006.5,492.73 1961,576 C1938.45,617.27 1899.58,649.12 1859.62,672.85 " fill="none" id="ValueObject-backto-MecanographicNumber" style="stroke:#181818;stroke-width:1.0;stroke-dasharray:7.0,7.0;"/><polygon fill="none" points="1543.76,75.96,1561.695,82.1515,1561.8229,70.1522,1543.76,75.96" style="stroke:#181818;stroke-width:1.0;"/></g><!--reverse link Comparable to MecanographicNumber--><g id="link_Comparable_MecanographicNumber"><path codeLine="100" d="M2112.4377,435.3476 C2103.6777,486.0876 2082.72,567.12 2023,624 C1978.54,666.35 1916.19,691.89 1859.69,707.24 " fill="none" id="Comparable-backto-MecanographicNumber" style="stroke:#181818;stroke-width:1.0;stroke-dasharray:7.0,7.0;"/><polygon fill="none" points="2115.5,417.61,2106.5252,434.3268,2118.3502,436.3684,2115.5,417.61" style="stroke:#181818;stroke-width:1.0;"/></g><!--reverse link AggregateRoot to SignupRequest--><g id="link_AggregateRoot_SignupRequest"><path codeLine="101" d="M798.8799,103.1561 C749.7999,114.5961 711.74,126.76 664,149 C636.76,161.69 609.42,176.68 582.77,192.85 " fill="none" id="AggregateRoot-backto-SignupRequest" style="stroke:#181818;stroke-width:1.0;stroke-dasharray:7.0,7.0;"/><polygon fill="none" points="816.41,99.07,797.5179,97.3127,800.2419,108.9994,816.41,99.07" style="stroke:#181818;stroke-width:1.0;"/></g><!--link SignupRequest to MecanographicNumber--><g id="link_SignupRequest_MecanographicNumber"><path codeLine="102" d="M646.21,569.36 C652.15,571.67 658.08,573.89 664,576 C979.51,688.47 1370.0047,718.6524 1576.1247,726.8224 " fill="none" id="SignupRequest-to-MecanographicNumber" style="stroke:#181818;stroke-width:1.0;"/><polygon fill="#181818" points="1582.12,727.06,1573.2855,722.7067,1577.1239,726.862,1572.9686,730.7004,1582.12,727.06" style="stroke:#181818;stroke-width:1.0;"/><text fill="#000000" font-family="sans-serif" font-size="13" lengthAdjust="spacing" textLength="133" x="803" y="620.4951">mecanographicNumber</text></g><!--link SignupRequest to ApprovalStatus--><g id="link_SignupRequest_ApprovalStatus"><path codeLine="103" d="M334,576.14 C334,614.68 334,645.99 334,674.21 " fill="none" id="SignupRequest-to-ApprovalStatus" style="stroke:#181818;stroke-width:1.0;"/><polygon fill="#181818" points="334,680.21,338,671.21,334,675.21,330,671.21,334,680.21" style="stroke:#181818;stroke-width:1.0;"/><text fill="#000000" font-family="sans-serif" font-size="13" lengthAdjust="spacing" textLength="85" x="335" y="620.4951">approvalStatus</text></g><!--reverse link DomainFactory to SignupRequestBuilder--><g id="link_DomainFactory_SignupRequestBuilder"><path codeLine="104" d="M1258,126.04 C1258,149.57 1258,165.64 1258,201.84 " fill="none" id="DomainFactory-backto-SignupRequestBuilder" style="stroke:#181818;stroke-width:1.0;stroke-dasharray:7.0,7.0;"/><polygon fill="none" points="1258,108.04,1252,126.04,1264,126.04,1258,108.04" style="stroke:#181818;stroke-width:1.0;"/></g><!--reverse link AggregateRoot to Utente--><g id="link_AggregateRoot_Utente"><path codeLine="105" d="M932.4156,116.2921 C920.4456,154.6321 901.16,216.43 880.86,281.44 " fill="none" id="AggregateRoot-backto-Utente" style="stroke:#181818;stroke-width:1.0;stroke-dasharray:7.0,7.0;"/><polygon fill="none" points="937.78,99.11,926.6883,114.504,938.143,118.0802,937.78,99.11" style="stroke:#181818;stroke-width:1.0;"/></g><!--link Utente to MecanographicNumber--><g id="link_Utente_MecanographicNumber"><path codeLine="106" d="M928.44,487.9 C958.55,520.49 995.24,553.81 1035,576 C1208.06,672.6 1431.5956,708.056 1576.3156,721.476 " fill="none" id="Utente-to-MecanographicNumber" style="stroke:#181818;stroke-width:1.0;"/><polygon fill="#181818" points="1582.29,722.03,1573.6978,717.2161,1577.3114,721.5683,1572.9591,725.1819,1582.29,722.03" style="stroke:#181818;stroke-width:1.0;"/><text fill="#000000" font-family="sans-serif" font-size="13" lengthAdjust="spacing" textLength="133" x="1121" y="620.4951">mecanographicNumber</text></g><!--reverse link DomainFactory to UtenteBuilder--><g id="link_DomainFactory_UtenteBuilder"><path codeLine="107" d="M1362.0398,114.034 C1385.2898,122.214 1393.51,124.76 1417,132 C1445.12,140.67 1455.41,134.46 1481,149 C1555.96,191.59 1624.46,263.31 1668.92,316.25 " fill="none" id="DomainFactory-backto-UtenteBuilder" style="stroke:#181818;stroke-width:1.0;stroke-dasharray:7.0,7.0;"/><polygon fill="none" points="1345.06,108.06,1360.0484,119.6939,1364.0311,108.374,1345.06,108.06" style="stroke:#181818;stroke-width:1.0;"/></g><!--link UtenteBuilder to MecanographicNumber--><g id="link_UtenteBuilder_MecanographicNumber"><path codeLine="108" d="M1721,452.74 C1721,510.51 1721,587.75 1721,647.93 " fill="none" id="UtenteBuilder-to-MecanographicNumber" style="stroke:#181818;stroke-width:1.0;"/><polygon fill="#181818" points="1721,653.93,1725,644.93,1721,648.93,1717,644.93,1721,653.93" style="stroke:#181818;stroke-width:1.0;"/><text fill="#000000" font-family="sans-serif" font-size="13" lengthAdjust="spacing" textLength="133" x="1722" y="620.4951">mecanographicNumber</text></g><text fill="#888888" font-family="sans-serif" font-size="10" lengthAdjust="spacing" textLength="184" x="1007.5" y="840.3809">UMLDoclet 2.1.1, PlantUML 1.2023.12</text><!--SRC=[lLTVRzem47_lfx0qJGe28dNQauMO6D09gQMeG5-gFfZ4WDiapco73dLCUz-tt2VP9K284uT2MuQ4OllkV7U_-vCBGWX9gk0V4a4K5mZZipCuH25n7icC8e-4uhCjvzmLFA1sf6YWg4y2eFcmj5tk4nQWvxLK_AD1vADM60g-8DvG4HL9T7Ud7zXpvNltzo26Chzd2KJch51rqErtUlrl9THMkzqTZBgT4l9Dzs8yp51NEziSZqY9hgX30ZuJ99mpfn_v4oh0GiFf2sRM9HMCUBTKICQ3SQ-3aSU3cSPS3vARC1egmNAqga6bjUQhQ8mVJ8oL4lS1v8XUJxSNOPExkXaEzo7yTCGj0ojSm09L3kQGpO8elA7V8oeLmAZjtmF0nPgAqMM1585yG7oAqNYpqkaX6FZ4XOlHOBFAnIQHxHVa8C6PXr4tVhHSLr0fTGP7KAAeUmrMjOb70vVeaFxIKB2srjLIEsg9rfgcecQAL2rLa4i9NODEh1B7eI6SOhJWJ7UwAkWKS3FJ91ZLajRrv84w2ZWcd7kK13gJRqh60zACkT0mc5h6pCPuLRVnBEVOKWingp8v09WWuwqokvEenjJIk5Qt2HDp5L9cV-f_ZPZd9et4T6mkX7h8FUOiTxe6oJwNZ873tRY3R9cwwuEoKZ0qcXSBOSg4LFrISV1s3tLJBIQI8LNCZ2yLLDK4ggN3LiiZb2kA9wRc7QB8fZFMaFa9eJSfAzwrpL3hIBcjbSVAzNUwZhOrIVbZ5UvvFHroHHfJAsrXXuXDuaChprfUXUDa986wMozE_CgHImdpJnnwC31Twnwi3R5sP6Ddp_NpZL2bs14JB4fK_RU6lO-v92IxZgZjIrhX8S36IRcZPG2EtnTP7OVbiddQUSL5QL7iaKtJUisJ1s-bZzsKX1wpfmB22wtYSJDcspwqDI-374ncL4o9Gz5jClKbQM2WjcOpGMTGZJUSgqOFqHzWX2jHEvdyoCIZZR-___IQJODi9r5zGHpuF5WsHgdi-hoRP4ZZIxEPhpWoaKg0r2hZUwbq1Wu36WzaGMoF13EZwnadHlkis8svey9Gcr6w3tgCCpYZna_RFl032UEo0afzmtZdoFjSlTyJBIUEKrZipA-IHFLwyorEOkINU7vwS_JlMOo8jZy0VgsitW1_jjcSBE2PddMSoEb2V39qYptyLPAdyzo9Bn5e2b64n_ZgiiCTZohqoJwtps48XcQYu1Hzt8mnLkKV]--></g></svg>