<?xml version="1.0" encoding="us-ascii" standalone="no"?><svg xmlns="http://www.w3.org/2000/svg" xmlns:xlink="http://www.w3.org/1999/xlink" contentStyleType="text/css" height="535px" preserveAspectRatio="none" style="width:425px;height:535px;background:#FFFFFF;" version="1.1" viewBox="0 0 425 535" width="425px" zoomAndPan="magnify"><defs/><g><!--class lapr4.shodrone.utentemanagement.domain.SignupRequestBuilder--><a href="SignupRequestBuilder.html" target="_top" title="SignupRequestBuilder.html" xlink:actuate="onRequest" xlink:href="SignupRequestBuilder.html" xlink:show="new" xlink:title="SignupRequestBuilder.html" xlink:type="simple"><g id="elem_lapr4.shodrone.utentemanagement.domain.SignupRequestBuilder"><rect codeLine="5" fill="#F1F1F1" height="373.1563" id="lapr4.shodrone.utentemanagement.domain.SignupRequestBuilder" rx="2.5" ry="2.5" style="stroke:#181818;stroke-width:0.5;" width="411" x="7" y="136"/><ellipse cx="105.75" cy="156.0938" fill="#ADD1B2" rx="11" ry="11" style="stroke:#181818;stroke-width:1.0;"/><path d="M108.5156,151.9688 Q108.6719,151.75 108.8594,151.6406 Q109.0469,151.5313 109.2656,151.5313 Q109.6406,151.5313 109.875,151.7969 Q110.1094,152.0469 110.1094,152.6563 L110.1094,154.1094 Q110.1094,154.7188 109.875,154.9844 Q109.6406,155.25 109.2656,155.25 Q108.9219,155.25 108.7188,155.0469 Q108.5156,154.8594 108.4063,154.3438 Q108.3594,153.9844 108.1719,153.7969 Q107.8438,153.4219 107.2344,153.2031 Q106.625,152.9844 106,152.9844 Q105.2344,152.9844 104.5938,153.3125 Q103.9688,153.6406 103.4688,154.3906 Q102.9844,155.1406 102.9844,156.1719 L102.9844,157.2656 Q102.9844,158.5 103.875,159.3281 Q104.7656,160.1406 106.3594,160.1406 Q107.2969,160.1406 107.9531,159.8906 Q108.3438,159.7344 108.7656,159.2969 Q109.0313,159.0313 109.1719,158.9531 Q109.3281,158.875 109.5313,158.875 Q109.8594,158.875 110.1094,159.1406 Q110.375,159.3906 110.375,159.7344 Q110.375,160.0781 110.0313,160.4844 Q109.5313,161.0625 108.7344,161.3906 Q107.6563,161.8438 106.3594,161.8438 Q104.8438,161.8438 103.6406,161.2188 Q102.6563,160.7188 101.9688,159.6563 Q101.2813,158.5781 101.2813,157.2969 L101.2813,156.1406 Q101.2813,154.8125 101.8906,153.6719 Q102.5156,152.5156 103.6094,151.9063 Q104.7031,151.2813 105.9375,151.2813 Q106.6719,151.2813 107.3125,151.4531 Q107.9688,151.6094 108.5156,151.9688 Z " fill="#000000"/><text fill="#000000" font-family="sans-serif" font-size="14" lengthAdjust="spacing" textLength="141" x="158.25" y="155.5332">SignupRequestBuilder</text><text fill="#000000" font-family="sans-serif" font-size="10" lengthAdjust="spacing" textLength="205" x="126.25" y="168.9902">lapr4.shodrone.utentemanagement.domain</text><line style="stroke:#181818;stroke-width:0.5;" x1="8" x2="417" y1="176.1875" y2="176.1875"/><rect fill="none" height="6" style="stroke:#C82930;stroke-width:1.0;" width="6" x="15" y="187.4922"/><text fill="#000000" font-family="sans-serif" font-size="14" lengthAdjust="spacing" textLength="142" x="27" y="194.7207">policy: PasswordPolicy</text><rect fill="none" height="6" style="stroke:#C82930;stroke-width:1.0;" width="6" x="15" y="205.1016"/><text fill="#000000" font-family="sans-serif" font-size="14" lengthAdjust="spacing" textLength="174" x="27" y="212.3301">encoder: PasswordEncoder</text><rect fill="none" height="6" style="stroke:#C82930;stroke-width:1.0;" width="6" x="15" y="222.7109"/><text fill="#000000" font-family="sans-serif" font-size="14" lengthAdjust="spacing" textLength="108" x="27" y="229.9395">username: String</text><rect fill="none" height="6" style="stroke:#C82930;stroke-width:1.0;" width="6" x="15" y="240.3203"/><text fill="#000000" font-family="sans-serif" font-size="14" lengthAdjust="spacing" textLength="129" x="27" y="247.5488">password: Password</text><rect fill="none" height="6" style="stroke:#C82930;stroke-width:1.0;" width="6" x="15" y="257.9297"/><text fill="#000000" font-family="sans-serif" font-size="14" lengthAdjust="spacing" textLength="104" x="27" y="265.1582">firstName: String</text><rect fill="none" height="6" style="stroke:#C82930;stroke-width:1.0;" width="6" x="15" y="275.5391"/><text fill="#000000" font-family="sans-serif" font-size="14" lengthAdjust="spacing" textLength="103" x="27" y="282.7676">lastName: String</text><rect fill="none" height="6" style="stroke:#C82930;stroke-width:1.0;" width="6" x="15" y="293.1484"/><text fill="#000000" font-family="sans-serif" font-size="14" lengthAdjust="spacing" textLength="78" x="27" y="300.377">email: String</text><rect fill="none" height="6" style="stroke:#C82930;stroke-width:1.0;" width="6" x="15" y="310.7578"/><text fill="#000000" font-family="sans-serif" font-size="14" lengthAdjust="spacing" textLength="191" x="27" y="317.9863">mecanographicNumber: String</text><rect fill="none" height="6" style="stroke:#C82930;stroke-width:1.0;" width="6" x="15" y="328.3672"/><text fill="#000000" font-family="sans-serif" font-size="14" lengthAdjust="spacing" textLength="133" x="27" y="335.5957">createdOn: Calendar</text><line style="stroke:#181818;stroke-width:0.5;" x1="8" x2="417" y1="342.6719" y2="342.6719"/><ellipse cx="18" cy="356.9766" fill="#84BE84" rx="3" ry="3" style="stroke:#038048;stroke-width:1.0;"/><text fill="#000000" font-family="sans-serif" font-size="14" lengthAdjust="spacing" textLength="371" x="27" y="361.2051">SignupRequestBuilder(PasswordPolicy, PasswordEncoder)</text><ellipse cx="18" cy="374.5859" fill="#84BE84" rx="3" ry="3" style="stroke:#038048;stroke-width:1.0;"/><text fill="#000000" font-family="sans-serif" font-size="14" lengthAdjust="spacing" textLength="385" x="27" y="378.8145">withData(String, String, String, String): SignupRequestBuilder</text><ellipse cx="18" cy="392.1953" fill="#84BE84" rx="3" ry="3" style="stroke:#038048;stroke-width:1.0;"/><text fill="#000000" font-family="sans-serif" font-size="14" lengthAdjust="spacing" textLength="284" x="27" y="396.4238">withUsername(String): SignupRequestBuilder</text><ellipse cx="18" cy="409.8047" fill="#84BE84" rx="3" ry="3" style="stroke:#038048;stroke-width:1.0;"/><text fill="#000000" font-family="sans-serif" font-size="14" lengthAdjust="spacing" textLength="281" x="27" y="414.0332">withPassword(String): SignupRequestBuilder</text><ellipse cx="18" cy="427.4141" fill="#84BE84" rx="3" ry="3" style="stroke:#038048;stroke-width:1.0;"/><text fill="#000000" font-family="sans-serif" font-size="14" lengthAdjust="spacing" textLength="301" x="27" y="431.6426">withName(String, String): SignupRequestBuilder</text><ellipse cx="18" cy="445.0234" fill="#84BE84" rx="3" ry="3" style="stroke:#038048;stroke-width:1.0;"/><text fill="#000000" font-family="sans-serif" font-size="14" lengthAdjust="spacing" textLength="254" x="27" y="449.252">withEmail(String): SignupRequestBuilder</text><ellipse cx="18" cy="462.6328" fill="#84BE84" rx="3" ry="3" style="stroke:#038048;stroke-width:1.0;"/><text fill="#000000" font-family="sans-serif" font-size="14" lengthAdjust="spacing" textLength="366" x="27" y="466.8613">withMecanographicNumber(String): SignupRequestBuilder</text><ellipse cx="18" cy="480.2422" fill="#84BE84" rx="3" ry="3" style="stroke:#038048;stroke-width:1.0;"/><text fill="#000000" font-family="sans-serif" font-size="14" lengthAdjust="spacing" textLength="284" x="27" y="484.4707">createdOn(Calendar): SignupRequestBuilder</text><ellipse cx="18" cy="497.8516" fill="#84BE84" rx="3" ry="3" style="stroke:#038048;stroke-width:1.0;"/><text fill="#000000" font-family="sans-serif" font-size="14" lengthAdjust="spacing" textLength="145" x="27" y="502.0801">build(): SignupRequest</text></g></a><!--class eapli.framework.domain.model.DomainFactory--><g id="elem_eapli.framework.domain.model.DomainFactory"><rect codeLine="26" fill="#F1F1F1" height="65.7969" id="eapli.framework.domain.model.DomainFactory" rx="2.5" ry="2.5" style="stroke:#181818;stroke-width:0.5;" width="263" x="81" y="10"/><ellipse cx="96" cy="30.0938" fill="#B4A7E5" rx="11" ry="11" style="stroke:#181818;stroke-width:1.0;"/><path d="M96.9531,26.7344 L96.9531,33.3906 L98.6719,33.3906 Q99.2813,33.3906 99.5469,33.625 Q99.8125,33.8594 99.8125,34.25 Q99.8125,34.625 99.5469,34.8594 Q99.2813,35.0938 98.6719,35.0938 L93.5313,35.0938 Q92.9219,35.0938 92.6563,34.8594 Q92.3906,34.625 92.3906,34.2344 Q92.3906,33.8594 92.6563,33.625 Q92.9219,33.3906 93.5313,33.3906 L95.25,33.3906 L95.25,26.7344 L93.5313,26.7344 Q92.9219,26.7344 92.6563,26.5 Q92.3906,26.2656 92.3906,25.875 Q92.3906,25.5 92.6563,25.2656 Q92.9219,25.0313 93.5313,25.0313 L98.6719,25.0313 Q99.2813,25.0313 99.5469,25.2656 Q99.8125,25.5 99.8125,25.875 Q99.8125,26.2656 99.5469,26.5 Q99.2813,26.7344 98.6719,26.7344 L96.9531,26.7344 Z " fill="#000000"/><text fill="#000000" font-family="sans-serif" font-size="14" font-style="italic" lengthAdjust="spacing" textLength="96" x="133" y="29.5332">DomainFactory</text><text fill="#000000" font-family="sans-serif" font-size="10" font-style="italic" lengthAdjust="spacing" textLength="142" x="110" y="42.9902">eapli.framework.domain.model</text><rect fill="#FFFFFF" height="17.0938" style="stroke:#181818;stroke-width:1.0;stroke-dasharray:2.0,2.0;" width="87" x="260" y="7"/><text fill="#000000" font-family="sans-serif" font-size="12" font-style="italic" lengthAdjust="spacing" textLength="85" x="261" y="20.457">SignupRequest</text><line style="stroke:#181818;stroke-width:0.5;" x1="82" x2="343" y1="50.1875" y2="50.1875"/><ellipse cx="92" cy="64.4922" fill="#84BE84" rx="3" ry="3" style="stroke:#038048;stroke-width:1.0;"/><text fill="#000000" font-family="sans-serif" font-size="14" font-style="italic" lengthAdjust="spacing" textLength="145" x="101" y="68.7207">build(): SignupRequest</text></g><!--reverse link eapli.framework.domain.model.DomainFactory to lapr4.shodrone.utentemanagement.domain.SignupRequestBuilder--><g id="link_eapli.framework.domain.model.DomainFactory_lapr4.shodrone.utentemanagement.domain.SignupRequestBuilder"><path codeLine="30" d="M212.5,94.1 C212.5,110.15 212.5,113 212.5,135.76 " fill="none" id="eapli.framework.domain.model.DomainFactory-backto-lapr4.shodrone.utentemanagement.domain.SignupRequestBuilder" style="stroke:#181818;stroke-width:1.0;stroke-dasharray:7.0,7.0;"/><polygon fill="none" points="212.5,76.1,206.5,94.1,218.5,94.1,212.5,76.1" style="stroke:#181818;stroke-width:1.0;"/></g><text fill="#888888" font-family="sans-serif" font-size="10" lengthAdjust="spacing" textLength="184" x="113.5" y="525.5371">UMLDoclet 2.1.1, PlantUML 1.2023.12</text><!--SRC=[fLHDRzf04BttLumYLJ9gkYeL9uGuD2IdX4P1d58EmtgCLzqFTtVTY13-UyO6QY1k0weljcVUsvbzepS0084YM3GK2fGqeG8zHkV1EaiVE0svIWd85749cIATXkEeePWx3jTngJ44k1W4zKpzRcyuKGjR5W_qgwGGlvLAf-H_s6twor1ZuNiYCDzpFL56if4CMboGuK-HEeFANW06E0qgsWh2usDRMEJHwDaCLdNdrVEvS5h9PH_k-HPFpgVtzN-J9oiTCnl0zIRG8Cf0lfAp3vFebLtidRsbDEGcboaVuhYLneB-9SEtL_fjs914wnOUYrp9SMdcLR_78Ea98wNVRH-kK9DDiRd3fpQnaaD9BeyLw3Jq9nNp4KPCDaKleVtTuQvQ2XsUCztAcPp1sNLs3cVSr3Yhl-jg1kSKkdixdLFfVsQMx4RsBcLU1P9ZM9rVRmohs4K-O-llcNPKM-a69I-2vPvR2GkjHEPPAzRtvyvoXkUlQu_-2o0EJXqSD3JSy-0Avo5wHgrFQV_qYZ1u4U9_jiXclrLu3vbprMjwTpjoKlC6_Igweikcq6WZH-7ZR_91EPjqNW40]--></g></svg>