<?xml version="1.0" encoding="us-ascii" standalone="no"?><svg xmlns="http://www.w3.org/2000/svg" xmlns:xlink="http://www.w3.org/1999/xlink" contentStyleType="text/css" height="562px" preserveAspectRatio="none" style="width:640px;height:562px;background:#FFFFFF;" version="1.1" viewBox="0 0 640 562" width="640px" zoomAndPan="magnify"><defs/><g><!--class lapr4.shodrone.utentemanagement.domain.SignupRequest--><a href="SignupRequest.html" target="_top" title="SignupRequest.html" xlink:actuate="onRequest" xlink:href="SignupRequest.html" xlink:show="new" xlink:title="SignupRequest.html" xlink:type="simple"><g id="elem_lapr4.shodrone.utentemanagement.domain.SignupRequest"><rect codeLine="5" fill="#F1F1F1" height="425.9844" id="lapr4.shodrone.utentemanagement.domain.SignupRequest" rx="2.5" ry="2.5" style="stroke:#181818;stroke-width:0.5;" width="624" x="9" y="110"/><ellipse cx="214.25" cy="130.0938" fill="#ADD1B2" rx="11" ry="11" style="stroke:#181818;stroke-width:1.0;"/><path d="M217.0156,125.9688 Q217.1719,125.75 217.3594,125.6406 Q217.5469,125.5313 217.7656,125.5313 Q218.1406,125.5313 218.375,125.7969 Q218.6094,126.0469 218.6094,126.6563 L218.6094,128.1094 Q218.6094,128.7188 218.375,128.9844 Q218.1406,129.25 217.7656,129.25 Q217.4219,129.25 217.2188,129.0469 Q217.0156,128.8594 216.9063,128.3438 Q216.8594,127.9844 216.6719,127.7969 Q216.3438,127.4219 215.7344,127.2031 Q215.125,126.9844 214.5,126.9844 Q213.7344,126.9844 213.0938,127.3125 Q212.4688,127.6406 211.9688,128.3906 Q211.4844,129.1406 211.4844,130.1719 L211.4844,131.2656 Q211.4844,132.5 212.375,133.3281 Q213.2656,134.1406 214.8594,134.1406 Q215.7969,134.1406 216.4531,133.8906 Q216.8438,133.7344 217.2656,133.2969 Q217.5313,133.0313 217.6719,132.9531 Q217.8281,132.875 218.0313,132.875 Q218.3594,132.875 218.6094,133.1406 Q218.875,133.3906 218.875,133.7344 Q218.875,134.0781 218.5313,134.4844 Q218.0313,135.0625 217.2344,135.3906 Q216.1563,135.8438 214.8594,135.8438 Q213.3438,135.8438 212.1406,135.2188 Q211.1563,134.7188 210.4688,133.6563 Q209.7813,132.5781 209.7813,131.2969 L209.7813,130.1406 Q209.7813,128.8125 210.3906,127.6719 Q211.0156,126.5156 212.1094,125.9063 Q213.2031,125.2813 214.4375,125.2813 Q215.1719,125.2813 215.8125,125.4531 Q216.4688,125.6094 217.0156,125.9688 Z " fill="#000000"/><text fill="#000000" font-family="sans-serif" font-size="14" lengthAdjust="spacing" textLength="97" x="288.75" y="129.5332">SignupRequest</text><text fill="#000000" font-family="sans-serif" font-size="10" lengthAdjust="spacing" textLength="205" x="234.75" y="142.9902">lapr4.shodrone.utentemanagement.domain</text><line style="stroke:#181818;stroke-width:0.5;" x1="10" x2="632" y1="150.1875" y2="150.1875"/><rect fill="none" height="6" style="stroke:#C82930;stroke-width:1.0;" width="6" x="17" y="161.4922"/><text fill="#000000" font-family="sans-serif" font-size="14" lengthAdjust="spacing" text-decoration="underline" textLength="139" x="29" y="168.7207">serialVersionUID: long</text><rect fill="none" height="6" style="stroke:#C82930;stroke-width:1.0;" width="6" x="17" y="179.1016"/><text fill="#000000" font-family="sans-serif" font-size="14" lengthAdjust="spacing" textLength="86" x="29" y="186.3301">version: Long</text><rect fill="none" height="6" style="stroke:#C82930;stroke-width:1.0;" width="6" x="17" y="196.7109"/><text fill="#000000" font-family="sans-serif" font-size="14" lengthAdjust="spacing" textLength="135" x="29" y="203.9395">username: Username</text><rect fill="none" height="6" style="stroke:#C82930;stroke-width:1.0;" width="6" x="17" y="214.3203"/><text fill="#000000" font-family="sans-serif" font-size="14" lengthAdjust="spacing" textLength="129" x="29" y="221.5488">password: Password</text><rect fill="none" height="6" style="stroke:#C82930;stroke-width:1.0;" width="6" x="17" y="231.9297"/><text fill="#000000" font-family="sans-serif" font-size="14" lengthAdjust="spacing" textLength="79" x="29" y="239.1582">name: Name</text><rect fill="none" height="6" style="stroke:#C82930;stroke-width:1.0;" width="6" x="17" y="249.5391"/><text fill="#000000" font-family="sans-serif" font-size="14" lengthAdjust="spacing" textLength="127" x="29" y="256.7676">email: EmailAddress</text><rect fill="none" height="6" style="stroke:#C82930;stroke-width:1.0;" width="6" x="17" y="267.1484"/><text fill="#000000" font-family="sans-serif" font-size="14" lengthAdjust="spacing" textLength="300" x="29" y="274.377">mecanographicNumber: MecanographicNumber</text><rect fill="none" height="6" style="stroke:#C82930;stroke-width:1.0;" width="6" x="17" y="284.7578"/><text fill="#000000" font-family="sans-serif" font-size="14" lengthAdjust="spacing" textLength="199" x="29" y="291.9863">approvalStatus: ApprovalStatus</text><rect fill="none" height="6" style="stroke:#C82930;stroke-width:1.0;" width="6" x="17" y="302.3672"/><text fill="#000000" font-family="sans-serif" font-size="14" lengthAdjust="spacing" textLength="133" x="29" y="309.5957">createdOn: Calendar</text><line style="stroke:#181818;stroke-width:0.5;" x1="10" x2="632" y1="316.6719" y2="316.6719"/><polygon fill="#4177AF" points="20,326.9766,16,332.9766,24,332.9766" style="stroke:#1963A0;stroke-width:1.0;"/><text fill="#000000" font-family="sans-serif" font-size="14" lengthAdjust="spacing" textLength="598" x="29" y="335.2051">SignupRequest(Username, Password, Name, EmailAddress, MecanographicNumber, Calendar)</text><polygon fill="#FFFF44" points="20,343.5859,24,347.5859,20,351.5859,16,347.5859" style="stroke:#B38D22;stroke-width:1.0;"/><text fill="#000000" font-family="sans-serif" font-size="14" lengthAdjust="spacing" textLength="107" x="29" y="352.8145">SignupRequest()</text><ellipse cx="20" cy="366.1953" fill="#84BE84" rx="3" ry="3" style="stroke:#038048;stroke-width:1.0;"/><text fill="#000000" font-family="sans-serif" font-size="14" lengthAdjust="spacing" textLength="86" x="29" y="370.4238">accept(): void</text><ellipse cx="20" cy="383.8047" fill="#84BE84" rx="3" ry="3" style="stroke:#038048;stroke-width:1.0;"/><text fill="#000000" font-family="sans-serif" font-size="14" lengthAdjust="spacing" textLength="84" x="29" y="388.0332">refuse(): void</text><ellipse cx="20" cy="401.4141" fill="#84BE84" rx="3" ry="3" style="stroke:#038048;stroke-width:1.0;"/><text fill="#000000" font-family="sans-serif" font-size="14" lengthAdjust="spacing" textLength="160" x="29" y="405.6426">sameAs(Object): boolean</text><ellipse cx="20" cy="419.0234" fill="#84BE84" rx="3" ry="3" style="stroke:#038048;stroke-width:1.0;"/><text fill="#000000" font-family="sans-serif" font-size="14" lengthAdjust="spacing" textLength="310" x="29" y="423.252">mecanographicNumber(): MecanographicNumber</text><ellipse cx="20" cy="436.6328" fill="#84BE84" rx="3" ry="3" style="stroke:#038048;stroke-width:1.0;"/><text fill="#000000" font-family="sans-serif" font-size="14" lengthAdjust="spacing" textLength="127" x="29" y="440.8613">identity(): Username</text><ellipse cx="20" cy="454.2422" fill="#84BE84" rx="3" ry="3" style="stroke:#038048;stroke-width:1.0;"/><text fill="#000000" font-family="sans-serif" font-size="14" lengthAdjust="spacing" textLength="145" x="29" y="458.4707">username(): Username</text><ellipse cx="20" cy="471.8516" fill="#84BE84" rx="3" ry="3" style="stroke:#038048;stroke-width:1.0;"/><text fill="#000000" font-family="sans-serif" font-size="14" lengthAdjust="spacing" textLength="89" x="29" y="476.0801">name(): Name</text><ellipse cx="20" cy="489.4609" fill="#84BE84" rx="3" ry="3" style="stroke:#038048;stroke-width:1.0;"/><text fill="#000000" font-family="sans-serif" font-size="14" lengthAdjust="spacing" textLength="131" x="29" y="493.6895">isPending(): boolean</text><ellipse cx="20" cy="507.0703" fill="#84BE84" rx="3" ry="3" style="stroke:#038048;stroke-width:1.0;"/><text fill="#000000" font-family="sans-serif" font-size="14" lengthAdjust="spacing" textLength="137" x="29" y="511.2988">email(): EmailAddress</text><ellipse cx="20" cy="524.6797" fill="#84BE84" rx="3" ry="3" style="stroke:#038048;stroke-width:1.0;"/><text fill="#000000" font-family="sans-serif" font-size="14" lengthAdjust="spacing" textLength="139" x="29" y="528.9082">password(): Password</text></g></a><!--class eapli.framework.domain.model.AggregateRoot--><g id="elem_eapli.framework.domain.model.AggregateRoot"><rect codeLine="29" fill="#F1F1F1" height="40.1875" id="eapli.framework.domain.model.AggregateRoot" rx="2.5" ry="2.5" style="stroke:#181818;stroke-width:0.5;" width="236" x="203" y="10"/><ellipse cx="218" cy="30.0938" fill="#B4A7E5" rx="11" ry="11" style="stroke:#181818;stroke-width:1.0;"/><path d="M218.9531,26.7344 L218.9531,33.3906 L220.6719,33.3906 Q221.2813,33.3906 221.5469,33.625 Q221.8125,33.8594 221.8125,34.25 Q221.8125,34.625 221.5469,34.8594 Q221.2813,35.0938 220.6719,35.0938 L215.5313,35.0938 Q214.9219,35.0938 214.6563,34.8594 Q214.3906,34.625 214.3906,34.2344 Q214.3906,33.8594 214.6563,33.625 Q214.9219,33.3906 215.5313,33.3906 L217.25,33.3906 L217.25,26.7344 L215.5313,26.7344 Q214.9219,26.7344 214.6563,26.5 Q214.3906,26.2656 214.3906,25.875 Q214.3906,25.5 214.6563,25.2656 Q214.9219,25.0313 215.5313,25.0313 L220.6719,25.0313 Q221.2813,25.0313 221.5469,25.2656 Q221.8125,25.5 221.8125,25.875 Q221.8125,26.2656 221.5469,26.5 Q221.2813,26.7344 220.6719,26.7344 L218.9531,26.7344 Z " fill="#000000"/><text fill="#000000" font-family="sans-serif" font-size="14" font-style="italic" lengthAdjust="spacing" textLength="96" x="255" y="29.5332">AggregateRoot</text><text fill="#000000" font-family="sans-serif" font-size="10" font-style="italic" lengthAdjust="spacing" textLength="142" x="232" y="42.9902">eapli.framework.domain.model</text><rect fill="#FFFFFF" height="17.0938" style="stroke:#181818;stroke-width:1.0;stroke-dasharray:2.0,2.0;" width="60" x="382" y="7"/><text fill="#000000" font-family="sans-serif" font-size="12" font-style="italic" lengthAdjust="spacing" textLength="58" x="383" y="20.457">Username</text></g><!--reverse link eapli.framework.domain.model.AggregateRoot to lapr4.shodrone.utentemanagement.domain.SignupRequest--><g id="link_eapli.framework.domain.model.AggregateRoot_lapr4.shodrone.utentemanagement.domain.SignupRequest"><path codeLine="31" d="M321,68.09 C321,82.32 321,85.42 321,109.69 " fill="none" id="eapli.framework.domain.model.AggregateRoot-backto-lapr4.shodrone.utentemanagement.domain.SignupRequest" style="stroke:#181818;stroke-width:1.0;stroke-dasharray:7.0,7.0;"/><polygon fill="none" points="321,50.09,315,68.09,327,68.09,321,50.09" style="stroke:#181818;stroke-width:1.0;"/></g><text fill="#888888" font-family="sans-serif" font-size="10" lengthAdjust="spacing" textLength="184" x="221" y="552.3652">UMLDoclet 2.1.1, PlantUML 1.2023.12</text><!--SRC=[dLHDRzim3BtlLn0T1gImAon3JqOG86Xt6D0lDCWkNG-CJJlQP4cJv0nTr_tsqN4SLqjG5FN5CjyZpQyd001F0JJMv2tcD2UB3eDne8scTmp3IXO4LDlm0AKaLVZ_hJM5bM7pnfuhz1wE9bx-fcnyEftBIZVsbdusvCCtlRL_d2gqxbHuTdJy8z44qe5gr5XHpKTHc1gbFWBqy3ggYFu4TtVHjrY5MjtVm-CcoVPvz063p9_Wn9EJgBwIyzBenPVp39JHrOvuikwG32uYSyD-RTyoM6nF0sQv2R-CApAusPu6hFEvYlXSZbGPV6vViw9mvFq0rfIZDfL3kvBvLLCloMLmkMySFD1QPzQevbnYupEOHTy3BtU4WOfhhkqC5Ua2Xo1_e_wD-XhJNKNffeOqIZezb5Uw2twyY_u-ZZu02UOvMRPai3PoQ5lYgEIExziz9p7pe-lbTye3eqjZ5A4U20VQrqPvgO49BxSECZoqnBtf9lta3wCz4aquaVw6Mo1rDJgKusR-BN9m0v9-dLf6j51FdUWa2yALBDzdmfjLbQEAntjhp7FX4LebHUauEmxperTFRGfI6xczH11Hr4bV_BHBu_MUCFaZn9k4tLqoBT51oP7ujRYyE3UvuclianYBCM-eGXtO2X-sqXqT_mC0]--></g></svg>