<?xml version="1.0" encoding="us-ascii" standalone="no"?><svg xmlns="http://www.w3.org/2000/svg" xmlns:xlink="http://www.w3.org/1999/xlink" contentStyleType="text/css" height="324px" preserveAspectRatio="none" style="width:459px;height:324px;background:#FFFFFF;" version="1.1" viewBox="0 0 459 324" width="459px" zoomAndPan="magnify"><defs/><g><!--class lapr4.shodrone.utentemanagement.domain.UtenteBuilder--><a href="UtenteBuilder.html" target="_top" title="UtenteBuilder.html" xlink:actuate="onRequest" xlink:href="UtenteBuilder.html" xlink:show="new" xlink:title="UtenteBuilder.html" xlink:type="simple"><g id="elem_lapr4.shodrone.utentemanagement.domain.UtenteBuilder"><rect codeLine="5" fill="#F1F1F1" height="161.8438" id="lapr4.shodrone.utentemanagement.domain.UtenteBuilder" rx="2.5" ry="2.5" style="stroke:#181818;stroke-width:0.5;" width="445" x="7" y="136"/><ellipse cx="122.75" cy="156.0938" fill="#ADD1B2" rx="11" ry="11" style="stroke:#181818;stroke-width:1.0;"/><path d="M125.5156,151.9688 Q125.6719,151.75 125.8594,151.6406 Q126.0469,151.5313 126.2656,151.5313 Q126.6406,151.5313 126.875,151.7969 Q127.1094,152.0469 127.1094,152.6563 L127.1094,154.1094 Q127.1094,154.7188 126.875,154.9844 Q126.6406,155.25 126.2656,155.25 Q125.9219,155.25 125.7188,155.0469 Q125.5156,154.8594 125.4063,154.3438 Q125.3594,153.9844 125.1719,153.7969 Q124.8438,153.4219 124.2344,153.2031 Q123.625,152.9844 123,152.9844 Q122.2344,152.9844 121.5938,153.3125 Q120.9688,153.6406 120.4688,154.3906 Q119.9844,155.1406 119.9844,156.1719 L119.9844,157.2656 Q119.9844,158.5 120.875,159.3281 Q121.7656,160.1406 123.3594,160.1406 Q124.2969,160.1406 124.9531,159.8906 Q125.3438,159.7344 125.7656,159.2969 Q126.0313,159.0313 126.1719,158.9531 Q126.3281,158.875 126.5313,158.875 Q126.8594,158.875 127.1094,159.1406 Q127.375,159.3906 127.375,159.7344 Q127.375,160.0781 127.0313,160.4844 Q126.5313,161.0625 125.7344,161.3906 Q124.6563,161.8438 123.3594,161.8438 Q121.8438,161.8438 120.6406,161.2188 Q119.6563,160.7188 118.9688,159.6563 Q118.2813,158.5781 118.2813,157.2969 L118.2813,156.1406 Q118.2813,154.8125 118.8906,153.6719 Q119.5156,152.5156 120.6094,151.9063 Q121.7031,151.2813 122.9375,151.2813 Q123.6719,151.2813 124.3125,151.4531 Q124.9688,151.6094 125.5156,151.9688 Z " fill="#000000"/><text fill="#000000" font-family="sans-serif" font-size="14" lengthAdjust="spacing" textLength="85" x="203.25" y="155.5332">UtenteBuilder</text><text fill="#000000" font-family="sans-serif" font-size="10" lengthAdjust="spacing" textLength="205" x="143.25" y="168.9902">lapr4.shodrone.utentemanagement.domain</text><line style="stroke:#181818;stroke-width:0.5;" x1="8" x2="451" y1="176.1875" y2="176.1875"/><rect fill="none" height="6" style="stroke:#C82930;stroke-width:1.0;" width="6" x="15" y="187.4922"/><text fill="#000000" font-family="sans-serif" font-size="14" lengthAdjust="spacing" textLength="156" x="27" y="194.7207">systemUser: SystemUser</text><rect fill="none" height="6" style="stroke:#C82930;stroke-width:1.0;" width="6" x="15" y="205.1016"/><text fill="#000000" font-family="sans-serif" font-size="14" lengthAdjust="spacing" textLength="300" x="27" y="212.3301">mecanographicNumber: MecanographicNumber</text><line style="stroke:#181818;stroke-width:0.5;" x1="8" x2="451" y1="219.4063" y2="219.4063"/><ellipse cx="18" cy="233.7109" fill="#84BE84" rx="3" ry="3" style="stroke:#038048;stroke-width:1.0;"/><text fill="#000000" font-family="sans-serif" font-size="14" lengthAdjust="spacing" textLength="277" x="27" y="237.9395">withSystemUser(SystemUser): UtenteBuilder</text><ellipse cx="18" cy="251.3203" fill="#84BE84" rx="3" ry="3" style="stroke:#038048;stroke-width:1.0;"/><text fill="#000000" font-family="sans-serif" font-size="14" lengthAdjust="spacing" textLength="419" x="27" y="255.5488">withMecanographicNumber(MecanographicNumber): UtenteBuilder</text><ellipse cx="18" cy="268.9297" fill="#84BE84" rx="3" ry="3" style="stroke:#038048;stroke-width:1.0;"/><text fill="#000000" font-family="sans-serif" font-size="14" lengthAdjust="spacing" textLength="310" x="27" y="273.1582">withMecanographicNumber(String): UtenteBuilder</text><ellipse cx="18" cy="286.5391" fill="#84BE84" rx="3" ry="3" style="stroke:#038048;stroke-width:1.0;"/><text fill="#000000" font-family="sans-serif" font-size="14" lengthAdjust="spacing" textLength="89" x="27" y="290.7676">build(): Utente</text></g></a><!--class eapli.framework.domain.model.DomainFactory--><g id="elem_eapli.framework.domain.model.DomainFactory"><rect codeLine="14" fill="#F1F1F1" height="65.7969" id="eapli.framework.domain.model.DomainFactory" rx="2.5" ry="2.5" style="stroke:#181818;stroke-width:0.5;" width="214" x="122.5" y="10"/><ellipse cx="137.5" cy="30.0938" fill="#B4A7E5" rx="11" ry="11" style="stroke:#181818;stroke-width:1.0;"/><path d="M138.4531,26.7344 L138.4531,33.3906 L140.1719,33.3906 Q140.7813,33.3906 141.0469,33.625 Q141.3125,33.8594 141.3125,34.25 Q141.3125,34.625 141.0469,34.8594 Q140.7813,35.0938 140.1719,35.0938 L135.0313,35.0938 Q134.4219,35.0938 134.1563,34.8594 Q133.8906,34.625 133.8906,34.2344 Q133.8906,33.8594 134.1563,33.625 Q134.4219,33.3906 135.0313,33.3906 L136.75,33.3906 L136.75,26.7344 L135.0313,26.7344 Q134.4219,26.7344 134.1563,26.5 Q133.8906,26.2656 133.8906,25.875 Q133.8906,25.5 134.1563,25.2656 Q134.4219,25.0313 135.0313,25.0313 L140.1719,25.0313 Q140.7813,25.0313 141.0469,25.2656 Q141.3125,25.5 141.3125,25.875 Q141.3125,26.2656 141.0469,26.5 Q140.7813,26.7344 140.1719,26.7344 L138.4531,26.7344 Z " fill="#000000"/><text fill="#000000" font-family="sans-serif" font-size="14" font-style="italic" lengthAdjust="spacing" textLength="96" x="174.5" y="29.5332">DomainFactory</text><text fill="#000000" font-family="sans-serif" font-size="10" font-style="italic" lengthAdjust="spacing" textLength="142" x="151.5" y="42.9902">eapli.framework.domain.model</text><rect fill="#FFFFFF" height="17.0938" style="stroke:#181818;stroke-width:1.0;stroke-dasharray:2.0,2.0;" width="38" x="301.5" y="7"/><text fill="#000000" font-family="sans-serif" font-size="12" font-style="italic" lengthAdjust="spacing" textLength="36" x="302.5" y="20.457">Utente</text><line style="stroke:#181818;stroke-width:0.5;" x1="123.5" x2="335.5" y1="50.1875" y2="50.1875"/><ellipse cx="133.5" cy="64.4922" fill="#84BE84" rx="3" ry="3" style="stroke:#038048;stroke-width:1.0;"/><text fill="#000000" font-family="sans-serif" font-size="14" font-style="italic" lengthAdjust="spacing" textLength="90" x="142.5" y="68.7207">build(): Utente</text></g><!--reverse link eapli.framework.domain.model.DomainFactory to lapr4.shodrone.utentemanagement.domain.UtenteBuilder--><g id="link_eapli.framework.domain.model.DomainFactory_lapr4.shodrone.utentemanagement.domain.UtenteBuilder"><path codeLine="18" d="M229.5,94.35 C229.5,111.28 229.5,114.84 229.5,135.91 " fill="none" id="eapli.framework.domain.model.DomainFactory-backto-lapr4.shodrone.utentemanagement.domain.UtenteBuilder" style="stroke:#181818;stroke-width:1.0;stroke-dasharray:7.0,7.0;"/><polygon fill="none" points="229.5,76.35,223.5,94.35,235.5,94.35,229.5,76.35" style="stroke:#181818;stroke-width:1.0;"/></g><text fill="#888888" font-family="sans-serif" font-size="10" lengthAdjust="spacing" textLength="184" x="130.5" y="314.2246">UMLDoclet 2.1.1, PlantUML 1.2023.12</text><!--SRC=[dLDDJy904BtxAoOa9YNgHWmdGdemn9COauOJSXZQATsu7yti8a7alxij2XIHeBtix9kPDvDzhm00ZZmOrEHAJ2cX4XczPJ3Mq4L8Go4p0jAbNq8kIMNk4DNa2nlW6ayLEWUjlfFlrEjquv4du-b-BbL6_6A-yDjOOSbTuK8ZXq5YNfTfD3WZ7KAHMOtIj00Td5Sg6fDWF6xSHU6rcanWLIzPVJTkwGBDo17t8Dd6kxoc58sTCPQ5J9_cUbeL3d-2suwhXVJ5ZYdQXUqUDBPfjXpXZ8vWVoT9F4ip-xrlMW7HDbydrXiPPRXp7Won9-MWVkS7J8CzbdjI4fPAYfo3XnQMNx_rq3OZLGjuga0qMFkRJU8zdLOuTPv3UdrouVDdGFz3Y7-PQcFm2c38hQsEqV1nO5CLVg4xqH6TQtXMQ7n0uVADs4bhelOd]--></g></svg>