<?xml version="1.0" encoding="us-ascii" standalone="no"?><svg xmlns="http://www.w3.org/2000/svg" xmlns:xlink="http://www.w3.org/1999/xlink" contentStyleType="text/css" height="368px" preserveAspectRatio="none" style="width:352px;height:368px;background:#FFFFFF;" version="1.1" viewBox="0 0 352 368" width="352px" zoomAndPan="magnify"><defs/><g><!--class lapr4.shodrone.utentemanagement.domain.Utente--><a href="Utente.html" target="_top" title="Utente.html" xlink:actuate="onRequest" xlink:href="Utente.html" xlink:show="new" xlink:title="Utente.html" xlink:type="simple"><g id="elem_lapr4.shodrone.utentemanagement.domain.Utente"><rect codeLine="5" fill="#F1F1F1" height="232.2813" id="lapr4.shodrone.utentemanagement.domain.Utente" rx="2.5" ry="2.5" style="stroke:#181818;stroke-width:0.5;" width="336" x="9" y="110"/><ellipse cx="70.25" cy="130.0938" fill="#ADD1B2" rx="11" ry="11" style="stroke:#181818;stroke-width:1.0;"/><path d="M73.0156,125.9688 Q73.1719,125.75 73.3594,125.6406 Q73.5469,125.5313 73.7656,125.5313 Q74.1406,125.5313 74.375,125.7969 Q74.6094,126.0469 74.6094,126.6563 L74.6094,128.1094 Q74.6094,128.7188 74.375,128.9844 Q74.1406,129.25 73.7656,129.25 Q73.4219,129.25 73.2188,129.0469 Q73.0156,128.8594 72.9063,128.3438 Q72.8594,127.9844 72.6719,127.7969 Q72.3438,127.4219 71.7344,127.2031 Q71.125,126.9844 70.5,126.9844 Q69.7344,126.9844 69.0938,127.3125 Q68.4688,127.6406 67.9688,128.3906 Q67.4844,129.1406 67.4844,130.1719 L67.4844,131.2656 Q67.4844,132.5 68.375,133.3281 Q69.2656,134.1406 70.8594,134.1406 Q71.7969,134.1406 72.4531,133.8906 Q72.8438,133.7344 73.2656,133.2969 Q73.5313,133.0313 73.6719,132.9531 Q73.8281,132.875 74.0313,132.875 Q74.3594,132.875 74.6094,133.1406 Q74.875,133.3906 74.875,133.7344 Q74.875,134.0781 74.5313,134.4844 Q74.0313,135.0625 73.2344,135.3906 Q72.1563,135.8438 70.8594,135.8438 Q69.3438,135.8438 68.1406,135.2188 Q67.1563,134.7188 66.4688,133.6563 Q65.7813,132.5781 65.7813,131.2969 L65.7813,130.1406 Q65.7813,128.8125 66.3906,127.6719 Q67.0156,126.5156 68.1094,125.9063 Q69.2031,125.2813 70.4375,125.2813 Q71.1719,125.2813 71.8125,125.4531 Q72.4688,125.6094 73.0156,125.9688 Z " fill="#000000"/><text fill="#000000" font-family="sans-serif" font-size="14" lengthAdjust="spacing" textLength="41" x="172.75" y="129.5332">Utente</text><text fill="#000000" font-family="sans-serif" font-size="10" lengthAdjust="spacing" textLength="205" x="90.75" y="142.9902">lapr4.shodrone.utentemanagement.domain</text><line style="stroke:#181818;stroke-width:0.5;" x1="10" x2="344" y1="150.1875" y2="150.1875"/><rect fill="none" height="6" style="stroke:#C82930;stroke-width:1.0;" width="6" x="17" y="161.4922"/><text fill="#000000" font-family="sans-serif" font-size="14" lengthAdjust="spacing" text-decoration="underline" textLength="139" x="29" y="168.7207">serialVersionUID: long</text><rect fill="none" height="6" style="stroke:#C82930;stroke-width:1.0;" width="6" x="17" y="179.1016"/><text fill="#000000" font-family="sans-serif" font-size="14" lengthAdjust="spacing" textLength="86" x="29" y="186.3301">version: Long</text><rect fill="none" height="6" style="stroke:#C82930;stroke-width:1.0;" width="6" x="17" y="196.7109"/><text fill="#000000" font-family="sans-serif" font-size="14" lengthAdjust="spacing" textLength="300" x="29" y="203.9395">mecanographicNumber: MecanographicNumber</text><rect fill="none" height="6" style="stroke:#C82930;stroke-width:1.0;" width="6" x="17" y="214.3203"/><text fill="#000000" font-family="sans-serif" font-size="14" lengthAdjust="spacing" textLength="156" x="29" y="221.5488">systemUser: SystemUser</text><line style="stroke:#181818;stroke-width:0.5;" x1="10" x2="344" y1="228.625" y2="228.625"/><ellipse cx="20" cy="242.9297" fill="#84BE84" rx="3" ry="3" style="stroke:#038048;stroke-width:1.0;"/><text fill="#000000" font-family="sans-serif" font-size="14" lengthAdjust="spacing" textLength="280" x="29" y="247.1582">Utente(SystemUser, MecanographicNumber)</text><polygon fill="#FFFF44" points="20,255.5391,24,259.5391,20,263.5391,16,259.5391" style="stroke:#B38D22;stroke-width:1.0;"/><text fill="#000000" font-family="sans-serif" font-size="14" lengthAdjust="spacing" textLength="51" x="29" y="264.7676">Utente()</text><ellipse cx="20" cy="278.1484" fill="#84BE84" rx="3" ry="3" style="stroke:#038048;stroke-width:1.0;"/><text fill="#000000" font-family="sans-serif" font-size="14" lengthAdjust="spacing" textLength="121" x="29" y="282.377">user(): SystemUser</text><ellipse cx="20" cy="295.7578" fill="#84BE84" rx="3" ry="3" style="stroke:#038048;stroke-width:1.0;"/><text fill="#000000" font-family="sans-serif" font-size="14" lengthAdjust="spacing" textLength="160" x="29" y="299.9863">sameAs(Object): boolean</text><ellipse cx="20" cy="313.3672" fill="#84BE84" rx="3" ry="3" style="stroke:#038048;stroke-width:1.0;"/><text fill="#000000" font-family="sans-serif" font-size="14" lengthAdjust="spacing" textLength="310" x="29" y="317.5957">mecanographicNumber(): MecanographicNumber</text><ellipse cx="20" cy="330.9766" fill="#84BE84" rx="3" ry="3" style="stroke:#038048;stroke-width:1.0;"/><text fill="#000000" font-family="sans-serif" font-size="14" lengthAdjust="spacing" textLength="209" x="29" y="335.2051">identity(): MecanographicNumber</text></g></a><!--class eapli.framework.domain.model.AggregateRoot--><g id="elem_eapli.framework.domain.model.AggregateRoot"><rect codeLine="18" fill="#F1F1F1" height="40.1875" id="eapli.framework.domain.model.AggregateRoot" rx="2.5" ry="2.5" style="stroke:#181818;stroke-width:0.5;" width="308" x="23" y="10"/><ellipse cx="38" cy="30.0938" fill="#B4A7E5" rx="11" ry="11" style="stroke:#181818;stroke-width:1.0;"/><path d="M38.9531,26.7344 L38.9531,33.3906 L40.6719,33.3906 Q41.2813,33.3906 41.5469,33.625 Q41.8125,33.8594 41.8125,34.25 Q41.8125,34.625 41.5469,34.8594 Q41.2813,35.0938 40.6719,35.0938 L35.5313,35.0938 Q34.9219,35.0938 34.6563,34.8594 Q34.3906,34.625 34.3906,34.2344 Q34.3906,33.8594 34.6563,33.625 Q34.9219,33.3906 35.5313,33.3906 L37.25,33.3906 L37.25,26.7344 L35.5313,26.7344 Q34.9219,26.7344 34.6563,26.5 Q34.3906,26.2656 34.3906,25.875 Q34.3906,25.5 34.6563,25.2656 Q34.9219,25.0313 35.5313,25.0313 L40.6719,25.0313 Q41.2813,25.0313 41.5469,25.2656 Q41.8125,25.5 41.8125,25.875 Q41.8125,26.2656 41.5469,26.5 Q41.2813,26.7344 40.6719,26.7344 L38.9531,26.7344 Z " fill="#000000"/><text fill="#000000" font-family="sans-serif" font-size="14" font-style="italic" lengthAdjust="spacing" textLength="96" x="75" y="29.5332">AggregateRoot</text><text fill="#000000" font-family="sans-serif" font-size="10" font-style="italic" lengthAdjust="spacing" textLength="142" x="52" y="42.9902">eapli.framework.domain.model</text><rect fill="#FFFFFF" height="17.0938" style="stroke:#181818;stroke-width:1.0;stroke-dasharray:2.0,2.0;" width="132" x="202" y="7"/><text fill="#000000" font-family="sans-serif" font-size="12" font-style="italic" lengthAdjust="spacing" textLength="130" x="203" y="20.457">MecanographicNumber</text></g><!--reverse link eapli.framework.domain.model.AggregateRoot to lapr4.shodrone.utentemanagement.domain.Utente--><g id="link_eapli.framework.domain.model.AggregateRoot_lapr4.shodrone.utentemanagement.domain.Utente"><path codeLine="20" d="M177,68.31 C177,83.07 177,86.75 177,109.86 " fill="none" id="eapli.framework.domain.model.AggregateRoot-backto-lapr4.shodrone.utentemanagement.domain.Utente" style="stroke:#181818;stroke-width:1.0;stroke-dasharray:7.0,7.0;"/><polygon fill="none" points="177,50.31,171,68.31,183,68.31,177,50.31" style="stroke:#181818;stroke-width:1.0;"/></g><text fill="#888888" font-family="sans-serif" font-size="10" lengthAdjust="spacing" textLength="184" x="77" y="358.6621">UMLDoclet 2.1.1, PlantUML 1.2023.12</text><!--SRC=[bLDDJy904BtxAoOQ4mYm4SEf8IGaN4n0ZQHUaCDGXhAw7ytkea7alpkqI449mLvsykRDsxUPLm00Jm4CQl8P9ZIa31q6wy1OGnVSXhcS4f3EmX9cajJK_qOrXRbbECSJXTx3PTlBJugQhKuSo0HwCLlWfgCmSotXUSBn3MAHzpKQJ4bpAQPMepINW1xEeuhY2XYDYaBCWrRZCQnoFvjlvGC6cQoXuSb9LC_alBGclkj5eAn9TyJ6Uz69e7y0QqhGsDHXDfV9_K9Fo4Km-0kM4txfsMhiDyJXhjxrQuNLIjcg7zEhxWQkjWCbKblmLALwNDxpFhk-yZ1vfIGmPsAj8ZGbuSYBDbgdtbJZZPiWm_8KSLsaGB9ND-CyxIMXcwQEKWpqP6tO2mHXfgIOERRyOTtRprQrdPBAOt2A80vKsqTiTGf7vuj0-qk8_sMlIFwcSZ1Z2JxYGRzd4yN_rgreYcOT7XMQm2XSRqDMgNu3]--></g></svg>